<svg width="311" height="200" viewBox="0 0 311 200" fill="none" xmlns="http://www.w3.org/2000/svg">
<g opacity="0.25">
<path d="M183.659 6.23871H166.39" stroke="white" stroke-width="1.90244" stroke-miterlimit="10" stroke-linecap="square"/>
<path d="M260.748 6.23871H192.326" stroke="white" stroke-width="1.90244" stroke-miterlimit="10" stroke-linecap="square"/>
<path d="M91.0147 6.23871H157.798H157.817" stroke="white" stroke-width="1.90244" stroke-miterlimit="10" stroke-linecap="square"/>
<path d="M183.64 14.9608H183.659H260.749" stroke="white" stroke-width="1.90244" stroke-miterlimit="10" stroke-linecap="square"/>
<path d="M166.39 14.9527H91.0242" stroke="white" stroke-width="1.90244" stroke-miterlimit="10" stroke-linecap="square"/>
<path d="M157.798 6.23077V6.23947H157.818" stroke="white" stroke-width="1.90244" stroke-miterlimit="10" stroke-linecap="square"/>
<path d="M183.66 14.9527V14.9614H183.64" stroke="white" stroke-width="1.90244" stroke-miterlimit="10" stroke-linecap="square"/>
<path d="M157.807 6.23872V-2.47516" stroke="white" stroke-width="1.90244" stroke-miterlimit="10" stroke-linecap="square"/>
<path d="M192.326 6.23872V-2.47516" stroke="white" stroke-width="1.90244" stroke-miterlimit="10" stroke-linecap="square"/>
<path d="M166.39 14.9526V6.23871" stroke="white" stroke-width="1.90244" stroke-miterlimit="10" stroke-linecap="square"/>
<path d="M183.649 14.9526V6.23871" stroke="white" stroke-width="1.90244" stroke-miterlimit="10" stroke-linecap="square"/>
<path d="M29.2235 6.23871H11.9546" stroke="white" stroke-width="1.90244" stroke-miterlimit="10" stroke-linecap="square"/>
<path d="M106.313 6.23871H37.8911" stroke="white" stroke-width="1.90244" stroke-miterlimit="10" stroke-linecap="square"/>
<path d="M-56.1171 6.23871H3.3722" stroke="white" stroke-width="1.90244" stroke-miterlimit="10" stroke-linecap="square"/>
<path d="M29.214 14.9527H106.313" stroke="white" stroke-width="1.90244" stroke-miterlimit="10" stroke-linecap="square"/>
<path d="M11.9546 14.9527H-56.1171" stroke="white" stroke-width="1.90244" stroke-miterlimit="10" stroke-linecap="square"/>
<path d="M3.37225 6.23077V6.23947" stroke="white" stroke-width="1.90244" stroke-miterlimit="10" stroke-linecap="square"/>
<path d="M29.214 14.9446V14.9533" stroke="white" stroke-width="1.90244" stroke-miterlimit="10" stroke-linecap="square"/>
<path d="M3.37225 6.23872V-2.47516" stroke="white" stroke-width="1.90244" stroke-miterlimit="10" stroke-linecap="square"/>
<path d="M37.8911 6.23872V-2.47516" stroke="white" stroke-width="1.90244" stroke-miterlimit="10" stroke-linecap="square"/>
<path d="M11.9546 14.9526V6.23871" stroke="white" stroke-width="1.90244" stroke-miterlimit="10" stroke-linecap="square"/>
<path d="M29.214 14.9526V6.23871" stroke="white" stroke-width="1.90244" stroke-miterlimit="10" stroke-linecap="square"/>
<path d="M312.811 6.23871H244.389" stroke="white" stroke-width="1.90244" stroke-miterlimit="10" stroke-linecap="square"/>
<path d="M244.389 14.9527H321.479H321.488" stroke="white" stroke-width="1.90244" stroke-miterlimit="10" stroke-linecap="square"/>
<path d="M106.313 93.136H244.389" stroke="white" stroke-width="1.90244" stroke-miterlimit="10" stroke-linecap="square"/>
<path d="M114.896 84.4221H235.712" stroke="white" stroke-width="1.90244" stroke-miterlimit="10" stroke-linecap="square"/>
<path d="M244.389 84.4221H260.749" stroke="white" stroke-width="1.90244" stroke-miterlimit="10" stroke-linecap="square"/>
<path d="M91.0242 84.4221H106.313" stroke="white" stroke-width="1.90244" stroke-miterlimit="10" stroke-linecap="square"/>
<path d="M123.478 75.7162H227.035" stroke="white" stroke-width="1.90244" stroke-miterlimit="10" stroke-linecap="square"/>
<path d="M235.703 75.7162H235.712H260.749" stroke="white" stroke-width="1.90244" stroke-miterlimit="10" stroke-linecap="square"/>
<path d="M114.896 75.7162H114.877H91.0147" stroke="white" stroke-width="1.90244" stroke-miterlimit="10" stroke-linecap="square"/>
<path d="M132.06 67.0024H218.358" stroke="white" stroke-width="1.90244" stroke-miterlimit="10" stroke-linecap="square"/>
<path d="M227.025 67.0024H227.044H260.749" stroke="white" stroke-width="1.90244" stroke-miterlimit="10" stroke-linecap="square"/>
<path d="M91.0242 67.0024H123.478" stroke="white" stroke-width="1.90244" stroke-miterlimit="10" stroke-linecap="square"/>
<path d="M260.748 58.2885H218.358" stroke="white" stroke-width="1.90244" stroke-miterlimit="10" stroke-linecap="square"/>
<path d="M91.0242 58.2885H132.06" stroke="white" stroke-width="1.90244" stroke-miterlimit="10" stroke-linecap="square"/>
<path d="M140.643 58.2885H209.681" stroke="white" stroke-width="1.90244" stroke-miterlimit="10" stroke-linecap="square"/>
<path d="M149.225 49.5746H201.003" stroke="white" stroke-width="1.90244" stroke-miterlimit="10" stroke-linecap="square"/>
<path d="M209.681 49.5746H260.748" stroke="white" stroke-width="1.90244" stroke-miterlimit="10" stroke-linecap="square"/>
<path d="M91.0242 49.5746H140.643" stroke="white" stroke-width="1.90244" stroke-miterlimit="10" stroke-linecap="square"/>
<path d="M201.003 40.8608H260.748" stroke="white" stroke-width="1.90244" stroke-miterlimit="10" stroke-linecap="square"/>
<path d="M91.0147 40.8608H149.216H149.235" stroke="white" stroke-width="1.90244" stroke-miterlimit="10" stroke-linecap="square"/>
<path d="M157.807 40.8608H192.326" stroke="white" stroke-width="1.90244" stroke-miterlimit="10" stroke-linecap="square"/>
<path d="M166.39 32.1468H183.659" stroke="white" stroke-width="1.90244" stroke-miterlimit="10" stroke-linecap="square"/>
<path d="M192.326 32.1468H260.748" stroke="white" stroke-width="1.90244" stroke-miterlimit="10" stroke-linecap="square"/>
<path d="M157.817 32.1468H157.798H91.0147" stroke="white" stroke-width="1.90244" stroke-miterlimit="10" stroke-linecap="square"/>
<path d="M260.749 23.433H183.659H183.64" stroke="white" stroke-width="1.90244" stroke-miterlimit="10" stroke-linecap="square"/>
<path d="M91.0242 23.433H166.39" stroke="white" stroke-width="1.90244" stroke-miterlimit="10" stroke-linecap="square"/>
<path d="M140.643 49.5833V49.5746" stroke="white" stroke-width="1.90244" stroke-miterlimit="10" stroke-linecap="square"/>
<path d="M157.818 32.1468H157.798V32.1555" stroke="white" stroke-width="1.90244" stroke-miterlimit="10" stroke-linecap="square"/>
<path d="M227.035 67.0024H227.045" stroke="white" stroke-width="1.90244" stroke-miterlimit="10" stroke-linecap="square"/>
<path d="M218.358 58.2885H218.368" stroke="white" stroke-width="1.90244" stroke-miterlimit="10" stroke-linecap="square"/>
<path d="M183.64 23.433H183.66V23.4417" stroke="white" stroke-width="1.90244" stroke-miterlimit="10" stroke-linecap="square"/>
<path d="M149.216 40.8695V40.8608H149.236" stroke="white" stroke-width="1.90244" stroke-miterlimit="10" stroke-linecap="square"/>
<path d="M114.886 75.7162H114.896" stroke="white" stroke-width="1.90244" stroke-miterlimit="10" stroke-linecap="square"/>
<path d="M235.712 75.7162H235.722" stroke="white" stroke-width="1.90244" stroke-miterlimit="10" stroke-linecap="square"/>
<path d="M244.389 84.4221V93.136" stroke="white" stroke-width="1.90244" stroke-miterlimit="10" stroke-linecap="square"/>
<path d="M106.304 84.4221V93.136" stroke="white" stroke-width="1.90244" stroke-miterlimit="10" stroke-linecap="square"/>
<path d="M114.886 75.7081V84.422" stroke="white" stroke-width="1.90244" stroke-miterlimit="10" stroke-linecap="square"/>
<path d="M235.712 75.7081V84.422" stroke="white" stroke-width="1.90244" stroke-miterlimit="10" stroke-linecap="square"/>
<path d="M227.035 66.9943V75.7081" stroke="white" stroke-width="1.90244" stroke-miterlimit="10" stroke-linecap="square"/>
<path d="M123.469 66.9943V75.7081" stroke="white" stroke-width="1.90244" stroke-miterlimit="10" stroke-linecap="square"/>
<path d="M132.06 58.2885V66.9943" stroke="white" stroke-width="1.90244" stroke-miterlimit="10" stroke-linecap="square"/>
<path d="M218.358 58.2885V66.9943" stroke="white" stroke-width="1.90244" stroke-miterlimit="10" stroke-linecap="square"/>
<path d="M140.643 49.5746V58.2885" stroke="white" stroke-width="1.90244" stroke-miterlimit="10" stroke-linecap="square"/>
<path d="M209.681 49.5746V58.2885" stroke="white" stroke-width="1.90244" stroke-miterlimit="10" stroke-linecap="square"/>
<path d="M201.003 40.8608V49.5747" stroke="white" stroke-width="1.90244" stroke-miterlimit="10" stroke-linecap="square"/>
<path d="M149.225 40.8608V49.5747" stroke="white" stroke-width="1.90244" stroke-miterlimit="10" stroke-linecap="square"/>
<path d="M157.807 32.1468V40.8607" stroke="white" stroke-width="1.90244" stroke-miterlimit="10" stroke-linecap="square"/>
<path d="M192.326 32.1468V40.8607" stroke="white" stroke-width="1.90244" stroke-miterlimit="10" stroke-linecap="square"/>
<path d="M166.39 23.433V32.1469" stroke="white" stroke-width="1.90244" stroke-miterlimit="10" stroke-linecap="square"/>
<path d="M183.649 23.433V32.1469" stroke="white" stroke-width="1.90244" stroke-miterlimit="10" stroke-linecap="square"/>
<path d="M-48.1221 93.136H89.9536" stroke="white" stroke-width="1.90244" stroke-miterlimit="10" stroke-linecap="square"/>
<path d="M-39.5397 84.4221H81.2766" stroke="white" stroke-width="1.90244" stroke-miterlimit="10" stroke-linecap="square"/>
<path d="M89.9537 84.4221H106.313" stroke="white" stroke-width="1.90244" stroke-miterlimit="10" stroke-linecap="square"/>
<path d="M-30.9573 75.7162H72.5995" stroke="white" stroke-width="1.90244" stroke-miterlimit="10" stroke-linecap="square"/>
<path d="M81.267 75.7162H81.2765H106.313" stroke="white" stroke-width="1.90244" stroke-miterlimit="10" stroke-linecap="square"/>
<path d="M-22.375 67.0024H63.9223" stroke="white" stroke-width="1.90244" stroke-miterlimit="10" stroke-linecap="square"/>
<path d="M72.5995 67.0024H106.313" stroke="white" stroke-width="1.90244" stroke-miterlimit="10" stroke-linecap="square"/>
<path d="M106.313 58.2885H63.9224" stroke="white" stroke-width="1.90244" stroke-miterlimit="10" stroke-linecap="square"/>
<path d="M-13.7924 58.2885H55.2454" stroke="white" stroke-width="1.90244" stroke-miterlimit="10" stroke-linecap="square"/>
<path d="M-5.21008 49.5746H46.5683" stroke="white" stroke-width="1.90244" stroke-miterlimit="10" stroke-linecap="square"/>
<path d="M55.2453 49.5746H106.313" stroke="white" stroke-width="1.90244" stroke-miterlimit="10" stroke-linecap="square"/>
<path d="M46.5682 40.8608H106.313" stroke="white" stroke-width="1.90244" stroke-miterlimit="10" stroke-linecap="square"/>
<path d="M3.37225 40.8608H37.8912" stroke="white" stroke-width="1.90244" stroke-miterlimit="10" stroke-linecap="square"/>
<path d="M11.9546 32.1468H29.2235" stroke="white" stroke-width="1.90244" stroke-miterlimit="10" stroke-linecap="square"/>
<path d="M37.8911 32.1468H106.313" stroke="white" stroke-width="1.90244" stroke-miterlimit="10" stroke-linecap="square"/>
<path d="M3.3722 32.1469L-56.1171 32.1389" stroke="white" stroke-width="1.90244" stroke-miterlimit="10" stroke-linecap="square"/>
<path d="M106.313 23.433H29.214" stroke="white" stroke-width="1.90244" stroke-miterlimit="10" stroke-linecap="square"/>
<path d="M-56.1171 23.4249L11.9546 23.433" stroke="white" stroke-width="1.90244" stroke-miterlimit="10" stroke-linecap="square"/>
<path d="M3.37225 32.1468V32.1555" stroke="white" stroke-width="1.90244" stroke-miterlimit="10" stroke-linecap="square"/>
<path d="M72.5995 67.0024H72.6095" stroke="white" stroke-width="1.90244" stroke-miterlimit="10" stroke-linecap="square"/>
<path d="M63.9224 58.2885H63.9324" stroke="white" stroke-width="1.90244" stroke-miterlimit="10" stroke-linecap="square"/>
<path d="M29.214 23.433V23.4417" stroke="white" stroke-width="1.90244" stroke-miterlimit="10" stroke-linecap="square"/>
<path d="M81.2766 75.7162H81.2866" stroke="white" stroke-width="1.90244" stroke-miterlimit="10" stroke-linecap="square"/>
<path d="M89.9537 84.4221V93.136" stroke="white" stroke-width="1.90244" stroke-miterlimit="10" stroke-linecap="square"/>
<path d="M81.2766 75.7081V84.422" stroke="white" stroke-width="1.90244" stroke-miterlimit="10" stroke-linecap="square"/>
<path d="M72.5995 67.0024V75.7082" stroke="white" stroke-width="1.90244" stroke-miterlimit="10" stroke-linecap="square"/>
<path d="M63.9224 58.2885V67.0023" stroke="white" stroke-width="1.90244" stroke-miterlimit="10" stroke-linecap="square"/>
<path d="M55.2453 49.5746V58.2885" stroke="white" stroke-width="1.90244" stroke-miterlimit="10" stroke-linecap="square"/>
<path d="M46.5682 40.8608V49.5747" stroke="white" stroke-width="1.90244" stroke-miterlimit="10" stroke-linecap="square"/>
<path d="M3.37225 32.1468V40.8607" stroke="white" stroke-width="1.90244" stroke-miterlimit="10" stroke-linecap="square"/>
<path d="M37.8911 32.1468V40.8607" stroke="white" stroke-width="1.90244" stroke-miterlimit="10" stroke-linecap="square"/>
<path d="M11.9546 23.433V32.1469" stroke="white" stroke-width="1.90244" stroke-miterlimit="10" stroke-linecap="square"/>
<path d="M29.214 23.433V32.1469" stroke="white" stroke-width="1.90244" stroke-miterlimit="10" stroke-linecap="square"/>
<path d="M260.749 93.136H398.824" stroke="white" stroke-width="1.90244" stroke-miterlimit="10" stroke-linecap="square"/>
<path d="M269.426 84.4221H390.242" stroke="white" stroke-width="1.90244" stroke-miterlimit="10" stroke-linecap="square"/>
<path d="M244.389 84.4221H260.749" stroke="white" stroke-width="1.90244" stroke-miterlimit="10" stroke-linecap="square"/>
<path d="M278.103 75.7162H381.66" stroke="white" stroke-width="1.90244" stroke-miterlimit="10" stroke-linecap="square"/>
<path d="M244.389 75.7162H269.407H269.416" stroke="white" stroke-width="1.90244" stroke-miterlimit="10" stroke-linecap="square"/>
<path d="M286.78 67.0024H373.077" stroke="white" stroke-width="1.90244" stroke-miterlimit="10" stroke-linecap="square"/>
<path d="M244.389 67.0024H278.093" stroke="white" stroke-width="1.90244" stroke-miterlimit="10" stroke-linecap="square"/>
<path d="M286.78 58.2885H286.761H244.389" stroke="white" stroke-width="1.90244" stroke-miterlimit="10" stroke-linecap="square"/>
<path d="M295.457 58.2885H364.495" stroke="white" stroke-width="1.90244" stroke-miterlimit="10" stroke-linecap="square"/>
<path d="M304.134 49.5746H355.912" stroke="white" stroke-width="1.90244" stroke-miterlimit="10" stroke-linecap="square"/>
<path d="M244.389 49.5746H295.457" stroke="white" stroke-width="1.90244" stroke-miterlimit="10" stroke-linecap="square"/>
<path d="M244.389 40.8608H304.134" stroke="white" stroke-width="1.90244" stroke-miterlimit="10" stroke-linecap="square"/>
<path d="M244.389 32.1468H312.811" stroke="white" stroke-width="1.90244" stroke-miterlimit="10" stroke-linecap="square"/>
<path d="M321.488 23.433H321.479H244.389" stroke="white" stroke-width="1.90244" stroke-miterlimit="10" stroke-linecap="square"/>
<path d="M278.093 67.0024H278.103" stroke="white" stroke-width="1.90244" stroke-miterlimit="10" stroke-linecap="square"/>
<path d="M286.771 58.2885H286.781" stroke="white" stroke-width="1.90244" stroke-miterlimit="10" stroke-linecap="square"/>
<path d="M269.416 75.7162H269.426" stroke="white" stroke-width="1.90244" stroke-miterlimit="10" stroke-linecap="square"/>
<path d="M260.749 84.4221V93.136" stroke="white" stroke-width="1.90244" stroke-miterlimit="10" stroke-linecap="square"/>
<path d="M269.416 75.7081V84.422" stroke="white" stroke-width="1.90244" stroke-miterlimit="10" stroke-linecap="square"/>
<path d="M278.093 67.0024V75.7082" stroke="white" stroke-width="1.90244" stroke-miterlimit="10" stroke-linecap="square"/>
<path d="M286.771 58.2885V67.0023" stroke="white" stroke-width="1.90244" stroke-miterlimit="10" stroke-linecap="square"/>
<path d="M295.448 49.5746V58.2885" stroke="white" stroke-width="1.90244" stroke-miterlimit="10" stroke-linecap="square"/>
<path d="M304.125 40.8608V49.5747" stroke="white" stroke-width="1.90244" stroke-miterlimit="10" stroke-linecap="square"/>
<path d="M244.389 101.987H106.313" stroke="white" stroke-width="1.90244" stroke-miterlimit="10" stroke-linecap="square"/>
<path d="M235.712 110.701H114.896" stroke="white" stroke-width="1.90244" stroke-miterlimit="10" stroke-linecap="square"/>
<path d="M260.749 110.701H244.389" stroke="white" stroke-width="1.90244" stroke-miterlimit="10" stroke-linecap="square"/>
<path d="M106.313 110.701H91.0242" stroke="white" stroke-width="1.90244" stroke-miterlimit="10" stroke-linecap="square"/>
<path d="M227.035 119.406H123.478" stroke="white" stroke-width="1.90244" stroke-miterlimit="10" stroke-linecap="square"/>
<path d="M260.749 119.406H235.712H235.703" stroke="white" stroke-width="1.90244" stroke-miterlimit="10" stroke-linecap="square"/>
<path d="M91.0147 119.406H114.877H114.896" stroke="white" stroke-width="1.90244" stroke-miterlimit="10" stroke-linecap="square"/>
<path d="M218.358 128.12H132.06" stroke="white" stroke-width="1.90244" stroke-miterlimit="10" stroke-linecap="square"/>
<path d="M260.749 128.12H227.044H227.025" stroke="white" stroke-width="1.90244" stroke-miterlimit="10" stroke-linecap="square"/>
<path d="M123.478 128.12H91.0242" stroke="white" stroke-width="1.90244" stroke-miterlimit="10" stroke-linecap="square"/>
<path d="M218.358 136.834H260.748" stroke="white" stroke-width="1.90244" stroke-miterlimit="10" stroke-linecap="square"/>
<path d="M132.06 136.834H91.0242" stroke="white" stroke-width="1.90244" stroke-miterlimit="10" stroke-linecap="square"/>
<path d="M209.681 136.834H140.643" stroke="white" stroke-width="1.90244" stroke-miterlimit="10" stroke-linecap="square"/>
<path d="M201.003 145.548H149.225" stroke="white" stroke-width="1.90244" stroke-miterlimit="10" stroke-linecap="square"/>
<path d="M260.748 145.548H209.681" stroke="white" stroke-width="1.90244" stroke-miterlimit="10" stroke-linecap="square"/>
<path d="M140.643 145.548H91.0242" stroke="white" stroke-width="1.90244" stroke-miterlimit="10" stroke-linecap="square"/>
<path d="M260.748 154.262H201.003" stroke="white" stroke-width="1.90244" stroke-miterlimit="10" stroke-linecap="square"/>
<path d="M149.235 154.262H149.216H91.0147" stroke="white" stroke-width="1.90244" stroke-miterlimit="10" stroke-linecap="square"/>
<path d="M192.326 154.262H157.807" stroke="white" stroke-width="1.90244" stroke-miterlimit="10" stroke-linecap="square"/>
<path d="M183.659 162.976H166.39" stroke="white" stroke-width="1.90244" stroke-miterlimit="10" stroke-linecap="square"/>
<path d="M260.748 162.976H192.326" stroke="white" stroke-width="1.90244" stroke-miterlimit="10" stroke-linecap="square"/>
<path d="M91.0147 162.976H157.798H157.817" stroke="white" stroke-width="1.90244" stroke-miterlimit="10" stroke-linecap="square"/>
<path d="M183.64 171.69H183.659H260.749" stroke="white" stroke-width="1.90244" stroke-miterlimit="10" stroke-linecap="square"/>
<path d="M166.39 171.69H91.0242" stroke="white" stroke-width="1.90244" stroke-miterlimit="10" stroke-linecap="square"/>
<path d="M140.643 145.549V145.54" stroke="white" stroke-width="1.90244" stroke-miterlimit="10" stroke-linecap="square"/>
<path d="M157.798 162.968V162.976H157.818" stroke="white" stroke-width="1.90244" stroke-miterlimit="10" stroke-linecap="square"/>
<path d="M227.045 128.12H227.035" stroke="white" stroke-width="1.90244" stroke-miterlimit="10" stroke-linecap="square"/>
<path d="M218.368 136.834H218.358" stroke="white" stroke-width="1.90244" stroke-miterlimit="10" stroke-linecap="square"/>
<path d="M183.66 171.682V171.69H183.64" stroke="white" stroke-width="1.90244" stroke-miterlimit="10" stroke-linecap="square"/>
<path d="M149.236 154.262H149.216V154.254" stroke="white" stroke-width="1.90244" stroke-miterlimit="10" stroke-linecap="square"/>
<path d="M114.896 119.406H114.886" stroke="white" stroke-width="1.90244" stroke-miterlimit="10" stroke-linecap="square"/>
<path d="M235.722 119.406H235.712" stroke="white" stroke-width="1.90244" stroke-miterlimit="10" stroke-linecap="square"/>
<path d="M244.389 110.701V101.987" stroke="white" stroke-width="1.90244" stroke-miterlimit="10" stroke-linecap="square"/>
<path d="M106.304 110.701V101.987" stroke="white" stroke-width="1.90244" stroke-miterlimit="10" stroke-linecap="square"/>
<path d="M114.886 119.406V110.701" stroke="white" stroke-width="1.90244" stroke-miterlimit="10" stroke-linecap="square"/>
<path d="M235.712 119.406V110.701" stroke="white" stroke-width="1.90244" stroke-miterlimit="10" stroke-linecap="square"/>
<path d="M227.035 128.12V119.406" stroke="white" stroke-width="1.90244" stroke-miterlimit="10" stroke-linecap="square"/>
<path d="M123.469 128.12V119.406" stroke="white" stroke-width="1.90244" stroke-miterlimit="10" stroke-linecap="square"/>
<path d="M132.06 136.834V128.12" stroke="white" stroke-width="1.90244" stroke-miterlimit="10" stroke-linecap="square"/>
<path d="M218.358 136.834V128.12" stroke="white" stroke-width="1.90244" stroke-miterlimit="10" stroke-linecap="square"/>
<path d="M140.643 145.548V136.834" stroke="white" stroke-width="1.90244" stroke-miterlimit="10" stroke-linecap="square"/>
<path d="M209.681 145.548V136.834" stroke="white" stroke-width="1.90244" stroke-miterlimit="10" stroke-linecap="square"/>
<path d="M201.003 154.262V145.548" stroke="white" stroke-width="1.90244" stroke-miterlimit="10" stroke-linecap="square"/>
<path d="M149.225 154.262V145.548" stroke="white" stroke-width="1.90244" stroke-miterlimit="10" stroke-linecap="square"/>
<path d="M157.807 162.976V154.262" stroke="white" stroke-width="1.90244" stroke-miterlimit="10" stroke-linecap="square"/>
<path d="M192.326 162.976V154.262" stroke="white" stroke-width="1.90244" stroke-miterlimit="10" stroke-linecap="square"/>
<path d="M166.39 171.69V162.976" stroke="white" stroke-width="1.90244" stroke-miterlimit="10" stroke-linecap="square"/>
<path d="M183.649 171.69V162.976" stroke="white" stroke-width="1.90244" stroke-miterlimit="10" stroke-linecap="square"/>
<path d="M89.9536 101.987H-48.1221" stroke="white" stroke-width="1.90244" stroke-miterlimit="10" stroke-linecap="square"/>
<path d="M81.2766 110.701H-39.5397" stroke="white" stroke-width="1.90244" stroke-miterlimit="10" stroke-linecap="square"/>
<path d="M106.313 110.701H89.9537" stroke="white" stroke-width="1.90244" stroke-miterlimit="10" stroke-linecap="square"/>
<path d="M72.5995 119.406H-30.9573" stroke="white" stroke-width="1.90244" stroke-miterlimit="10" stroke-linecap="square"/>
<path d="M106.313 119.406H81.2765H81.267" stroke="white" stroke-width="1.90244" stroke-miterlimit="10" stroke-linecap="square"/>
<path d="M63.9223 128.12H-22.375" stroke="white" stroke-width="1.90244" stroke-miterlimit="10" stroke-linecap="square"/>
<path d="M106.313 128.12H72.5995" stroke="white" stroke-width="1.90244" stroke-miterlimit="10" stroke-linecap="square"/>
<path d="M63.9224 136.834H106.313" stroke="white" stroke-width="1.90244" stroke-miterlimit="10" stroke-linecap="square"/>
<path d="M55.2454 136.834H-13.7924" stroke="white" stroke-width="1.90244" stroke-miterlimit="10" stroke-linecap="square"/>
<path d="M46.5683 145.548H-5.21008" stroke="white" stroke-width="1.90244" stroke-miterlimit="10" stroke-linecap="square"/>
<path d="M106.313 145.548H55.2453" stroke="white" stroke-width="1.90244" stroke-miterlimit="10" stroke-linecap="square"/>
<path d="M106.313 154.262H46.5682" stroke="white" stroke-width="1.90244" stroke-miterlimit="10" stroke-linecap="square"/>
<path d="M37.8912 154.262H3.37225" stroke="white" stroke-width="1.90244" stroke-miterlimit="10" stroke-linecap="square"/>
<path d="M29.2235 162.976H11.9546" stroke="white" stroke-width="1.90244" stroke-miterlimit="10" stroke-linecap="square"/>
<path d="M106.313 162.976H37.8911" stroke="white" stroke-width="1.90244" stroke-miterlimit="10" stroke-linecap="square"/>
<path d="M-56.1171 162.968L3.3722 162.976" stroke="white" stroke-width="1.90244" stroke-miterlimit="10" stroke-linecap="square"/>
<path d="M29.214 171.69H106.313" stroke="white" stroke-width="1.90244" stroke-miterlimit="10" stroke-linecap="square"/>
<path d="M11.9546 171.69L-56.1171 171.682" stroke="white" stroke-width="1.90244" stroke-miterlimit="10" stroke-linecap="square"/>
<path d="M3.37225 162.968V162.976" stroke="white" stroke-width="1.90244" stroke-miterlimit="10" stroke-linecap="square"/>
<path d="M72.6095 128.12H72.5995" stroke="white" stroke-width="1.90244" stroke-miterlimit="10" stroke-linecap="square"/>
<path d="M63.9324 136.834H63.9224" stroke="white" stroke-width="1.90244" stroke-miterlimit="10" stroke-linecap="square"/>
<path d="M29.214 171.682V171.69" stroke="white" stroke-width="1.90244" stroke-miterlimit="10" stroke-linecap="square"/>
<path d="M81.2866 119.406H81.2766" stroke="white" stroke-width="1.90244" stroke-miterlimit="10" stroke-linecap="square"/>
<path d="M89.9537 110.693V101.987" stroke="white" stroke-width="1.90244" stroke-miterlimit="10" stroke-linecap="square"/>
<path d="M81.2766 119.406V110.693" stroke="white" stroke-width="1.90244" stroke-miterlimit="10" stroke-linecap="square"/>
<path d="M72.5995 128.12V119.406" stroke="white" stroke-width="1.90244" stroke-miterlimit="10" stroke-linecap="square"/>
<path d="M63.9224 136.834V128.12" stroke="white" stroke-width="1.90244" stroke-miterlimit="10" stroke-linecap="square"/>
<path d="M55.2453 145.548V136.834" stroke="white" stroke-width="1.90244" stroke-miterlimit="10" stroke-linecap="square"/>
<path d="M46.5682 154.262V145.548" stroke="white" stroke-width="1.90244" stroke-miterlimit="10" stroke-linecap="square"/>
<path d="M3.37225 162.976V154.262" stroke="white" stroke-width="1.90244" stroke-miterlimit="10" stroke-linecap="square"/>
<path d="M37.8911 162.976V154.262" stroke="white" stroke-width="1.90244" stroke-miterlimit="10" stroke-linecap="square"/>
<path d="M11.9546 171.682V162.976" stroke="white" stroke-width="1.90244" stroke-miterlimit="10" stroke-linecap="square"/>
<path d="M29.214 171.682V162.976" stroke="white" stroke-width="1.90244" stroke-miterlimit="10" stroke-linecap="square"/>
<path d="M398.824 101.987H260.749" stroke="white" stroke-width="1.90244" stroke-miterlimit="10" stroke-linecap="square"/>
<path d="M390.242 110.701H269.426" stroke="white" stroke-width="1.90244" stroke-miterlimit="10" stroke-linecap="square"/>
<path d="M260.749 110.701H244.389" stroke="white" stroke-width="1.90244" stroke-miterlimit="10" stroke-linecap="square"/>
<path d="M381.66 119.406H278.103" stroke="white" stroke-width="1.90244" stroke-miterlimit="10" stroke-linecap="square"/>
<path d="M269.416 119.406H269.407H244.389" stroke="white" stroke-width="1.90244" stroke-miterlimit="10" stroke-linecap="square"/>
<path d="M373.077 128.12H286.78" stroke="white" stroke-width="1.90244" stroke-miterlimit="10" stroke-linecap="square"/>
<path d="M278.093 128.12H244.389" stroke="white" stroke-width="1.90244" stroke-miterlimit="10" stroke-linecap="square"/>
<path d="M244.389 136.834H286.761H286.78" stroke="white" stroke-width="1.90244" stroke-miterlimit="10" stroke-linecap="square"/>
<path d="M364.495 136.834H295.457" stroke="white" stroke-width="1.90244" stroke-miterlimit="10" stroke-linecap="square"/>
<path d="M355.912 145.548H304.134" stroke="white" stroke-width="1.90244" stroke-miterlimit="10" stroke-linecap="square"/>
<path d="M295.457 145.548H244.389" stroke="white" stroke-width="1.90244" stroke-miterlimit="10" stroke-linecap="square"/>
<path d="M304.134 154.262H244.389" stroke="white" stroke-width="1.90244" stroke-miterlimit="10" stroke-linecap="square"/>
<path d="M312.811 162.976H244.389" stroke="white" stroke-width="1.90244" stroke-miterlimit="10" stroke-linecap="square"/>
<path d="M244.389 171.69H321.479H321.488" stroke="white" stroke-width="1.90244" stroke-miterlimit="10" stroke-linecap="square"/>
<path d="M278.103 128.12H278.093" stroke="white" stroke-width="1.90244" stroke-miterlimit="10" stroke-linecap="square"/>
<path d="M286.781 136.834H286.771" stroke="white" stroke-width="1.90244" stroke-miterlimit="10" stroke-linecap="square"/>
<path d="M269.426 119.406H269.416" stroke="white" stroke-width="1.90244" stroke-miterlimit="10" stroke-linecap="square"/>
<path d="M260.749 110.693V101.987" stroke="white" stroke-width="1.90244" stroke-miterlimit="10" stroke-linecap="square"/>
<path d="M269.416 119.406V110.693" stroke="white" stroke-width="1.90244" stroke-miterlimit="10" stroke-linecap="square"/>
<path d="M278.093 128.12V119.406" stroke="white" stroke-width="1.90244" stroke-miterlimit="10" stroke-linecap="square"/>
<path d="M286.771 136.834V128.12" stroke="white" stroke-width="1.90244" stroke-miterlimit="10" stroke-linecap="square"/>
<path d="M295.448 145.548V136.834" stroke="white" stroke-width="1.90244" stroke-miterlimit="10" stroke-linecap="square"/>
<path d="M304.125 154.262V145.548" stroke="white" stroke-width="1.90244" stroke-miterlimit="10" stroke-linecap="square"/>
<path d="M201.003 197.59H260.748" stroke="white" stroke-width="1.90244" stroke-miterlimit="10" stroke-linecap="square"/>
<path d="M91.0147 197.59H149.216H149.235" stroke="white" stroke-width="1.90244" stroke-miterlimit="10" stroke-linecap="square"/>
<path d="M157.807 197.59H192.326" stroke="white" stroke-width="1.90244" stroke-miterlimit="10" stroke-linecap="square"/>
<path d="M166.39 188.876H183.659" stroke="white" stroke-width="1.90244" stroke-miterlimit="10" stroke-linecap="square"/>
<path d="M192.326 188.876H260.748" stroke="white" stroke-width="1.90244" stroke-miterlimit="10" stroke-linecap="square"/>
<path d="M157.817 188.876H157.798H91.0147" stroke="white" stroke-width="1.90244" stroke-miterlimit="10" stroke-linecap="square"/>
<path d="M260.749 180.162H183.659H183.64" stroke="white" stroke-width="1.90244" stroke-miterlimit="10" stroke-linecap="square"/>
<path d="M91.0242 180.162H166.39" stroke="white" stroke-width="1.90244" stroke-miterlimit="10" stroke-linecap="square"/>
<path d="M157.818 188.876H157.798V188.885" stroke="white" stroke-width="1.90244" stroke-miterlimit="10" stroke-linecap="square"/>
<path d="M183.64 180.162H183.66V180.171" stroke="white" stroke-width="1.90244" stroke-miterlimit="10" stroke-linecap="square"/>
<path d="M149.216 197.598V197.59H149.236" stroke="white" stroke-width="1.90244" stroke-miterlimit="10" stroke-linecap="square"/>
<path d="M201.003 197.59V206.304" stroke="white" stroke-width="1.90244" stroke-miterlimit="10" stroke-linecap="square"/>
<path d="M149.225 197.59V206.304" stroke="white" stroke-width="1.90244" stroke-miterlimit="10" stroke-linecap="square"/>
<path d="M157.807 188.876V197.59" stroke="white" stroke-width="1.90244" stroke-miterlimit="10" stroke-linecap="square"/>
<path d="M192.326 188.876V197.59" stroke="white" stroke-width="1.90244" stroke-miterlimit="10" stroke-linecap="square"/>
<path d="M166.39 180.17V188.876" stroke="white" stroke-width="1.90244" stroke-miterlimit="10" stroke-linecap="square"/>
<path d="M183.649 180.17V188.876" stroke="white" stroke-width="1.90244" stroke-miterlimit="10" stroke-linecap="square"/>
<path d="M46.5682 197.59H106.313" stroke="white" stroke-width="1.90244" stroke-miterlimit="10" stroke-linecap="square"/>
<path d="M3.37225 197.59H37.8912" stroke="white" stroke-width="1.90244" stroke-miterlimit="10" stroke-linecap="square"/>
<path d="M11.9546 188.876H29.2235" stroke="white" stroke-width="1.90244" stroke-miterlimit="10" stroke-linecap="square"/>
<path d="M37.8911 188.876H106.313" stroke="white" stroke-width="1.90244" stroke-miterlimit="10" stroke-linecap="square"/>
<path d="M3.3722 188.876H-56.1171" stroke="white" stroke-width="1.90244" stroke-miterlimit="10" stroke-linecap="square"/>
<path d="M106.313 180.162H29.214" stroke="white" stroke-width="1.90244" stroke-miterlimit="10" stroke-linecap="square"/>
<path d="M-56.1171 180.162H11.9546" stroke="white" stroke-width="1.90244" stroke-miterlimit="10" stroke-linecap="square"/>
<path d="M3.37225 188.876V188.885" stroke="white" stroke-width="1.90244" stroke-miterlimit="10" stroke-linecap="square"/>
<path d="M29.214 180.162V180.171" stroke="white" stroke-width="1.90244" stroke-miterlimit="10" stroke-linecap="square"/>
<path d="M46.5682 197.598V206.304" stroke="white" stroke-width="1.90244" stroke-miterlimit="10" stroke-linecap="square"/>
<path d="M3.37225 188.884V197.598" stroke="white" stroke-width="1.90244" stroke-miterlimit="10" stroke-linecap="square"/>
<path d="M37.8911 188.884V197.598" stroke="white" stroke-width="1.90244" stroke-miterlimit="10" stroke-linecap="square"/>
<path d="M11.9546 180.17V188.884" stroke="white" stroke-width="1.90244" stroke-miterlimit="10" stroke-linecap="square"/>
<path d="M29.214 180.17V188.884" stroke="white" stroke-width="1.90244" stroke-miterlimit="10" stroke-linecap="square"/>
<path d="M244.389 197.59H304.134" stroke="white" stroke-width="1.90244" stroke-miterlimit="10" stroke-linecap="square"/>
<path d="M244.389 188.876H312.811" stroke="white" stroke-width="1.90244" stroke-miterlimit="10" stroke-linecap="square"/>
<path d="M321.488 180.162H321.479H244.389" stroke="white" stroke-width="1.90244" stroke-miterlimit="10" stroke-linecap="square"/>
<path d="M304.125 197.598V206.304" stroke="white" stroke-width="1.90244" stroke-miterlimit="10" stroke-linecap="square"/>
</g>
</svg>
