<svg width="641" height="641" viewBox="0 0 641 641" fill="none" xmlns="http://www.w3.org/2000/svg">
<g clip-path="url(#clip0_47_38)">
<path opacity="0.982" fill-rule="evenodd" clip-rule="evenodd" d="M10.7723 -0.0891113C13.0277 -0.0891113 15.283 -0.0891113 17.5384 -0.0891113C18.2332 1.24069 18.9749 2.54643 19.7641 3.82811C20.4752 2.49645 21.2172 1.19071 21.9898 -0.0891113C24.1857 -0.0891113 26.3819 -0.0891113 28.5778 -0.0891113C26.8097 3.17924 24.9699 6.41392 23.0581 9.61492C27.0428 16.3671 30.96 23.1628 34.8098 30.0023C26.916 30.121 19.0221 30.2396 11.1284 30.3584C8.88102 34.3491 6.5663 38.2961 4.18422 42.1991C21.3372 42.3474 38.4898 42.3178 55.6423 42.1101C47.5539 28.0097 39.4228 13.9433 31.2487 -0.0891113C33.5041 -0.0891113 35.7593 -0.0891113 38.0148 -0.0891113C42.6565 8.0663 47.3452 16.1975 52.0812 24.3045C64.6638 24.5418 77.2463 24.5418 89.8289 24.3045C94.4748 16.1393 99.1637 8.00813 103.895 -0.0891113C106.091 -0.0891113 108.287 -0.0891113 110.483 -0.0891113C105.84 8.08862 101.151 16.2495 96.417 24.3935C100.988 24.5418 105.558 24.5121 110.127 24.3045C113.973 17.4659 117.92 10.6998 121.968 4.00617C122.506 4.42773 122.921 4.9619 123.214 5.60867C126.805 11.8406 130.396 18.0726 133.987 24.3045C138.615 24.5123 143.245 24.5418 147.875 24.3935C143.102 16.2423 138.354 8.08147 133.631 -0.0891113C135.886 -0.0891113 138.141 -0.0891113 140.397 -0.0891113C141.091 1.24069 141.833 2.54643 142.622 3.82811C143.334 2.49645 144.076 1.19071 144.848 -0.0891113C147.044 -0.0891113 149.24 -0.0891113 151.436 -0.0891113C149.668 3.17924 147.828 6.41392 145.916 9.61492C149.901 16.3671 153.818 23.1628 157.668 30.0023C149.774 30.121 141.88 30.2396 133.987 30.3584C131.739 34.3491 129.425 38.2961 127.043 42.1991C144.196 42.3474 161.348 42.3178 178.501 42.1101C170.412 28.0097 162.281 13.9433 154.107 -0.0891113C156.362 -0.0891113 158.618 -0.0891113 160.873 -0.0891113C165.515 8.0663 170.204 16.1975 174.939 24.3045C187.523 24.5418 200.104 24.5418 212.687 24.3045C217.333 16.1393 222.023 8.00813 226.754 -0.0891113C228.949 -0.0891113 231.146 -0.0891113 233.342 -0.0891113C228.698 8.08862 224.01 16.2495 219.275 24.3935C223.846 24.5418 228.417 24.5121 232.986 24.3045C236.832 17.4659 240.777 10.6998 244.826 4.00617C245.364 4.42773 245.779 4.9619 246.073 5.60867C249.664 11.8406 253.254 18.0726 256.845 24.3045C261.473 24.5123 266.102 24.5418 270.733 24.3935C265.961 16.2423 261.213 8.08147 256.489 -0.0891113C258.745 -0.0891113 260.999 -0.0891113 263.255 -0.0891113C263.949 1.24069 264.692 2.54643 265.481 3.82811C266.191 2.49645 266.934 1.19071 267.706 -0.0891113C269.902 -0.0891113 272.099 -0.0891113 274.294 -0.0891113C272.526 3.17924 270.687 6.41392 268.775 9.61492C272.76 16.3671 276.677 23.1628 280.526 30.0023C272.633 30.121 264.738 30.2396 256.845 30.3584C254.598 34.3491 252.283 38.2961 249.901 42.1991C267.055 42.3474 284.207 42.3178 301.359 42.1101C293.27 28.0097 285.14 13.9433 276.965 -0.0891113C279.221 -0.0891113 281.475 -0.0891113 283.731 -0.0891113C288.373 8.0663 293.062 16.1975 297.798 24.3045C310.381 24.5418 322.962 24.5418 335.546 24.3045C340.191 16.1393 344.881 8.00813 349.612 -0.0891113C351.807 -0.0891113 354.005 -0.0891113 356.2 -0.0891113C351.556 8.08862 346.868 16.2495 342.134 24.3935C346.704 24.5418 351.275 24.5121 355.844 24.3045C359.69 17.4659 363.636 10.6998 367.685 4.00617C368.222 4.42773 368.637 4.9619 368.931 5.60867C372.522 11.8406 376.112 18.0726 379.703 24.3045C384.331 24.5123 388.96 24.5418 393.592 24.3935C388.82 16.2423 384.071 8.08147 379.347 -0.0891113C381.603 -0.0891113 383.857 -0.0891113 386.113 -0.0891113C386.808 1.24069 387.55 2.54643 388.339 3.82811C389.05 2.49645 389.792 1.19071 390.565 -0.0891113C392.76 -0.0891113 394.957 -0.0891113 397.153 -0.0891113C395.385 3.17924 393.545 6.41392 391.633 9.61492C395.618 16.3671 399.535 23.1628 403.385 30.0023C395.492 30.121 387.597 30.2396 379.703 30.3584C377.456 34.3491 375.142 38.2961 372.759 42.1991C389.913 42.3474 407.065 42.3178 424.217 42.1101C416.128 28.0097 407.998 13.9433 399.824 -0.0891113C402.08 -0.0891113 404.334 -0.0891113 406.59 -0.0891113C411.232 8.0663 415.92 16.1975 420.656 24.3045C433.239 24.5418 445.821 24.5418 458.404 24.3045C463.049 16.1393 467.739 8.00813 472.47 -0.0891113C474.666 -0.0891113 476.863 -0.0891113 479.058 -0.0891113C474.415 8.08862 469.726 16.2495 464.992 24.3935C469.563 24.5418 474.133 24.5121 478.702 24.3045C482.548 17.4659 486.494 10.6998 490.543 4.00617C491.081 4.42773 491.496 4.9619 491.789 5.60867C495.381 11.8406 498.97 18.0726 502.562 24.3045C507.189 24.5123 511.819 24.5418 516.45 24.3935C511.678 16.2423 506.929 8.08147 502.206 -0.0891113C504.462 -0.0891113 506.716 -0.0891113 508.972 -0.0891113C509.666 1.24069 510.409 2.54643 511.197 3.82811C511.908 2.49645 512.65 1.19071 513.423 -0.0891113C515.619 -0.0891113 517.816 -0.0891113 520.011 -0.0891113C518.243 3.17924 516.404 6.41392 514.491 9.61492C518.476 16.3671 522.394 23.1628 526.243 30.0023C518.35 30.121 510.455 30.2396 502.562 30.3584C500.315 34.3491 498 38.2961 495.618 42.1991C512.771 42.3474 529.924 42.3178 547.076 42.1101C538.987 28.0097 530.857 13.9433 522.682 -0.0891113C524.938 -0.0891113 527.192 -0.0891113 529.448 -0.0891113C534.09 8.0663 538.778 16.1975 543.514 24.3045C556.098 24.5418 568.679 24.5418 581.262 24.3045C585.908 16.1393 590.598 8.00813 595.329 -0.0891113C597.524 -0.0891113 599.721 -0.0891113 601.917 -0.0891113C597.273 8.08862 592.585 16.2495 587.85 24.3935C592.421 24.5418 596.992 24.5121 601.561 24.3045C605.407 17.4659 609.352 10.6998 613.401 4.00617C613.939 4.42773 614.354 4.9619 614.648 5.60867C618.239 11.8406 621.829 18.0726 625.42 24.3045C630.048 24.5123 634.677 24.5418 639.308 24.3935C634.536 16.2423 629.788 8.08147 625.064 -0.0891113C627.32 -0.0891113 629.574 -0.0891113 631.83 -0.0891113C632.524 1.24069 633.267 2.54643 634.056 3.82811C634.766 2.49645 635.509 1.19071 636.281 -0.0891113C637.825 -0.0891113 639.367 -0.0891113 640.911 -0.0891113C640.911 1.15728 640.911 2.40367 640.911 3.65006C639.7 5.60803 638.512 7.5963 637.35 9.61492C638.512 11.6335 639.7 13.6218 640.911 15.5798C640.911 20.4466 640.911 25.3135 640.911 30.1803C635.745 30.121 630.582 30.1803 625.42 30.3584C623.173 34.3491 620.858 38.2961 618.476 42.1991C625.954 42.2881 633.433 42.3178 640.911 42.2881C640.911 44.1874 640.911 46.0866 640.911 47.9859C640.247 47.9284 639.595 47.9878 638.952 48.1639C639.52 49.3031 640.174 50.3715 640.911 51.3689C640.911 56.1764 640.911 60.9839 640.911 65.7914C628.922 65.7617 616.932 65.7914 604.944 65.8805C598.665 76.6562 592.433 87.4583 586.248 98.2866C592.457 109.13 598.689 119.962 604.944 130.782C616.932 130.96 628.921 131.019 640.911 130.96C640.911 132.859 640.911 134.758 640.911 136.658C630.049 136.628 619.188 136.658 608.327 136.747C610.597 140.693 612.912 144.61 615.271 148.498C623.166 148.528 631.059 148.617 638.952 148.765C635.012 155.549 631.095 162.345 627.201 169.153C629.412 173.203 631.697 177.209 634.056 181.171C636.394 177.148 638.678 173.112 640.911 169.064C640.911 173.04 640.911 177.017 640.911 180.993C638.66 184.663 636.493 188.402 634.412 192.211C634.289 192.364 634.141 192.482 633.967 192.567C629.978 185.847 626.061 179.081 622.215 172.269C617.587 172.061 612.958 172.031 608.327 172.18C616.881 187.003 625.457 201.812 634.056 216.604C636.317 212.657 638.602 208.74 640.911 204.853C640.911 208.711 640.911 212.568 640.911 216.426C639.752 218.419 638.564 220.406 637.35 222.391C638.475 224.435 639.661 226.422 640.911 228.356C640.911 233.283 640.911 238.208 640.911 243.135C635.747 243.105 630.584 243.135 625.42 243.224C623.143 247.097 620.887 250.983 618.654 254.886C626.072 255.064 633.491 255.123 640.911 255.064C640.911 256.964 640.911 258.862 640.911 260.762C640.197 260.732 639.485 260.762 638.774 260.851C639.513 262.005 640.225 263.162 640.911 264.323C640.911 269.072 640.911 273.819 640.911 278.568C628.921 278.509 616.932 278.568 604.944 278.746C598.673 289.556 592.441 300.389 586.248 311.241C592.457 322.085 598.689 332.916 604.944 343.736C616.932 343.914 628.921 343.973 640.911 343.914C640.911 345.814 640.911 347.712 640.911 349.612C630.049 349.582 619.188 349.612 608.327 349.701C610.597 353.647 612.912 357.564 615.271 361.453C623.166 361.483 631.059 361.572 638.952 361.72C635.012 368.504 631.095 375.3 627.201 382.107C629.412 386.158 631.697 390.164 634.056 394.126C636.394 390.102 638.678 386.065 640.911 382.018C640.911 385.994 640.911 389.972 640.911 393.948C638.66 397.618 636.493 401.357 634.412 405.165C634.289 405.318 634.141 405.436 633.967 405.521C629.978 398.802 626.061 392.036 622.215 385.223C617.587 385.015 612.958 384.986 608.327 385.134C616.881 399.957 625.457 414.766 634.056 429.559C636.317 425.611 638.602 421.694 640.911 417.807C640.911 421.666 640.911 425.522 640.911 429.381C639.752 431.373 638.564 433.36 637.35 435.346C638.475 437.39 639.661 439.377 640.911 441.311C640.911 446.237 640.911 451.162 640.911 456.089C635.747 456.059 630.584 456.089 625.42 456.178C623.143 460.051 620.887 463.938 618.654 467.841C626.072 468.019 633.491 468.078 640.911 468.019C640.911 469.919 640.911 471.817 640.911 473.717C640.197 473.686 639.485 473.717 638.774 473.806C639.513 474.96 640.225 476.117 640.911 477.278C640.911 482.027 640.911 486.774 640.911 491.522C628.921 491.464 616.932 491.522 604.944 491.7C598.712 502.503 592.48 513.304 586.248 524.106C592.48 534.909 598.712 545.71 604.944 556.513C616.932 556.691 628.921 556.749 640.911 556.691C640.911 558.59 640.911 560.489 640.911 562.388C630.049 562.358 619.188 562.388 608.327 562.477C610.641 566.453 612.956 570.431 615.271 574.407C623.164 574.466 631.059 574.526 638.952 574.585C634.96 581.367 631.043 588.192 627.201 595.062C629.417 599.05 631.702 602.996 634.056 606.902C636.397 602.871 638.682 598.835 640.911 594.794C640.911 598.831 640.911 602.866 640.911 606.902C638.63 610.748 636.346 614.607 634.056 618.476C630.064 611.738 626.116 604.972 622.215 598.178C617.587 597.969 612.958 597.941 608.327 598.089C616.645 612.324 624.897 626.599 633.076 640.911C630.82 640.911 628.566 640.911 626.31 640.911C622.162 633.443 617.917 626.025 613.579 618.654C609.274 626.077 604.97 633.497 600.67 640.911C598.475 640.911 596.278 640.911 594.082 640.911C595.857 637.599 597.727 634.334 599.691 631.118C599.81 630.881 599.81 630.642 599.691 630.406C593.489 619.664 587.286 608.92 581.084 598.178C568.519 597.941 555.966 597.941 543.425 598.178C537.199 608.937 530.997 619.71 524.819 630.495C526.756 633.983 528.715 637.455 530.694 640.911C528.439 640.911 526.184 640.911 523.928 640.911C523.147 639.408 522.315 637.925 521.436 636.459C520.499 637.92 519.609 639.403 518.765 640.911C516.569 640.911 514.372 640.911 512.177 640.911C520.285 626.627 528.476 612.383 536.748 598.178C532.137 597.941 527.538 597.941 522.949 598.178C519.032 604.944 515.115 611.71 511.197 618.476C507.205 611.738 503.258 604.972 499.357 598.178C494.729 597.969 490.1 597.941 485.468 598.089C493.787 612.324 502.038 626.599 510.218 640.911C507.962 640.911 505.708 640.911 503.452 640.911C499.303 633.443 495.058 626.025 490.721 618.654C486.416 626.077 482.112 633.497 477.812 640.911C475.617 640.911 473.419 640.911 471.224 640.911C472.999 637.599 474.869 634.334 476.833 631.118C476.952 630.881 476.952 630.642 476.833 630.406C470.631 619.664 464.428 608.92 458.226 598.178C445.661 597.941 433.108 597.941 420.567 598.178C414.341 608.937 408.139 619.71 401.96 630.495C403.898 633.983 405.856 637.455 407.836 640.911C405.58 640.911 403.326 640.911 401.07 640.911C400.288 639.408 399.457 637.925 398.577 636.459C397.641 637.92 396.75 639.403 395.906 640.911C393.711 640.911 391.514 640.911 389.318 640.911C397.427 626.627 405.618 612.383 413.89 598.178C409.278 597.941 404.679 597.941 400.091 598.178C396.174 604.944 392.256 611.71 388.339 618.476C384.347 611.738 380.4 604.972 376.498 598.178C371.871 597.969 367.241 597.941 362.61 598.089C370.929 612.324 379.18 626.599 387.36 640.911C385.104 640.911 382.85 640.911 380.594 640.911C376.445 633.443 372.2 626.025 367.863 618.654C363.557 626.077 359.254 633.497 354.954 640.911C352.758 640.911 350.561 640.911 348.366 640.911C350.141 637.599 352.01 634.334 353.974 631.118C354.094 630.881 354.094 630.642 353.974 630.406C347.773 619.664 341.569 608.92 335.368 598.178C322.802 597.941 310.249 597.941 297.709 598.178C291.482 608.937 285.281 619.71 279.102 630.495C281.039 633.983 282.998 637.455 284.978 640.911C282.722 640.911 280.468 640.911 278.212 640.911C277.43 639.408 276.599 637.925 275.719 636.459C274.782 637.92 273.892 639.403 273.048 640.911C270.853 640.911 268.655 640.911 266.46 640.911C274.569 626.627 282.759 612.383 291.032 598.178C286.42 597.941 281.821 597.941 277.232 598.178C273.315 604.944 269.398 611.71 265.481 618.476C261.489 611.738 257.541 604.972 253.64 598.178C249.012 597.969 244.383 597.941 239.752 598.089C248.07 612.324 256.322 626.599 264.501 640.911C262.245 640.911 259.991 640.911 257.735 640.911C253.587 633.443 249.342 626.025 245.004 618.654C240.699 626.077 236.395 633.497 232.095 640.911C229.9 640.911 227.703 640.911 225.507 640.911C227.282 637.599 229.152 634.334 231.116 631.118C231.235 630.881 231.235 630.642 231.116 630.406C224.914 619.664 218.711 608.92 212.509 598.178C199.944 597.941 187.391 597.941 174.85 598.178C168.624 608.937 162.422 619.71 156.244 630.495C158.181 633.983 160.139 637.455 162.119 640.911C159.864 640.911 157.609 640.911 155.353 640.911C154.572 639.408 153.741 637.925 152.861 636.459C151.924 637.92 151.033 639.403 150.19 640.911C147.994 640.911 145.798 640.911 143.602 640.911C151.711 626.627 159.902 612.383 168.173 598.178C163.562 597.941 158.962 597.941 154.374 598.178C150.457 604.944 146.54 611.71 142.622 618.476C138.631 611.738 134.684 604.972 130.782 598.178C126.153 597.969 121.524 597.941 116.893 598.089C125.213 612.324 133.463 626.599 141.643 640.911C139.388 640.911 137.132 640.911 134.877 640.911C130.728 633.443 126.484 626.025 122.146 618.654C117.841 626.077 113.538 633.497 109.237 640.911C107.041 640.911 104.845 640.911 102.649 640.911C104.424 637.599 106.294 634.334 108.258 631.118C108.376 630.881 108.376 630.642 108.258 630.406C102.055 619.664 95.8531 608.92 89.6509 598.178C77.0859 597.941 64.5329 597.941 51.9921 598.178C45.7661 608.937 39.5639 619.71 33.3853 630.495C35.3222 633.983 37.2808 637.455 39.2612 640.911C37.0057 640.911 34.7505 640.911 32.4951 640.911C31.7136 639.408 30.8826 637.925 30.0023 636.459C29.0652 637.92 28.1749 639.403 27.3314 640.911C25.1355 640.911 22.9393 640.911 20.7434 640.911C28.8529 626.627 37.0435 612.383 45.3151 598.178C40.7461 597.969 36.176 597.941 31.6048 598.089C27.6578 604.885 23.711 611.68 19.7641 618.476C15.7723 611.738 11.8254 604.972 7.92339 598.178C5.25519 597.999 2.58436 597.941 -0.0891113 597.999C-0.0891113 596.1 -0.0891113 594.202 -0.0891113 592.302C2.46371 592.332 5.01583 592.302 7.56728 592.213C9.882 588.237 12.1967 584.259 14.5114 580.283C9.64495 580.194 4.77811 580.164 -0.0891113 580.194C-0.0891113 577.701 -0.0891113 575.208 -0.0891113 572.716C0.291377 573.248 0.647488 573.812 0.979222 574.407C8.87301 574.466 16.7668 574.526 24.6606 574.585C20.6693 581.367 16.7521 588.192 12.9089 595.062C15.1253 599.05 17.4104 602.996 19.7641 606.902C28.1252 592.01 36.6423 577.203 45.3151 562.477C30.1805 562.388 15.0457 562.358 -0.0891113 562.388C-0.0891113 560.489 -0.0891113 558.59 -0.0891113 556.691C9.40793 556.749 18.9043 556.691 28.3998 556.513C34.6203 545.792 40.7928 535.05 46.9176 524.284C40.7397 513.329 34.4483 502.437 28.0437 491.611C18.6662 491.522 9.28867 491.492 -0.0891113 491.522C-0.0891113 489.622 -0.0891113 487.724 -0.0891113 485.824C8.16164 485.883 16.4116 485.824 24.6606 485.646C22.4052 481.729 20.1499 477.812 17.8945 473.895C11.9011 473.717 5.90661 473.658 -0.0891113 473.717C-0.0891113 470.334 -0.0891113 466.951 -0.0891113 463.568C1.94658 460.12 3.96454 456.648 5.96478 453.151C3.97114 449.708 1.95319 446.296 -0.0891113 442.913C-0.0891113 438.937 -0.0891113 434.959 -0.0891113 430.983C3.71271 437.308 7.45188 443.689 11.1284 450.124C15.6996 450.272 20.2698 450.244 24.8387 450.035C16.5246 435.661 8.21538 421.297 -0.0891113 406.946C-0.0891113 403.087 -0.0891113 399.231 -0.0891113 395.372C6.48185 406.784 13.0996 418.179 19.7641 429.559C28.273 414.707 36.8494 399.898 45.4931 385.134C40.8626 384.986 36.2332 385.015 31.6048 385.223C27.7153 392.053 23.7388 398.819 19.6751 405.521C15.6867 398.802 11.7695 392.036 7.92339 385.223C5.25519 385.045 2.58436 384.986 -0.0891113 385.045C-0.0891113 383.145 -0.0891113 381.247 -0.0891113 379.347C2.52506 379.406 5.13655 379.347 7.74533 379.169C9.97822 375.266 12.2336 371.379 14.5114 367.507C9.64495 367.418 4.77811 367.387 -0.0891113 367.418C-0.0891113 364.925 -0.0891113 362.432 -0.0891113 359.939C0.284966 360.416 0.641077 360.92 0.979222 361.453C8.87369 361.483 16.7675 361.572 24.6606 361.72C20.7197 368.504 16.8024 375.3 12.9089 382.107C15.1199 386.158 17.4049 390.164 19.7641 394.126C28.1291 379.296 36.5868 364.517 45.137 349.79C30.0621 349.612 14.9867 349.553 -0.0891113 349.612C-0.0891113 347.712 -0.0891113 345.814 -0.0891113 343.914C9.34801 343.944 18.785 343.914 28.2217 343.825C34.5 333.049 40.7319 322.247 46.9176 311.419C40.7625 300.413 34.4711 289.493 28.0437 278.657C18.6662 278.568 9.28867 278.538 -0.0891113 278.568C-0.0891113 276.668 -0.0891113 274.77 -0.0891113 272.87C8.16164 272.929 16.4116 272.87 24.6606 272.692C22.4052 268.775 20.1499 264.858 17.8945 260.94C11.9011 260.762 5.90661 260.704 -0.0891113 260.762C-0.0891113 257.379 -0.0891113 253.996 -0.0891113 250.613C1.94658 247.166 3.96454 243.694 5.96478 240.197C3.97114 236.753 1.95319 233.342 -0.0891113 229.959C-0.0891113 225.983 -0.0891113 222.005 -0.0891113 218.029C3.71271 224.353 7.45188 230.735 11.1284 237.17C15.6996 237.318 20.2698 237.289 24.8387 237.081C16.5246 222.706 8.21538 208.343 -0.0891113 193.991C-0.0891113 190.133 -0.0891113 186.276 -0.0891113 182.418C6.48185 193.829 13.0996 205.225 19.7641 216.604C28.273 201.753 36.8494 186.944 45.4931 172.18C40.8626 172.031 36.2332 172.061 31.6048 172.269C27.7153 179.099 23.7388 185.865 19.6751 192.567C15.6867 185.847 11.7695 179.081 7.92339 172.269C5.25519 172.091 2.58436 172.031 -0.0891113 172.091C-0.0891113 170.191 -0.0891113 168.292 -0.0891113 166.393C2.52506 166.452 5.13655 166.393 7.74533 166.215C9.97822 162.313 12.2336 158.425 14.5114 154.552C9.64495 154.463 4.77811 154.433 -0.0891113 154.463C-0.0891113 151.97 -0.0891113 149.478 -0.0891113 146.985C0.284966 147.462 0.641077 147.966 0.979222 148.498C8.87369 148.528 16.7675 148.617 24.6606 148.765C20.7197 155.549 16.8024 162.345 12.9089 169.153C15.1199 173.203 17.4049 177.209 19.7641 181.171C28.1291 166.34 36.5868 151.562 45.137 136.836C30.0621 136.658 14.9867 136.598 -0.0891113 136.658C-0.0891113 134.758 -0.0891113 132.859 -0.0891113 130.96C9.34801 130.99 18.785 130.96 28.2217 130.871C34.5 120.095 40.7319 109.293 46.9176 98.4646C40.7093 87.6212 34.4773 76.7896 28.2217 65.9695C18.7855 65.7914 9.34858 65.7322 -0.0891113 65.7914C-0.0891113 63.8328 -0.0891113 61.8742 -0.0891113 59.9156C8.16164 59.9749 16.4116 59.9156 24.6606 59.7376C22.4278 55.8355 20.1724 51.9478 17.8945 48.0749C11.9003 47.9859 5.90572 47.9562 -0.0891113 47.9859C-0.0891113 44.5435 -0.0891113 41.101 -0.0891113 37.6587C1.95319 34.2761 3.97114 30.8634 5.96478 27.4205C3.96454 23.9226 1.94658 20.4505 -0.0891113 17.0042C-0.0891113 13.0277 -0.0891113 9.05107 -0.0891113 5.0745C3.64532 11.4733 7.38449 17.8833 11.1284 24.3045C15.7567 24.5123 20.3862 24.5418 25.0167 24.3935C20.2439 16.2423 15.4959 8.08147 10.7723 -0.0891113ZM121.879 15.5798C124.218 19.4965 126.533 23.4434 128.823 27.4205C124.786 34.2206 120.868 41.0757 117.071 47.9859C124.966 47.9562 132.859 47.9859 140.753 48.0749C143.031 51.9478 145.286 55.8355 147.519 59.7376C130.485 59.9453 113.451 59.9749 96.417 59.8266C104.976 45.1115 113.463 30.3625 121.879 15.5798ZM244.737 15.5798C247.077 19.4965 249.392 23.4434 251.681 27.4205C247.645 34.2206 243.728 41.0757 239.93 47.9859C247.823 47.9562 255.718 47.9859 263.611 48.0749C265.888 51.9478 268.144 55.8355 270.377 59.7376C253.344 59.9453 236.31 59.9749 219.275 59.8266C227.834 45.1115 236.322 30.3625 244.737 15.5798ZM367.596 15.5798C369.935 19.4965 372.25 23.4434 374.54 27.4205C370.503 34.2206 366.586 41.0757 362.788 47.9859C370.681 47.9562 378.576 47.9859 386.469 48.0749C388.747 51.9478 391.003 55.8355 393.236 59.7376C376.203 59.9453 359.168 59.9749 342.134 59.8266C350.693 45.1115 359.181 30.3625 367.596 15.5798ZM490.454 15.5798C492.794 19.4965 495.108 23.4434 497.398 27.4205C493.362 34.2206 489.444 41.0757 485.646 47.9859C493.54 47.9562 501.435 47.9859 509.328 48.0749C511.605 51.9478 513.861 55.8355 516.094 59.7376C499.061 59.9453 482.027 59.9749 464.992 59.8266C473.551 45.1115 482.039 30.3625 490.454 15.5798ZM613.312 15.5798C615.652 19.4965 617.967 23.4434 620.256 27.4205C616.22 34.2206 612.303 41.0757 608.505 47.9859C616.398 47.9562 624.293 47.9859 632.186 48.0749C634.463 51.9478 636.719 55.8355 638.952 59.7376C621.919 59.9453 604.885 59.9749 587.85 59.8266C596.409 45.1115 604.897 30.3625 613.312 15.5798ZM55.4642 30.3584C72.4687 30.1212 89.5027 30.1212 106.566 30.3584C98.0127 45.0923 89.5551 59.8709 81.1932 74.6942C78.8395 70.7882 76.5545 66.8413 74.3381 62.8535C78.1813 55.984 82.0985 49.1586 86.0898 42.3771C78.196 42.3178 70.3021 42.2584 62.4084 42.1991C60.1115 38.2263 57.7967 34.2793 55.4642 30.3584ZM178.323 30.3584C195.327 30.1212 212.361 30.1212 229.424 30.3584C220.871 45.0923 212.413 59.8709 204.052 74.6942C201.698 70.7882 199.413 66.8413 197.196 62.8535C201.039 55.984 204.956 49.1586 208.948 42.3771C201.055 42.3178 193.16 42.2584 185.267 42.1991C182.97 38.2263 180.655 34.2793 178.323 30.3584ZM301.181 30.3584C318.185 30.1212 335.22 30.1212 352.283 30.3584C343.729 45.0923 335.271 59.8709 326.91 74.6942C324.556 70.7882 322.272 66.8413 320.055 62.8535C323.897 55.984 327.814 49.1586 331.806 42.3771C323.913 42.3178 316.018 42.2584 308.125 42.1991C305.828 38.2263 303.513 34.2793 301.181 30.3584ZM424.039 30.3584C441.044 30.1212 458.078 30.1212 475.141 30.3584C466.587 45.0923 458.13 59.8709 449.768 74.6942C447.414 70.7882 445.13 66.8413 442.913 62.8535C446.756 55.984 450.673 49.1586 454.665 42.3771C446.772 42.3178 438.877 42.2584 430.983 42.1991C428.686 38.2263 426.372 34.2793 424.039 30.3584ZM546.898 30.3584C563.902 30.1212 580.936 30.1212 597.999 30.3584C589.446 45.0923 580.988 59.8709 572.627 74.6942C570.273 70.7882 567.988 66.8413 565.771 62.8535C569.614 55.984 573.531 49.1586 577.523 42.3771C569.63 42.3178 561.735 42.2584 553.842 42.1991C551.545 38.2263 549.23 34.2793 546.898 30.3584ZM24.6606 47.9859C41.7541 47.9562 58.8475 47.9859 75.9406 48.0749C73.6627 51.9478 71.4073 55.8355 69.1745 59.7376C61.2213 59.8563 53.2683 59.9749 45.3151 60.0937C49.2802 66.8968 53.1974 73.7222 57.0667 80.5701C54.8745 84.598 52.5895 88.5747 50.2116 92.4998C41.6453 77.6811 33.1284 62.8432 24.6606 47.9859ZM147.519 47.9859C164.612 47.9562 181.706 47.9859 198.799 48.0749C196.522 51.9478 194.266 55.8355 192.033 59.7376C184.079 59.8563 176.127 59.9749 168.173 60.0937C172.139 66.8968 176.056 73.7222 179.925 80.5701C177.733 84.598 175.448 88.5747 173.07 92.4998C164.504 77.6811 155.987 62.8432 147.519 47.9859ZM270.377 47.9859C287.471 47.9562 304.564 47.9859 321.657 48.0749C319.38 51.9478 317.124 55.8355 314.891 59.7376C306.937 59.8563 298.985 59.9749 291.032 60.0937C294.997 66.8968 298.914 73.7222 302.783 80.5701C300.592 84.598 298.305 88.5747 295.928 92.4998C287.362 77.6811 278.846 62.8432 270.377 47.9859ZM393.236 47.9859C410.329 47.9562 427.422 47.9859 444.516 48.0749C442.238 51.9478 439.982 55.8355 437.749 59.7376C429.796 59.8563 421.844 59.9749 413.89 60.0937C417.855 66.8968 421.773 73.7222 425.642 80.5701C423.45 84.598 421.164 88.5747 418.787 92.4998C410.22 77.6811 401.704 62.8432 393.236 47.9859ZM516.094 47.9859C533.187 47.9562 550.281 47.9859 567.374 48.0749C565.097 51.9478 562.841 55.8355 560.608 59.7376C552.654 59.8563 544.702 59.9749 536.748 60.0937C540.714 66.8968 544.631 73.7222 548.5 80.5701C546.308 84.598 544.022 88.5747 541.645 92.4998C533.079 77.6811 524.562 62.8432 516.094 47.9859ZM55.4642 65.9695C60.0634 65.7624 64.6928 65.7327 69.3526 65.8805C73.232 72.7199 77.179 79.5158 81.1932 86.2678C85.1402 79.472 89.087 72.6763 93.0339 65.8805C97.6052 65.7322 102.175 65.7619 106.744 65.9695C98.2722 80.7178 89.7552 95.4372 81.1932 110.127C72.6571 95.3675 64.0807 80.6484 55.4642 65.9695ZM113.51 65.7914C126.034 65.7322 138.557 65.7914 151.08 65.9695C157.336 76.7896 163.568 87.6212 169.776 98.4646C163.59 109.293 157.358 120.095 151.08 130.871C138.556 131.019 126.033 130.99 113.51 130.782C107.255 119.962 101.023 109.13 94.8145 98.2866C101.025 87.4384 107.257 76.6065 113.51 65.7914ZM178.323 65.9695C182.922 65.7624 187.551 65.7327 192.211 65.8805C196.091 72.7199 200.036 79.5158 204.052 86.2678C207.999 79.472 211.945 72.6763 215.892 65.8805C220.463 65.7322 225.034 65.7619 229.603 65.9695C221.131 80.7178 212.614 95.4372 204.052 110.127C195.516 95.3675 186.939 80.6484 178.323 65.9695ZM236.369 65.7914C248.893 65.7322 261.416 65.7914 273.938 65.9695C280.193 76.7896 286.425 87.6212 292.634 98.4646C286.449 109.293 280.217 120.095 273.938 130.871C261.414 131.019 248.891 130.99 236.369 130.782C230.114 119.962 223.882 109.13 217.673 98.2866C223.883 87.4384 230.115 76.6065 236.369 65.7914ZM301.181 65.9695C305.78 65.7624 310.41 65.7327 315.069 65.8805C318.949 72.7199 322.895 79.5158 326.91 86.2678C330.857 79.472 334.803 72.6763 338.751 65.8805C343.321 65.7322 347.892 65.7619 352.461 65.9695C343.989 80.7178 335.473 95.4372 326.91 110.127C318.374 95.3675 309.797 80.6484 301.181 65.9695ZM359.227 65.7914C371.751 65.7322 384.274 65.7914 396.797 65.9695C403.052 76.7896 409.284 87.6212 415.493 98.4646C409.307 109.293 403.075 120.095 396.797 130.871C384.272 131.019 371.75 130.99 359.227 130.782C352.972 119.962 346.74 109.13 340.531 98.2866C346.742 87.4384 352.974 76.6065 359.227 65.7914ZM424.039 65.9695C428.638 65.7624 433.268 65.7327 437.928 65.8805C441.807 72.7199 445.753 79.5158 449.768 86.2678C453.716 79.472 457.661 72.6763 461.609 65.8805C466.18 65.7322 470.75 65.7619 475.319 65.9695C466.847 80.7178 458.331 95.4372 449.768 110.127C441.232 95.3675 432.655 80.6484 424.039 65.9695ZM482.085 65.7914C494.61 65.7322 507.132 65.7914 519.655 65.9695C525.91 76.7896 532.142 87.6212 538.351 98.4646C532.165 109.293 525.933 120.095 519.655 130.871C507.131 131.019 494.608 130.99 482.085 130.782C475.83 119.962 469.598 109.13 463.389 98.2866C469.6 87.4384 475.832 76.6065 482.085 65.7914ZM546.898 65.9695C551.497 65.7624 556.126 65.7327 560.786 65.8805C564.666 72.7199 568.611 79.5158 572.627 86.2678C576.574 79.472 580.52 72.6763 584.467 65.8805C589.038 65.7322 593.609 65.7619 598.178 65.9695C589.706 80.7178 581.189 95.4372 572.627 110.127C564.091 95.3675 555.514 80.6484 546.898 65.9695ZM60.6278 86.4459C69.2965 101.199 77.9026 116.008 86.4459 130.871C81.8154 131.019 77.1859 130.99 72.5576 130.782C68.6106 123.956 64.6638 117.131 60.7169 110.305C60.42 110.483 60.1827 110.721 60.0046 111.018C56.2439 117.679 52.4157 124.297 48.5201 130.871C44.0094 130.99 39.4985 130.99 34.9878 130.871C43.5591 116.072 52.1057 101.264 60.6278 86.4459ZM183.486 86.4459C192.156 101.199 200.761 116.008 209.304 130.871C204.673 131.019 200.044 130.99 195.416 130.782C191.468 123.956 187.523 117.131 183.575 110.305C183.278 110.483 183.041 110.721 182.863 111.018C179.102 117.679 175.274 124.297 171.378 130.871C166.868 130.99 162.357 130.99 157.846 130.871C166.417 116.072 174.964 101.264 183.486 86.4459ZM306.344 86.4459C315.014 101.199 323.619 116.008 332.163 130.871C327.531 131.019 322.902 130.99 318.274 130.782C314.327 123.956 310.381 117.131 306.434 110.305C306.136 110.483 305.899 110.721 305.721 111.018C301.961 117.679 298.133 124.297 294.237 130.871C289.727 130.99 285.215 130.99 280.704 130.871C289.276 116.072 297.823 101.264 306.344 86.4459ZM429.203 86.4459C437.872 101.199 446.478 116.008 455.021 130.871C450.39 131.019 445.76 130.99 441.133 130.782C437.185 123.956 433.239 117.131 429.292 110.305C428.995 110.483 428.758 110.721 428.58 111.018C424.819 117.679 420.991 124.297 417.095 130.871C412.585 130.99 408.073 130.99 403.563 130.871C412.134 116.072 420.681 101.264 429.203 86.4459ZM552.061 86.4459C560.731 101.199 569.336 116.008 577.879 130.871C573.248 131.019 568.619 130.99 563.991 130.782C560.043 123.956 556.098 117.131 552.15 110.305C551.853 110.483 551.616 110.721 551.438 111.018C547.677 117.679 543.849 124.297 539.953 130.871C535.443 130.99 530.931 130.99 526.421 130.871C534.993 116.072 543.539 101.264 552.061 86.4459ZM91.2534 104.251C91.5336 104.329 91.7414 104.507 91.8766 104.786C100.275 119.356 108.673 133.927 117.071 148.498C99.9778 148.647 82.8844 148.617 65.7914 148.409C68.0823 144.545 70.3377 140.657 72.5576 136.747C80.4511 136.658 88.3449 136.628 96.2389 136.658C96.2405 136.336 96.1515 136.039 95.9719 135.767C92.1661 129.194 88.3379 122.636 84.4873 116.092C86.7831 112.165 89.0386 108.218 91.2534 104.251ZM214.112 104.251C214.391 104.329 214.6 104.507 214.735 104.786C223.134 119.356 231.531 133.927 239.93 148.498C222.836 148.647 205.743 148.617 188.65 148.409C190.941 144.545 193.196 140.657 195.416 136.747C203.309 136.658 211.204 136.628 219.097 136.658C219.099 136.336 219.01 136.039 218.83 135.767C215.025 129.194 211.197 122.636 207.346 116.092C209.641 112.165 211.897 108.218 214.112 104.251ZM336.97 104.251C337.25 104.329 337.458 104.507 337.593 104.786C345.992 119.356 354.389 133.927 362.788 148.498C345.695 148.647 328.601 148.617 311.508 148.409C313.8 144.545 316.054 140.657 318.274 136.747C326.167 136.658 334.062 136.628 341.956 136.658C341.957 136.336 341.868 136.039 341.689 135.767C337.883 129.194 334.055 122.636 330.204 116.092C332.499 112.165 334.755 108.218 336.97 104.251ZM459.828 104.251C460.108 104.329 460.316 104.507 460.452 104.786C468.85 119.356 477.248 133.927 485.646 148.498C468.553 148.647 451.46 148.617 434.366 148.409C436.658 144.545 438.912 140.657 441.133 136.747C449.026 136.658 456.921 136.628 464.814 136.658C464.816 136.336 464.727 136.039 464.547 135.767C460.742 129.194 456.914 122.636 453.062 116.092C455.357 112.165 457.613 108.218 459.828 104.251ZM582.687 104.251C582.966 104.329 583.175 104.507 583.31 104.786C591.709 119.356 600.106 133.927 608.505 148.498C591.411 148.647 574.318 148.617 557.225 148.409C559.516 144.545 561.771 140.657 563.991 136.747C571.884 136.658 579.779 136.628 587.672 136.658C587.674 136.336 587.585 136.039 587.405 135.767C583.6 129.194 579.772 122.636 575.921 116.092C578.216 112.165 580.472 108.218 582.687 104.251ZM60.4498 122.057C62.8496 125.904 65.1643 129.821 67.3939 133.809C63.379 140.653 59.4617 147.538 55.6423 154.463C63.5364 154.433 71.4301 154.463 79.3237 154.552C81.6015 158.425 83.857 162.313 86.0898 166.215C69.0561 166.423 52.0221 166.452 34.9878 166.304C43.5468 151.589 52.0342 136.84 60.4498 122.057ZM183.308 122.057C185.708 125.904 188.023 129.821 190.252 133.809C186.237 140.653 182.32 147.538 178.501 154.463C186.394 154.433 194.289 154.463 202.182 154.552C204.459 158.425 206.715 162.313 208.948 166.215C191.915 166.423 174.88 166.452 157.846 166.304C166.405 151.589 174.892 136.84 183.308 122.057ZM306.166 122.057C308.567 125.904 310.881 129.821 313.111 133.809C309.095 140.653 305.178 147.538 301.359 154.463C309.252 154.433 317.147 154.463 325.04 154.552C327.318 158.425 329.574 162.313 331.806 166.215C314.774 166.423 297.739 166.452 280.704 166.304C289.264 151.589 297.752 136.84 306.166 122.057ZM429.025 122.057C431.425 125.904 433.74 129.821 435.969 133.809C431.954 140.653 428.037 147.538 424.217 154.463C432.11 154.433 440.005 154.463 447.899 154.552C450.176 158.425 452.432 162.313 454.665 166.215C437.632 166.423 420.597 166.452 403.563 166.304C412.122 151.589 420.61 136.84 429.025 122.057ZM551.883 122.057C554.283 125.904 556.598 129.821 558.827 133.809C554.812 140.653 550.895 147.538 547.076 154.463C554.969 154.433 562.864 154.463 570.757 154.552C573.034 158.425 575.29 162.313 577.523 166.215C560.49 166.423 543.456 166.452 526.421 166.304C534.98 151.589 543.468 136.84 551.883 122.057ZM116.893 136.836C133.898 136.598 150.932 136.598 167.995 136.836C159.445 151.562 150.987 166.34 142.622 181.171C140.263 177.209 137.978 173.203 135.767 169.153C139.661 162.345 143.578 155.549 147.519 148.765C139.626 148.617 131.732 148.528 123.838 148.498C121.496 144.614 119.181 140.727 116.893 136.836ZM239.752 136.836C256.756 136.598 273.791 136.598 290.854 136.836C282.303 151.562 273.846 166.34 265.481 181.171C263.122 177.209 260.837 173.203 258.626 169.153C262.52 162.345 266.437 155.549 270.377 148.765C262.484 148.617 254.591 148.528 246.696 148.498C244.354 144.614 242.04 140.727 239.752 136.836ZM362.61 136.836C379.614 136.598 396.649 136.598 413.712 136.836C405.162 151.562 396.704 166.34 388.339 181.171C385.98 177.209 383.695 173.203 381.484 169.153C385.378 162.345 389.295 155.549 393.236 148.765C385.342 148.617 377.449 148.528 369.554 148.498C367.213 144.614 364.898 140.727 362.61 136.836ZM485.468 136.836C502.473 136.598 519.507 136.598 536.57 136.836C528.02 151.562 519.562 166.34 511.197 181.171C508.838 177.209 506.554 173.203 504.342 169.153C508.236 162.345 512.154 155.549 516.094 148.765C508.201 148.617 500.308 148.528 492.413 148.498C490.071 144.614 487.756 140.727 485.468 136.836ZM86.0898 154.463C103.183 154.433 120.277 154.463 137.37 154.552C135.092 158.425 132.836 162.313 130.604 166.215C122.651 166.363 114.698 166.452 106.744 166.482C110.663 173.31 114.58 180.135 118.496 186.958C116.356 190.995 114.071 194.942 111.641 198.799C103.03 184.068 94.5125 169.29 86.0898 154.463ZM208.948 154.463C226.041 154.433 243.135 154.463 260.228 154.552C257.951 158.425 255.695 162.313 253.462 166.215C245.51 166.363 237.556 166.452 229.603 166.482C233.522 173.31 237.439 180.135 241.354 186.958C239.214 190.995 236.93 194.942 234.499 198.799C225.888 184.068 217.37 169.29 208.948 154.463ZM331.806 154.463C348.9 154.433 365.993 154.463 383.086 154.552C380.809 158.425 378.553 162.313 376.32 166.215C368.368 166.363 360.415 166.452 352.461 166.482C356.38 173.31 360.297 180.135 364.213 186.958C362.072 190.995 359.788 194.942 357.357 198.799C348.747 184.068 340.228 169.29 331.806 154.463ZM454.665 154.463C471.758 154.433 488.851 154.463 505.945 154.552C503.667 158.425 501.411 162.313 499.179 166.215C491.227 166.363 483.273 166.452 475.319 166.482C479.238 173.31 483.155 180.135 487.071 186.958C484.931 190.995 482.646 194.942 480.216 198.799C471.605 184.068 463.087 169.29 454.665 154.463ZM577.523 154.463C594.616 154.433 611.71 154.463 628.803 154.552C626.526 158.425 624.27 162.313 622.037 166.215C614.085 166.363 606.131 166.452 598.178 166.482C602.097 173.31 606.014 180.135 609.929 186.958C607.789 190.995 605.505 194.942 603.074 198.799C594.463 184.068 585.945 169.29 577.523 154.463ZM52.0812 172.091C64.5452 172.061 77.0091 172.091 89.4728 172.18C95.9003 183.016 102.192 193.936 108.347 204.942C102.198 215.666 96.0253 226.38 89.8289 237.081C77.2468 237.289 64.6642 237.318 52.0812 237.17C45.8029 226.394 39.571 215.591 33.3853 204.764C39.6427 193.881 45.8747 182.989 52.0812 172.091ZM116.893 172.269C121.494 172.032 126.123 172.032 130.782 172.269C134.628 179.081 138.545 185.847 142.533 192.567C146.597 185.865 150.574 179.099 154.463 172.269C159.091 172.061 163.721 172.031 168.351 172.18C159.708 186.944 151.131 201.753 142.622 216.604C134.041 201.815 125.465 187.037 116.893 172.269ZM174.939 172.091C187.403 172.061 199.867 172.091 212.331 172.18C218.759 183.016 225.05 193.936 231.205 204.942C225.057 215.666 218.884 226.38 212.687 237.081C200.106 237.289 187.523 237.318 174.939 237.17C168.661 226.394 162.429 215.591 156.244 204.764C162.501 193.881 168.733 182.989 174.939 172.091ZM239.752 172.269C244.353 172.032 248.982 172.032 253.64 172.269C257.486 179.081 261.403 185.847 265.392 192.567C269.455 185.865 273.433 179.099 277.321 172.269C281.949 172.061 286.579 172.031 291.21 172.18C282.565 186.944 273.99 201.753 265.481 216.604C256.9 201.815 248.323 187.037 239.752 172.269ZM297.798 172.091C310.262 172.061 322.726 172.091 335.189 172.18C341.617 183.016 347.908 193.936 354.063 204.942C347.915 215.666 341.742 226.38 335.546 237.081C322.964 237.289 310.381 237.318 297.798 237.17C291.52 226.394 285.288 215.591 279.102 204.764C285.359 193.881 291.591 182.989 297.798 172.091ZM362.61 172.269C367.211 172.032 371.84 172.032 376.498 172.269C380.344 179.081 384.262 185.847 388.25 192.567C392.313 185.865 396.291 179.099 400.18 172.269C404.807 172.061 409.437 172.031 414.068 172.18C405.424 186.944 396.848 201.753 388.339 216.604C379.759 201.815 371.182 187.037 362.61 172.269ZM420.656 172.091C433.12 172.061 445.584 172.091 458.048 172.18C464.476 183.016 470.766 193.936 476.922 204.942C470.773 215.666 464.6 226.38 458.404 237.081C445.823 237.289 433.239 237.318 420.656 237.17C414.378 226.394 408.146 215.591 401.96 204.764C408.217 193.881 414.449 182.989 420.656 172.091ZM485.468 172.269C490.069 172.032 494.699 172.032 499.357 172.269C503.203 179.081 507.12 185.847 511.108 192.567C515.172 185.865 519.149 179.099 523.038 172.269C527.666 172.061 532.295 172.031 536.926 172.18C528.282 186.944 519.707 201.753 511.197 216.604C502.617 201.815 494.04 187.037 485.468 172.269ZM543.514 172.091C555.978 172.061 568.442 172.091 580.906 172.18C587.334 183.016 593.625 193.936 599.78 204.942C593.632 215.666 587.459 226.38 581.262 237.081C568.681 237.289 556.098 237.318 543.514 237.17C537.236 226.394 531.004 215.591 524.819 204.764C531.076 193.881 537.307 182.989 543.514 172.091ZM122.057 192.745C130.644 207.483 139.191 222.261 147.697 237.081C143.128 237.289 138.558 237.318 133.987 237.17C130.039 230.347 126.063 223.55 122.057 216.783C117.993 223.485 114.017 230.251 110.127 237.081C105.558 237.289 100.988 237.318 96.417 237.17C105.08 222.425 113.627 207.616 122.057 192.745ZM244.915 192.745C253.503 207.483 262.05 222.261 270.555 237.081C265.986 237.289 261.416 237.318 256.845 237.17C252.898 230.347 248.922 223.55 244.915 216.783C240.852 223.485 236.874 230.251 232.986 237.081C228.417 237.289 223.846 237.318 219.275 237.17C227.938 222.425 236.484 207.616 244.915 192.745ZM367.774 192.745C376.361 207.483 384.908 222.261 393.414 237.081C388.845 237.289 384.274 237.318 379.703 237.17C375.756 230.347 371.78 223.55 367.774 216.783C363.71 223.485 359.733 230.251 355.844 237.081C351.275 237.289 346.704 237.318 342.134 237.17C350.796 222.425 359.343 207.616 367.774 192.745ZM490.632 192.745C499.22 207.483 507.766 222.261 516.272 237.081C511.703 237.289 507.132 237.318 502.562 237.17C498.614 230.347 494.638 223.55 490.632 216.783C486.569 223.485 482.591 230.251 478.702 237.081C474.133 237.289 469.563 237.318 464.992 237.17C473.654 222.425 482.201 207.616 490.632 192.745ZM613.49 192.745C622.078 207.483 630.625 222.261 639.13 237.081C634.561 237.289 629.991 237.318 625.42 237.17C621.473 230.347 617.497 223.55 613.49 216.783C609.427 223.485 605.449 230.251 601.561 237.081C596.992 237.289 592.421 237.318 587.85 237.17C596.513 222.425 605.059 207.616 613.49 192.745ZM29.8242 210.729C30.1045 210.807 30.3123 210.985 30.4474 211.263C38.8458 225.833 47.2439 240.405 55.6423 254.975C38.5486 255.123 21.4553 255.095 4.36228 254.886C6.59517 250.983 8.85054 247.097 11.1284 243.224C19.0219 243.135 26.9157 243.105 34.8098 243.135C34.8114 242.812 34.7224 242.515 34.5427 242.244C30.6921 235.642 26.8639 229.024 23.0581 222.391C25.3381 218.513 27.5934 214.626 29.8242 210.729ZM152.683 210.729C152.963 210.807 153.171 210.985 153.306 211.263C161.704 225.833 170.102 240.405 178.501 254.975C161.407 255.123 144.314 255.095 127.221 254.886C129.453 250.983 131.709 247.097 133.987 243.224C141.88 243.135 149.774 243.105 157.668 243.135C157.67 242.812 157.581 242.515 157.401 242.244C153.55 235.642 149.722 229.024 145.916 222.391C148.196 218.513 150.452 214.626 152.683 210.729ZM275.541 210.729C275.82 210.807 276.029 210.985 276.164 211.263C284.563 225.833 292.96 240.405 301.359 254.975C284.266 255.123 267.172 255.095 250.079 254.886C252.312 250.983 254.568 247.097 256.845 243.224C264.738 243.135 272.633 243.105 280.526 243.135C280.528 242.812 280.439 242.515 280.259 242.244C276.408 235.642 272.58 229.024 268.775 222.391C271.054 218.513 273.31 214.626 275.541 210.729ZM398.399 210.729C398.679 210.807 398.887 210.985 399.022 211.263C407.421 225.833 415.818 240.405 424.217 254.975C407.124 255.123 390.031 255.095 372.937 254.886C375.17 250.983 377.426 247.097 379.703 243.224C387.597 243.135 395.492 243.105 403.385 243.135C403.387 242.812 403.298 242.515 403.118 242.244C399.266 235.642 395.438 229.024 391.633 222.391C393.912 218.513 396.168 214.626 398.399 210.729ZM521.258 210.729C521.537 210.807 521.745 210.985 521.881 211.263C530.28 225.833 538.677 240.405 547.076 254.975C529.982 255.123 512.889 255.095 495.796 254.886C498.028 250.983 500.284 247.097 502.562 243.224C510.455 243.135 518.35 243.105 526.243 243.135C526.245 242.812 526.156 242.515 525.976 242.244C522.125 235.642 518.296 229.024 514.491 222.391C516.771 218.513 519.027 214.626 521.258 210.729ZM121.879 228.534C124.256 232.366 126.571 236.255 128.823 240.197C124.928 247.007 121.011 253.804 117.071 260.584C124.965 260.704 132.859 260.821 140.753 260.94C143.008 264.858 145.264 268.775 147.519 272.692C130.485 272.9 113.451 272.929 96.417 272.781C104.976 258.067 113.463 243.316 121.879 228.534ZM244.737 228.534C247.114 232.366 249.429 236.255 251.681 240.197C247.787 247.007 243.87 253.804 239.93 260.584C247.823 260.704 255.718 260.821 263.611 260.94C265.867 264.858 268.121 268.775 270.377 272.692C253.344 272.9 236.31 272.929 219.275 272.781C227.834 258.067 236.322 243.316 244.737 228.534ZM367.596 228.534C369.973 232.366 372.287 236.255 374.54 240.197C370.646 247.007 366.728 253.804 362.788 260.584C370.681 260.704 378.576 260.821 386.469 260.94C388.725 264.858 390.98 268.775 393.236 272.692C376.203 272.9 359.168 272.929 342.134 272.781C350.693 258.067 359.181 243.316 367.596 228.534ZM490.454 228.534C492.831 232.366 495.146 236.255 497.398 240.197C493.504 247.007 489.587 253.804 485.646 260.584C493.54 260.704 501.435 260.821 509.328 260.94C511.584 264.858 513.838 268.775 516.094 272.692C499.061 272.9 482.027 272.929 464.992 272.781C473.551 258.067 482.039 243.316 490.454 228.534ZM613.312 228.534C615.689 232.366 618.004 236.255 620.256 240.197C616.362 247.007 612.445 253.804 608.505 260.584C616.398 260.704 624.293 260.821 632.186 260.94C634.442 264.858 636.696 268.775 638.952 272.692C621.919 272.9 604.885 272.929 587.85 272.781C596.409 258.067 604.897 243.316 613.312 228.534ZM55.4642 243.313C72.4687 243.076 89.5027 243.076 106.566 243.313C97.9882 258.031 89.5305 272.81 81.1932 287.649C78.8844 283.655 76.5994 279.649 74.3381 275.63C78.2317 268.823 82.1489 262.026 86.0898 255.243C78.1966 255.095 70.3028 255.006 62.4084 254.975C60.1563 251.033 57.8416 247.145 55.4642 243.313ZM178.323 243.313C195.327 243.076 212.361 243.076 229.424 243.313C220.846 258.031 212.388 272.81 204.052 287.649C201.742 283.655 199.458 279.649 197.196 275.63C201.091 268.823 205.008 262.026 208.948 255.243C201.055 255.095 193.162 255.006 185.267 254.975C183.014 251.033 180.7 247.145 178.323 243.313ZM301.181 243.313C318.185 243.076 335.22 243.076 352.283 243.313C343.704 258.031 335.246 272.81 326.91 287.649C324.601 283.655 322.316 279.649 320.055 275.63C323.949 268.823 327.866 262.026 331.806 255.243C323.913 255.095 316.02 255.006 308.125 254.975C305.873 251.033 303.558 247.145 301.181 243.313ZM424.039 243.313C441.044 243.076 458.078 243.076 475.141 243.313C466.562 258.031 458.105 272.81 449.768 287.649C447.459 283.655 445.174 279.649 442.913 275.63C446.807 268.823 450.724 262.026 454.665 255.243C446.772 255.095 438.878 255.006 430.983 254.975C428.731 251.033 426.416 247.145 424.039 243.313ZM546.898 243.313C563.902 243.076 580.936 243.076 597.999 243.313C589.421 258.031 580.963 272.81 572.627 287.649C570.317 283.655 568.033 279.649 565.771 275.63C569.666 268.823 573.583 262.026 577.523 255.243C569.63 255.095 561.737 255.006 553.842 254.975C551.589 251.033 549.275 247.145 546.898 243.313ZM24.4826 260.94C41.6058 260.704 58.7584 260.704 75.9406 260.94C73.6932 264.931 71.3785 268.878 68.9964 272.781C61.1027 272.84 53.2088 272.9 45.3151 272.959C49.2335 279.788 53.1507 286.612 57.0667 293.435C54.8503 297.424 52.5653 301.37 50.2116 305.276C41.6306 290.487 33.0541 275.708 24.4826 260.94ZM147.341 260.94C164.464 260.704 181.617 260.704 198.799 260.94C196.552 264.931 194.237 268.878 191.855 272.781C183.962 272.84 176.067 272.9 168.173 272.959C172.092 279.788 176.009 286.612 179.925 293.435C177.709 297.424 175.424 301.37 173.07 305.276C164.489 290.487 155.912 275.708 147.341 260.94ZM270.199 260.94C287.323 260.704 304.475 260.704 321.657 260.94C319.41 264.931 317.095 268.878 314.713 272.781C306.82 272.84 298.925 272.9 291.032 272.959C294.951 279.788 298.868 286.612 302.783 293.435C300.567 297.424 298.282 301.37 295.928 305.276C287.348 290.487 278.771 275.708 270.199 260.94ZM393.058 260.94C410.181 260.704 427.333 260.704 444.516 260.94C442.269 264.931 439.954 268.878 437.571 272.781C429.678 272.84 421.783 272.9 413.89 272.959C417.809 279.788 421.726 286.612 425.642 293.435C423.425 297.424 421.14 301.37 418.787 305.276C410.206 290.487 401.629 275.708 393.058 260.94ZM515.916 260.94C533.039 260.704 550.192 260.704 567.374 260.94C565.127 264.931 562.812 268.878 560.43 272.781C552.537 272.84 544.642 272.9 536.748 272.959C540.667 279.788 544.585 286.612 548.5 293.435C546.283 297.424 543.999 301.37 541.645 305.276C533.064 290.487 524.487 275.708 515.916 260.94ZM55.4642 278.746C60.0645 278.509 64.6939 278.509 69.3526 278.746C73.2545 285.54 77.2014 292.307 81.1932 299.044C85.1851 292.307 89.132 285.54 93.0339 278.746C97.6623 278.538 102.292 278.509 106.922 278.657C98.2786 293.421 89.7022 308.23 81.1932 323.082C72.6122 308.292 64.0358 293.514 55.4642 278.746ZM113.51 278.568C125.974 278.538 138.438 278.568 150.902 278.657C157.329 289.493 163.621 300.413 169.776 311.419C163.59 322.247 157.358 333.049 151.08 343.825C138.556 343.973 126.033 343.944 113.51 343.736C107.255 332.916 101.023 322.085 94.8145 311.241C101.072 300.358 107.304 289.467 113.51 278.568ZM178.323 278.746C182.924 278.509 187.553 278.509 192.211 278.746C196.112 285.54 200.06 292.307 204.052 299.044C208.044 292.307 211.991 285.54 215.892 278.746C220.52 278.538 225.149 278.509 229.781 278.657C221.136 293.421 212.561 308.23 204.052 323.082C195.471 308.292 186.894 293.514 178.323 278.746ZM236.369 278.568C248.833 278.538 261.296 278.568 273.76 278.657C280.188 289.493 286.479 300.413 292.634 311.419C286.449 322.247 280.217 333.049 273.938 343.825C261.414 343.973 248.891 343.944 236.369 343.736C230.114 332.916 223.882 322.085 217.673 311.241C223.93 300.358 230.162 289.467 236.369 278.568ZM301.181 278.746C305.782 278.509 310.411 278.509 315.069 278.746C318.97 285.54 322.918 292.307 326.91 299.044C330.902 292.307 334.849 285.54 338.751 278.746C343.378 278.538 348.008 278.509 352.639 278.657C343.994 293.421 335.419 308.23 326.91 323.082C318.329 308.292 309.752 293.514 301.181 278.746ZM359.227 278.568C371.691 278.538 384.155 278.568 396.619 278.657C403.046 289.493 409.337 300.413 415.493 311.419C409.307 322.247 403.075 333.049 396.797 343.825C384.272 343.973 371.75 343.944 359.227 343.736C352.972 332.916 346.74 322.085 340.531 311.241C346.788 300.358 353.02 289.467 359.227 278.568ZM424.039 278.746C428.64 278.509 433.27 278.509 437.928 278.746C441.829 285.54 445.776 292.307 449.768 299.044C453.76 292.307 457.708 285.54 461.609 278.746C466.237 278.538 470.866 278.509 475.497 278.657C466.853 293.421 458.278 308.23 449.768 323.082C441.188 308.292 432.611 293.514 424.039 278.746ZM482.085 278.568C494.549 278.538 507.013 278.568 519.477 278.657C525.905 289.493 532.196 300.413 538.351 311.419C532.165 322.247 525.933 333.049 519.655 343.825C507.131 343.973 494.608 343.944 482.085 343.736C475.83 332.916 469.598 322.085 463.389 311.241C469.646 300.358 475.878 289.467 482.085 278.568ZM546.898 278.746C551.499 278.509 556.128 278.509 560.786 278.746C564.687 285.54 568.635 292.307 572.627 299.044C576.619 292.307 580.566 285.54 584.467 278.746C589.095 278.538 593.724 278.509 598.356 278.657C589.711 293.421 581.136 308.23 572.627 323.082C564.046 308.292 555.469 293.514 546.898 278.746ZM60.6278 299.222C69.2516 314.065 77.8576 328.933 86.4459 343.825C81.8154 343.973 77.1859 343.944 72.5576 343.736C68.6106 336.911 64.6638 330.085 60.7169 323.26C60.42 323.438 60.1827 323.675 60.0046 323.972C56.2439 330.633 52.4157 337.251 48.5201 343.825C44.0094 343.944 39.4985 343.944 34.9878 343.825C43.6041 328.997 52.1508 314.129 60.6278 299.222ZM183.486 299.222C192.109 314.065 200.717 328.933 209.304 343.825C204.673 343.973 200.044 343.944 195.416 343.736C191.468 336.911 187.523 330.085 183.575 323.26C183.278 323.438 183.041 323.675 182.863 323.972C179.102 330.633 175.274 337.251 171.378 343.825C166.868 343.944 162.357 343.944 157.846 343.825C166.462 328.997 175.009 314.129 183.486 299.222ZM306.344 299.222C314.968 314.065 323.575 328.933 332.163 343.825C327.531 343.973 322.902 343.944 318.274 343.736C314.327 336.911 310.381 330.085 306.434 323.26C306.136 323.438 305.899 323.675 305.721 323.972C301.961 330.633 298.133 337.251 294.237 343.825C289.727 343.944 285.215 343.944 280.704 343.825C289.321 328.997 297.867 314.129 306.344 299.222ZM429.203 299.222C437.826 314.065 446.433 328.933 455.021 343.825C450.39 343.973 445.76 343.944 441.133 343.736C437.185 336.911 433.239 330.085 429.292 323.26C428.995 323.438 428.758 323.675 428.58 323.972C424.819 330.633 420.991 337.251 417.095 343.825C412.585 343.944 408.073 343.944 403.563 343.825C412.179 328.997 420.726 314.129 429.203 299.222ZM552.061 299.222C560.684 314.065 569.292 328.933 577.879 343.825C573.248 343.973 568.619 343.944 563.991 343.736C560.043 336.911 556.098 330.085 552.15 323.26C551.853 323.438 551.616 323.675 551.438 323.972C547.677 330.633 543.849 337.251 539.953 343.825C535.443 343.944 530.931 343.944 526.421 343.825C535.037 328.997 543.584 314.129 552.061 299.222ZM91.2534 317.206C91.5336 317.284 91.7414 317.462 91.8766 317.74C100.275 332.31 108.673 346.882 117.071 361.453C99.9778 361.6 82.8844 361.572 65.7914 361.364C68.0823 357.5 70.3377 353.611 72.5576 349.701C80.4511 349.612 88.3449 349.582 96.2389 349.612C96.2405 349.29 96.1515 348.992 95.9719 348.722C92.1661 342.148 88.3379 335.59 84.4873 329.047C86.7831 325.119 89.0386 321.173 91.2534 317.206ZM214.112 317.206C214.391 317.284 214.6 317.462 214.735 317.74C223.134 332.31 231.531 346.882 239.93 361.453C222.836 361.6 205.743 361.572 188.65 361.364C190.941 357.5 193.196 353.611 195.416 349.701C203.309 349.612 211.204 349.582 219.097 349.612C219.099 349.29 219.01 348.992 218.83 348.722C215.025 342.148 211.197 335.59 207.346 329.047C209.641 325.119 211.897 321.173 214.112 317.206ZM336.97 317.206C337.25 317.284 337.458 317.462 337.593 317.74C345.992 332.31 354.389 346.882 362.788 361.453C345.695 361.6 328.601 361.572 311.508 361.364C313.8 357.5 316.054 353.611 318.274 349.701C326.167 349.612 334.062 349.582 341.956 349.612C341.957 349.29 341.868 348.992 341.689 348.722C337.883 342.148 334.055 335.59 330.204 329.047C332.499 325.119 334.755 321.173 336.97 317.206ZM459.828 317.206C460.108 317.284 460.316 317.462 460.452 317.74C468.85 332.31 477.248 346.882 485.646 361.453C468.553 361.6 451.46 361.572 434.366 361.364C436.658 357.5 438.912 353.611 441.133 349.701C449.026 349.612 456.921 349.582 464.814 349.612C464.816 349.29 464.727 348.992 464.547 348.722C460.742 342.148 456.914 335.59 453.062 329.047C455.357 325.119 457.613 321.173 459.828 317.206ZM582.687 317.206C582.966 317.284 583.175 317.462 583.31 317.74C591.709 332.31 600.106 346.882 608.505 361.453C591.411 361.6 574.318 361.572 557.225 361.364C559.516 357.5 561.771 353.611 563.991 349.701C571.884 349.612 579.779 349.582 587.672 349.612C587.674 349.29 587.585 348.992 587.405 348.722C583.6 342.148 579.772 335.59 575.921 329.047C578.216 325.119 580.472 321.173 582.687 317.206ZM60.4498 335.011C62.8496 338.859 65.1643 342.776 67.3939 346.763C63.379 353.608 59.4617 360.493 55.6423 367.418C63.5364 367.387 71.4301 367.418 79.3237 367.507C81.6015 371.379 83.857 375.266 86.0898 379.169C69.0561 379.378 52.0221 379.406 34.9878 379.258C43.5468 364.544 52.0342 349.794 60.4498 335.011ZM183.308 335.011C185.708 338.859 188.023 342.776 190.252 346.763C186.237 353.608 182.32 360.493 178.501 367.418C186.394 367.387 194.289 367.418 202.182 367.507C204.459 371.379 206.715 375.266 208.948 379.169C191.915 379.378 174.88 379.406 157.846 379.258C166.405 364.544 174.892 349.794 183.308 335.011ZM306.166 335.011C308.567 338.859 310.881 342.776 313.111 346.763C309.095 353.608 305.178 360.493 301.359 367.418C309.252 367.387 317.147 367.418 325.04 367.507C327.318 371.379 329.574 375.266 331.806 379.169C314.774 379.378 297.739 379.406 280.704 379.258C289.264 364.544 297.752 349.794 306.166 335.011ZM429.025 335.011C431.425 338.859 433.74 342.776 435.969 346.763C431.954 353.608 428.037 360.493 424.217 367.418C432.11 367.387 440.005 367.418 447.899 367.507C450.176 371.379 452.432 375.266 454.665 379.169C437.632 379.378 420.597 379.406 403.563 379.258C412.122 364.544 420.61 349.794 429.025 335.011ZM551.883 335.011C554.283 338.859 556.598 342.776 558.827 346.763C554.812 353.608 550.895 360.493 547.076 367.418C554.969 367.387 562.864 367.418 570.757 367.507C573.034 371.379 575.29 375.266 577.523 379.169C560.49 379.378 543.456 379.406 526.421 379.258C534.98 364.544 543.468 349.794 551.883 335.011ZM116.893 349.79C133.898 349.553 150.932 349.553 167.995 349.79C159.445 364.517 150.987 379.296 142.622 394.126C140.263 390.164 137.978 386.158 135.767 382.107C139.661 375.3 143.578 368.504 147.519 361.72C139.626 361.572 131.732 361.483 123.838 361.453C121.496 357.569 119.181 353.681 116.893 349.79ZM239.752 349.79C256.756 349.553 273.791 349.553 290.854 349.79C282.303 364.517 273.846 379.296 265.481 394.126C263.122 390.164 260.837 386.158 258.626 382.107C262.52 375.3 266.437 368.504 270.377 361.72C262.484 361.572 254.591 361.483 246.696 361.453C244.354 357.569 242.04 353.681 239.752 349.79ZM362.61 349.79C379.614 349.553 396.649 349.553 413.712 349.79C405.162 364.517 396.704 379.296 388.339 394.126C385.98 390.164 383.695 386.158 381.484 382.107C385.378 375.3 389.295 368.504 393.236 361.72C385.342 361.572 377.449 361.483 369.554 361.453C367.213 357.569 364.898 353.681 362.61 349.79ZM485.468 349.79C502.473 349.553 519.507 349.553 536.57 349.79C528.02 364.517 519.562 379.296 511.197 394.126C508.838 390.164 506.554 386.158 504.342 382.107C508.236 375.3 512.154 368.504 516.094 361.72C508.201 361.572 500.308 361.483 492.413 361.453C490.071 357.569 487.756 353.681 485.468 349.79ZM86.0898 367.418C103.183 367.387 120.277 367.418 137.37 367.507C135.092 371.379 132.836 375.266 130.604 379.169C122.651 379.317 114.698 379.406 106.744 379.436C110.663 386.265 114.58 393.09 118.496 399.913C116.356 403.949 114.071 407.897 111.641 411.753C103.03 397.023 94.5125 382.244 86.0898 367.418ZM208.948 367.418C226.041 367.387 243.135 367.418 260.228 367.507C257.951 371.379 255.695 375.266 253.462 379.169C245.51 379.317 237.556 379.406 229.603 379.436C233.522 386.265 237.439 393.09 241.354 399.913C239.214 403.949 236.93 407.897 234.499 411.753C225.888 397.023 217.37 382.244 208.948 367.418ZM331.806 367.418C348.9 367.387 365.993 367.418 383.086 367.507C380.809 371.379 378.553 375.266 376.32 379.169C368.368 379.317 360.415 379.406 352.461 379.436C356.38 386.265 360.297 393.09 364.213 399.913C362.072 403.949 359.788 407.897 357.357 411.753C348.747 397.023 340.228 382.244 331.806 367.418ZM454.665 367.418C471.758 367.387 488.851 367.418 505.945 367.507C503.667 371.379 501.411 375.266 499.179 379.169C491.227 379.317 483.273 379.406 475.319 379.436C479.238 386.265 483.155 393.09 487.071 399.913C484.931 403.949 482.646 407.897 480.216 411.753C471.605 397.023 463.087 382.244 454.665 367.418ZM577.523 367.418C594.616 367.387 611.71 367.418 628.803 367.507C626.526 371.379 624.27 375.266 622.037 379.169C614.085 379.317 606.131 379.406 598.178 379.436C602.097 386.265 606.014 393.09 609.929 399.913C607.789 403.949 605.505 407.897 603.074 411.753C594.463 397.023 585.945 382.244 577.523 367.418ZM52.0812 385.045C64.5452 385.015 77.0091 385.045 89.4728 385.134C95.9003 395.971 102.192 406.891 108.347 417.896C102.198 428.621 96.0253 439.334 89.8289 450.035C77.2468 450.244 64.6642 450.272 52.0812 450.124C45.8029 439.348 39.571 428.546 33.3853 417.718C39.6427 406.835 45.8747 395.944 52.0812 385.045ZM116.893 385.223C121.494 384.986 126.123 384.986 130.782 385.223C134.628 392.036 138.545 398.802 142.533 405.521C146.597 398.819 150.574 392.053 154.463 385.223C159.091 385.015 163.721 384.986 168.351 385.134C159.708 399.898 151.131 414.707 142.622 429.559C134.041 414.77 125.465 399.991 116.893 385.223ZM174.939 385.045C187.403 385.015 199.867 385.045 212.331 385.134C218.759 395.971 225.05 406.891 231.205 417.896C225.057 428.621 218.884 439.334 212.687 450.035C200.106 450.244 187.523 450.272 174.939 450.124C168.661 439.348 162.429 428.546 156.244 417.718C162.501 406.835 168.733 395.944 174.939 385.045ZM239.752 385.223C244.353 384.986 248.982 384.986 253.64 385.223C257.486 392.036 261.403 398.802 265.392 405.521C269.455 398.819 273.433 392.053 277.321 385.223C281.949 385.015 286.579 384.986 291.21 385.134C282.565 399.898 273.99 414.707 265.481 429.559C256.9 414.77 248.323 399.991 239.752 385.223ZM297.798 385.045C310.262 385.015 322.726 385.045 335.189 385.134C341.617 395.971 347.908 406.891 354.063 417.896C347.915 428.621 341.742 439.334 335.546 450.035C322.964 450.244 310.381 450.272 297.798 450.124C291.52 439.348 285.288 428.546 279.102 417.718C285.359 406.835 291.591 395.944 297.798 385.045ZM362.61 385.223C367.211 384.986 371.84 384.986 376.498 385.223C380.344 392.036 384.262 398.802 388.25 405.521C392.313 398.819 396.291 392.053 400.18 385.223C404.807 385.015 409.437 384.986 414.068 385.134C405.424 399.898 396.848 414.707 388.339 429.559C379.759 414.77 371.182 399.991 362.61 385.223ZM420.656 385.045C433.12 385.015 445.584 385.045 458.048 385.134C464.476 395.971 470.766 406.891 476.922 417.896C470.773 428.621 464.6 439.334 458.404 450.035C445.823 450.244 433.239 450.272 420.656 450.124C414.378 439.348 408.146 428.546 401.96 417.718C408.217 406.835 414.449 395.944 420.656 385.045ZM485.468 385.223C490.069 384.986 494.699 384.986 499.357 385.223C503.203 392.036 507.12 398.802 511.108 405.521C515.172 398.819 519.149 392.053 523.038 385.223C527.666 385.015 532.295 384.986 536.926 385.134C528.282 399.898 519.707 414.707 511.197 429.559C502.617 414.77 494.04 399.991 485.468 385.223ZM543.514 385.045C555.978 385.015 568.442 385.045 580.906 385.134C587.334 395.971 593.625 406.891 599.78 417.896C593.632 428.621 587.459 439.334 581.262 450.035C568.681 450.244 556.098 450.272 543.514 450.124C537.236 439.348 531.004 428.546 524.819 417.718C531.076 406.835 537.307 395.944 543.514 385.045ZM122.057 405.699C130.644 420.437 139.191 435.216 147.697 450.035C143.128 450.244 138.558 450.272 133.987 450.124C130.039 443.301 126.063 436.505 122.057 429.737C117.993 436.439 114.017 443.205 110.127 450.035C105.558 450.244 100.988 450.272 96.417 450.124C105.08 435.38 113.627 420.571 122.057 405.699ZM244.915 405.699C253.503 420.437 262.05 435.216 270.555 450.035C265.986 450.244 261.416 450.272 256.845 450.124C252.898 443.301 248.922 436.505 244.915 429.737C240.852 436.439 236.874 443.205 232.986 450.035C228.417 450.244 223.846 450.272 219.275 450.124C227.938 435.38 236.484 420.571 244.915 405.699ZM367.774 405.699C376.361 420.437 384.908 435.216 393.414 450.035C388.845 450.244 384.274 450.272 379.703 450.124C375.756 443.301 371.78 436.505 367.774 429.737C363.71 436.439 359.733 443.205 355.844 450.035C351.275 450.244 346.704 450.272 342.134 450.124C350.796 435.38 359.343 420.571 367.774 405.699ZM490.632 405.699C499.22 420.437 507.766 435.216 516.272 450.035C511.703 450.244 507.132 450.272 502.562 450.124C498.614 443.301 494.638 436.505 490.632 429.737C486.569 436.439 482.591 443.205 478.702 450.035C474.133 450.244 469.563 450.272 464.992 450.124C473.654 435.38 482.201 420.571 490.632 405.699ZM613.49 405.699C622.078 420.437 630.625 435.216 639.13 450.035C634.561 450.244 629.991 450.272 625.42 450.124C621.473 443.301 617.497 436.505 613.49 429.737C609.427 436.439 605.449 443.205 601.561 450.035C596.992 450.244 592.421 450.272 587.85 450.124C596.513 435.38 605.059 420.571 613.49 405.699ZM29.8242 423.683C30.1045 423.761 30.3123 423.94 30.4474 424.217C38.8458 438.788 47.2439 453.36 55.6423 467.93C38.5486 468.078 21.4553 468.049 4.36228 467.841C6.59517 463.938 8.85054 460.051 11.1284 456.178C19.0219 456.089 26.9157 456.059 34.8098 456.089C34.8114 455.767 34.7224 455.47 34.5427 455.199C30.6921 448.597 26.8639 441.978 23.0581 435.346C25.3381 431.468 27.5934 427.581 29.8242 423.683ZM152.683 423.683C152.963 423.761 153.171 423.94 153.306 424.217C161.704 438.788 170.102 453.36 178.501 467.93C161.407 468.078 144.314 468.049 127.221 467.841C129.453 463.938 131.709 460.051 133.987 456.178C141.88 456.089 149.774 456.059 157.668 456.089C157.67 455.767 157.581 455.47 157.401 455.199C153.55 448.597 149.722 441.978 145.916 435.346C148.196 431.468 150.452 427.581 152.683 423.683ZM275.541 423.683C275.82 423.761 276.029 423.94 276.164 424.217C284.563 438.788 292.96 453.36 301.359 467.93C284.266 468.078 267.172 468.049 250.079 467.841C252.312 463.938 254.568 460.051 256.845 456.178C264.738 456.089 272.633 456.059 280.526 456.089C280.528 455.767 280.439 455.47 280.259 455.199C276.408 448.597 272.58 441.978 268.775 435.346C271.054 431.468 273.31 427.581 275.541 423.683ZM398.399 423.683C398.679 423.761 398.887 423.94 399.022 424.217C407.421 438.788 415.818 453.36 424.217 467.93C407.124 468.078 390.031 468.049 372.937 467.841C375.17 463.938 377.426 460.051 379.703 456.178C387.597 456.089 395.492 456.059 403.385 456.089C403.387 455.767 403.298 455.47 403.118 455.199C399.266 448.597 395.438 441.978 391.633 435.346C393.912 431.468 396.168 427.581 398.399 423.683ZM521.258 423.683C521.537 423.761 521.745 423.94 521.881 424.217C530.28 438.788 538.677 453.36 547.076 467.93C529.982 468.078 512.889 468.049 495.796 467.841C498.028 463.938 500.284 460.051 502.562 456.178C510.455 456.089 518.35 456.059 526.243 456.089C526.245 455.767 526.156 455.47 525.976 455.199C522.125 448.597 518.296 441.978 514.491 435.346C516.771 431.468 519.027 427.581 521.258 423.683ZM121.879 441.489C124.256 445.32 126.571 449.209 128.823 453.151C124.928 459.962 121.011 466.758 117.071 473.539C124.965 473.658 132.859 473.775 140.753 473.895C143.008 477.812 145.264 481.729 147.519 485.646C130.485 485.855 113.451 485.883 96.417 485.735C104.976 471.021 113.463 456.271 121.879 441.489ZM244.737 441.489C247.114 445.32 249.429 449.209 251.681 453.151C247.787 459.962 243.87 466.758 239.93 473.539C247.823 473.658 255.718 473.775 263.611 473.895C265.867 477.812 268.121 481.729 270.377 485.646C253.344 485.855 236.31 485.883 219.275 485.735C227.834 471.021 236.322 456.271 244.737 441.489ZM367.596 441.489C369.973 445.32 372.287 449.209 374.54 453.151C370.646 459.962 366.728 466.758 362.788 473.539C370.681 473.658 378.576 473.775 386.469 473.895C388.725 477.812 390.98 481.729 393.236 485.646C376.203 485.855 359.168 485.883 342.134 485.735C350.693 471.021 359.181 456.271 367.596 441.489ZM490.454 441.489C492.831 445.32 495.146 449.209 497.398 453.151C493.504 459.962 489.587 466.758 485.646 473.539C493.54 473.658 501.435 473.775 509.328 473.895C511.584 477.812 513.838 481.729 516.094 485.646C499.061 485.855 482.027 485.883 464.992 485.735C473.551 471.021 482.039 456.271 490.454 441.489ZM613.312 441.489C615.689 445.32 618.004 449.209 620.256 453.151C616.362 459.962 612.445 466.758 608.505 473.539C616.398 473.658 624.293 473.775 632.186 473.895C634.442 477.812 636.696 481.729 638.952 485.646C621.919 485.855 604.885 485.883 587.85 485.735C596.409 471.021 604.897 456.271 613.312 441.489ZM55.4642 456.267C72.4687 456.03 89.5027 456.03 106.566 456.267C97.9882 470.985 89.5305 485.764 81.1932 500.603C78.8844 496.609 76.5994 492.603 74.3381 488.584C78.2317 481.777 82.1489 474.981 86.0898 468.197C78.1966 468.049 70.3028 467.96 62.4084 467.93C60.1563 463.988 57.8416 460.099 55.4642 456.267ZM178.323 456.267C195.327 456.03 212.361 456.03 229.424 456.267C220.846 470.985 212.388 485.764 204.052 500.603C201.742 496.609 199.458 492.603 197.196 488.584C201.091 481.777 205.008 474.981 208.948 468.197C201.055 468.049 193.162 467.96 185.267 467.93C183.014 463.988 180.7 460.099 178.323 456.267ZM301.181 456.267C318.185 456.03 335.22 456.03 352.283 456.267C343.704 470.985 335.246 485.764 326.91 500.603C324.601 496.609 322.316 492.603 320.055 488.584C323.949 481.777 327.866 474.981 331.806 468.197C323.913 468.049 316.02 467.96 308.125 467.93C305.873 463.988 303.558 460.099 301.181 456.267ZM424.039 456.267C441.044 456.03 458.078 456.03 475.141 456.267C466.562 470.985 458.105 485.764 449.768 500.603C447.459 496.609 445.174 492.603 442.913 488.584C446.807 481.777 450.724 474.981 454.665 468.197C446.772 468.049 438.878 467.96 430.983 467.93C428.731 463.988 426.416 460.099 424.039 456.267ZM546.898 456.267C563.902 456.03 580.936 456.03 597.999 456.267C589.421 470.985 580.963 485.764 572.627 500.603C570.317 496.609 568.033 492.603 565.771 488.584C569.666 481.777 573.583 474.981 577.523 468.197C569.63 468.049 561.737 467.96 553.842 467.93C551.589 463.988 549.275 460.099 546.898 456.267ZM24.4826 473.895C41.6058 473.658 58.7584 473.658 75.9406 473.895C73.6932 477.885 71.3785 481.832 68.9964 485.735C61.1027 485.794 53.2088 485.855 45.3151 485.914C49.2335 492.742 53.1507 499.567 57.0667 506.39C54.8503 510.378 52.5653 514.324 50.2116 518.231C41.6306 503.441 33.0541 488.663 24.4826 473.895ZM147.341 473.895C164.464 473.658 181.617 473.658 198.799 473.895C196.552 477.885 194.237 481.832 191.855 485.735C183.962 485.794 176.067 485.855 168.173 485.914C172.092 492.742 176.009 499.567 179.925 506.39C177.709 510.378 175.424 514.324 173.07 518.231C164.489 503.441 155.912 488.663 147.341 473.895ZM270.199 473.895C287.323 473.658 304.475 473.658 321.657 473.895C319.41 477.885 317.095 481.832 314.713 485.735C306.82 485.794 298.925 485.855 291.032 485.914C294.951 492.742 298.868 499.567 302.783 506.39C300.567 510.378 298.282 514.324 295.928 518.231C287.348 503.441 278.771 488.663 270.199 473.895ZM393.058 473.895C410.181 473.658 427.333 473.658 444.516 473.895C442.269 477.885 439.954 481.832 437.571 485.735C429.678 485.794 421.783 485.855 413.89 485.914C417.809 492.742 421.726 499.567 425.642 506.39C423.425 510.378 421.14 514.324 418.787 518.231C410.206 503.441 401.629 488.663 393.058 473.895ZM515.916 473.895C533.039 473.658 550.192 473.658 567.374 473.895C565.127 477.885 562.812 481.832 560.43 485.735C552.537 485.794 544.642 485.855 536.748 485.914C540.667 492.742 544.585 499.567 548.5 506.39C546.283 510.378 543.999 514.324 541.645 518.231C533.064 503.441 524.487 488.663 515.916 473.895ZM55.4642 491.7C60.0645 491.464 64.6939 491.464 69.3526 491.7C73.2545 498.495 77.2014 505.261 81.1932 511.999C85.1851 505.261 89.132 498.495 93.0339 491.7C97.6623 491.492 102.292 491.464 106.922 491.611C98.2786 506.376 89.7022 521.185 81.1932 536.036C72.6122 521.247 64.0358 506.468 55.4642 491.7ZM113.51 491.522C125.974 491.492 138.438 491.522 150.902 491.611C157.307 502.437 163.598 513.329 169.776 524.284C163.651 535.05 157.479 545.792 151.258 556.513C138.675 556.749 126.093 556.749 113.51 556.513C107.278 545.71 101.046 534.909 94.8145 524.106C101.096 513.265 107.328 502.403 113.51 491.522ZM178.323 491.7C182.924 491.464 187.553 491.464 192.211 491.7C196.112 498.495 200.06 505.261 204.052 511.999C208.044 505.261 211.991 498.495 215.892 491.7C220.52 491.492 225.149 491.464 229.781 491.611C221.136 506.376 212.561 521.185 204.052 536.036C195.471 521.247 186.894 506.468 178.323 491.7ZM236.369 491.522C248.833 491.492 261.296 491.522 273.76 491.611C280.165 502.437 286.456 513.329 292.634 524.284C286.509 535.05 280.338 545.792 274.116 556.513C261.533 556.749 248.952 556.749 236.369 556.513C230.137 545.71 223.905 534.909 217.673 524.106C223.955 513.265 230.187 502.403 236.369 491.522ZM301.181 491.7C305.782 491.464 310.411 491.464 315.069 491.7C318.97 498.495 322.918 505.261 326.91 511.999C330.902 505.261 334.849 498.495 338.751 491.7C343.378 491.492 348.008 491.464 352.639 491.611C343.994 506.376 335.419 521.185 326.91 536.036C318.329 521.247 309.752 506.468 301.181 491.7ZM359.227 491.522C371.691 491.492 384.155 491.522 396.619 491.611C403.023 502.437 409.314 513.329 415.493 524.284C409.367 535.05 403.196 545.792 396.975 556.513C384.392 556.749 371.81 556.749 359.227 556.513C352.995 545.71 346.763 534.909 340.531 524.106C346.813 513.265 353.045 502.403 359.227 491.522ZM424.039 491.7C428.64 491.464 433.27 491.464 437.928 491.7C441.829 498.495 445.776 505.261 449.768 511.999C453.76 505.261 457.708 498.495 461.609 491.7C466.237 491.492 470.866 491.464 475.497 491.611C466.853 506.376 458.278 521.185 449.768 536.036C441.188 521.247 432.611 506.468 424.039 491.7ZM482.085 491.522C494.549 491.492 507.013 491.522 519.477 491.611C525.882 502.437 532.172 513.329 538.351 524.284C532.226 535.05 526.054 545.792 519.833 556.513C507.25 556.749 494.669 556.749 482.085 556.513C475.853 545.71 469.621 534.909 463.389 524.106C469.671 513.265 475.903 502.403 482.085 491.522ZM546.898 491.7C551.499 491.464 556.128 491.464 560.786 491.7C564.687 498.495 568.635 505.261 572.627 511.999C576.619 505.261 580.566 498.495 584.467 491.7C589.095 491.492 593.724 491.464 598.356 491.611C589.711 506.376 581.136 521.185 572.627 536.036C564.046 521.247 555.469 506.468 546.898 491.7ZM60.6278 512.177C69.2065 526.989 77.8127 541.796 86.4459 556.602C81.8164 556.721 77.187 556.721 72.5576 556.602C68.7662 550.058 64.9973 543.498 61.251 536.926C61.091 536.601 60.8534 536.364 60.5388 536.214C56.5491 542.946 52.6022 549.713 48.6981 556.513C44.1292 556.721 39.5591 556.749 34.9878 556.602C43.5591 541.803 52.1057 526.995 60.6278 512.177ZM183.486 512.177C192.065 526.989 200.67 541.796 209.304 556.602C204.675 556.721 200.045 556.721 195.416 556.602C191.625 550.058 187.856 543.498 184.109 536.926C183.949 536.601 183.712 536.364 183.397 536.214C179.407 542.946 175.46 549.713 171.556 556.513C166.988 556.721 162.417 556.749 157.846 556.602C166.417 541.803 174.964 526.995 183.486 512.177ZM306.344 512.177C314.923 526.989 323.529 541.796 332.163 556.602C327.533 556.721 322.904 556.721 318.274 556.602C314.483 550.058 310.714 543.498 306.968 536.926C306.807 536.601 306.571 536.364 306.255 536.214C302.265 542.946 298.32 549.713 294.415 556.513C289.846 556.721 285.275 556.749 280.704 556.602C289.276 541.803 297.823 526.995 306.344 512.177ZM429.203 512.177C437.782 526.989 446.387 541.796 455.021 556.602C450.391 556.721 445.762 556.721 441.133 556.602C437.342 550.058 433.572 543.498 429.826 536.926C429.666 536.601 429.429 536.364 429.114 536.214C425.124 542.946 421.178 549.713 417.273 556.513C412.704 556.721 408.134 556.749 403.563 556.602C412.134 541.803 420.681 526.995 429.203 512.177ZM552.061 512.177C560.64 526.989 569.245 541.796 577.879 556.602C573.25 556.721 568.62 556.721 563.991 556.602C560.2 550.058 556.431 543.498 552.684 536.926C552.524 536.601 552.287 536.364 551.972 536.214C547.982 542.946 544.036 549.713 540.131 556.513C535.563 556.721 530.992 556.749 526.421 556.602C534.993 541.803 543.539 526.995 552.061 512.177ZM91.2534 529.982C91.6586 530.308 91.985 530.723 92.2327 531.229C100.467 545.621 108.747 559.985 117.071 574.318C99.9781 574.555 82.8848 574.555 65.7914 574.318C68.0469 570.401 70.3021 566.484 72.5576 562.566C80.4513 562.447 88.3452 562.33 96.2389 562.21C92.3892 555.371 88.472 548.575 84.4873 541.823C86.8145 537.909 89.0697 533.964 91.2534 529.982ZM214.112 529.982C214.518 530.308 214.844 530.723 215.091 531.229C223.326 545.621 231.606 559.985 239.93 574.318C222.836 574.555 205.743 574.555 188.65 574.318C190.906 570.401 193.16 566.484 195.416 562.566C203.309 562.447 211.204 562.33 219.097 562.21C215.248 555.371 211.33 548.575 207.346 541.823C209.673 537.909 211.929 533.964 214.112 529.982ZM336.97 529.982C337.376 530.308 337.702 530.723 337.949 531.229C346.184 545.621 354.464 559.985 362.788 574.318C345.695 574.555 328.601 574.555 311.508 574.318C313.764 570.401 316.018 566.484 318.274 562.566C326.167 562.447 334.062 562.33 341.956 562.21C338.106 555.371 334.189 548.575 330.204 541.823C332.531 537.909 334.787 533.964 336.97 529.982ZM459.828 529.982C460.234 530.308 460.56 530.723 460.808 531.229C469.043 545.621 477.322 559.985 485.646 574.318C468.553 574.555 451.46 574.555 434.366 574.318C436.622 570.401 438.877 566.484 441.133 562.566C449.026 562.447 456.921 562.33 464.814 562.21C460.964 555.371 457.047 548.575 453.062 541.823C455.389 537.909 457.645 533.964 459.828 529.982ZM582.687 529.982C583.093 530.308 583.419 530.723 583.666 531.229C591.901 545.621 600.181 559.985 608.505 574.318C591.411 574.555 574.318 574.555 557.225 574.318C559.481 570.401 561.735 566.484 563.991 562.566C571.884 562.447 579.779 562.33 587.672 562.21C583.823 555.371 579.905 548.575 575.921 541.823C578.248 537.909 580.504 533.964 582.687 529.982ZM60.4498 547.966C62.8598 551.776 65.1745 555.665 67.3939 559.629C63.4411 566.402 59.5239 573.196 55.6423 580.016C63.5355 580.164 71.4292 580.253 79.3237 580.283C81.6384 584.259 83.9531 588.237 86.2678 592.213C69.1741 592.36 52.0808 592.332 34.9878 592.124C43.48 577.402 51.9674 562.682 60.4498 547.966ZM183.308 547.966C185.717 551.776 188.032 555.665 190.252 559.629C186.299 566.402 182.382 573.196 178.501 580.016C186.394 580.164 194.287 580.253 202.182 580.283C204.497 584.259 206.811 588.237 209.126 592.213C192.033 592.36 174.939 592.332 157.846 592.124C166.338 577.402 174.826 562.682 183.308 547.966ZM306.166 547.966C308.576 551.776 310.89 555.665 313.111 559.629C309.158 566.402 305.241 573.196 301.359 580.016C309.252 580.164 317.145 580.253 325.04 580.283C327.355 584.259 329.67 588.237 331.984 592.213C314.891 592.36 297.798 592.332 280.704 592.124C289.196 577.402 297.684 562.682 306.166 547.966ZM429.025 547.966C431.434 551.776 433.749 555.665 435.969 559.629C432.016 566.402 428.099 573.196 424.217 580.016C432.11 580.164 440.004 580.253 447.899 580.283C450.213 584.259 452.528 588.237 454.843 592.213C437.749 592.36 420.656 592.332 403.563 592.124C412.054 577.402 420.542 562.682 429.025 547.966ZM551.883 547.966C554.292 551.776 556.607 555.665 558.827 559.629C554.874 566.402 550.957 573.196 547.076 580.016C554.969 580.164 562.862 580.253 570.757 580.283C573.072 584.259 575.386 588.237 577.701 592.213C560.608 592.36 543.514 592.332 526.421 592.124C534.913 577.402 543.401 562.682 551.883 547.966ZM116.893 562.566C133.957 562.358 151.05 562.33 168.173 562.477C159.501 577.203 150.984 592.01 142.622 606.902C140.269 602.996 137.984 599.05 135.767 595.062C139.61 588.192 143.528 581.367 147.519 574.585C139.625 574.526 131.731 574.466 123.838 574.407C121.541 570.435 119.226 566.487 116.893 562.566ZM239.752 562.566C256.815 562.358 273.908 562.33 291.032 562.477C282.359 577.203 273.842 592.01 265.481 606.902C263.127 602.996 260.842 599.05 258.626 595.062C262.468 588.192 266.385 581.367 270.377 574.585C262.484 574.526 254.589 574.466 246.696 574.407C244.399 570.435 242.084 566.487 239.752 562.566ZM362.61 562.566C379.673 562.358 396.766 562.33 413.89 562.477C405.217 577.203 396.701 592.01 388.339 606.902C385.985 602.996 383.701 599.05 381.484 595.062C385.326 588.192 389.244 581.367 393.236 574.585C385.342 574.526 377.447 574.466 369.554 574.407C367.257 570.435 364.943 566.487 362.61 562.566ZM485.468 562.566C502.531 562.358 519.625 562.33 536.748 562.477C528.075 577.203 519.559 592.01 511.197 606.902C508.844 602.996 506.559 599.05 504.342 595.062C508.185 588.192 512.102 581.367 516.094 574.585C508.201 574.526 500.306 574.466 492.413 574.407C490.116 570.435 487.801 566.487 485.468 562.566ZM86.0898 580.194C103.183 580.164 120.277 580.194 137.37 580.283C135.055 584.259 132.74 588.237 130.426 592.213C122.532 592.271 114.638 592.332 106.744 592.391C110.753 599.16 114.67 605.987 118.496 612.867C116.279 616.856 113.994 620.801 111.641 624.708C103.074 609.888 94.5576 595.051 86.0898 580.194ZM208.948 580.194C226.041 580.164 243.135 580.194 260.228 580.283C257.913 584.259 255.599 588.237 253.284 592.213C245.391 592.271 237.496 592.332 229.603 592.391C233.611 599.16 237.528 605.987 241.354 612.867C239.137 616.856 236.853 620.801 234.499 624.708C225.933 609.888 217.416 595.051 208.948 580.194ZM331.806 580.194C348.9 580.164 365.993 580.194 383.086 580.283C380.772 584.259 378.457 588.237 376.142 592.213C368.249 592.271 360.354 592.332 352.461 592.391C356.469 599.16 360.386 605.987 364.213 612.867C361.996 616.856 359.711 620.801 357.357 624.708C348.791 609.888 340.275 595.051 331.806 580.194ZM454.665 580.194C471.758 580.164 488.851 580.194 505.945 580.283C503.63 584.259 501.315 588.237 499.001 592.213C491.107 592.271 483.212 592.332 475.319 592.391C479.327 599.16 483.244 605.987 487.071 612.867C484.854 616.856 482.57 620.801 480.216 624.708C471.649 609.888 463.133 595.051 454.665 580.194ZM577.523 580.194C594.616 580.164 611.71 580.194 628.803 580.283C626.488 584.259 624.174 588.237 621.859 592.213C613.966 592.271 606.071 592.332 598.178 592.391C602.186 599.16 606.103 605.987 609.929 612.867C607.712 616.856 605.428 620.801 603.074 624.708C594.508 609.888 585.991 595.051 577.523 580.194Z" fill="#333333" fill-opacity="0.8"/>
<path opacity="0.979" fill-rule="evenodd" clip-rule="evenodd" d="M-0.0891113 608.327C6.24447 619.152 12.5358 630.014 18.7848 640.911C16.5294 640.911 14.274 640.911 12.0187 640.911C8.07212 633.847 4.0362 626.844 -0.0891113 619.9C-0.0891113 616.042 -0.0891113 612.185 -0.0891113 608.327Z" fill="#333333"/>
<path opacity="0.977" fill-rule="evenodd" clip-rule="evenodd" d="M640.911 630.762C640.911 634.145 640.911 637.528 640.911 640.911C638.952 640.911 636.994 640.911 635.035 640.911C636.924 637.482 638.883 634.098 640.911 630.762Z" fill="#333333"/>
</g>
<defs>
<clipPath id="clip0_47_38">
<rect width="641" height="641" fill="white"/>
</clipPath>
</defs>
</svg>
