<svg width="641" height="641" viewBox="0 0 641 641" fill="none" xmlns="http://www.w3.org/2000/svg">
<g clip-path="url(#clip0_47_140)">
<path opacity="0.994" fill-rule="evenodd" clip-rule="evenodd" d="M9.52588 -0.0891113C15.2237 -0.0891113 20.9214 -0.0891113 26.6192 -0.0891113C31.2958 8.0465 36.0441 16.148 40.8637 24.2155C63.4769 24.2452 86.09 24.3342 108.703 24.4826C125.529 53.6244 142.355 82.766 159.182 111.908C159.28 112.428 159.161 112.902 158.825 113.332C156.2 117.932 153.529 122.502 150.813 127.043C145.1 117.338 139.432 107.604 133.809 97.8414C116.953 97.6336 100.097 97.6041 83.2409 97.7524C77.5629 107.537 71.8651 117.3 66.1476 127.043C63.2536 122.145 60.4047 117.219 57.6009 112.264C63.2312 102.457 68.929 92.6933 74.6942 82.9738C91.5502 82.9145 108.406 82.855 125.262 82.7957C116.857 68.2696 108.429 53.7581 99.9781 39.2612C77.3651 39.1424 54.752 39.0238 32.1389 38.9051C24.5203 25.9469 16.9827 12.9489 9.52588 -0.0891113Z" fill="#141413" fill-opacity="0.68"/>
<path opacity="0.993" fill-rule="evenodd" clip-rule="evenodd" d="M45.3152 -0.0891113C84.5467 -0.0891113 123.778 -0.0891113 163.01 -0.0891113C160.364 4.52034 157.693 9.12012 154.997 13.7102C121.108 13.8289 87.2175 13.8289 53.3277 13.7102C50.6323 9.12012 47.9614 4.52034 45.3152 -0.0891113Z" fill="#141413" fill-opacity="0.68"/>
<path opacity="0.992" fill-rule="evenodd" clip-rule="evenodd" d="M175.118 -0.0891113C181.291 -0.0891113 187.462 -0.0891113 193.635 -0.0891113C201.732 14.2037 209.922 28.4482 218.207 42.6442C229.483 42.763 240.761 42.8816 252.038 43.0003C249.294 47.837 246.504 52.6445 243.669 57.4228C232.274 57.6566 220.878 57.6271 209.482 57.3338C201.062 42.8369 192.663 28.3254 184.288 13.7992C175.776 28.3002 167.377 42.8711 159.093 57.5119C170.368 77.0358 181.645 96.5625 192.923 116.092C176.149 145.456 159.353 174.806 142.534 204.141C136.836 204.377 131.138 204.377 125.44 204.141C131.022 194.401 136.601 184.667 142.177 174.939C133.827 160.317 125.429 145.716 116.983 131.138C105.688 130.941 94.3816 130.941 83.063 131.138C85.7096 126.142 88.4992 121.216 91.4316 116.359C102.827 116.122 114.223 116.122 125.618 116.359C134.017 130.9 142.415 145.442 150.813 159.983C159.162 145.393 167.441 130.763 175.652 116.092C164.449 96.5212 153.172 76.9943 141.821 57.5119C152.945 38.3212 164.044 19.1209 175.118 -0.0891113Z" fill="#141413" fill-opacity="0.68"/>
<path opacity="0.989" fill-rule="evenodd" clip-rule="evenodd" d="M214.824 -0.0891113C220.522 -0.0891113 226.22 -0.0891113 231.917 -0.0891113C237.271 9.25337 242.672 18.5716 248.12 27.8656C242.424 28.0734 236.727 28.103 231.027 27.9546C225.509 18.6698 220.109 9.3218 214.824 -0.0891113Z" fill="#141413" fill-opacity="0.68"/>
<path opacity="0.986" fill-rule="evenodd" clip-rule="evenodd" d="M253.284 -0.0891113C259.041 -0.0891113 264.799 -0.0891113 270.555 -0.0891113C267.32 5.66849 263.998 11.3663 260.584 17.0042C257.691 12.1071 254.842 7.18093 252.038 2.22561C252.502 1.47279 252.919 0.701211 253.284 -0.0891113Z" fill="#141413" fill-opacity="0.68"/>
<path opacity="0.986" fill-rule="evenodd" clip-rule="evenodd" d="M335.368 -0.0891113C341.065 -0.0891113 346.763 -0.0891113 352.461 -0.0891113C353.052 0.735394 353.439 1.62567 353.618 2.58172C350.875 7.41837 348.084 12.2259 345.25 17.0042C341.817 11.384 338.523 5.68623 335.368 -0.0891113Z" fill="#141413" fill-opacity="0.68"/>
<path opacity="0.992" fill-rule="evenodd" clip-rule="evenodd" d="M366.705 -0.0891113C372.403 -0.0891113 378.101 -0.0891113 383.799 -0.0891113C384.945 1.97851 386.133 4.02614 387.36 6.05381C370.585 35.4178 353.789 64.7673 336.97 94.1023C331.272 94.3396 325.575 94.3396 319.877 94.1023C325.459 84.3619 331.037 74.6282 336.614 64.9012C328.263 50.2782 319.866 35.6776 311.419 21.0995C300.125 20.9017 288.819 20.9017 277.5 21.0995C280.145 16.104 282.936 11.1779 285.868 6.32089C297.264 6.08349 308.659 6.08349 320.055 6.32089C328.454 20.8622 336.851 35.4032 345.25 49.9445C353.499 35.4032 361.75 20.8622 369.999 6.32089C370.119 6.14283 370.119 5.96478 369.999 5.78672C368.806 3.87599 367.71 1.91738 366.705 -0.0891113Z" fill="#141413" fill-opacity="0.68"/>
<path opacity="0.994" fill-rule="evenodd" clip-rule="evenodd" d="M398.399 -0.0891113C404.097 -0.0891113 409.795 -0.0891113 415.493 -0.0891113C420.17 8.0465 424.917 16.148 429.737 24.2155C452.35 24.2452 474.963 24.3342 497.576 24.4826C514.403 53.6244 531.229 82.766 548.055 111.908C548.153 112.428 548.034 112.902 547.699 113.332C545.073 117.932 542.402 122.502 539.686 127.043C533.973 117.338 528.305 107.604 522.682 97.8414C505.827 97.6336 488.971 97.6041 472.114 97.7524C466.436 107.537 460.738 117.3 455.021 127.043C452.128 122.145 449.279 117.219 446.474 112.264C452.105 102.457 457.802 92.6933 463.568 82.9738C480.424 82.9145 497.279 82.855 514.136 82.7957C505.73 68.2696 497.302 53.7581 488.852 39.2612C466.239 39.1424 443.626 39.0238 421.012 38.9051C413.393 25.9469 405.856 12.9489 398.399 -0.0891113Z" fill="#141413" fill-opacity="0.68"/>
<path opacity="0.993" fill-rule="evenodd" clip-rule="evenodd" d="M434.188 -0.0891113C473.419 -0.0891113 512.652 -0.0891113 551.883 -0.0891113C549.237 4.52034 546.566 9.12012 543.871 13.7102C509.981 13.8289 476.09 13.8289 442.201 13.7102C439.505 9.12012 436.834 4.52034 434.188 -0.0891113Z" fill="#141413" fill-opacity="0.68"/>
<path opacity="0.992" fill-rule="evenodd" clip-rule="evenodd" d="M563.991 -0.0891113C570.164 -0.0891113 576.336 -0.0891113 582.509 -0.0891113C590.605 14.2037 598.796 28.4482 607.08 42.6442C618.357 42.8223 629.633 42.8816 640.911 42.8223C640.911 42.941 640.911 43.0596 640.911 43.1784C638.126 47.9154 635.336 52.6634 632.542 57.4228C621.147 57.6566 609.751 57.6271 598.356 57.3338C589.935 42.8369 581.537 28.3254 573.161 13.7992C564.648 28.3002 556.251 42.8711 547.966 57.5119C559.242 77.0358 570.519 96.5625 581.797 116.092C565.022 145.456 548.226 174.806 531.407 204.141C525.709 204.377 520.011 204.377 514.314 204.141C519.896 194.401 525.474 184.667 531.051 174.939C522.7 160.317 514.303 145.716 505.856 131.138C494.562 130.941 483.255 130.941 471.936 131.138C474.582 126.142 477.372 121.216 480.305 116.359C491.7 116.122 503.096 116.122 514.492 116.359C522.89 130.9 531.288 145.442 539.686 159.983C548.035 145.393 556.315 130.763 564.525 116.092C553.322 96.5212 542.046 76.9943 530.695 57.5119C541.818 38.3212 552.916 19.1209 563.991 -0.0891113Z" fill="#141413" fill-opacity="0.68"/>
<path opacity="0.989" fill-rule="evenodd" clip-rule="evenodd" d="M603.697 -0.0891113C609.395 -0.0891113 615.093 -0.0891113 620.791 -0.0891113C626.145 9.25337 631.545 18.5716 636.994 27.8656C631.298 28.0734 625.6 28.103 619.9 27.9546C614.382 18.6698 608.982 9.3218 603.697 -0.0891113Z" fill="#141413" fill-opacity="0.68"/>
<path opacity="0.985" fill-rule="evenodd" clip-rule="evenodd" d="M-0.0891113 37.6587C-0.0891113 35.8782 -0.0891113 34.0976 -0.0891113 32.3171C1.77582 29.1828 3.64541 26.0371 5.51964 22.8801C8.39821 27.7767 11.2768 32.6732 14.1553 37.5697C9.40755 37.6587 4.6594 37.6885 -0.0891113 37.6587Z" fill="#141413" fill-opacity="0.68"/>
<path opacity="0.984" fill-rule="evenodd" clip-rule="evenodd" d="M394.304 22.8801C394.475 22.9608 394.623 23.0794 394.749 23.2362C397.486 28.0286 400.246 32.8064 403.029 37.5697C397.329 37.718 391.631 37.6885 385.935 37.4807C388.727 32.6089 391.517 27.7421 394.304 22.8801Z" fill="#141413" fill-opacity="0.68"/>
<path opacity="0.984" fill-rule="evenodd" clip-rule="evenodd" d="M125.974 24.3046C131.643 24.0677 137.341 24.0677 143.068 24.3046C140.306 29.2362 137.457 34.1031 134.521 38.9051C131.667 34.0271 128.818 29.1601 125.974 24.3046Z" fill="#141413" fill-opacity="0.68"/>
<path opacity="0.984" fill-rule="evenodd" clip-rule="evenodd" d="M514.848 24.3046C520.517 24.0677 526.215 24.0677 531.941 24.3046C529.179 29.2362 526.33 34.1031 523.394 38.9051C520.54 34.0271 517.691 29.1601 514.848 24.3046Z" fill="#141413" fill-opacity="0.68"/>
<path opacity="0.992" fill-rule="evenodd" clip-rule="evenodd" d="M281.595 35.7001C287.293 35.6704 292.991 35.7001 298.688 35.7891C304.327 45.5822 309.965 55.3753 315.604 65.1683C307.176 79.7689 298.747 94.3694 290.32 108.97C307.176 109.118 324.033 109.089 340.887 108.881C352.105 89.4136 363.322 69.9461 374.54 50.4787C408.488 50.2017 442.438 50.0534 476.388 50.0336C479.222 54.8714 482.013 59.7383 484.756 64.6341C473.48 64.6934 462.202 64.7529 450.926 64.8122C442.506 79.3091 434.107 93.8207 425.731 108.347C425.612 108.525 425.612 108.703 425.731 108.881C431.34 118.555 436.948 128.23 442.557 137.904C436.861 138.112 431.163 138.141 425.464 137.993C419.755 128.267 414.116 118.503 408.549 108.703C416.907 94.0357 425.334 79.4055 433.832 64.8122C416.976 64.8735 400.121 65.0515 383.265 65.3464C371.942 84.7847 360.666 104.252 349.434 123.749C315.545 123.867 281.654 123.867 247.764 123.749C244.916 118.882 242.067 114.015 239.218 109.148C250.494 109.089 261.772 109.029 273.048 108.97C281.469 94.4731 289.867 79.9615 298.243 65.4354C298.355 65.0552 298.297 64.6991 298.065 64.3671C292.481 54.8598 286.99 45.3041 281.595 35.7001Z" fill="#141413" fill-opacity="0.68"/>
<path opacity="0.993" fill-rule="evenodd" clip-rule="evenodd" d="M268.597 46.5615C271.565 51.4344 274.473 56.3605 277.322 61.3401C271.661 71.089 266.022 80.8524 260.406 90.6303C243.491 90.6896 226.576 90.749 209.66 90.8083C218.252 105.261 226.798 119.743 235.3 134.254C257.914 134.284 280.527 134.373 303.14 134.521C319.966 163.663 336.792 192.804 353.618 221.946C353.716 222.466 353.597 222.942 353.262 223.371C350.636 227.97 347.965 232.541 345.25 237.081C339.536 227.377 333.868 217.643 328.245 207.88C311.391 207.672 294.534 207.643 277.678 207.791C272.001 217.45 266.393 227.154 260.851 236.903C260.693 237.118 260.543 237.118 260.406 236.903C257.616 232.037 254.828 227.169 252.038 222.302C257.7 212.516 263.398 202.752 269.131 193.012C285.988 192.953 302.842 192.893 319.699 192.834C311.293 178.308 302.865 163.797 294.415 149.3C271.802 149.181 249.189 149.062 226.576 148.943C209.586 119.89 192.64 90.8078 175.741 61.6962C175.643 61.1765 175.761 60.7016 176.097 60.2718C178.768 55.7611 181.439 51.2503 184.11 46.7396C189.809 56.3556 195.418 66.0299 200.936 75.7626C217.91 76 234.886 76 251.86 75.7626C257.442 66.0241 263.02 56.2903 268.597 46.5615Z" fill="#141413" fill-opacity="0.68"/>
<path opacity="0.993" fill-rule="evenodd" clip-rule="evenodd" d="M640.911 75.5845C640.911 80.6293 640.911 85.6744 640.911 90.7192C626.786 90.6895 612.659 90.7192 598.534 90.8083C607.118 105.217 615.634 119.669 624.085 134.165C629.681 134.342 635.29 134.401 640.911 134.343C640.911 139.269 640.911 144.195 640.911 149.121C632.423 149.181 623.935 149.121 615.449 148.943C598.382 119.794 581.407 90.5928 564.525 61.3401C567.207 56.3924 570.025 51.5256 572.983 46.7395C578.682 56.3556 584.291 66.0299 589.809 75.7626C598.297 75.8218 606.783 75.8813 615.271 75.9406C623.855 75.9397 632.402 75.8211 640.911 75.5845Z" fill="#141413" fill-opacity="0.68"/>
<path opacity="0.993" fill-rule="evenodd" clip-rule="evenodd" d="M-0.0891113 65.0794C-0.0891113 60.1531 -0.0891113 55.227 -0.0891113 50.3008C29.1122 50.1649 58.3133 50.0759 87.5142 50.0337C90.3487 54.8715 93.1383 59.7384 95.8828 64.6342C84.5638 64.6643 73.2573 64.7534 61.9632 64.9013C53.5412 79.4606 45.1429 94.0314 36.7684 108.614C42.383 118.389 48.0215 128.152 53.6837 137.904C47.9868 138.112 42.289 138.141 36.5903 137.993C30.8815 128.267 25.2432 118.503 19.6751 108.703C28.0326 94.0358 36.4607 79.4056 44.9589 64.8123C29.9453 64.9337 14.9293 65.0228 -0.0891113 65.0794Z" fill="#141413" fill-opacity="0.68"/>
<path opacity="0.985" fill-rule="evenodd" clip-rule="evenodd" d="M-0.0891113 79.5019C5.07484 79.4721 10.2384 79.5019 15.4017 79.5909C10.3008 88.519 5.13718 97.392 -0.0891113 106.21C-0.0891113 97.3074 -0.0891113 88.4047 -0.0891113 79.5019Z" fill="#141413" fill-opacity="0.68"/>
<path opacity="0.992" fill-rule="evenodd" clip-rule="evenodd" d="M387.004 79.5019C392.762 79.4721 398.519 79.5019 404.275 79.5909C398.659 89.3688 393.02 99.1321 387.36 108.881C395.787 123.482 404.216 138.082 412.644 152.683C423.92 152.801 435.198 152.92 446.474 153.039C443.73 157.876 440.94 162.683 438.106 167.461C426.71 167.695 415.315 167.666 403.919 167.372C395.499 152.875 387.1 138.364 378.724 123.838C370.211 138.339 361.814 152.91 353.529 167.55C364.805 187.074 376.082 206.601 387.36 226.131C370.585 255.494 353.789 284.844 336.97 314.179C331.272 314.416 325.575 314.416 319.877 314.179C325.459 304.439 331.037 294.705 336.614 284.978C328.263 270.354 319.866 255.754 311.419 241.176C300.125 240.979 288.819 240.979 277.5 241.176C280.145 236.18 282.936 231.255 285.868 226.398C297.264 226.161 308.659 226.161 320.055 226.398C328.454 240.94 336.851 255.48 345.25 270.021C353.599 255.431 361.878 240.801 370.088 226.131C358.885 206.559 347.609 187.033 336.258 167.55C353.244 138.235 370.16 108.885 387.004 79.5019Z" fill="#141413" fill-opacity="0.68"/>
<path opacity="0.989" fill-rule="evenodd" clip-rule="evenodd" d="M640.911 109.059C640.911 113.985 640.911 118.911 640.911 123.838C639.485 123.867 638.06 123.838 636.637 123.749C633.789 118.882 630.94 114.015 628.091 109.148C632.364 109.059 636.637 109.029 640.911 109.059Z" fill="#141413" fill-opacity="0.68"/>
<path opacity="0.993" fill-rule="evenodd" clip-rule="evenodd" d="M-0.0891113 111.552C7.90423 125.222 15.8574 138.932 23.7703 152.683C35.0471 152.801 46.3241 152.92 57.6009 153.039C54.8563 157.875 52.0667 162.683 49.2323 167.461C37.836 167.695 26.4405 167.665 15.0456 167.372C10.0184 158.651 4.97351 149.956 -0.0891113 141.287C-0.0891113 131.375 -0.0891113 121.464 -0.0891113 111.552Z" fill="#141413" fill-opacity="0.68"/>
<path opacity="0.984" fill-rule="evenodd" clip-rule="evenodd" d="M199.867 132.918C200.038 132.999 200.186 133.118 200.313 133.275C203.049 138.067 205.809 142.845 208.592 147.608C202.893 147.756 197.195 147.727 191.499 147.519C194.291 142.647 197.081 137.78 199.867 132.918Z" fill="#141413" fill-opacity="0.68"/>
<path opacity="0.984" fill-rule="evenodd" clip-rule="evenodd" d="M588.741 132.918C588.912 132.999 589.059 133.118 589.186 133.275C591.923 138.067 594.682 142.845 597.465 147.608C591.766 147.756 586.068 147.727 580.372 147.519C583.164 142.647 585.954 137.78 588.741 132.918Z" fill="#141413" fill-opacity="0.68"/>
<path opacity="0.984" fill-rule="evenodd" clip-rule="evenodd" d="M320.411 134.343C326.08 134.106 331.778 134.106 337.504 134.343C334.743 139.274 331.894 144.141 328.958 148.943C326.103 144.065 323.254 139.198 320.411 134.343Z" fill="#141413" fill-opacity="0.68"/>
<path opacity="0.992" fill-rule="evenodd" clip-rule="evenodd" d="M87.1582 145.738C92.8564 145.709 98.5541 145.738 104.252 145.827C109.89 155.621 115.528 165.414 121.167 175.207C112.739 189.807 104.311 204.408 95.883 219.008C112.739 219.156 129.595 219.128 146.451 218.919C157.668 199.452 168.886 179.984 180.103 160.517C214.051 160.24 248.001 160.092 281.951 160.072C284.786 164.91 287.576 169.777 290.32 174.672C279.043 174.732 267.765 174.791 256.489 174.851C248.069 189.348 239.67 203.859 231.294 218.385C231.175 218.563 231.175 218.741 231.294 218.919C236.903 228.593 242.512 238.269 248.12 247.942C242.424 248.151 236.727 248.179 231.027 248.031C225.319 238.304 219.68 228.541 214.112 218.741C222.47 204.075 230.897 189.444 239.396 174.851C222.539 174.914 205.684 175.092 188.828 175.385C177.506 194.823 166.229 214.29 154.997 233.787C121.108 233.906 87.2175 233.906 53.3277 233.787C50.4788 228.921 47.6299 224.053 44.781 219.186C56.0578 219.128 67.3348 219.067 78.6116 219.008C87.0323 204.511 95.4307 189.999 103.806 175.474C103.919 175.094 103.86 174.737 103.628 174.405C98.0442 164.898 92.554 155.342 87.1582 145.738Z" fill="#141413" fill-opacity="0.68"/>
<path opacity="0.992" fill-rule="evenodd" clip-rule="evenodd" d="M640.911 160.161C640.911 167.639 640.911 175.118 640.911 182.596C633.947 194.592 627.003 206.61 620.078 218.652C625.693 228.428 631.332 238.19 636.994 247.942C631.298 248.151 625.6 248.179 619.9 248.031C614.192 238.304 608.553 228.542 602.985 218.741C611.343 204.075 619.77 189.444 628.269 174.851C611.412 174.914 594.558 175.092 577.701 175.385C566.379 194.823 555.102 214.29 543.871 233.787C509.981 233.906 476.09 233.906 442.201 233.787C439.352 228.921 436.503 224.053 433.654 219.186C444.931 219.128 456.209 219.067 467.485 219.008C475.983 204.415 484.411 189.784 492.769 175.118C487.267 165.342 481.688 155.609 476.032 145.917C481.728 145.709 487.425 145.679 493.125 145.828C498.764 155.621 504.401 165.414 510.04 175.207C501.613 189.807 493.184 204.408 484.756 219.008C501.613 219.156 518.469 219.128 535.324 218.919C546.542 199.453 557.759 179.984 568.977 160.517C592.953 160.29 616.932 160.171 640.911 160.161Z" fill="#141413" fill-opacity="0.68"/>
<path opacity="0.994" fill-rule="evenodd" clip-rule="evenodd" d="M-0.0891113 203.785C-0.0891113 193.992 -0.0891113 184.198 -0.0891113 174.405C2.10213 178.193 4.29814 181.991 6.49894 185.801C23.4735 186.038 40.4483 186.038 57.4228 185.801C62.9865 176.038 68.5953 166.304 74.2491 156.6C77.1631 161.503 80.0418 166.429 82.8848 171.378C77.2239 181.127 71.5854 190.89 65.9695 200.669C49.0542 200.727 32.1389 200.788 15.2237 200.847C23.8152 215.299 32.3619 229.781 40.8637 244.292C63.4769 244.322 86.09 244.412 108.703 244.559C125.607 273.798 142.463 303.058 159.271 332.341C156.544 337.319 153.725 342.244 150.813 347.119C145.1 337.415 139.432 327.681 133.809 317.918C116.953 317.71 100.097 317.681 83.2409 317.829C77.5629 327.613 71.8651 337.376 66.1476 347.119C63.2536 342.223 60.4047 337.296 57.6009 332.341C63.2632 322.555 68.961 312.79 74.6942 303.051C91.5502 302.992 108.406 302.931 125.262 302.873C116.857 288.347 108.429 273.835 99.9781 259.338C77.3651 259.219 54.752 259.101 32.1389 258.982C21.3915 240.571 10.6488 222.172 -0.0891113 203.785Z" fill="#141413" fill-opacity="0.68"/>
<path opacity="0.993" fill-rule="evenodd" clip-rule="evenodd" d="M463.033 156.6C466.002 161.473 468.909 166.399 471.758 171.378C466.098 181.127 460.459 190.89 454.843 200.669C437.928 200.727 421.012 200.788 404.097 200.847C412.688 215.299 421.235 229.781 429.737 244.292C452.35 244.322 474.963 244.412 497.576 244.559C514.402 273.702 531.229 302.842 548.055 331.985C548.153 332.505 548.034 332.98 547.699 333.409C545.072 338.008 542.402 342.579 539.686 347.119C533.973 337.415 528.305 327.681 522.682 317.918C505.827 317.71 488.971 317.681 472.114 317.829C466.438 327.489 460.829 337.193 455.288 346.941C455.13 347.157 454.98 347.157 454.843 346.941C452.053 342.075 449.264 337.207 446.474 332.341C452.136 322.555 457.834 312.79 463.568 303.051C480.424 302.992 497.279 302.931 514.135 302.873C505.729 288.347 497.302 273.835 488.851 259.338C466.238 259.219 443.625 259.101 421.012 258.982C404.022 229.928 387.077 200.847 370.177 171.735C370.079 171.215 370.199 170.74 370.534 170.31C373.204 165.799 375.875 161.289 378.546 156.778C384.246 166.394 389.854 176.068 395.372 185.801C412.346 186.038 429.322 186.038 446.296 185.801C451.878 176.062 457.457 166.329 463.033 156.6Z" fill="#141413" fill-opacity="0.68"/>
<path opacity="0.992" fill-rule="evenodd" clip-rule="evenodd" d="M192.567 189.54C198.325 189.51 204.082 189.54 209.839 189.629C204.223 199.408 198.584 209.171 192.923 218.919C201.351 233.52 209.78 248.12 218.207 262.721C229.483 262.84 240.761 262.958 252.038 263.077C249.294 267.913 246.504 272.721 243.669 277.5C232.274 277.735 220.878 277.704 209.482 277.411C201.062 262.913 192.663 248.402 184.288 233.876C175.776 248.377 167.377 262.947 159.093 277.589C170.368 297.112 181.645 316.64 192.923 336.169C176.149 365.532 159.353 394.883 142.534 424.217C136.836 424.454 131.138 424.454 125.44 424.217C131.022 414.478 136.601 404.743 142.177 395.016C133.827 380.393 125.429 365.792 116.983 351.215C105.688 351.019 94.3816 351.019 83.063 351.215C85.7096 346.218 88.4992 341.293 91.4316 336.436C102.827 336.199 114.223 336.199 125.618 336.436C134.017 350.978 142.415 365.518 150.813 380.06C159.162 365.47 167.441 350.839 175.652 336.169C164.449 316.597 153.172 297.071 141.821 277.589C158.808 248.274 175.724 218.923 192.567 189.54Z" fill="#141413" fill-opacity="0.68"/>
<path opacity="0.992" fill-rule="evenodd" clip-rule="evenodd" d="M640.911 262.899C640.911 263.018 640.911 263.136 640.911 263.255C638.126 267.992 635.336 272.74 632.542 277.5C621.147 277.735 609.751 277.704 598.356 277.411C589.935 262.913 581.537 248.402 573.161 233.876C564.648 248.377 556.251 262.947 547.966 277.589C559.242 297.113 570.519 316.64 581.797 336.169C565.022 365.532 548.226 394.883 531.407 424.217C525.709 424.454 520.011 424.454 514.314 424.217C519.896 414.478 525.474 404.744 531.051 395.016C522.7 380.393 514.303 365.792 505.856 351.215C494.562 351.019 483.255 351.019 471.936 351.215C474.582 346.218 477.372 341.293 480.305 336.436C491.7 336.199 503.096 336.199 514.492 336.436C522.89 350.978 531.288 365.518 539.686 380.06C548.035 365.47 556.315 350.839 564.525 336.169C553.322 316.597 542.046 297.072 530.695 277.589C547.633 248.313 564.548 219.023 581.44 189.718C587.197 189.51 592.954 189.482 598.712 189.629C593.096 199.408 587.457 209.171 581.797 218.919C590.224 233.52 598.653 248.121 607.08 262.721C618.357 262.899 629.633 262.958 640.911 262.899Z" fill="#141413" fill-opacity="0.68"/>
<path opacity="0.985" fill-rule="evenodd" clip-rule="evenodd" d="M-0.0891113 257.735C-0.0891113 255.955 -0.0891113 254.174 -0.0891113 252.394C1.77582 249.26 3.64541 246.114 5.51964 242.957C8.39821 247.853 11.2768 252.75 14.1553 257.646C9.40755 257.735 4.6594 257.766 -0.0891113 257.735Z" fill="#141413" fill-opacity="0.68"/>
<path opacity="0.984" fill-rule="evenodd" clip-rule="evenodd" d="M394.304 242.957C394.475 243.037 394.623 243.156 394.749 243.313C397.486 248.106 400.246 252.883 403.029 257.646C397.329 257.794 391.631 257.766 385.935 257.557C388.727 252.686 391.517 247.819 394.304 242.957Z" fill="#141413" fill-opacity="0.68"/>
<path opacity="0.984" fill-rule="evenodd" clip-rule="evenodd" d="M125.974 244.381C131.643 244.144 137.341 244.144 143.068 244.381C140.306 249.313 137.457 254.18 134.521 258.982C131.667 254.103 128.818 249.237 125.974 244.381Z" fill="#141413" fill-opacity="0.68"/>
<path opacity="0.984" fill-rule="evenodd" clip-rule="evenodd" d="M514.848 244.381C520.517 244.144 526.215 244.144 531.941 244.381C529.179 249.313 526.33 254.18 523.394 258.982C520.54 254.103 517.691 249.237 514.848 244.381Z" fill="#141413" fill-opacity="0.68"/>
<path opacity="0.992" fill-rule="evenodd" clip-rule="evenodd" d="M281.595 255.777C287.293 255.746 292.991 255.777 298.688 255.866C304.327 265.659 309.965 275.452 315.604 285.245C307.176 299.846 298.747 314.446 290.32 329.047C307.176 329.194 324.033 329.166 340.887 328.958C352.105 309.491 363.322 290.022 374.54 270.555C408.49 270.279 442.438 270.132 476.388 270.11C479.222 274.948 482.013 279.814 484.756 284.711C473.48 284.77 462.202 284.83 450.926 284.889C442.506 299.386 434.107 313.898 425.731 328.423C425.612 328.601 425.612 328.78 425.731 328.958C431.34 338.631 436.948 348.307 442.557 357.981C436.861 358.189 431.163 358.217 425.464 358.07C419.755 348.343 414.116 338.58 408.549 328.78C416.907 314.113 425.334 299.482 433.832 284.889C416.976 284.951 400.121 285.129 383.265 285.423C371.942 304.861 360.666 324.328 349.434 343.825C315.545 343.945 281.654 343.945 247.764 343.825C244.916 338.959 242.067 334.091 239.218 329.225C250.494 329.166 261.772 329.105 273.048 329.047C281.469 314.549 289.867 300.038 298.243 285.512C298.355 285.131 298.297 284.775 298.065 284.444C292.481 274.936 286.99 265.381 281.595 255.777Z" fill="#141413" fill-opacity="0.68"/>
<path opacity="0.993" fill-rule="evenodd" clip-rule="evenodd" d="M268.597 266.638C271.565 271.512 274.473 276.437 277.322 281.417C271.661 291.165 266.022 300.928 260.406 310.707C243.491 310.766 226.576 310.826 209.66 310.885C218.252 325.338 226.798 339.819 235.3 354.331C257.914 354.361 280.527 354.45 303.14 354.598C319.966 383.74 336.792 412.881 353.618 442.023C353.716 442.543 353.597 443.018 353.262 443.447C350.636 448.047 347.965 452.617 345.25 457.158C339.536 447.454 333.868 437.719 328.245 427.957C311.391 427.748 294.534 427.72 277.678 427.868C272.001 437.527 266.393 447.231 260.851 456.98C260.693 457.195 260.543 457.195 260.406 456.98C257.616 452.113 254.828 447.245 252.038 442.379C257.668 432.572 263.366 422.809 269.131 413.089C285.988 413.03 302.842 412.97 319.699 412.911C311.293 398.385 302.865 383.874 294.415 369.376C271.802 369.257 249.189 369.139 226.576 369.02C209.586 339.967 192.64 310.885 175.741 281.773C175.643 281.253 175.761 280.778 176.097 280.348C178.768 275.838 181.439 271.326 184.11 266.816C189.809 276.433 195.418 286.107 200.936 295.839C217.91 296.076 234.886 296.076 251.86 295.839C257.442 286.101 263.02 276.367 268.597 266.638Z" fill="#141413" fill-opacity="0.68"/>
<path opacity="0.993" fill-rule="evenodd" clip-rule="evenodd" d="M640.911 295.661C640.911 300.705 640.911 305.752 640.911 310.796C626.786 310.766 612.659 310.796 598.534 310.885C607.118 325.293 615.634 339.746 624.085 354.241C629.681 354.419 635.29 354.478 640.911 354.419C640.911 359.346 640.911 364.271 640.911 369.198C632.423 369.257 623.935 369.198 615.449 369.02C598.382 339.871 581.407 310.669 564.525 281.417C567.207 276.469 570.025 271.602 572.983 266.816C578.682 276.433 584.291 286.107 589.809 295.839C598.297 295.898 606.783 295.959 615.271 296.017C623.855 296.017 632.402 295.898 640.911 295.661Z" fill="#141413" fill-opacity="0.68"/>
<path opacity="0.993" fill-rule="evenodd" clip-rule="evenodd" d="M-0.0891113 285.156C-0.0891113 280.229 -0.0891113 275.304 -0.0891113 270.377C29.1122 270.242 58.3133 270.153 87.5142 270.11C90.3487 274.948 93.1383 279.814 95.8828 284.711C84.5638 284.741 73.2573 284.83 61.9632 284.978C53.5412 299.538 45.1429 314.108 36.7684 328.691C42.383 338.466 48.0215 348.229 53.6837 357.981C47.9868 358.189 42.289 358.218 36.5903 358.07C30.8815 348.343 25.2432 338.58 19.6751 328.78C28.0326 314.113 36.4607 299.482 44.9589 284.889C29.9453 285.012 14.9293 285.101 -0.0891113 285.156Z" fill="#141413" fill-opacity="0.68"/>
<path opacity="0.984" fill-rule="evenodd" clip-rule="evenodd" d="M-0.0891113 299.579C5.07484 299.548 10.2384 299.579 15.4017 299.668C10.3008 308.595 5.13718 317.47 -0.0891113 326.287C-0.0891113 317.384 -0.0891113 308.481 -0.0891113 299.579Z" fill="#141413" fill-opacity="0.68"/>
<path opacity="0.992" fill-rule="evenodd" clip-rule="evenodd" d="M387.004 299.579C392.762 299.548 398.519 299.579 404.275 299.668C398.659 309.446 393.02 319.209 387.36 328.958C395.787 343.558 404.216 358.159 412.644 372.759C423.92 372.879 435.198 372.996 446.474 373.115C443.73 377.951 440.94 382.759 438.106 387.538C426.71 387.771 415.315 387.743 403.919 387.449C395.499 372.952 387.1 358.44 378.724 343.914C370.211 358.415 361.814 372.985 353.529 387.627C364.805 407.151 376.082 426.678 387.36 446.207C370.585 475.57 353.789 504.921 336.97 534.256C331.272 534.493 325.575 534.493 319.877 534.256C325.459 524.516 331.037 514.782 336.614 505.055C328.263 490.431 319.866 475.83 311.419 461.253C300.125 461.059 288.819 461.059 277.5 461.253C280.145 456.257 282.936 451.332 285.868 446.474C297.264 446.238 308.659 446.238 320.055 446.474C328.454 461.016 336.851 475.556 345.25 490.098C353.599 475.508 361.878 460.877 370.088 446.207C358.885 426.635 347.609 407.11 336.258 387.627C353.244 358.312 370.16 328.961 387.004 299.579Z" fill="#141413" fill-opacity="0.68"/>
<path opacity="0.989" fill-rule="evenodd" clip-rule="evenodd" d="M640.911 329.136C640.911 334.062 640.911 338.987 640.911 343.914C639.485 343.945 638.06 343.914 636.637 343.825C633.789 338.959 630.94 334.091 628.091 329.225C632.364 329.136 636.637 329.105 640.911 329.136Z" fill="#141413" fill-opacity="0.68"/>
<path opacity="0.993" fill-rule="evenodd" clip-rule="evenodd" d="M-0.0891113 331.628C7.90423 345.298 15.8574 359.008 23.7703 372.759C35.0471 372.879 46.3241 372.996 57.6009 373.115C54.8563 377.951 52.0667 382.759 49.2323 387.538C37.836 387.771 26.4405 387.743 15.0456 387.449C10.0184 378.728 4.97351 370.033 -0.0891113 361.364C-0.0891113 351.451 -0.0891113 341.541 -0.0891113 331.628Z" fill="#141413" fill-opacity="0.68"/>
<path opacity="0.984" fill-rule="evenodd" clip-rule="evenodd" d="M199.867 352.995C200.038 353.075 200.186 353.195 200.313 353.351C203.049 358.144 205.809 362.922 208.592 367.685C202.893 367.832 197.195 367.804 191.499 367.596C194.291 362.724 197.081 357.858 199.867 352.995Z" fill="#141413" fill-opacity="0.68"/>
<path opacity="0.984" fill-rule="evenodd" clip-rule="evenodd" d="M588.741 352.995C588.912 353.075 589.059 353.195 589.186 353.351C591.923 358.144 594.682 362.922 597.465 367.685C591.766 367.832 586.068 367.804 580.372 367.596C583.164 362.724 585.954 357.858 588.741 352.995Z" fill="#141413" fill-opacity="0.68"/>
<path opacity="0.984" fill-rule="evenodd" clip-rule="evenodd" d="M320.411 354.42C326.08 354.183 331.778 354.183 337.504 354.42C334.743 359.352 331.894 364.218 328.958 369.02C326.103 364.141 323.254 359.275 320.411 354.42Z" fill="#141413" fill-opacity="0.68"/>
<path opacity="0.992" fill-rule="evenodd" clip-rule="evenodd" d="M87.1582 365.815C92.8564 365.785 98.5541 365.815 104.252 365.904C109.89 375.697 115.528 385.49 121.167 395.283C112.739 409.884 104.311 424.484 95.883 439.085C112.739 439.233 129.595 439.204 146.451 438.996C157.668 419.529 168.886 400.061 180.103 380.594C214.051 380.316 248.001 380.168 281.951 380.149C284.786 384.986 287.576 389.853 290.32 394.749C279.043 394.808 267.765 394.868 256.489 394.927C248.069 409.424 239.67 423.936 231.294 438.462C231.175 438.64 231.175 438.818 231.294 438.996C236.903 448.67 242.512 458.345 248.12 468.019C242.424 468.227 236.727 468.256 231.027 468.108C225.319 458.381 219.68 448.618 214.112 438.818C222.47 424.151 230.897 409.521 239.396 394.927C222.539 394.988 205.684 395.166 188.828 395.461C177.506 414.9 166.229 434.366 154.997 453.864C121.108 453.983 87.2175 453.983 53.3277 453.864C50.4788 448.997 47.6299 444.129 44.781 439.263C56.0578 439.204 67.3348 439.144 78.6116 439.085C87.0323 424.588 95.4307 410.076 103.806 395.55C103.919 395.169 103.86 394.813 103.628 394.482C98.0442 384.974 92.554 375.419 87.1582 365.815Z" fill="#141413" fill-opacity="0.68"/>
<path opacity="0.992" fill-rule="evenodd" clip-rule="evenodd" d="M640.911 380.238C640.911 387.716 640.911 395.194 640.911 402.673C633.947 414.668 627.003 426.687 620.078 438.729C625.693 448.504 631.332 458.267 636.994 468.019C631.298 468.227 625.6 468.256 619.9 468.108C614.192 458.381 608.553 448.618 602.985 438.818C611.343 424.151 619.77 409.521 628.269 394.927C611.412 394.988 594.558 395.166 577.701 395.461C566.379 414.9 555.102 434.367 543.871 453.864C509.981 453.983 476.09 453.983 442.201 453.864C439.352 448.997 436.503 444.129 433.654 439.263C444.931 439.204 456.209 439.144 467.485 439.085C475.983 424.492 484.411 409.861 492.769 395.194C487.267 385.419 481.688 375.685 476.032 365.993C481.728 365.785 487.425 365.756 493.125 365.904C498.764 375.697 504.401 385.49 510.04 395.283C501.613 409.884 493.184 424.484 484.756 439.085C501.613 439.233 518.469 439.204 535.324 438.996C546.542 419.529 557.759 400.061 568.977 380.594C592.953 380.366 616.932 380.248 640.911 380.238Z" fill="#141413" fill-opacity="0.68"/>
<path opacity="0.994" fill-rule="evenodd" clip-rule="evenodd" d="M-0.0891113 423.861C-0.0891113 414.068 -0.0891113 404.275 -0.0891113 394.482C2.10213 398.269 4.29814 402.067 6.49894 405.878C23.4735 406.114 40.4483 406.114 57.4228 405.878C62.9865 396.115 68.5953 386.381 74.2491 376.677C77.1631 381.58 80.0418 386.505 82.8848 391.455C77.2239 401.204 71.5854 410.966 65.9695 420.745C49.0542 420.804 32.1389 420.865 15.2237 420.923C23.8152 435.376 32.3619 449.857 40.8637 464.369C63.4769 464.399 86.09 464.488 108.703 464.636C125.607 493.874 142.463 523.134 159.271 552.417C156.544 557.396 153.725 562.321 150.813 567.196C145.1 557.492 139.432 547.758 133.809 537.995C116.953 537.787 100.097 537.758 83.2409 537.906C77.5629 547.69 71.8651 557.453 66.1476 567.196C63.2536 562.299 60.4047 557.373 57.6009 552.417C63.2632 542.631 68.961 532.867 74.6942 523.127C91.5502 523.068 108.406 523.008 125.262 522.949C116.857 508.423 108.429 493.912 99.9781 479.415C77.3651 479.295 54.752 479.178 32.1389 479.058C21.3915 460.648 10.6488 442.249 -0.0891113 423.861Z" fill="#141413" fill-opacity="0.68"/>
<path opacity="0.993" fill-rule="evenodd" clip-rule="evenodd" d="M463.033 376.677C466.002 381.55 468.909 386.475 471.758 391.455C466.098 401.204 460.459 410.966 454.843 420.745C437.928 420.804 421.012 420.865 404.097 420.923C412.688 435.376 421.235 449.857 429.737 464.369C452.35 464.399 474.963 464.488 497.576 464.636C514.402 493.778 531.229 522.919 548.055 552.061C548.153 552.581 548.034 553.057 547.699 553.486C545.072 558.085 542.402 562.656 539.686 567.196C533.973 557.492 528.305 547.758 522.682 537.995C505.827 537.787 488.971 537.758 472.114 537.906C466.438 547.565 460.829 557.269 455.288 567.018C455.13 567.233 454.98 567.233 454.843 567.018C452.053 562.152 449.264 557.284 446.474 552.417C452.136 542.631 457.834 532.867 463.568 523.127C480.424 523.068 497.279 523.008 514.135 522.949C505.729 508.423 497.302 493.912 488.851 479.415C466.238 479.295 443.625 479.178 421.012 479.058C404.022 450.005 387.077 420.923 370.177 391.811C370.079 391.291 370.199 390.816 370.534 390.387C373.204 385.877 375.875 381.365 378.546 376.855C384.246 386.471 389.854 396.145 395.372 405.878C412.346 406.114 429.322 406.114 446.296 405.878C451.878 396.14 457.457 386.405 463.033 376.677Z" fill="#141413" fill-opacity="0.68"/>
<path opacity="0.992" fill-rule="evenodd" clip-rule="evenodd" d="M144.492 640.911C138.794 640.911 133.097 640.911 127.399 640.911C132.371 632.332 137.297 623.727 142.177 615.093C133.82 600.427 125.392 585.796 116.894 571.202C105.616 571.096 94.3394 571.126 83.063 571.291C85.7096 566.295 88.4992 561.37 91.4316 556.513C102.827 556.276 114.223 556.276 125.618 556.513C134.017 571.055 142.415 585.595 150.813 600.136C159.162 585.546 167.441 570.916 175.652 556.246C164.449 536.674 153.172 517.148 141.821 497.665C158.759 468.389 175.674 439.099 192.567 409.795C198.324 409.587 204.08 409.558 209.839 409.706C204.223 419.485 198.584 429.248 192.923 438.996C201.351 453.597 209.78 468.197 218.207 482.798C229.483 482.917 240.761 483.035 252.038 483.154C249.294 487.99 246.504 492.797 243.669 497.576C232.274 497.811 220.878 497.781 209.482 497.487C201.062 482.99 192.663 468.479 184.288 453.953C175.776 468.454 167.377 483.024 159.093 497.665C170.368 517.189 181.645 536.717 192.923 556.246C176.755 584.459 160.611 612.68 144.492 640.911Z" fill="#141413" fill-opacity="0.68"/>
<path opacity="0.992" fill-rule="evenodd" clip-rule="evenodd" d="M640.911 482.976C640.911 483.095 640.911 483.213 640.911 483.332C638.126 488.068 635.336 492.817 632.542 497.576C621.147 497.811 609.751 497.781 598.356 497.487C589.935 482.99 581.537 468.479 573.161 453.953C564.648 468.454 556.251 483.024 547.966 497.665C559.242 517.189 570.519 536.717 581.797 556.246C565.629 584.459 549.485 612.68 533.365 640.911C527.668 640.911 521.97 640.911 516.272 640.911C521.243 632.332 526.17 623.727 531.051 615.093C522.693 600.427 514.265 585.796 505.767 571.202C494.489 571.096 483.213 571.126 471.936 571.291C474.582 566.295 477.372 561.37 480.305 556.513C491.7 556.276 503.096 556.276 514.492 556.513C522.89 571.055 531.288 585.595 539.686 600.136C548.035 585.546 556.315 570.916 564.525 556.246C553.322 536.674 542.046 517.148 530.695 497.665C547.633 468.389 564.548 439.099 581.44 409.795C587.197 409.587 592.954 409.558 598.712 409.706C593.096 419.485 587.457 429.248 581.797 438.996C590.224 453.597 598.653 468.197 607.08 482.798C618.357 482.976 629.633 483.035 640.911 482.976Z" fill="#141413" fill-opacity="0.68"/>
<path opacity="0.986" fill-rule="evenodd" clip-rule="evenodd" d="M-0.0891113 477.812C-0.0891113 476.032 -0.0891113 474.251 -0.0891113 472.47C1.77582 469.337 3.64541 466.19 5.51964 463.033C8.39821 467.93 11.2768 472.827 14.1553 477.723C9.40755 477.812 4.6594 477.842 -0.0891113 477.812Z" fill="#141413" fill-opacity="0.68"/>
<path opacity="0.984" fill-rule="evenodd" clip-rule="evenodd" d="M394.304 463.033C394.475 463.114 394.623 463.233 394.749 463.39C397.486 468.183 400.246 472.96 403.029 477.723C397.329 477.871 391.631 477.842 385.935 477.634C388.727 472.762 391.517 467.896 394.304 463.033Z" fill="#141413" fill-opacity="0.68"/>
<path opacity="0.984" fill-rule="evenodd" clip-rule="evenodd" d="M125.974 464.458C131.643 464.221 137.341 464.221 143.068 464.458C140.306 469.39 137.457 474.256 134.521 479.058C131.667 474.18 128.818 469.313 125.974 464.458Z" fill="#141413" fill-opacity="0.68"/>
<path opacity="0.984" fill-rule="evenodd" clip-rule="evenodd" d="M514.848 464.458C520.517 464.221 526.215 464.221 531.941 464.458C529.179 469.39 526.33 474.256 523.394 479.058C520.54 474.18 517.691 469.313 514.848 464.458Z" fill="#141413" fill-opacity="0.68"/>
<path opacity="0.992" fill-rule="evenodd" clip-rule="evenodd" d="M281.595 475.853C287.293 475.823 292.991 475.853 298.688 475.942C304.327 485.736 309.965 495.529 315.604 505.322C307.176 519.922 298.747 534.523 290.32 549.123C307.176 549.271 324.033 549.243 340.887 549.034C352.105 529.567 363.322 510.099 374.54 490.632C408.49 490.356 442.438 490.208 476.388 490.187C479.222 495.025 482.013 499.891 484.756 504.787C473.48 504.846 462.202 504.907 450.926 504.966C442.506 519.463 434.107 533.974 425.731 548.5C425.612 548.678 425.612 548.856 425.731 549.034C431.34 558.708 436.948 568.384 442.557 578.057C436.861 578.266 431.163 578.294 425.464 578.146C419.755 568.419 414.116 558.656 408.549 548.856C416.907 534.19 425.334 519.559 433.832 504.966C416.976 505.028 400.121 505.206 383.265 505.5C371.942 524.938 360.666 544.405 349.434 563.902C315.545 564.021 281.654 564.021 247.764 563.902C244.916 559.036 242.067 554.168 239.218 549.301C250.494 549.243 261.772 549.182 273.048 549.123C281.469 534.626 289.867 520.114 298.243 505.589C298.355 505.208 298.297 504.852 298.065 504.52C292.481 495.012 286.99 485.458 281.595 475.853Z" fill="#141413" fill-opacity="0.68"/>
<path opacity="0.993" fill-rule="evenodd" clip-rule="evenodd" d="M341.244 640.911C315.723 640.911 290.2 640.911 264.68 640.911C266.047 638.267 267.53 635.685 269.131 633.166C285.988 633.107 302.842 633.046 319.699 632.987C311.293 618.462 302.865 603.95 294.415 589.453C271.802 589.334 249.189 589.216 226.576 589.097C209.509 559.947 192.533 530.746 175.652 501.493C178.333 496.545 181.152 491.679 184.109 486.893C189.809 496.51 195.418 506.183 200.936 515.916C217.91 516.153 234.886 516.153 251.86 515.916C257.424 506.153 263.033 496.419 268.686 486.715C271.601 491.618 274.478 496.544 277.322 501.493C271.661 511.242 266.022 521.005 260.406 530.784C243.491 530.842 226.576 530.903 209.66 530.962C218.252 545.414 226.798 559.896 235.3 574.407C257.914 574.437 280.527 574.527 303.14 574.674C315.922 596.714 328.623 618.793 341.244 640.911Z" fill="#141413" fill-opacity="0.68"/>
<path opacity="0.993" fill-rule="evenodd" clip-rule="evenodd" d="M640.911 515.738C640.911 520.782 640.911 525.828 640.911 530.873C626.786 530.842 612.659 530.873 598.534 530.962C607.118 545.37 615.634 559.823 624.085 574.318C629.681 574.496 635.29 574.555 640.911 574.496C640.911 579.423 640.911 584.348 640.911 589.275C632.423 589.334 623.935 589.275 615.449 589.097C598.382 559.947 581.407 530.746 564.525 501.493C567.207 496.545 570.025 491.679 572.983 486.893C578.682 496.51 584.291 506.183 589.809 515.916C598.297 515.975 606.783 516.035 615.271 516.094C623.855 516.094 632.402 515.975 640.911 515.738Z" fill="#141413" fill-opacity="0.68"/>
<path opacity="0.993" fill-rule="evenodd" clip-rule="evenodd" d="M-0.0891113 505.233C-0.0891113 500.306 -0.0891113 495.381 -0.0891113 490.454C29.1122 490.319 58.3133 490.23 87.5142 490.187C90.3487 495.025 93.1383 499.891 95.8828 504.788C84.5638 504.818 73.2573 504.907 61.9632 505.055C53.5412 519.614 45.1429 534.185 36.7684 548.767C42.383 558.543 48.0215 568.305 53.6837 578.057C47.9868 578.266 42.289 578.294 36.5903 578.146C30.8815 568.419 25.2432 558.656 19.6751 548.856C28.0326 534.19 36.4607 519.559 44.9589 504.966C29.9453 505.088 14.9293 505.178 -0.0891113 505.233Z" fill="#141413" fill-opacity="0.68"/>
<path opacity="0.984" fill-rule="evenodd" clip-rule="evenodd" d="M-0.0891113 519.655C5.07484 519.625 10.2384 519.655 15.4017 519.744C10.3008 528.672 5.13718 537.546 -0.0891113 546.364C-0.0891113 537.461 -0.0891113 528.558 -0.0891113 519.655Z" fill="#141413" fill-opacity="0.68"/>
<path opacity="0.992" fill-rule="evenodd" clip-rule="evenodd" d="M372.581 640.911C366.883 640.911 361.186 640.911 355.488 640.911C349.119 629.822 342.709 618.752 336.258 607.703C353.196 578.428 370.112 549.137 387.004 519.833C392.76 519.625 398.517 519.596 404.275 519.744C398.659 529.523 393.02 539.286 387.36 549.034C395.787 563.635 404.216 578.235 412.644 592.836C423.92 592.955 435.198 593.073 446.474 593.192C443.73 598.028 440.94 602.835 438.106 607.614C426.71 607.848 415.314 607.817 403.919 607.525C395.499 593.028 387.1 578.517 378.724 563.991C370.211 578.492 361.814 593.062 353.529 607.703C359.95 618.736 366.301 629.806 372.581 640.911Z" fill="#141413" fill-opacity="0.68"/>
<path opacity="0.989" fill-rule="evenodd" clip-rule="evenodd" d="M640.911 549.212C640.911 554.139 640.911 559.064 640.911 563.991C639.485 564.021 638.06 563.991 636.637 563.902C633.789 559.036 630.94 554.168 628.091 549.301C632.364 549.212 636.637 549.182 640.911 549.212Z" fill="#141413" fill-opacity="0.68"/>
<path opacity="0.993" fill-rule="evenodd" clip-rule="evenodd" d="M-0.0891113 551.705C7.90423 565.374 15.8574 579.085 23.7703 592.836C35.0471 592.955 46.3241 593.073 57.6009 593.192C54.8563 598.028 52.0667 602.836 49.2323 607.615C37.836 607.848 26.4405 607.818 15.0456 607.525C10.0184 598.804 4.97351 590.11 -0.0891113 581.44C-0.0891113 571.528 -0.0891113 561.617 -0.0891113 551.705Z" fill="#141413" fill-opacity="0.68"/>
<path opacity="0.984" fill-rule="evenodd" clip-rule="evenodd" d="M199.867 573.072C200.038 573.152 200.186 573.271 200.313 573.428C203.049 578.221 205.809 582.998 208.592 587.761C202.893 587.909 197.195 587.881 191.499 587.672C194.291 582.801 197.081 577.934 199.867 573.072Z" fill="#141413" fill-opacity="0.68"/>
<path opacity="0.984" fill-rule="evenodd" clip-rule="evenodd" d="M588.741 573.072C588.912 573.152 589.059 573.271 589.186 573.428C591.923 578.221 594.682 582.998 597.465 587.761C591.766 587.909 586.068 587.881 580.372 587.672C583.164 582.801 585.954 577.934 588.741 573.072Z" fill="#141413" fill-opacity="0.68"/>
<path opacity="0.984" fill-rule="evenodd" clip-rule="evenodd" d="M320.411 574.496C326.08 574.259 331.778 574.259 337.504 574.496C334.743 579.428 331.894 584.295 328.958 589.097C326.103 584.218 323.254 579.352 320.411 574.496Z" fill="#141413" fill-opacity="0.68"/>
<path opacity="0.99" fill-rule="evenodd" clip-rule="evenodd" d="M106.388 640.911C100.69 640.911 94.9926 640.911 89.2949 640.911C94.1604 632.368 99.0272 623.821 103.895 615.271C98.3942 605.496 92.8152 595.761 87.1582 586.07C92.8975 585.833 98.625 585.833 104.341 586.07C109.927 595.847 115.536 605.611 121.167 615.36C116.216 623.867 111.29 632.384 106.388 640.911Z" fill="#141413" fill-opacity="0.68"/>
<path opacity="0.99" fill-rule="evenodd" clip-rule="evenodd" d="M495.261 640.911C489.564 640.911 483.866 640.911 478.168 640.911C483.034 632.368 487.901 623.821 492.769 615.271C487.267 605.496 481.688 595.761 476.031 586.07C481.77 585.833 487.498 585.833 493.214 586.07C498.799 595.847 504.408 605.611 510.04 615.36C505.09 623.867 500.163 632.384 495.261 640.911Z" fill="#141413" fill-opacity="0.68"/>
<path opacity="0.993" fill-rule="evenodd" clip-rule="evenodd" d="M65.9695 640.911C43.9499 640.911 21.9305 640.911 -0.0891113 640.911C-0.0891113 632.127 -0.0891113 623.342 -0.0891113 614.559C2.10213 618.346 4.29814 622.144 6.49894 625.954C23.4735 626.191 40.4483 626.191 57.4228 625.954C62.9865 616.191 68.5953 606.457 74.2491 596.753C77.1631 601.657 80.0418 606.582 82.8848 611.532C77.1993 621.3 71.5608 631.093 65.9695 640.911Z" fill="#141413" fill-opacity="0.68"/>
<path opacity="0.992" fill-rule="evenodd" clip-rule="evenodd" d="M454.843 640.911C432.23 640.911 409.617 640.911 387.004 640.911C381.32 631.145 375.681 621.352 370.088 611.532C372.77 606.584 375.589 601.717 378.546 596.931C384.246 606.548 389.854 616.222 395.372 625.954C412.346 626.191 429.322 626.191 446.296 625.954C451.86 616.191 457.469 606.457 463.122 596.753C466.037 601.657 468.915 606.582 471.758 611.532C466.073 621.3 460.434 631.093 454.843 640.911Z" fill="#141413" fill-opacity="0.68"/>
<path opacity="0.993" fill-rule="evenodd" clip-rule="evenodd" d="M241.532 640.911C235.835 640.911 230.137 640.911 224.439 640.911C229.309 632.213 234.294 623.577 239.396 615.004C222.539 615.064 205.685 615.243 188.828 615.538C183.889 623.962 179.022 632.42 174.227 640.911C168.47 640.911 162.713 640.911 156.956 640.911C164.67 627.502 172.385 614.089 180.103 600.67C214.051 600.393 248.001 600.245 281.951 600.225C284.786 605.063 287.576 609.929 290.32 614.826C279.043 614.885 267.765 614.945 256.489 615.004C251.479 623.631 246.493 632.266 241.532 640.911Z" fill="#141413" fill-opacity="0.68"/>
<path opacity="0.993" fill-rule="evenodd" clip-rule="evenodd" d="M640.911 600.314C640.911 607.793 640.911 615.271 640.911 622.749C637.412 628.796 633.91 634.85 630.406 640.911C624.708 640.911 619.01 640.911 613.312 640.911C618.182 632.213 623.168 623.577 628.269 615.004C611.413 615.065 594.558 615.243 577.701 615.538C572.762 623.962 567.896 632.42 563.101 640.911C557.344 640.911 551.586 640.911 545.829 640.911C553.543 627.502 561.258 614.089 568.977 600.671C592.954 600.443 616.932 600.323 640.911 600.314Z" fill="#141413" fill-opacity="0.68"/>
<path opacity="0.984" fill-rule="evenodd" clip-rule="evenodd" d="M203.429 640.911C197.731 640.911 192.033 640.911 186.335 640.911C188.319 637.183 190.395 633.504 192.567 629.872C198.324 629.663 204.08 629.635 209.839 629.783C207.661 633.472 205.524 637.181 203.429 640.911Z" fill="#141413" fill-opacity="0.68"/>
<path opacity="0.984" fill-rule="evenodd" clip-rule="evenodd" d="M592.302 640.911C586.604 640.911 580.906 640.911 575.208 640.911C577.192 637.183 579.268 633.504 581.44 629.872C587.197 629.663 592.954 629.635 598.712 629.783C596.534 633.472 594.398 637.181 592.302 640.911Z" fill="#141413" fill-opacity="0.68"/>
</g>
<defs>
<clipPath id="clip0_47_140">
<rect width="641" height="641" fill="white"/>
</clipPath>
</defs>
</svg>
