<svg width="149" height="132" viewBox="0 0 149 132" fill="none" xmlns="http://www.w3.org/2000/svg">
<path opacity="0.5" d="M167.261 -30.0706C198.511 -30.1992 221.413 -22.6429 225.839 -8.44956C232.949 14.3544 189.672 45.6556 129.177 61.4636C68.6814 77.2715 13.876 71.6001 6.76555 48.7961C1.59873 32.2256 23.0376 11.1684 58.3555 -5.17073" stroke="#405996" stroke-width="1.36254"/>
<path d="M167.259 10.5574C198.509 10.4287 221.411 17.9851 225.837 32.1784C232.947 54.9824 189.67 86.2835 129.175 102.092C68.6794 117.899 13.8741 112.228 6.7636 89.4241C1.59677 72.8535 23.0356 51.7963 58.3535 35.4572" stroke="#405996" stroke-width="1.36254"/>
<path opacity="0.7" d="M167.26 -65.2757C198.51 -65.4043 221.412 -57.8479 225.838 -43.6546C232.948 -20.8506 189.671 10.4505 129.176 26.2585C68.6804 42.0665 13.875 36.3951 6.76457 13.5911C1.59775 -2.97947 23.0366 -24.0367 58.3545 -40.3758" stroke="#405996" stroke-width="1.36254"/>
</svg>
