<svg width="223" height="195" viewBox="0 0 223 195" fill="none" xmlns="http://www.w3.org/2000/svg">
<g opacity="0.5">
<path d="M81.6955 69.1656C104.055 50.2801 128.098 37.7386 148.87 32.7055C169.689 27.6608 186.981 30.2022 196.175 41.0875C205.369 51.9728 204.981 69.445 196.525 89.1273C188.089 108.764 171.702 130.371 149.343 149.257C126.984 168.142 102.94 180.684 82.1689 185.717C61.3495 190.761 44.0587 188.22 34.8645 177.335C25.6704 166.45 26.0571 148.977 34.5132 129.295C42.9497 109.658 59.3361 88.0511 81.6955 69.1656Z" stroke="white" stroke-width="1.47658"/>
<path d="M85.5067 73.6763C107.866 54.7908 131.909 42.2493 152.681 37.2162C173.501 32.1715 190.792 34.7129 199.986 45.5982C209.18 56.4835 208.793 73.9557 200.337 93.638C191.9 113.275 175.514 134.882 153.154 153.767C130.795 172.653 106.752 185.194 85.9801 190.227C65.1607 195.272 47.8699 192.731 38.6758 181.846C29.4817 170.961 29.8684 153.488 38.3244 133.806C46.7609 114.168 63.1473 92.5618 85.5067 73.6763Z" stroke="white" stroke-width="1.47658"/>
<path d="M89.319 78.1891C111.678 59.3036 135.722 46.7621 156.493 41.729C177.313 36.6843 194.604 39.2257 203.798 50.111C212.992 60.9963 212.605 78.4685 204.149 98.1508C195.712 117.788 179.326 139.395 156.967 158.28C134.607 177.166 110.564 189.707 89.7924 194.74C68.973 199.785 51.6822 197.244 42.4881 186.359C33.294 175.474 33.6807 158.001 42.1367 138.318C50.5732 118.681 66.9596 97.0746 89.319 78.1891Z" stroke="white" stroke-width="1.47658"/>
<path d="M93.1303 82.7019C115.49 63.8164 139.533 51.275 160.305 46.2419C181.124 41.1972 198.415 43.7385 207.609 54.6238C216.803 65.5092 216.416 82.9813 207.96 102.664C199.524 122.301 183.137 143.907 160.778 162.793C138.418 181.679 114.375 194.22 93.6037 199.253C72.7842 204.298 55.4935 201.757 46.2993 190.872C37.1052 179.987 37.4919 162.514 45.9479 142.831C54.3845 123.194 70.7709 101.587 93.1303 82.7019Z" stroke="white" stroke-width="1.47658"/>
<path d="M96.9404 87.2137C119.3 68.3282 143.343 55.7867 164.115 50.7536C184.934 45.7089 202.226 48.2503 211.42 59.1356C220.613 70.0209 220.226 87.4931 211.77 107.175C203.334 126.812 186.947 148.419 164.588 167.305C142.229 186.19 118.185 198.732 97.4138 203.765C76.5944 208.809 59.3036 206.269 50.1095 195.384C40.9154 184.498 41.3021 167.026 49.7581 147.343C58.1946 127.706 74.581 106.099 96.9404 87.2137Z" stroke="white" stroke-width="1.47658"/>
<path d="M100.752 91.7254C123.111 72.84 147.154 60.2985 167.926 55.2654C188.746 50.2207 206.037 52.7621 215.231 63.6474C224.425 74.5327 224.038 92.0049 215.582 111.687C207.145 131.324 190.759 152.931 168.399 171.817C146.04 190.702 121.997 203.244 101.225 208.277C80.4056 213.321 63.1149 210.78 53.9207 199.895C44.7266 189.01 45.1133 171.537 53.5693 151.855C62.0059 132.218 78.3923 110.611 100.752 91.7254Z" stroke="white" stroke-width="1.47658"/>
<path d="M104.563 96.2383C126.922 77.3528 150.966 64.8113 171.737 59.7782C192.557 54.7335 209.848 57.2749 219.042 68.1602C228.236 79.0455 227.849 96.5177 219.393 116.2C210.956 135.837 194.57 157.444 172.211 176.329C149.851 195.215 125.808 207.756 105.036 212.789C84.2169 217.834 66.9261 215.293 57.732 204.408C48.5379 193.523 48.9246 176.05 57.3806 156.368C65.8171 136.73 82.2035 115.124 104.563 96.2383Z" stroke="white" stroke-width="1.47658"/>
<path d="M108.374 100.751C130.734 81.8656 154.777 69.3242 175.548 64.291C196.368 59.2464 213.659 61.7877 222.853 72.673C232.047 83.5583 231.66 101.031 223.204 120.713C214.768 140.35 198.381 161.957 176.022 180.842C153.662 199.728 129.619 212.269 108.848 217.302C88.0281 222.347 70.7373 219.806 61.5432 208.921C52.3491 198.036 52.7358 180.563 61.1918 160.88C69.6283 141.243 86.0147 119.637 108.374 100.751Z" stroke="white" stroke-width="1.47658"/>
<path d="M112.185 105.263C134.545 86.3774 158.588 73.8359 179.36 68.8028C200.179 63.7581 217.471 66.2995 226.665 77.1848C235.858 88.0701 235.471 105.542 227.015 125.225C218.579 144.862 202.192 166.468 179.833 185.354C157.474 204.239 133.43 216.781 112.659 221.814C91.8393 226.859 74.5486 224.318 65.3544 213.433C56.1603 202.547 56.547 185.075 65.0031 165.392C73.4396 145.755 89.826 124.148 112.185 105.263Z" stroke="white" stroke-width="1.47658"/>
<path d="M115.996 109.775C138.355 90.8891 162.398 78.3477 183.17 73.3146C203.989 68.2699 221.281 70.8112 230.475 81.6965C239.669 92.5818 239.281 110.054 230.825 129.736C222.389 149.373 206.003 170.98 183.643 189.866C161.284 208.751 137.241 221.293 116.469 226.326C95.6495 231.37 78.3587 228.83 69.1646 217.945C59.9705 207.059 60.3572 189.586 68.8132 169.904C77.2497 150.267 93.6361 128.66 115.996 109.775Z" stroke="white" stroke-width="1.47658"/>
<path d="M119.808 114.287C142.167 95.402 166.211 82.8605 186.982 77.8274C207.802 72.7827 225.093 75.324 234.287 86.2094C243.481 97.0947 243.094 114.567 234.638 134.249C226.201 153.886 209.815 175.493 187.455 194.379C165.096 213.264 141.053 225.805 120.281 230.839C99.4618 235.883 82.171 233.342 72.9769 222.457C63.7828 211.572 64.1695 194.099 72.6255 174.417C81.0621 154.78 97.4485 133.173 119.808 114.287Z" stroke="white" stroke-width="1.47658"/>
<path d="M123.618 118.799C145.977 99.9137 170.021 87.3723 190.792 82.3392C211.612 77.2945 228.903 79.8358 238.097 90.7211C247.291 101.606 246.904 119.079 238.448 138.761C230.011 158.398 213.625 180.005 191.266 198.89C168.906 217.776 144.863 230.317 124.091 235.35C103.272 240.395 85.9812 237.854 76.787 226.969C67.5929 216.084 67.9796 198.611 76.4357 178.929C84.8722 159.291 101.259 137.685 123.618 118.799Z" stroke="white" stroke-width="1.47658"/>
<path d="M127.429 123.311C149.789 104.425 173.832 91.884 194.603 86.8509C215.423 81.8062 232.714 84.3476 241.908 95.2329C251.102 106.118 250.715 123.59 242.259 143.273C233.823 162.91 217.436 184.517 195.077 203.402C172.717 222.288 148.674 234.829 127.903 239.862C107.083 244.907 89.7924 242.366 80.5983 231.481C71.4042 220.596 71.7909 203.123 80.2469 183.44C88.6835 163.803 105.07 142.196 127.429 123.311Z" stroke="white" stroke-width="1.47658"/>
<path d="M131.242 127.824C153.601 108.938 177.644 96.3969 198.416 91.3637C219.235 86.3191 236.527 88.8604 245.721 99.7457C254.915 110.631 254.527 128.103 246.072 147.786C237.635 167.423 221.249 189.029 198.889 207.915C176.53 226.8 152.487 239.342 131.715 244.375C110.896 249.42 93.6048 246.879 84.4106 235.994C75.2165 225.108 75.6032 207.636 84.0592 187.953C92.4958 168.316 108.882 146.709 131.242 127.824Z" stroke="white" stroke-width="1.47658"/>
<path d="M135.053 132.337C157.412 113.451 181.455 100.91 202.227 95.8766C223.047 90.8319 240.338 93.3732 249.532 104.259C258.726 115.144 258.339 132.616 249.883 152.298C241.446 171.935 225.06 193.542 202.7 212.428C180.341 231.313 156.298 243.855 135.526 248.888C114.707 253.932 97.416 251.392 88.2218 240.507C79.0277 229.621 79.4144 212.148 87.8705 192.466C96.307 172.829 112.693 151.222 135.053 132.337Z" stroke="white" stroke-width="1.47658"/>
</g>
</svg>
