<svg width="311" height="200" viewBox="0 0 311 200" fill="none" xmlns="http://www.w3.org/2000/svg">
<g clip-path="url(#clip0_604_6620)">
<g opacity="0.1">
<mask id="path-1-inside-1_604_6620" fill="white">
<path d="M238.35 -36.7061C258.278 -45.6926 276.335 -48.5326 292.514 -45.2202C293.875 -45.0628 294.98 -44.433 295.83 -43.3309L296.602 -39.7823C293.365 -24.6435 283.228 -10.3705 266.198 3.03043L263.902 3.98115C251.98 5.87048 242.693 2.16449 236.055 -7.13685H235.793C229.495 -16.2807 229.58 -25.5094 236.055 -34.8107L238.35 -36.7061ZM327 77.0717C315.077 69.6597 305.372 58.0694 297.877 42.3007L297.367 39.939C298.557 28.8937 304.862 21.6392 316.268 18.1693L327 16.9885V77.0717ZM194.67 -62.963C186.154 -51.6088 172.61 -42.7011 154.05 -36.2338L151.499 -35.9916C139.57 -37.7295 132.075 -44.0394 129.014 -54.9212L128.243 -62.963H194.67ZM-9.15527e-05 16.9885C6.81459 17.1459 12.9491 20.0647 18.3904 25.7388L19.6722 28.1065C23.7597 48.2896 21.9678 65.1665 14.3094 78.7309L11.2356 81.0926L7.40973 80.8564L-9.15527e-05 76.8355V16.9885ZM128.249 239.815C128.583 232.718 132.245 226.65 139.237 221.6L141.787 220.655C163.925 218.13 181.982 220.891 195.938 228.933L198.24 231.773L197.73 235.322L194.67 239.815H128.243H128.249ZM242.954 128.635C238.69 118.389 240.822 109.318 249.337 101.433C249.959 100.834 250.761 100.422 251.639 100.252C273.267 95.0446 291.573 95.6804 306.562 102.148L309.375 104.752V108.294C302.9 122.646 289.872 134.636 270.285 144.252L267.734 144.724C255.465 144.409 247.205 139.123 242.948 128.877V128.635H242.954ZM294.503 222.072C272.195 223.967 254.138 220.576 240.345 211.899C239.785 211.554 239.312 211.101 238.958 210.571C238.605 210.041 238.38 209.447 238.298 208.828C238.119 208.275 238.073 207.692 238.162 207.12C238.251 206.547 238.474 206 238.815 205.516C247.67 192.267 262.738 182.414 284.032 175.947H286.583C298.505 178 305.745 184.461 308.296 195.343C310.519 206.225 306.765 214.902 297.06 221.363L294.509 222.072H294.503ZM223.027 142.829C234.943 145.039 242.189 151.585 244.74 162.467V162.703C246.78 173.422 242.863 182.021 232.987 188.482L230.437 189.196C207.952 190.771 189.98 187.144 176.528 178.315C175.968 177.969 175.496 177.514 175.143 176.983C174.791 176.452 174.567 175.857 174.487 175.238C174.314 174.645 174.269 174.026 174.357 173.417C174.445 172.807 174.662 172.22 174.997 171.69C184.022 158.604 199.182 148.981 220.47 142.829H223.02H223.027ZM71.0243 -26.3027C57.7481 -9.89818 43.0135 0.275149 26.8335 4.21732L23.0011 3.74499L20.699 0.898868C15.9248 -13.9191 17.9718 -30.7898 26.8335 -49.7135L28.3639 -51.6088C38.2393 -58.3911 48.2913 -59.0996 58.5133 -53.7404H58.7618C69.1539 -47.9028 73.5814 -39.4675 72.0511 -28.4282L71.0243 -26.2966V-26.3027ZM85.0788 45.3769C79.1143 25.5026 79.2843 8.5531 85.5889 -5.48368C85.793 -6.05907 86.1256 -6.58825 86.565 -7.03686C87.0045 -7.48547 87.5409 -7.84346 88.1395 -8.08757C89.3363 -8.71735 90.6116 -8.71735 91.9785 -8.08757C107.642 -2.72235 121.016 8.94671 132.082 26.9257L132.592 29.2873C132.592 40.3266 127.144 48.1322 116.242 52.7102C105.176 56.6463 95.2942 54.9144 86.6157 47.5024L85.0788 45.3769ZM231.464 21.954C232.994 42.3007 229.162 58.8566 219.966 71.6338L216.644 73.7593L212.812 73.0508C198.679 64.6942 188.201 50.7361 181.387 31.1827V28.821C183.774 17.7757 190.759 11.157 202.341 8.94671H202.596C214.172 6.89387 223.459 10.4424 230.437 19.5924L231.464 21.954ZM10.9871 197.474C27.6772 183.91 44.2757 176.734 60.8023 175.947L64.3797 177.128L66.1651 180.44C67.5319 195.894 61.9141 212.062 49.305 228.933L47.2645 230.35C36.1923 235.243 26.1403 234.056 17.1151 226.807C8.25993 219.238 5.70279 210.167 9.45021 199.6L10.9871 197.474ZM75.877 131.953C53.7326 128.005 37.3826 120.121 26.827 108.294C26.3419 107.878 25.9721 107.36 25.749 106.783C25.5259 106.206 25.456 105.589 25.5451 104.982C25.5924 104.347 25.7752 103.728 26.0827 103.159C26.3903 102.591 26.8167 102.084 27.3371 101.669C39.7631 91.2659 57.1399 85.5858 79.4478 84.6412C80.4746 84.6412 81.4098 84.8834 82.26 85.3497C92.8221 90.4 97.7598 98.4418 97.0797 109.481V109.717C96.0594 120.756 89.8399 128.084 78.4276 131.711L75.877 131.953ZM163.755 66.8984C184.533 73.9955 199.182 84.0901 207.697 97.1762L208.462 100.725L206.16 103.565C192.197 112.236 174.232 115.313 152.258 112.787L149.707 111.843C139.995 105.06 136.418 96.3102 138.975 85.5858V85.3497C141.872 74.6313 149.282 68.3941 161.198 66.6622L163.755 66.9044V66.8984ZM112.92 154.419C124.325 150.32 134.207 152.058 142.546 159.627H142.807C150.982 167.511 152.944 176.734 148.68 187.301L146.895 189.196C129.355 201.81 112.318 208.041 95.7978 207.884L92.227 206.697C91.7402 206.271 91.3527 205.758 91.0884 205.188C90.8241 204.618 90.6885 204.005 90.6901 203.385C90.18 187.773 96.9031 171.926 110.873 155.842L112.92 154.419Z"/>
</mask>
<path d="M238.35 -36.7061C258.278 -45.6926 276.335 -48.5326 292.514 -45.2202C293.875 -45.0628 294.98 -44.433 295.83 -43.3309L296.602 -39.7823C293.365 -24.6435 283.228 -10.3705 266.198 3.03043L263.902 3.98115C251.98 5.87048 242.693 2.16449 236.055 -7.13685H235.793C229.495 -16.2807 229.58 -25.5094 236.055 -34.8107L238.35 -36.7061ZM327 77.0717C315.077 69.6597 305.372 58.0694 297.877 42.3007L297.367 39.939C298.557 28.8937 304.862 21.6392 316.268 18.1693L327 16.9885V77.0717ZM194.67 -62.963C186.154 -51.6088 172.61 -42.7011 154.05 -36.2338L151.499 -35.9916C139.57 -37.7295 132.075 -44.0394 129.014 -54.9212L128.243 -62.963H194.67ZM-9.15527e-05 16.9885C6.81459 17.1459 12.9491 20.0647 18.3904 25.7388L19.6722 28.1065C23.7597 48.2896 21.9678 65.1665 14.3094 78.7309L11.2356 81.0926L7.40973 80.8564L-9.15527e-05 76.8355V16.9885ZM128.249 239.815C128.583 232.718 132.245 226.65 139.237 221.6L141.787 220.655C163.925 218.13 181.982 220.891 195.938 228.933L198.24 231.773L197.73 235.322L194.67 239.815H128.243H128.249ZM242.954 128.635C238.69 118.389 240.822 109.318 249.337 101.433C249.959 100.834 250.761 100.422 251.639 100.252C273.267 95.0446 291.573 95.6804 306.562 102.148L309.375 104.752V108.294C302.9 122.646 289.872 134.636 270.285 144.252L267.734 144.724C255.465 144.409 247.205 139.123 242.948 128.877V128.635H242.954ZM294.503 222.072C272.195 223.967 254.138 220.576 240.345 211.899C239.785 211.554 239.312 211.101 238.958 210.571C238.605 210.041 238.38 209.447 238.298 208.828C238.119 208.275 238.073 207.692 238.162 207.12C238.251 206.547 238.474 206 238.815 205.516C247.67 192.267 262.738 182.414 284.032 175.947H286.583C298.505 178 305.745 184.461 308.296 195.343C310.519 206.225 306.765 214.902 297.06 221.363L294.509 222.072H294.503ZM223.027 142.829C234.943 145.039 242.189 151.585 244.74 162.467V162.703C246.78 173.422 242.863 182.021 232.987 188.482L230.437 189.196C207.952 190.771 189.98 187.144 176.528 178.315C175.968 177.969 175.496 177.514 175.143 176.983C174.791 176.452 174.567 175.857 174.487 175.238C174.314 174.645 174.269 174.026 174.357 173.417C174.445 172.807 174.662 172.22 174.997 171.69C184.022 158.604 199.182 148.981 220.47 142.829H223.02H223.027ZM71.0243 -26.3027C57.7481 -9.89818 43.0135 0.275149 26.8335 4.21732L23.0011 3.74499L20.699 0.898868C15.9248 -13.9191 17.9718 -30.7898 26.8335 -49.7135L28.3639 -51.6088C38.2393 -58.3911 48.2913 -59.0996 58.5133 -53.7404H58.7618C69.1539 -47.9028 73.5814 -39.4675 72.0511 -28.4282L71.0243 -26.2966V-26.3027ZM85.0788 45.3769C79.1143 25.5026 79.2843 8.5531 85.5889 -5.48368C85.793 -6.05907 86.1256 -6.58825 86.565 -7.03686C87.0045 -7.48547 87.5409 -7.84346 88.1395 -8.08757C89.3363 -8.71735 90.6116 -8.71735 91.9785 -8.08757C107.642 -2.72235 121.016 8.94671 132.082 26.9257L132.592 29.2873C132.592 40.3266 127.144 48.1322 116.242 52.7102C105.176 56.6463 95.2942 54.9144 86.6157 47.5024L85.0788 45.3769ZM231.464 21.954C232.994 42.3007 229.162 58.8566 219.966 71.6338L216.644 73.7593L212.812 73.0508C198.679 64.6942 188.201 50.7361 181.387 31.1827V28.821C183.774 17.7757 190.759 11.157 202.341 8.94671H202.596C214.172 6.89387 223.459 10.4424 230.437 19.5924L231.464 21.954ZM10.9871 197.474C27.6772 183.91 44.2757 176.734 60.8023 175.947L64.3797 177.128L66.1651 180.44C67.5319 195.894 61.9141 212.062 49.305 228.933L47.2645 230.35C36.1923 235.243 26.1403 234.056 17.1151 226.807C8.25993 219.238 5.70279 210.167 9.45021 199.6L10.9871 197.474ZM75.877 131.953C53.7326 128.005 37.3826 120.121 26.827 108.294C26.3419 107.878 25.9721 107.36 25.749 106.783C25.5259 106.206 25.456 105.589 25.5451 104.982C25.5924 104.347 25.7752 103.728 26.0827 103.159C26.3903 102.591 26.8167 102.084 27.3371 101.669C39.7631 91.2659 57.1399 85.5858 79.4478 84.6412C80.4746 84.6412 81.4098 84.8834 82.26 85.3497C92.8221 90.4 97.7598 98.4418 97.0797 109.481V109.717C96.0594 120.756 89.8399 128.084 78.4276 131.711L75.877 131.953ZM163.755 66.8984C184.533 73.9955 199.182 84.0901 207.697 97.1762L208.462 100.725L206.16 103.565C192.197 112.236 174.232 115.313 152.258 112.787L149.707 111.843C139.995 105.06 136.418 96.3102 138.975 85.5858V85.3497C141.872 74.6313 149.282 68.3941 161.198 66.6622L163.755 66.9044V66.8984ZM112.92 154.419C124.325 150.32 134.207 152.058 142.546 159.627H142.807C150.982 167.511 152.944 176.734 148.68 187.301L146.895 189.196C129.355 201.81 112.318 208.041 95.7978 207.884L92.227 206.697C91.7402 206.271 91.3527 205.758 91.0884 205.188C90.8241 204.618 90.6885 204.005 90.6901 203.385C90.18 187.773 96.9031 171.926 110.873 155.842L112.92 154.419Z" stroke="white" stroke-width="6" mask="url(#path-1-inside-1_604_6620)"/>
</g>
<path opacity="0.1" d="M28.3574 19.1201C18.652 0.668811 15.5847 -16.0506 19.1621 -31.032C19.3322 -32.2916 20.0123 -33.315 21.2026 -34.1022L25.035 -34.8168C41.3851 -31.8193 56.7998 -22.4331 71.2729 -6.66446L72.2996 -4.53899C74.3401 6.50029 70.3376 15.0992 60.2922 21.2456L60.2922 21.4878C50.4168 27.3193 40.4498 27.2406 30.4044 21.2456L28.3574 19.1201ZM151.237 -62.963C143.232 -51.9237 130.715 -42.9373 113.685 -35.9976L111.134 -35.5253C99.2052 -36.6274 91.3703 -42.4649 87.6229 -53.0258L86.3476 -62.963L151.237 -62.963ZM-6.95444e-05 59.5651C12.2624 67.4495 21.8828 79.9905 28.8675 97.1762L29.1291 99.5379C27.2521 110.583 20.4374 117.523 8.68505 120.357L-6.66408e-05 121.071L-6.95444e-05 59.5651ZM86.3476 239.815C86.5176 233.505 89.6699 227.825 95.7979 222.787L98.355 221.6C120.153 217.815 138.38 219.474 153.029 226.565L155.58 229.411L155.325 232.954L150.982 239.815L86.3476 239.815ZM327 121.065C319.335 120.757 312.782 117.365 307.328 110.892L306.307 108.53C303.58 88.0323 306.562 71.3129 315.248 58.3904L318.315 56.2588L322.147 56.7311L327 59.5651L327 121.071L327 121.065ZM206.926 14.857C195.86 18.8052 186.063 16.8311 177.548 8.94675C176.9 8.37164 176.456 7.62856 176.273 6.81518C170.648 -13.2105 171.335 -30.16 178.32 -44.0394L181.132 -46.6433L184.958 -46.6433C200.457 -40.6483 213.407 -28.5856 223.792 -10.4492L224.302 -8.08754C223.962 3.27268 218.253 10.9209 207.187 14.863L206.926 14.863L206.926 14.857ZM307.838 -32.8729C309.885 -12.2174 306.222 4.50196 296.851 17.2731C296.478 17.7918 295.989 18.2297 295.417 18.5569C294.844 18.8841 294.202 19.0927 293.535 19.1685C292.937 19.3342 292.307 19.3772 291.689 19.2946C291.071 19.212 290.48 19.0057 289.957 18.6901C275.648 10.4909 265.007 -3.46109 258.023 -23.178L258.023 -25.5396C260.24 -36.5789 267.218 -43.2824 278.97 -45.6441C290.723 -47.703 300.094 -44.2271 307.073 -35.2406L307.838 -32.879L307.838 -32.8729ZM222.255 33.3082C224.642 22.275 231.712 15.5655 243.465 13.2038L243.72 13.2038C255.295 11.3145 264.582 14.9417 271.56 24.0856L272.332 26.4473C274.032 47.2663 270.115 63.907 260.58 76.3632C260.206 76.8815 259.716 77.3187 259.142 77.6449C258.569 77.971 257.926 78.1783 257.257 78.2526C256.617 78.4132 255.948 78.4541 255.29 78.373C254.632 78.2919 253.998 78.0904 253.425 77.7803C239.292 69.4236 228.9 55.3868 222.255 35.676L222.255 33.3143L222.255 33.3082ZM39.5931 174.051C57.31 186.344 68.2972 199.987 72.5547 214.969L72.0446 218.517L68.9708 220.649C52.9674 225.07 34.747 223.174 14.3095 214.969L12.2624 213.552C4.93764 204.408 4.17246 195.101 9.96036 185.636L9.96036 185.406C16.2649 175.783 25.3751 171.684 37.2976 173.101L39.5996 174.051L39.5931 174.051ZM117.007 161.038C95.5428 166.561 77.2373 166.403 62.0776 160.566C61.4562 160.377 60.8847 160.069 60.4002 159.662C59.9157 159.255 59.5291 158.758 59.2654 158.204C58.5853 157.096 58.5853 155.915 59.2654 154.649C65.0599 140.146 77.6624 127.763 97.0797 117.517L99.6303 117.044C111.553 117.044 119.983 122.089 124.927 132.183C129.178 142.429 127.308 151.579 119.303 159.615L117.007 161.038ZM91.7104 25.4966C113.685 24.0796 131.565 27.6281 145.365 36.1423L147.66 39.2185L146.895 42.767C137.87 55.8531 122.795 65.5541 101.677 71.864L99.1267 71.864C87.1978 69.6537 80.0495 63.1864 77.6624 52.462L77.6624 52.2258C75.4454 41.5075 79.2778 32.9086 89.1598 26.4473L91.7104 25.4966ZM281.272 229.641C266.623 214.188 258.873 198.819 258.023 183.516L259.298 180.204L262.875 178.551C279.565 177.285 297.027 182.487 315.248 194.162L316.778 196.051C322.062 206.303 320.78 215.611 312.952 223.967C304.777 232.167 294.98 234.534 283.568 231.065L281.272 229.641ZM210.509 169.558C206.245 190.062 197.73 205.201 184.958 214.975C184.508 215.424 183.948 215.766 183.326 215.973C182.703 216.18 182.036 216.244 181.38 216.162C180.695 216.118 180.026 215.949 179.412 215.664C178.798 215.379 178.251 214.984 177.803 214.503C166.567 202.997 160.433 186.907 159.412 166.252C159.412 165.301 159.674 164.435 160.178 163.648C165.632 153.868 174.317 149.296 186.24 149.926L186.495 149.926C198.417 150.871 206.33 156.63 210.248 167.197L210.509 169.558ZM140.25 88.1898C147.915 68.9513 158.817 55.3868 172.95 47.5025L176.783 46.794L179.85 48.9255C189.215 61.8541 192.538 78.4888 189.81 98.8354L188.79 101.197C181.465 110.19 172.015 113.502 160.433 111.134L160.178 111.134C148.602 108.452 141.866 101.591 139.995 90.5575L140.257 88.1898L140.25 88.1898ZM234.773 135.26C230.345 124.699 232.222 115.549 240.397 107.828L240.397 107.586C248.912 100.016 258.873 98.1996 270.285 102.148L272.332 103.801C285.955 120.042 292.685 135.817 292.515 151.113L291.233 154.419C290.773 154.87 290.218 155.229 289.603 155.474C288.988 155.718 288.325 155.844 287.655 155.842C270.795 156.315 253.68 150.09 236.31 137.155L234.773 135.26Z" fill="white"/>
</g>
<defs>
<clipPath id="clip0_604_6620">
<rect width="311" height="200" fill="white"/>
</clipPath>
</defs>
</svg>
