<svg width="311" height="109" viewBox="0 0 311 109" fill="none" xmlns="http://www.w3.org/2000/svg">
<g opacity="0.4">
<g opacity="0.2">
<path d="M78.1068 36.4372C73.5083 36.4366 68.9551 35.5329 64.707 33.7778C60.459 32.0226 56.5995 29.4505 53.3489 26.2082C50.0984 22.9659 47.5204 19.117 45.7624 14.8814C44.0043 10.6457 43.1006 6.10632 43.1029 1.52246" stroke="white" stroke-width="1.61667" stroke-miterlimit="10"/>
<path d="M78.1061 39.9724C73.0418 39.9716 68.0273 38.9763 63.349 37.0434C58.6706 35.1104 54.4201 32.2777 50.8403 28.7069C47.2604 25.1362 44.4213 20.8974 42.4851 16.2327C40.5489 11.568 39.5536 6.56872 39.556 1.52051" stroke="white" stroke-width="1.77924" stroke-miterlimit="10"/>
<path d="M78.1086 33.1161C73.949 33.1156 69.8303 32.2977 65.988 30.7092C62.1458 29.1207 58.6554 26.7927 55.7165 23.8584C52.7775 20.9241 50.4477 17.441 48.8603 13.6084C47.2729 9.77581 46.459 5.66886 46.4652 1.52246" stroke="white" stroke-width="1.61667" stroke-miterlimit="10"/>
<path d="M78.1122 30.0306C70.5293 30.0266 63.2582 27.0217 57.8968 21.6763C52.5355 16.3308 49.5224 9.08226 49.5199 1.52344" stroke="white" stroke-width="1.61667" stroke-miterlimit="10"/>
<path d="M78.1068 26.6559C71.4237 26.6521 65.0158 24.0026 60.2922 19.2899C55.5686 14.5772 52.9162 8.18724 52.9183 1.52539" stroke="white" stroke-width="1.61667" stroke-miterlimit="10"/>
<path d="M78.1139 23.5456C75.2138 23.5455 72.3421 22.9758 69.6629 21.869C66.9837 20.7623 64.5496 19.1401 62.4995 17.0953C60.4494 15.0504 58.8237 12.623 57.715 9.95161C56.6064 7.28024 56.0367 4.4173 56.0384 1.52637" stroke="white" stroke-width="1.61667" stroke-miterlimit="10"/>
<path d="M78.113 20.5835C73.0445 20.582 68.1842 18.5734 64.6014 14.9996C61.0185 11.4259 59.0066 6.57977 59.0082 1.52734" stroke="white" stroke-width="1.61667" stroke-miterlimit="10"/>
<path d="M78.1126 17.3797C76.025 17.3799 73.9577 16.9698 72.0291 16.173C70.1006 15.3762 68.3484 14.2083 66.873 12.736C65.3975 11.2638 64.2277 9.51603 63.4303 7.59275C62.6329 5.66948 62.2237 3.60839 62.226 1.52734" stroke="white" stroke-width="1.61667" stroke-miterlimit="10"/>
<path d="M78.1113 14.2026C74.7405 14.2015 71.5082 12.8657 69.1254 10.489C66.7426 8.1123 65.4046 4.8894 65.4056 1.5293" stroke="white" stroke-width="1.61667" stroke-miterlimit="10"/>
<path d="M78.1158 11.0296C75.5889 11.0288 73.1658 10.0275 71.3796 8.2458C69.5934 6.46414 68.5904 4.04815 68.5912 1.5293" stroke="white" stroke-width="1.61667" stroke-miterlimit="10"/>
<path d="M78.1139 8.03765C77.2573 8.03738 76.4091 7.86883 75.6179 7.54163C74.8267 7.21443 74.108 6.735 73.5027 6.13075C72.8975 5.52649 72.4177 4.80926 72.0907 4.02005C71.7637 3.23084 71.596 2.38512 71.597 1.53125" stroke="white" stroke-width="1.61667" stroke-miterlimit="10"/>
<path d="M78.1166 5.08075C77.6489 5.08142 77.1856 4.99005 76.7534 4.81188C76.3213 4.63371 75.9286 4.37224 75.598 4.04248C75.2674 3.71271 75.0053 3.32114 74.8269 2.89021C74.6484 2.45927 74.557 1.99746 74.558 1.53125" stroke="white" stroke-width="1.61667" stroke-miterlimit="10"/>
<path d="M4.52748 40.5539C4.52891 35.9705 5.43607 31.4324 7.19713 27.1985C8.9582 22.9647 11.5387 19.1182 14.7912 15.8786C18.0437 12.639 21.9046 10.0698 26.1533 8.31768C30.402 6.56561 34.9553 5.66498 39.5533 5.66723" stroke="white" stroke-width="1.61667" stroke-miterlimit="10"/>
<path d="M0.979493 40.5547C0.981076 35.507 1.98013 30.5091 3.9196 25.8463C5.85906 21.1835 8.70096 16.9473 12.283 13.3794C15.865 9.81156 20.117 6.98202 24.7961 5.05238C29.4753 3.12273 34.4899 2.13079 39.5537 2.13319" stroke="white" stroke-width="1.77924" stroke-miterlimit="10"/>
<path d="M7.89182 40.5545C7.89936 32.19 11.2391 24.1708 17.1768 18.2604C23.1144 12.3499 31.1638 9.03203 39.555 9.03629" stroke="white" stroke-width="1.61667" stroke-miterlimit="10"/>
<path d="M10.9426 40.5583C10.9466 32.9974 13.9627 25.7475 19.3278 20.4028C24.6929 15.0581 31.9677 12.0561 39.5527 12.0568" stroke="white" stroke-width="1.61667" stroke-miterlimit="10"/>
<path d="M14.3499 40.5578C14.352 33.8965 17.0086 27.5089 21.7353 22.8001C26.462 18.0914 32.8716 15.4472 39.5541 15.4493" stroke="white" stroke-width="1.61667" stroke-miterlimit="10"/>
<path d="M17.4602 40.5589C17.4611 37.6685 18.0333 34.8066 19.1439 32.1366C20.2546 29.4666 21.882 27.0409 23.9333 24.998C25.9845 22.9551 28.4194 21.3351 31.0989 20.2304C33.7784 19.1256 36.6499 18.5579 39.5495 18.5597" stroke="white" stroke-width="1.61667" stroke-miterlimit="10"/>
<path d="M20.4319 40.5587C20.4351 35.5073 22.4508 30.664 26.0357 27.0939C29.6206 23.5238 34.4812 21.5191 39.5487 21.5206" stroke="white" stroke-width="1.61667" stroke-miterlimit="10"/>
<path d="M23.6506 40.559C23.652 36.3576 25.3275 32.3289 28.3087 29.359C31.2899 26.3891 35.3325 24.7214 39.5472 24.7228" stroke="white" stroke-width="1.61667" stroke-miterlimit="10"/>
<path d="M26.8343 40.5619C26.8353 37.2018 28.1754 33.9797 30.5596 31.6045C32.9439 29.2293 36.177 27.8955 39.5478 27.8966" stroke="white" stroke-width="1.61667" stroke-miterlimit="10"/>
<path d="M30.0159 40.5624C30.0183 38.0447 31.0236 35.6309 32.8108 33.8517C34.5979 32.0725 37.0207 31.0735 39.5464 31.0743" stroke="white" stroke-width="1.61667" stroke-miterlimit="10"/>
<path d="M33.0276 40.5636C33.0281 38.8402 33.7155 37.1876 34.9384 35.9693C36.1613 34.751 37.8196 34.0669 39.5485 34.0675" stroke="white" stroke-width="1.61667" stroke-miterlimit="10"/>
<path d="M35.9777 40.5666C35.9779 40.1009 36.0701 39.6399 36.2492 39.2097C36.4284 38.7796 36.6908 38.389 37.0215 38.0601C37.3522 37.7312 37.7448 37.4705 38.1767 37.293C38.6086 37.1155 39.0714 37.0246 39.5385 37.0255" stroke="white" stroke-width="1.61667" stroke-miterlimit="10"/>
<path d="M0.381195 44.0957C4.97883 44.0963 9.53129 44.9999 13.7786 46.7547C18.0258 48.5095 21.8847 51.0812 25.1347 54.3229C28.3847 57.5646 30.9621 61.4129 32.7199 65.6477C34.4776 69.8826 35.3812 74.4212 35.3789 79.0043" stroke="white" stroke-width="1.61667" stroke-miterlimit="10"/>
<path d="M0.378265 40.5527C5.44203 40.5543 10.4559 41.5502 15.1335 43.4835C19.8111 45.4169 24.0609 48.2497 27.6401 51.8204C31.2193 55.3911 34.0579 59.6296 35.9937 64.2939C37.9295 68.9582 38.9246 73.9569 38.9222 79.0046" stroke="white" stroke-width="1.77924" stroke-miterlimit="10"/>
<path d="M0.378265 47.4395C4.53474 47.4408 8.65025 48.2582 12.4898 49.8452C16.3293 51.4322 19.8176 53.7575 22.7554 56.6885C25.6933 59.6194 28.0232 63.0986 29.612 66.9272C31.2009 70.7558 32.0176 74.859 32.0155 79.0023" stroke="white" stroke-width="1.61667" stroke-miterlimit="10"/>
<path d="M0.378265 50.4834C7.96328 50.4874 15.2362 53.494 20.598 58.8421C25.9597 64.1902 28.9713 71.4419 28.9706 79.0029" stroke="white" stroke-width="1.61667" stroke-miterlimit="10"/>
<path d="M0.376312 53.877C7.05829 53.8807 13.4653 56.5294 18.1887 61.2408C22.9121 65.9521 25.5652 72.3405 25.5648 79.0013" stroke="white" stroke-width="1.61667" stroke-miterlimit="10"/>
<path d="M0.376312 56.9785C3.27592 56.9794 6.14695 57.5497 8.82541 58.6569C11.5039 59.764 13.9373 61.3863 15.9867 63.431C18.0361 65.4758 19.6613 67.903 20.7696 70.5739C21.8778 73.2449 22.4473 76.1074 22.4456 78.9978" stroke="white" stroke-width="1.61667" stroke-miterlimit="10"/>
<path d="M0.372406 59.9502C5.43927 59.9518 10.298 61.9597 13.8797 65.5323C17.4614 69.1049 19.4727 73.9494 19.4711 79.0002" stroke="white" stroke-width="1.61667" stroke-miterlimit="10"/>
<path d="M0.372406 63.1523C4.58713 63.1537 8.62871 64.8239 11.608 67.7957C14.5874 70.7674 16.2604 74.7972 16.2591 78.9985" stroke="white" stroke-width="1.61667" stroke-miterlimit="10"/>
<path d="M0.370453 66.3252C3.73752 66.3328 6.96412 67.6713 9.34252 70.0471C11.7209 72.4229 13.0569 75.642 13.0575 78.9984" stroke="white" stroke-width="1.61667" stroke-miterlimit="10"/>
<path d="M0.370453 69.5029C2.89517 69.5054 5.3157 70.5066 7.10039 72.2867C8.88508 74.0669 9.88799 76.4804 9.88884 78.9971" stroke="white" stroke-width="1.61667" stroke-miterlimit="10"/>
<path d="M0.370453 72.4961C2.09664 72.4999 3.75071 73.1867 4.96919 74.4055C6.18767 75.6244 6.87088 77.2756 6.8687 78.9963" stroke="white" stroke-width="1.61667" stroke-miterlimit="10"/>
<path d="M0.370453 75.4512C1.3129 75.4515 2.21662 75.8249 2.88282 76.4895C3.54902 77.154 3.92312 78.0551 3.92283 78.9945" stroke="white" stroke-width="1.61667" stroke-miterlimit="10"/>
<path d="M73.9546 39.9631C73.954 44.5467 73.0474 49.0852 71.2866 53.3194C69.5259 57.5536 66.9454 61.4005 63.6927 64.6402C60.44 67.88 56.5789 70.4492 52.3298 72.201C48.0807 73.9527 43.527 74.8528 38.9288 74.8498" stroke="white" stroke-width="1.61667" stroke-miterlimit="10"/>
<path d="M77.5019 39.9642C77.5004 45.0119 76.5013 50.0099 74.5618 54.6727C72.6224 59.3355 69.7805 63.5717 66.1984 67.1396C62.6164 70.7074 58.3644 73.537 53.6853 75.4666C49.0061 77.3963 43.9915 78.3882 38.9277 78.3858" stroke="white" stroke-width="1.77924" stroke-miterlimit="10"/>
<path d="M70.5931 39.9621C70.5926 44.1056 69.7731 48.2084 68.1814 52.0361C66.5896 55.8638 64.2569 59.3413 61.3165 62.27C58.376 65.1987 54.8855 67.5212 51.0443 69.1047C47.2031 70.6882 43.0866 71.5018 38.9299 71.4989" stroke="white" stroke-width="1.61667" stroke-miterlimit="10"/>
<path d="M67.5492 39.9611C67.5452 47.5231 64.5282 54.7739 59.1617 60.1188C53.7953 65.4637 46.5189 68.465 38.9328 68.4627" stroke="white" stroke-width="1.61667" stroke-miterlimit="10"/>
<path d="M64.1423 39.9601C64.1386 46.6219 61.4806 53.0095 56.7529 57.7181C52.0252 62.4267 45.615 65.0707 38.9319 65.0686" stroke="white" stroke-width="1.61667" stroke-miterlimit="10"/>
<path d="M61.0222 39.9591C61.0213 42.8495 60.4491 45.7114 59.3385 48.3814C58.2278 51.0513 56.6004 53.477 54.5491 55.5199C52.4979 57.5628 50.063 59.1829 47.3835 60.2876C44.704 61.3923 41.8325 61.96 38.9329 61.9583" stroke="white" stroke-width="1.61667" stroke-miterlimit="10"/>
<path d="M58.0506 39.9581C58.0523 42.4614 57.559 44.9405 56.5989 47.2536C55.6389 49.5667 54.2309 51.6685 52.4555 53.4389C50.6801 55.2093 48.5721 56.6135 46.252 57.5713C43.9318 58.5291 41.445 59.0217 38.9338 59.0209" stroke="white" stroke-width="1.61667" stroke-miterlimit="10"/>
<path d="M54.8376 39.9571C54.837 42.038 54.4251 44.0983 53.6254 46.0204C52.8258 47.9425 51.6542 49.6887 50.1774 51.1593C48.7006 52.6299 46.9476 53.7961 45.0186 54.5912C43.0895 55.3863 41.0223 55.7948 38.9348 55.7934" stroke="white" stroke-width="1.61667" stroke-miterlimit="10"/>
<path d="M51.6494 39.9561C51.6489 41.6199 51.3196 43.2672 50.6804 44.8042C50.0412 46.3411 49.1046 47.7374 47.924 48.9135C46.7435 50.0896 45.3421 51.0224 43.7999 51.6586C42.2577 52.2948 40.6049 52.622 38.9358 52.6214" stroke="white" stroke-width="1.61667" stroke-miterlimit="10"/>
<path d="M48.4673 39.9551C48.4649 42.4729 47.4596 44.8867 45.6725 46.6659C43.8854 48.4451 41.4626 49.4441 38.9368 49.4433" stroke="white" stroke-width="1.61667" stroke-miterlimit="10"/>
<path d="M45.4648 39.9542C45.4646 40.8081 45.2955 41.6535 44.9672 42.4422C44.639 43.2309 44.1581 43.9474 43.5519 44.5507C42.9457 45.154 42.2262 45.6323 41.4345 45.9582C40.6427 46.2842 39.7943 46.4514 38.9378 46.4503" stroke="white" stroke-width="1.61667" stroke-miterlimit="10"/>
<path d="M42.4995 39.9533C42.4993 40.419 42.4071 40.88 42.228 41.3102C42.0489 41.7403 41.7864 42.1309 41.4557 42.4598C41.125 42.7888 40.7324 43.0494 40.3005 43.2269C39.8686 43.4045 39.4058 43.4953 38.9387 43.4944" stroke="white" stroke-width="1.61667" stroke-miterlimit="10"/>
<path d="M155.831 36.5525C146.548 36.5496 137.647 32.8718 131.084 26.3278C124.521 19.7839 120.834 10.9095 120.833 1.65625" stroke="white" stroke-width="1.61667" stroke-miterlimit="10"/>
<path d="M155.83 40.0896C145.605 40.0881 135.8 36.0382 128.57 28.8307C121.341 21.6232 117.28 11.8484 117.28 1.65625" stroke="white" stroke-width="1.77924" stroke-miterlimit="10"/>
<path d="M155.83 33.2025C147.439 33.1998 139.391 29.8756 133.457 23.9604C127.524 18.0452 124.189 10.0233 124.187 1.6582" stroke="white" stroke-width="1.61667" stroke-miterlimit="10"/>
<path d="M155.831 30.1611C148.249 30.1571 140.979 27.1531 135.618 21.809C130.257 16.4649 127.243 9.2179 127.239 1.66016" stroke="white" stroke-width="1.61667" stroke-miterlimit="10"/>
<path d="M155.834 26.7679C149.155 26.7658 142.75 24.1202 138.027 19.4124C133.303 14.7047 130.649 8.32019 130.646 1.66211" stroke="white" stroke-width="1.61667" stroke-miterlimit="10"/>
<path d="M155.834 23.6629C149.98 23.6627 144.366 21.3448 140.226 17.2191C136.086 13.0933 133.76 7.49744 133.758 1.66211" stroke="white" stroke-width="1.61667" stroke-miterlimit="10"/>
<path d="M155.838 20.6998C150.774 20.6982 145.917 18.692 142.335 15.1221C138.754 11.5522 136.741 6.71076 136.74 1.66211" stroke="white" stroke-width="1.61667" stroke-miterlimit="10"/>
<path d="M155.835 17.4918C151.624 17.4905 147.585 15.8227 144.606 12.855C141.627 9.88726 139.952 5.86221 139.949 1.66406" stroke="white" stroke-width="1.61667" stroke-miterlimit="10"/>
<path d="M155.84 14.3188C152.472 14.3178 149.243 12.9845 146.86 10.6118C144.478 8.23911 143.138 5.02096 143.134 1.66406" stroke="white" stroke-width="1.61667" stroke-miterlimit="10"/>
<path d="M155.835 11.1478C153.312 11.147 150.892 10.1482 149.106 8.37056C147.32 6.5929 146.315 4.18166 146.311 1.66602" stroke="white" stroke-width="1.61667" stroke-miterlimit="10"/>
<path d="M155.845 8.14773C154.119 8.14883 152.463 7.46675 151.241 6.25136C150.019 5.03598 149.331 3.38674 149.328 1.66602" stroke="white" stroke-width="1.61667" stroke-miterlimit="10"/>
<path d="M155.842 5.19895C154.901 5.2003 153.997 4.82924 153.33 4.16723C152.663 3.50521 152.287 2.60635 152.284 1.66797" stroke="white" stroke-width="1.61667" stroke-miterlimit="10"/>
<path d="M82.2619 40.6713C82.2625 36.088 83.1689 31.5497 84.9292 27.3156C86.6895 23.0814 89.2693 19.2344 92.5212 15.9942C95.7732 12.7541 99.6336 10.1842 103.882 8.43137C108.13 6.67855 112.684 5.77712 117.281 5.77856" stroke="white" stroke-width="1.61667" stroke-miterlimit="10"/>
<path d="M78.6944 40.6697C78.7041 30.4775 82.7748 20.7066 90.011 13.506C97.2472 6.30534 107.056 2.26473 117.281 2.27284" stroke="white" stroke-width="1.77924" stroke-miterlimit="10"/>
<path d="M85.6174 40.673C85.62 32.3046 88.9575 24.2801 94.8955 18.3646C100.833 12.4492 108.886 9.12741 117.281 9.13004" stroke="white" stroke-width="1.61667" stroke-miterlimit="10"/>
<path d="M88.6662 40.6729C88.665 36.927 89.4041 33.2175 90.8413 29.7564C92.2786 26.2954 94.3859 23.1505 97.0427 20.5014C99.6996 17.8523 102.854 15.751 106.326 14.3175C109.798 12.8839 113.519 12.1463 117.276 12.1467" stroke="white" stroke-width="1.61667" stroke-miterlimit="10"/>
<path d="M92.0716 40.675C92.0737 34.0137 94.7303 27.6261 99.457 22.9173C104.184 18.2086 110.593 15.5644 117.276 15.5665" stroke="white" stroke-width="1.61667" stroke-miterlimit="10"/>
<path d="M95.1888 40.6754C95.1889 37.7845 95.7604 34.9219 96.8707 32.2512C97.981 29.5806 99.6083 27.1541 101.66 25.1106C103.711 23.067 106.146 21.4464 108.826 20.3413C111.506 19.2362 114.378 18.6683 117.278 18.67" stroke="white" stroke-width="1.61667" stroke-miterlimit="10"/>
<path d="M98.1633 40.6762C98.1633 38.1748 98.6576 35.6978 99.6181 33.3869C100.579 31.076 101.986 28.9763 103.761 27.2078C105.536 25.4393 107.642 24.0366 109.961 23.0799C112.28 22.1232 114.765 21.6312 117.274 21.632" stroke="white" stroke-width="1.61667" stroke-miterlimit="10"/>
<path d="M101.374 40.6762C101.374 38.5956 101.785 36.5355 102.584 34.6134C103.383 32.6914 104.554 30.9451 106.031 29.4744C107.507 28.0037 109.259 26.8374 111.188 26.0422C113.117 25.247 115.184 24.8385 117.271 24.8399" stroke="white" stroke-width="1.61667" stroke-miterlimit="10"/>
<path d="M104.56 40.6781C104.561 37.318 105.901 34.0959 108.285 31.7207C110.669 29.3455 113.903 28.0117 117.273 28.0128" stroke="white" stroke-width="1.61667" stroke-miterlimit="10"/>
<path d="M107.743 40.679C107.745 38.1606 108.75 35.7462 110.537 33.966C112.324 32.1858 114.747 31.1855 117.273 31.1846" stroke="white" stroke-width="1.61667" stroke-miterlimit="10"/>
<path d="M110.75 40.6798C110.75 39.8262 110.918 38.9809 111.246 38.1923C111.573 37.4036 112.054 36.6871 112.659 36.0837C113.265 35.4803 113.984 35.0019 114.775 34.6759C115.567 34.3499 116.415 34.1826 117.271 34.1837" stroke="white" stroke-width="1.61667" stroke-miterlimit="10"/>
<path d="M113.708 40.6822C113.709 39.7411 114.084 38.8387 114.752 38.1734C115.419 37.5082 116.325 37.1346 117.269 37.1349" stroke="white" stroke-width="1.61667" stroke-miterlimit="10"/>
<path d="M78.1049 44.2236C82.7028 44.2251 87.2554 45.1294 91.5027 46.8848C95.75 48.6403 99.6088 51.2126 102.859 54.4549C106.109 57.6971 108.686 61.5457 110.444 65.7809C112.201 70.0162 113.105 74.5551 113.103 79.1384" stroke="white" stroke-width="1.61667" stroke-miterlimit="10"/>
<path d="M78.1049 40.6699C83.1691 40.6707 88.1837 41.666 92.862 43.599C97.5403 45.5319 101.791 48.3647 105.371 51.9354C108.951 55.5062 111.79 59.745 113.726 64.4097C115.662 69.0744 116.657 74.0736 116.655 79.1218" stroke="white" stroke-width="1.77924" stroke-miterlimit="10"/>
<path d="M78.1049 47.5586C82.2616 47.5599 86.3774 48.3773 90.2173 49.9642C94.0571 51.5511 97.5459 53.8764 100.484 56.8072C103.423 59.7381 105.753 63.2172 107.343 67.0459C108.932 70.8745 109.75 74.9778 109.748 79.1214" stroke="white" stroke-width="1.61667" stroke-miterlimit="10"/>
<path d="M78.1019 50.6006C85.6869 50.6046 92.9599 53.6112 98.3216 58.9593C103.683 64.3073 106.695 71.5591 106.694 79.12" stroke="white" stroke-width="1.61667" stroke-miterlimit="10"/>
<path d="M78.1019 53.9863C84.785 53.9901 91.1929 56.6396 95.9165 61.3523C100.64 66.065 103.292 72.455 103.29 79.1168" stroke="white" stroke-width="1.61667" stroke-miterlimit="10"/>
<path d="M78.1019 57.0977C81.0021 57.0978 83.8737 57.6675 86.5529 58.7742C89.2321 59.881 91.6663 61.5032 93.7163 63.548C95.7664 65.5929 97.3922 68.0203 98.5008 70.6917C99.6094 73.3631 100.179 76.226 100.177 79.1169" stroke="white" stroke-width="1.61667" stroke-miterlimit="10"/>
<path d="M78.099 60.0605C83.1675 60.0621 88.0278 62.0707 91.6106 65.6445C95.1935 69.2182 97.2054 74.0643 97.2039 79.1167" stroke="white" stroke-width="1.61667" stroke-miterlimit="10"/>
<path d="M78.099 63.2686C82.3137 63.2699 86.3553 64.9401 89.3346 67.9119C92.314 70.8836 93.987 74.9134 93.9857 79.1148" stroke="white" stroke-width="1.61667" stroke-miterlimit="10"/>
<path d="M78.099 66.4404C81.4698 66.4415 84.7021 67.7773 87.0849 70.154C89.4676 72.5307 90.8057 75.7536 90.8046 79.1137" stroke="white" stroke-width="1.61667" stroke-miterlimit="10"/>
<path d="M78.097 69.6113C80.6239 69.6121 83.047 70.6135 84.8332 72.3951C86.6194 74.1768 87.6224 76.5928 87.6216 79.1116" stroke="white" stroke-width="1.61667" stroke-miterlimit="10"/>
<path d="M78.097 72.6123C78.9533 72.6118 79.8013 72.7796 80.5925 73.1061C81.3837 73.4326 82.1025 73.9115 82.7078 74.5152C83.3131 75.119 83.793 75.8358 84.1201 76.6247C84.4471 77.4135 84.6149 78.259 84.6139 79.1125" stroke="white" stroke-width="1.61667" stroke-miterlimit="10"/>
<path d="M78.0941 75.5596C78.5618 75.5589 79.025 75.6503 79.4572 75.8285C79.8894 76.0066 80.2821 76.2681 80.6127 76.5978C80.9433 76.9276 81.2053 77.3192 81.3838 77.7501C81.5623 78.1811 81.6536 78.6429 81.6527 79.1091" stroke="white" stroke-width="1.61667" stroke-miterlimit="10"/>
<path d="M151.678 40.0754C151.677 44.6588 150.771 49.1971 149.011 53.4312C147.25 57.6654 144.671 61.5124 141.419 64.7525C138.167 67.9927 134.306 70.5626 130.058 72.3154C125.809 74.0682 121.256 74.9697 116.658 74.9682" stroke="white" stroke-width="1.61667" stroke-miterlimit="10"/>
<path d="M155.231 40.0765C155.231 45.1248 154.232 50.1234 152.293 54.7869C150.354 59.4504 147.512 63.6874 143.93 67.2559C140.348 70.8244 136.096 73.6545 131.416 75.5845C126.737 77.5145 121.722 78.5067 116.657 78.5043" stroke="white" stroke-width="1.77924" stroke-miterlimit="10"/>
<path d="M148.323 40.0744C148.32 48.4427 144.983 56.4673 139.045 62.3827C133.107 68.2982 125.054 71.6199 116.659 71.6173" stroke="white" stroke-width="1.61667" stroke-miterlimit="10"/>
<path d="M145.271 40.0734C145.267 47.6344 142.25 54.8842 136.885 60.229C131.52 65.5737 124.245 68.5757 116.66 68.575" stroke="white" stroke-width="1.61667" stroke-miterlimit="10"/>
<path d="M141.84 40.0743C141.838 46.7356 139.182 53.1232 134.455 57.832C129.728 62.5407 123.319 65.1849 116.636 65.1828" stroke="white" stroke-width="1.61667" stroke-miterlimit="10"/>
<path d="M138.746 40.0714C138.746 42.9623 138.174 45.8249 137.064 48.4956C135.954 51.1662 134.326 53.5927 132.275 55.6362C130.224 57.6798 127.788 59.3004 125.109 60.4055C122.429 61.5106 119.557 62.0785 116.657 62.0768" stroke="white" stroke-width="1.61667" stroke-miterlimit="10"/>
<path d="M135.774 40.0704C135.774 42.5719 135.28 45.0488 134.319 47.3597C133.359 49.6707 131.951 51.7703 130.176 53.5389C128.402 55.3074 126.295 56.71 123.976 57.6667C121.658 58.6234 119.173 59.1155 116.663 59.1147" stroke="white" stroke-width="1.61667" stroke-miterlimit="10"/>
<path d="M132.555 40.0694C132.554 42.1497 132.143 44.2095 131.344 46.1312C130.544 48.0529 129.373 49.7989 127.897 51.2694C126.421 52.7399 124.669 53.9062 122.74 54.7017C120.812 55.4972 118.745 55.9063 116.658 55.9057" stroke="white" stroke-width="1.61667" stroke-miterlimit="10"/>
<path d="M129.379 40.0684C129.378 43.4285 128.038 46.6506 125.654 49.0258C123.269 51.401 120.036 52.7348 116.665 52.7337" stroke="white" stroke-width="1.61667" stroke-miterlimit="10"/>
<path d="M126.197 40.0674C126.196 42.5863 125.192 45.0017 123.404 46.7822C121.617 48.5627 119.193 49.5626 116.666 49.5618" stroke="white" stroke-width="1.61667" stroke-miterlimit="10"/>
<path d="M123.188 40.0665C123.189 40.9201 123.02 41.7654 122.693 42.554C122.365 43.3427 121.885 44.0592 121.279 44.6626C120.674 45.266 119.954 45.7444 119.163 46.0704C118.372 46.3964 117.524 46.5637 116.667 46.5626" stroke="white" stroke-width="1.61667" stroke-miterlimit="10"/>
<path d="M120.229 40.0656C120.23 40.5323 120.139 40.9947 119.961 41.4262C119.783 41.8578 119.521 42.2499 119.19 42.5801C118.859 42.9103 118.466 43.1721 118.033 43.3504C117.6 43.5287 117.136 43.62 116.668 43.619" stroke="white" stroke-width="1.61667" stroke-miterlimit="10"/>
<path d="M77.7787 113.693C73.1797 113.693 68.6259 112.789 64.3775 111.033C60.1291 109.278 56.2693 106.705 53.0186 103.462C49.768 100.219 47.1902 96.3696 45.4325 92.1332C43.6748 87.8969 42.7717 83.3568 42.7748 78.7725" stroke="white" stroke-width="1.61667" stroke-miterlimit="10"/>
<path d="M77.7809 117.235C72.7156 117.234 67.7 116.238 63.0209 114.305C58.3418 112.371 54.0907 109.537 50.5107 105.965C46.9306 102.393 44.0918 98.1526 42.1564 93.4865C40.2209 88.8203 39.2268 83.8198 39.2308 78.7705" stroke="white" stroke-width="1.77924" stroke-miterlimit="10"/>
<path d="M77.7785 110.349C73.6207 110.347 69.5039 109.529 65.6632 107.942C61.8225 106.354 58.3333 104.028 55.3948 101.096C52.4562 98.1634 50.126 94.6828 48.5372 90.8527C46.9484 87.0226 46.1322 82.9181 46.1351 78.7734" stroke="white" stroke-width="1.61667" stroke-miterlimit="10"/>
<path d="M77.7801 107.305C74.0233 107.303 70.3037 106.564 66.8337 105.129C63.3636 103.694 60.2111 101.592 57.5561 98.9422C54.901 96.2928 52.7955 93.148 51.3597 89.6875C49.9238 86.2269 49.1858 82.5183 49.1878 78.7734" stroke="white" stroke-width="1.61667" stroke-miterlimit="10"/>
<path d="M77.7816 103.91C74.4717 103.909 71.1945 103.258 68.1371 101.994C65.0797 100.73 62.3021 98.878 59.963 96.5437C57.6239 94.2094 55.769 91.4385 54.5045 88.3895C53.2399 85.3404 52.5905 82.0728 52.5931 78.7734" stroke="white" stroke-width="1.61667" stroke-miterlimit="10"/>
<path d="M77.7819 100.806C74.8807 100.806 72.008 100.236 69.328 99.1282C66.648 98.0207 64.2133 96.3974 62.1631 94.3513C60.1129 92.3051 58.4874 89.8762 57.3795 87.2034C56.2716 84.5306 55.7031 81.6664 55.7064 78.7744" stroke="white" stroke-width="1.61667" stroke-miterlimit="10"/>
<path d="M77.7839 97.8397C75.2735 97.8397 72.7877 97.3466 70.4686 96.3884C68.1495 95.4302 66.0425 94.0258 64.2682 92.2554C62.494 90.4851 61.0871 88.3835 60.128 86.0709C59.169 83.7582 58.6766 81.2798 58.6791 78.7773" stroke="white" stroke-width="1.61667" stroke-miterlimit="10"/>
<path d="M77.7855 94.6359C75.6975 94.6352 73.6301 94.2244 71.7015 93.427C69.7729 92.6295 68.0208 91.461 66.5455 89.9882C65.0701 88.5155 63.9003 86.7673 63.103 84.8437C62.3057 82.9201 61.8965 80.8587 61.8988 78.7773" stroke="white" stroke-width="1.61667" stroke-miterlimit="10"/>
<path d="M77.7861 91.4639C76.1144 91.4659 74.4588 91.139 72.9141 90.5022C71.3693 89.8653 69.9658 88.9309 68.7838 87.7526C67.6019 86.5742 66.6647 85.175 66.026 83.635C65.3874 82.0951 65.0597 80.4447 65.0619 78.7783" stroke="white" stroke-width="1.61667" stroke-miterlimit="10"/>
<path d="M77.7886 88.2929C76.5366 88.2917 75.2971 88.0447 74.1409 87.566C72.9847 87.0873 71.9344 86.3863 71.0499 85.503C70.1655 84.6196 69.4642 83.5713 68.9862 82.4178C68.5082 81.2643 68.2628 80.0283 68.264 78.7803" stroke="white" stroke-width="1.61667" stroke-miterlimit="10"/>
<path d="M77.7897 85.2928C76.9308 85.2958 76.0798 85.1294 75.2856 84.8032C74.4915 84.477 73.77 83.9975 73.1625 83.3921C72.5551 82.7868 72.0738 82.0677 71.7463 81.2762C71.4188 80.4847 71.2516 79.6365 71.2543 78.7803" stroke="white" stroke-width="1.61667" stroke-miterlimit="10"/>
<path d="M77.7884 82.3435C77.3207 82.3441 76.8575 82.2528 76.4253 82.0746C75.9931 81.8964 75.6005 81.6349 75.2699 81.3052C74.9393 80.9754 74.6772 80.5838 74.4987 80.1529C74.3203 79.722 74.2289 79.2602 74.2299 78.7939" stroke="white" stroke-width="1.61667" stroke-miterlimit="10"/>
<path d="M4.20619 117.815C4.20681 113.232 5.11316 108.693 6.87347 104.459C8.63379 100.225 11.2136 96.378 14.4655 93.1378C17.7175 89.8976 21.5779 87.3277 25.8263 85.5749C30.0747 83.8221 34.6279 82.9207 39.2258 82.9221" stroke="white" stroke-width="1.61667" stroke-miterlimit="10"/>
<path d="M0.664062 117.817C0.664832 112.77 1.66287 107.772 3.6012 103.109C5.53953 98.4466 8.38019 94.2102 11.961 90.6418C15.5418 87.0735 19.7926 84.2431 24.4707 82.3124C29.1488 80.3816 34.1626 79.3883 39.2259 79.389" stroke="white" stroke-width="1.77924" stroke-miterlimit="10"/>
<path d="M7.56271 117.82C7.56533 109.452 10.9027 101.428 16.8407 95.5121C22.7787 89.5967 30.8309 86.2749 39.2259 86.2775" stroke="white" stroke-width="1.61667" stroke-miterlimit="10"/>
<path d="M10.6144 117.819C10.6185 110.258 13.6346 103.008 18.9997 97.6636C24.3648 92.3188 31.6396 89.3168 39.2246 89.3176" stroke="white" stroke-width="1.61667" stroke-miterlimit="10"/>
<path d="M14.0188 117.821C14.0209 111.159 16.6773 104.771 21.4039 100.061C26.1304 95.3512 32.54 92.7057 39.223 92.7061" stroke="white" stroke-width="1.61667" stroke-miterlimit="10"/>
<path d="M17.1331 117.819C17.1332 114.928 17.7047 112.065 18.815 109.395C19.9253 106.724 21.5526 104.298 23.6039 102.254C25.6553 100.211 28.0904 98.5899 30.7703 97.4849C33.4502 96.3798 36.3222 95.8118 39.2224 95.8136" stroke="white" stroke-width="1.61667" stroke-miterlimit="10"/>
<path d="M20.1145 117.823C20.1145 115.321 20.6088 112.844 21.5692 110.533C22.5297 108.222 23.9375 106.123 25.7121 104.354C27.4868 102.586 29.5936 101.183 31.9122 100.226C34.2308 99.2697 36.7157 98.7777 39.2251 98.7785" stroke="white" stroke-width="1.61667" stroke-miterlimit="10"/>
<path d="M23.3254 117.823C23.3253 115.742 23.7364 113.682 24.5354 111.76C25.3343 109.838 26.5054 108.092 27.9817 106.621C29.458 105.15 31.2106 103.984 33.1392 103.189C35.0679 102.394 37.1349 101.985 39.2221 101.986" stroke="white" stroke-width="1.61667" stroke-miterlimit="10"/>
<path d="M26.5032 117.826C26.5043 114.465 27.8443 111.243 30.2286 108.868C32.6128 106.493 35.846 105.159 39.2168 105.16" stroke="white" stroke-width="1.61667" stroke-miterlimit="10"/>
<path d="M29.6878 117.824C29.6886 115.306 30.6931 112.89 32.4804 111.11C34.2678 109.329 36.6915 108.329 39.2183 108.33" stroke="white" stroke-width="1.61667" stroke-miterlimit="10"/>
<path d="M155.506 113.413C150.908 113.413 146.356 112.509 142.109 110.754C137.861 109 134.002 106.428 130.752 103.186C127.502 99.9445 124.925 96.0963 123.167 91.8614C121.409 87.6265 120.506 83.0879 120.508 78.5049" stroke="white" stroke-width="1.61667" stroke-miterlimit="10"/>
<path d="M155.504 116.957C150.44 116.955 145.427 115.959 140.749 114.026C136.071 112.093 131.822 109.26 128.242 105.689C124.663 102.118 121.825 97.8799 119.889 93.2156C117.953 88.5513 116.958 83.5526 116.96 78.5049" stroke="white" stroke-width="1.77924" stroke-miterlimit="10"/>
<path d="M155.503 110.07C151.347 110.068 147.233 109.249 143.394 107.662C139.555 106.075 136.067 103.749 133.13 100.818C130.193 97.8875 127.864 94.4087 126.275 90.5805C124.687 86.7522 123.87 82.6496 123.872 78.5068" stroke="white" stroke-width="1.61667" stroke-miterlimit="10"/>
<path d="M155.509 107.031C147.924 107.027 140.651 104.021 135.289 98.6725C129.927 93.3244 126.916 86.0727 126.916 78.5117" stroke="white" stroke-width="1.61667" stroke-miterlimit="10"/>
<path d="M155.508 103.636C148.826 103.632 142.419 100.984 137.696 96.2722C132.972 91.5608 130.319 85.1725 130.32 78.5117" stroke="white" stroke-width="1.61667" stroke-miterlimit="10"/>
<path d="M155.507 100.531C152.608 100.53 149.737 99.9598 147.058 98.8526C144.38 97.7455 141.946 96.1232 139.897 94.0784C137.847 92.0337 136.222 89.6065 135.114 86.9355C134.006 84.2646 133.436 81.4021 133.438 78.5117" stroke="white" stroke-width="1.61667" stroke-miterlimit="10"/>
<path d="M155.51 97.5627C150.443 97.5611 145.585 95.5532 142.003 91.9806C138.421 88.408 136.41 83.5635 136.411 78.5127" stroke="white" stroke-width="1.61667" stroke-miterlimit="10"/>
<path d="M155.513 94.3589C151.298 94.3576 147.257 92.6873 144.277 89.7156C141.298 86.7439 139.625 82.7141 139.626 78.5127" stroke="white" stroke-width="1.61667" stroke-miterlimit="10"/>
<path d="M155.511 91.1879C152.14 91.1852 148.909 89.8489 146.527 87.4726C144.144 85.0962 142.806 81.8743 142.805 78.5146" stroke="white" stroke-width="1.61667" stroke-miterlimit="10"/>
<path d="M155.513 88.016C152.987 88.0135 150.566 87.0114 148.781 85.23C146.996 83.4485 145.994 81.0334 145.995 78.5156" stroke="white" stroke-width="1.61667" stroke-miterlimit="10"/>
<path d="M155.513 85.0158C154.657 85.0164 153.809 84.8486 153.018 84.5221C152.227 84.1955 151.508 83.7167 150.903 83.1129C150.297 82.5092 149.817 81.7924 149.49 81.0035C149.163 80.2146 148.995 79.3692 148.996 78.5156" stroke="white" stroke-width="1.61667" stroke-miterlimit="10"/>
<path d="M155.514 82.0651C154.571 82.0632 153.667 81.6883 153.001 81.0229C152.335 80.3574 151.961 79.4556 151.961 78.5156" stroke="white" stroke-width="1.61667" stroke-miterlimit="10"/>
<path d="M81.9328 117.54C81.9334 112.956 82.84 108.417 84.6007 104.182C86.3614 99.9478 88.9417 96.1005 92.1943 92.8602C95.4469 89.62 99.3081 87.0502 103.557 85.2978C107.806 83.5453 112.36 82.6445 116.959 82.6467" stroke="white" stroke-width="1.61667" stroke-miterlimit="10"/>
<path d="M78.3828 117.538C78.3836 112.49 79.3821 107.492 81.3212 102.828C83.2603 98.1646 86.102 93.9276 89.6841 90.3591C93.2663 86.7906 97.5185 83.9605 102.198 82.0305C106.878 80.1005 111.893 79.1083 116.957 79.1107" stroke="white" stroke-width="1.77924" stroke-miterlimit="10"/>
<path d="M85.2942 117.542C85.2947 113.398 86.1141 109.295 87.7058 105.467C89.2974 101.639 91.63 98.1612 94.5704 95.232C97.5108 92.3028 101.001 89.9797 104.842 88.3956C108.684 86.8114 112.8 85.9971 116.957 85.9992" stroke="white" stroke-width="1.61667" stroke-miterlimit="10"/>
<path d="M88.3381 117.541C88.3421 109.979 91.3591 102.728 96.7255 97.3831C102.092 92.0382 109.368 89.0369 116.954 89.0392" stroke="white" stroke-width="1.61667" stroke-miterlimit="10"/>
<path d="M91.7444 117.542C91.7465 110.88 94.4038 104.49 99.1317 99.7805C103.86 95.0706 110.271 92.4257 116.955 92.4278" stroke="white" stroke-width="1.61667" stroke-miterlimit="10"/>
<path d="M94.8636 117.544C94.8637 114.653 95.4352 111.79 96.5455 109.119C97.6558 106.449 99.2831 104.022 101.334 101.979C103.386 99.9352 105.821 98.3146 108.501 97.2095C111.181 96.1044 114.053 95.5365 116.953 95.5382" stroke="white" stroke-width="1.61667" stroke-miterlimit="10"/>
<path d="M97.8626 117.545C97.8641 112.493 99.8791 107.648 103.464 104.077C107.049 100.505 111.911 98.4995 116.979 98.5011" stroke="white" stroke-width="1.61667" stroke-miterlimit="10"/>
<path d="M101.048 117.545C101.048 115.464 101.459 113.404 102.259 111.481C103.058 109.559 104.23 107.812 105.707 106.341C107.184 104.871 108.937 103.704 110.866 102.91C112.796 102.115 114.863 101.707 116.951 101.709" stroke="white" stroke-width="1.61667" stroke-miterlimit="10"/>
<path d="M104.239 117.546C104.24 114.186 105.58 110.964 107.964 108.589C110.348 106.214 113.581 104.88 116.952 104.881" stroke="white" stroke-width="1.61667" stroke-miterlimit="10"/>
<path d="M107.422 117.547C107.423 115.028 108.428 112.613 110.215 110.832C112.002 109.052 114.426 108.052 116.953 108.053" stroke="white" stroke-width="1.61667" stroke-miterlimit="10"/>
<path d="M233.563 36.4733C228.964 36.4727 224.411 35.569 220.163 33.8139C215.915 32.0588 212.056 29.4866 208.805 26.2443C205.554 23.002 202.977 19.1531 201.218 14.9175C199.46 10.6818 198.557 6.14245 198.559 1.55859" stroke="white" stroke-width="1.61667" stroke-miterlimit="10"/>
<path d="M233.56 40.0086C228.496 40.0078 223.481 39.0125 218.803 37.0795C214.125 35.1466 209.874 32.3138 206.294 28.743C202.715 25.1723 199.875 20.9335 197.939 16.2688C196.003 11.6041 195.008 6.60486 195.01 1.55664" stroke="white" stroke-width="1.77924" stroke-miterlimit="10"/>
<path d="M233.566 33.1214C229.407 33.1233 225.289 32.3082 221.447 30.7227C217.604 29.1372 214.113 26.8124 211.172 23.8811C208.232 20.9498 205.9 17.4696 204.309 13.6393C202.719 9.8091 201.902 5.70396 201.904 1.55859" stroke="white" stroke-width="1.61667" stroke-miterlimit="10"/>
<path d="M233.568 30.08C225.987 30.0695 218.721 27.06 213.364 21.7126C208.008 16.3652 205 9.11723 205 1.56055" stroke="white" stroke-width="1.61667" stroke-miterlimit="10"/>
<path d="M233.566 26.6868C226.883 26.6847 220.474 24.0367 215.75 19.3252C211.025 14.6136 208.371 8.22435 208.371 1.5625" stroke="white" stroke-width="1.61667" stroke-miterlimit="10"/>
<path d="M233.569 23.5818C230.669 23.5817 227.797 23.0119 225.118 21.9052C222.439 20.7984 220.005 19.1762 217.955 17.1314C215.905 15.0866 214.279 12.6591 213.17 9.98774C212.062 7.31637 211.492 4.45343 211.494 1.5625" stroke="white" stroke-width="1.61667" stroke-miterlimit="10"/>
<path d="M233.57 20.6197C228.502 20.6181 223.641 18.6095 220.058 15.0358C216.476 11.462 214.464 6.6159 214.465 1.56348" stroke="white" stroke-width="1.61667" stroke-miterlimit="10"/>
<path d="M233.57 17.4107C231.483 17.4108 229.416 17.001 227.487 16.2047C225.558 15.4083 223.806 14.2411 222.33 12.7695C220.854 11.298 219.684 9.55103 218.885 7.62843C218.087 5.70583 217.676 3.64527 217.677 1.56445" stroke="white" stroke-width="1.61667" stroke-miterlimit="10"/>
<path d="M233.571 14.2377C230.199 14.2367 226.966 12.901 224.583 10.5245C222.199 8.148 220.859 4.92512 220.859 1.56445" stroke="white" stroke-width="1.61667" stroke-miterlimit="10"/>
<path d="M233.574 11.0667C231.047 11.0659 228.624 10.0646 226.838 8.28291C225.051 6.50125 224.048 4.08526 224.049 1.56641" stroke="white" stroke-width="1.61667" stroke-miterlimit="10"/>
<path d="M233.572 8.06662C232.716 8.06716 231.867 7.89942 231.076 7.57297C230.284 7.24652 229.565 6.76777 228.959 6.16409C228.353 5.56041 227.873 4.84363 227.545 4.05473C227.217 3.26583 227.049 2.42028 227.049 1.56641" stroke="white" stroke-width="1.61667" stroke-miterlimit="10"/>
<path d="M233.575 5.11688C233.107 5.11755 232.644 5.02617 232.211 4.848C231.779 4.66983 231.387 4.40837 231.056 4.07861C230.725 3.74884 230.463 3.35727 230.285 2.92633C230.106 2.4954 230.015 2.03359 230.016 1.56738" stroke="white" stroke-width="1.61667" stroke-miterlimit="10"/>
<path d="M159.987 40.591C159.988 36.0074 160.895 31.4689 162.655 27.2347C164.416 23.0005 166.997 19.1536 170.249 15.9139C173.502 12.6741 177.363 10.1049 181.612 8.35314C185.861 6.60135 190.415 5.70128 195.013 5.70434" stroke="white" stroke-width="1.61667" stroke-miterlimit="10"/>
<path d="M156.438 40.5892C156.438 35.541 157.437 30.5424 159.376 25.8789C161.315 21.2154 164.157 16.9784 167.739 13.4099C171.321 9.8414 175.573 7.01131 180.253 5.08129C184.932 3.15126 189.947 2.15911 195.012 2.16151" stroke="white" stroke-width="1.77924" stroke-miterlimit="10"/>
<path d="M163.346 40.5909C163.346 36.4471 164.166 32.344 165.758 28.516C167.349 24.688 169.682 21.21 172.622 18.2808C175.563 15.3516 179.053 13.0286 182.894 11.4444C186.735 9.86019 190.852 9.0459 195.009 9.04801" stroke="white" stroke-width="1.61667" stroke-miterlimit="10"/>
<path d="M166.392 40.5955C166.397 33.0339 169.415 25.7841 174.781 20.4396C180.147 15.095 187.423 12.0932 195.008 12.0939" stroke="white" stroke-width="1.61667" stroke-miterlimit="10"/>
<path d="M169.8 40.5939C169.804 33.9321 172.462 27.5445 177.19 22.8359C181.917 18.1273 188.327 15.4833 195.011 15.4854" stroke="white" stroke-width="1.61667" stroke-miterlimit="10"/>
<path d="M172.918 40.5963C172.918 37.7054 173.49 34.8428 174.6 32.1721C175.71 29.5015 177.338 27.075 179.389 25.0315C181.44 22.9879 183.876 21.3673 186.556 20.2622C189.235 19.1571 192.107 18.5892 195.008 18.5909" stroke="white" stroke-width="1.61667" stroke-miterlimit="10"/>
<path d="M175.89 40.5971C175.891 35.5446 177.906 30.6998 181.492 27.1283C185.077 23.5568 189.938 21.5513 195.007 21.5529" stroke="white" stroke-width="1.61667" stroke-miterlimit="10"/>
<path d="M179.102 40.5961C179.102 38.5153 179.514 36.455 180.314 34.5329C181.114 32.6108 182.285 30.8646 183.762 29.3939C185.239 27.9233 186.992 26.7572 188.921 25.962C190.85 25.1669 192.917 24.7584 195.005 24.7599" stroke="white" stroke-width="1.61667" stroke-miterlimit="10"/>
<path d="M182.292 40.598C182.293 37.2379 183.633 34.0158 186.018 31.6406C188.402 29.2654 191.635 27.9316 195.006 27.9327" stroke="white" stroke-width="1.61667" stroke-miterlimit="10"/>
<path d="M185.472 40.6008C185.473 38.082 186.477 35.6666 188.265 33.8861C190.052 32.1056 192.476 31.1057 195.003 31.1065" stroke="white" stroke-width="1.61667" stroke-miterlimit="10"/>
<path d="M188.474 40.5978C188.474 39.7439 188.643 38.8985 188.972 38.1098C189.3 37.3211 189.781 36.6046 190.387 36.0013C190.993 35.398 191.713 34.9197 192.504 34.5937C193.296 34.2678 194.144 34.1006 195.001 34.1017" stroke="white" stroke-width="1.61667" stroke-miterlimit="10"/>
<path d="M191.441 40.6002C191.44 40.1339 191.532 39.6722 191.71 39.2414C191.889 38.8105 192.151 38.4191 192.482 38.0896C192.813 37.76 193.206 37.4988 193.638 37.3209C194.07 37.143 194.534 37.0519 195.001 37.0529" stroke="white" stroke-width="1.61667" stroke-miterlimit="10"/>
<path d="M155.83 44.127C165.117 44.1299 174.022 47.81 180.586 54.3578C187.151 60.9056 190.837 69.7846 190.834 79.0417" stroke="white" stroke-width="1.61667" stroke-miterlimit="10"/>
<path d="M155.833 40.5908C160.898 40.5916 165.912 41.5869 170.591 43.5199C175.269 45.4528 179.519 48.2856 183.099 51.8563C186.679 55.4271 189.518 59.6659 191.454 64.3306C193.391 68.9953 194.386 73.9945 194.383 79.0427" stroke="white" stroke-width="1.77924" stroke-miterlimit="10"/>
<path d="M155.83 47.4766C164.225 47.4792 172.276 50.806 178.21 56.7252C184.144 62.6444 187.476 70.671 187.474 79.0393" stroke="white" stroke-width="1.61667" stroke-miterlimit="10"/>
<path d="M155.83 50.5195C163.415 50.5235 170.688 53.5301 176.05 58.8782C181.412 64.2263 184.423 71.4781 184.423 79.039" stroke="white" stroke-width="1.61667" stroke-miterlimit="10"/>
<path d="M155.828 53.9141C162.512 53.9162 168.92 56.5642 173.645 61.2757C178.37 65.9872 181.024 72.3765 181.023 79.0384" stroke="white" stroke-width="1.61667" stroke-miterlimit="10"/>
<path d="M155.828 57.0166C158.729 57.0167 161.6 57.5864 164.279 58.6932C166.959 59.8 169.393 61.4221 171.443 63.4669C173.493 65.5118 175.119 67.9392 176.227 70.6106C177.336 73.282 177.906 76.1449 177.904 79.0358" stroke="white" stroke-width="1.61667" stroke-miterlimit="10"/>
<path d="M155.828 59.9785C160.897 59.9801 165.757 61.9887 169.34 65.5624C172.923 69.1362 174.935 73.9823 174.933 79.0347" stroke="white" stroke-width="1.61667" stroke-miterlimit="10"/>
<path d="M155.823 63.1895C157.91 63.1893 159.977 63.5991 161.905 64.3955C163.833 65.192 165.585 66.3593 167.06 67.831C168.535 69.3026 169.705 71.0496 170.503 72.9721C171.301 74.8947 171.711 76.9551 171.709 79.0357" stroke="white" stroke-width="1.61667" stroke-miterlimit="10"/>
<path d="M155.82 66.3604C159.19 66.3614 162.423 67.6972 164.806 70.0739C167.188 72.4506 168.526 75.6735 168.525 79.0336" stroke="white" stroke-width="1.61667" stroke-miterlimit="10"/>
<path d="M155.82 69.5518C158.344 69.5509 160.766 70.549 162.553 72.3268C164.34 74.1047 165.346 76.5169 165.35 79.0336" stroke="white" stroke-width="1.61667" stroke-miterlimit="10"/>
<path d="M155.82 72.5332C156.676 72.5327 157.524 72.7005 158.315 73.027C159.106 73.3535 159.825 73.8323 160.43 74.4361C161.036 75.0399 161.516 75.7567 161.843 76.5456C162.17 77.3344 162.338 78.1798 162.337 79.0334" stroke="white" stroke-width="1.61667" stroke-miterlimit="10"/>
<path d="M155.82 75.4815C156.287 75.4808 156.751 75.5722 157.183 75.7503C157.615 75.9285 158.008 76.19 158.338 76.5197C158.669 76.8495 158.931 77.2411 159.109 77.672C159.288 78.1029 159.379 78.5648 159.378 79.031" stroke="white" stroke-width="1.61667" stroke-miterlimit="10"/>
<path d="M229.407 39.9934C229.404 49.2505 225.712 58.1272 219.143 64.6709C212.575 71.2145 203.668 74.8891 194.381 74.8862" stroke="white" stroke-width="1.61667" stroke-miterlimit="10"/>
<path d="M232.954 39.9945C232.953 45.0427 231.955 50.0413 230.016 54.7048C228.077 59.3683 225.235 63.6053 221.653 67.1738C218.071 70.7423 213.818 73.5724 209.139 75.5025C204.459 77.4325 199.444 78.4246 194.38 78.4222" stroke="white" stroke-width="1.77924" stroke-miterlimit="10"/>
<path d="M226.035 39.9923C226.032 48.3607 222.694 56.3852 216.756 62.3007C210.818 68.2161 202.766 71.5379 194.371 71.5353" stroke="white" stroke-width="1.61667" stroke-miterlimit="10"/>
<path d="M222.993 39.9914C222.989 47.5523 219.973 54.8022 214.608 60.1469C209.243 65.4917 201.968 68.4937 194.383 68.4929" stroke="white" stroke-width="1.61667" stroke-miterlimit="10"/>
<path d="M219.588 39.9903C219.586 46.6522 216.93 53.0404 212.203 57.7502C207.477 62.4599 201.067 65.1055 194.384 65.105" stroke="white" stroke-width="1.61667" stroke-miterlimit="10"/>
<path d="M216.474 39.9893C216.474 42.8803 215.903 45.7429 214.792 48.4135C213.682 51.0842 212.055 53.5107 210.003 55.5542C207.952 57.5978 205.517 59.2184 202.837 60.3235C200.157 61.4286 197.285 61.9965 194.385 61.9948" stroke="white" stroke-width="1.61667" stroke-miterlimit="10"/>
<path d="M213.503 39.9884C213.501 45.0408 211.486 49.8857 207.901 53.4572C204.316 57.0287 199.455 59.0342 194.386 59.0326" stroke="white" stroke-width="1.61667" stroke-miterlimit="10"/>
<path d="M210.284 39.9874C210.284 42.0679 209.873 44.1281 209.074 46.0502C208.275 47.9722 207.104 49.7185 205.627 51.1892C204.151 52.6599 202.398 53.8262 200.47 54.6214C198.541 55.4166 196.474 55.8251 194.387 55.8237" stroke="white" stroke-width="1.61667" stroke-miterlimit="10"/>
<path d="M207.102 39.9864C207.101 43.3465 205.76 46.5686 203.376 48.9438C200.992 51.319 197.759 52.6528 194.388 52.6517" stroke="white" stroke-width="1.61667" stroke-miterlimit="10"/>
<path d="M203.92 39.9854C203.919 42.5043 202.914 44.9196 201.127 46.7002C199.34 48.4807 196.916 49.4806 194.389 49.4798" stroke="white" stroke-width="1.61667" stroke-miterlimit="10"/>
<path d="M200.911 39.9845C200.911 40.838 200.743 41.6834 200.415 42.472C200.088 43.2607 199.608 43.9772 199.002 44.5806C198.396 45.184 197.677 45.6624 196.886 45.9884C196.094 46.3144 195.246 46.4817 194.39 46.4806" stroke="white" stroke-width="1.61667" stroke-miterlimit="10"/>
<path d="M197.952 39.9835C197.952 40.4497 197.861 40.9115 197.682 41.3423C197.503 41.7731 197.241 42.1646 196.91 42.4941C196.579 42.8237 196.186 43.0849 195.754 43.2628C195.322 43.4407 194.859 43.5318 194.391 43.5308" stroke="white" stroke-width="1.61667" stroke-miterlimit="10"/>
<path d="M310.988 36.0026C301.701 35.9997 292.796 32.3196 286.232 25.7718C279.667 19.224 275.981 10.3449 275.984 1.08789" stroke="white" stroke-width="1.61667" stroke-miterlimit="10"/>
<path d="M310.983 39.5369C305.919 39.5361 300.904 38.5408 296.226 36.6078C291.548 34.6749 287.297 31.8421 283.717 28.2714C280.137 24.7006 277.298 20.4618 275.362 15.7971C273.426 11.1324 272.431 6.13318 272.433 1.08496" stroke="white" stroke-width="1.77924" stroke-miterlimit="10"/>
<path d="M310.987 32.6517C306.831 32.6503 302.715 31.8329 298.875 30.246C295.035 28.6591 291.546 26.3339 288.608 23.403C285.67 20.4721 283.339 16.993 281.75 13.1644C280.16 9.33571 279.343 5.23245 279.344 1.08887" stroke="white" stroke-width="1.61667" stroke-miterlimit="10"/>
<path d="M310.987 29.6103C307.23 29.6099 303.51 28.872 300.039 27.4385C296.569 26.0051 293.415 23.9042 290.759 21.256C288.103 18.6077 285.996 15.4638 284.559 12.0039C283.121 8.54395 282.382 4.83568 282.382 1.09082" stroke="white" stroke-width="1.61667" stroke-miterlimit="10"/>
<path d="M310.987 26.2171C304.304 26.215 297.896 23.5668 293.172 18.8551C288.449 14.1433 285.796 7.75406 285.798 1.09277" stroke="white" stroke-width="1.61667" stroke-miterlimit="10"/>
<path d="M310.988 23.112C308.088 23.1119 305.216 22.5422 302.537 21.4354C299.858 20.3287 297.424 18.7065 295.374 16.6617C293.323 14.6168 291.698 12.1894 290.589 9.51801C289.48 6.84664 288.911 3.9837 288.912 1.09277" stroke="white" stroke-width="1.61667" stroke-miterlimit="10"/>
<path d="M310.992 20.149C305.923 20.1474 301.063 18.1388 297.48 14.5651C293.897 10.9913 291.885 6.1452 291.887 1.09277" stroke="white" stroke-width="1.61667" stroke-miterlimit="10"/>
<path d="M310.992 16.9429C306.778 16.9416 302.736 15.2713 299.757 12.2996C296.777 9.32784 295.104 5.29804 295.106 1.09668" stroke="white" stroke-width="1.61667" stroke-miterlimit="10"/>
<path d="M310.994 13.77C307.623 13.7689 304.391 12.4331 302.008 10.0564C299.625 7.67969 298.287 4.45678 298.288 1.09668" stroke="white" stroke-width="1.61667" stroke-miterlimit="10"/>
<path d="M310.993 10.598C308.466 10.5972 306.043 9.59582 304.257 7.81416C302.47 6.03251 301.467 3.61651 301.468 1.09766" stroke="white" stroke-width="1.61667" stroke-miterlimit="10"/>
<path d="M310.996 7.59886C310.139 7.5994 309.291 7.43161 308.5 7.10508C307.709 6.77856 306.99 6.29971 306.385 5.69595C305.78 5.09218 305.3 4.37536 304.973 3.58649C304.646 2.79763 304.478 1.95221 304.479 1.09863" stroke="white" stroke-width="1.61667" stroke-miterlimit="10"/>
<path d="M310.996 4.64814C310.529 4.6488 310.065 4.55743 309.633 4.37926C309.201 4.20109 308.808 3.93963 308.478 3.60986C308.147 3.2801 307.885 2.88852 307.707 2.45759C307.528 2.02665 307.437 1.56484 307.438 1.09863" stroke="white" stroke-width="1.61667" stroke-miterlimit="10"/>
<path d="M237.414 40.1203C237.415 35.5372 238.321 30.9992 240.082 26.7654C241.842 22.5316 244.422 18.685 247.674 15.4453C250.926 12.2057 254.786 9.63636 259.035 7.88421C263.283 6.13206 267.836 5.23138 272.434 5.23364" stroke="white" stroke-width="1.61667" stroke-miterlimit="10"/>
<path d="M233.858 40.1189C233.861 35.0717 234.86 30.0744 236.8 25.4123C238.74 20.7503 241.582 16.5147 245.164 12.9475C248.746 9.38034 252.998 6.55135 257.677 4.6221C262.355 2.69284 267.369 1.7011 272.433 1.7035" stroke="white" stroke-width="1.77924" stroke-miterlimit="10"/>
<path d="M240.77 40.1232C240.772 31.7548 244.11 23.7303 250.048 17.8148C255.986 11.8994 264.038 8.57761 272.433 8.58024" stroke="white" stroke-width="1.61667" stroke-miterlimit="10"/>
<path d="M243.822 40.1218C243.826 32.5609 246.843 25.311 252.208 19.9663C257.573 14.6216 264.848 11.6196 272.433 11.6203" stroke="white" stroke-width="1.61667" stroke-miterlimit="10"/>
<path d="M247.226 40.1252C247.23 33.4644 249.887 27.0777 254.613 22.3693C259.339 17.6609 265.748 15.0162 272.43 15.0167" stroke="white" stroke-width="1.61667" stroke-miterlimit="10"/>
<path d="M250.34 40.1256C250.34 37.2347 250.912 34.3721 252.022 31.7014C253.132 29.0308 254.76 26.6043 256.811 24.5608C258.862 22.5172 261.298 20.8966 263.977 19.7915C266.657 18.6864 269.529 18.1185 272.429 18.1202" stroke="white" stroke-width="1.61667" stroke-miterlimit="10"/>
<path d="M253.314 40.127C253.314 37.6259 253.808 35.1493 254.769 32.8387C255.729 30.5281 257.137 28.4288 258.912 26.6608C260.686 24.8928 262.793 23.4907 265.112 22.5347C267.43 21.5787 269.915 21.0874 272.424 21.089" stroke="white" stroke-width="1.61667" stroke-miterlimit="10"/>
<path d="M256.531 40.1303C256.532 35.9289 258.207 31.9002 261.189 28.9303C264.17 25.9604 268.212 24.2927 272.427 24.294" stroke="white" stroke-width="1.61667" stroke-miterlimit="10"/>
<path d="M259.714 40.1292C259.717 36.7696 261.057 33.5485 263.441 31.1737C265.825 28.7988 269.057 27.4645 272.428 27.4639" stroke="white" stroke-width="1.61667" stroke-miterlimit="10"/>
<path d="M262.896 40.1311C262.897 37.6123 263.901 35.1969 265.688 33.4164C267.476 31.6358 269.899 30.636 272.426 30.6368" stroke="white" stroke-width="1.61667" stroke-miterlimit="10"/>
<path d="M265.904 40.132C265.903 39.2784 266.071 38.4331 266.399 37.6444C266.727 36.8558 267.207 36.1392 267.813 35.5359C268.418 34.9325 269.137 34.4541 269.929 34.128C270.72 33.802 271.568 33.6348 272.425 33.6358" stroke="white" stroke-width="1.61667" stroke-miterlimit="10"/>
<path d="M268.861 40.1314C268.86 39.6652 268.952 39.2034 269.13 38.7726C269.309 38.3418 269.571 37.9504 269.902 37.6208C270.233 37.2913 270.626 37.0301 271.058 36.8522C271.49 36.6743 271.954 36.5832 272.421 36.5841" stroke="white" stroke-width="1.61667" stroke-miterlimit="10"/>
<path d="M233.257 43.6553C237.855 43.6567 242.408 44.561 246.655 46.3165C250.902 48.072 254.761 50.6443 258.011 53.8865C261.261 57.1287 263.838 60.9773 265.596 65.2126C267.354 69.4478 268.257 73.9867 268.255 78.57" stroke="white" stroke-width="1.61667" stroke-miterlimit="10"/>
<path d="M233.26 40.1211C238.326 40.1186 243.344 41.1115 248.025 43.0431C252.706 44.9746 256.959 47.8068 260.542 51.3779C264.124 54.949 266.966 59.1888 268.904 63.8551C270.841 68.5215 271.837 73.5227 271.835 78.573" stroke="white" stroke-width="1.77924" stroke-miterlimit="10"/>
<path d="M233.257 47.0078C241.652 47.0104 249.702 50.3373 255.637 56.2564C261.571 62.1756 264.903 70.2023 264.901 78.5706" stroke="white" stroke-width="1.61667" stroke-miterlimit="10"/>
<path d="M233.257 50.0508C240.842 50.0548 248.115 53.0614 253.477 58.4095C258.839 63.7575 261.85 71.0093 261.849 78.5702" stroke="white" stroke-width="1.61667" stroke-miterlimit="10"/>
<path d="M233.254 53.4443C239.937 53.4464 246.345 56.0946 251.068 60.8063C255.792 65.5181 258.445 71.9074 258.443 78.5686" stroke="white" stroke-width="1.61667" stroke-miterlimit="10"/>
<path d="M233.254 56.5498C236.154 56.5499 239.026 57.1196 241.705 58.2264C244.384 59.3332 246.819 60.9553 248.869 63.0002C250.919 65.045 252.545 67.4724 253.653 70.1438C254.762 72.8152 255.331 75.6781 255.33 78.569" stroke="white" stroke-width="1.61667" stroke-miterlimit="10"/>
<path d="M233.251 59.5107C235.761 59.5115 238.245 60.0051 240.563 60.9633C242.881 61.9214 244.987 63.3254 246.761 65.095C248.534 66.8646 249.941 68.9652 250.9 71.2768C251.859 73.5883 252.352 76.0655 252.35 78.567" stroke="white" stroke-width="1.61667" stroke-miterlimit="10"/>
<path d="M233.251 62.7197C237.466 62.721 241.508 64.3913 244.487 67.363C247.466 70.3348 249.139 74.3646 249.138 78.5659" stroke="white" stroke-width="1.61667" stroke-miterlimit="10"/>
<path d="M233.251 65.8701C236.622 65.8712 239.854 67.207 242.237 69.5837C244.62 71.9604 245.958 75.1833 245.957 78.5434" stroke="white" stroke-width="1.61667" stroke-miterlimit="10"/>
<path d="M233.251 69.0615C235.778 69.064 238.2 70.0658 239.986 71.8471C241.772 73.6284 242.775 76.0435 242.776 78.5618" stroke="white" stroke-width="1.61667" stroke-miterlimit="10"/>
<path d="M233.251 72.0439C234.108 72.0434 234.956 72.2112 235.747 72.5377C236.538 72.8642 237.257 73.3431 237.862 73.9469C238.467 74.5506 238.947 75.2674 239.274 76.0563C239.601 76.8452 239.769 77.6906 239.768 78.5442" stroke="white" stroke-width="1.61667" stroke-miterlimit="10"/>
<path d="M233.249 75.0127C234.193 75.013 235.099 75.3871 235.766 76.0528C236.433 76.7184 236.808 77.6211 236.808 78.5622" stroke="white" stroke-width="1.61667" stroke-miterlimit="10"/>
<path d="M306.83 39.5266C306.829 48.7788 303.142 57.6518 296.579 64.195C290.017 70.7381 281.117 74.4158 271.835 74.4194" stroke="white" stroke-width="1.61667" stroke-miterlimit="10"/>
<path d="M310.377 39.5277C310.376 49.7177 306.315 59.4901 299.087 66.6961C291.859 73.9022 282.056 77.9521 271.834 77.9554" stroke="white" stroke-width="1.77924" stroke-miterlimit="10"/>
<path d="M303.475 39.5255C303.472 47.8896 300.138 55.9104 294.205 61.8252C288.273 67.7399 280.227 71.0646 271.836 71.0685" stroke="white" stroke-width="1.61667" stroke-miterlimit="10"/>
<path d="M300.424 39.5265C300.42 47.0875 297.404 54.3374 292.039 59.6821C286.674 65.0268 279.399 68.0288 271.814 68.0281" stroke="white" stroke-width="1.61667" stroke-miterlimit="10"/>
<path d="M297.018 39.5235C297.019 46.1832 294.367 52.5709 289.646 57.2826C284.924 61.9943 278.519 64.6445 271.838 64.6505" stroke="white" stroke-width="1.61667" stroke-miterlimit="10"/>
<path d="M293.904 39.5225C293.904 45.3568 291.579 50.9522 287.442 55.0787C283.304 59.2051 277.692 61.5249 271.839 61.528" stroke="white" stroke-width="1.61667" stroke-miterlimit="10"/>
<path d="M290.926 39.5216C290.926 44.5692 288.916 49.4103 285.337 52.9813C281.758 56.5522 276.904 58.5609 271.84 58.5658" stroke="white" stroke-width="1.61667" stroke-miterlimit="10"/>
<path d="M287.713 39.5206C287.713 43.7182 286.042 47.7441 283.065 50.7137C280.089 53.6832 276.052 55.3533 271.841 55.3568" stroke="white" stroke-width="1.61667" stroke-miterlimit="10"/>
<path d="M284.531 39.5196C284.53 42.8754 283.193 46.0938 280.814 48.4683C278.435 50.8428 275.209 52.1794 271.842 52.1849" stroke="white" stroke-width="1.61667" stroke-miterlimit="10"/>
<path d="M281.343 39.5186C281.342 42.0321 280.342 44.4428 278.561 46.2225C276.78 48.0021 274.365 49.0056 271.843 49.013" stroke="white" stroke-width="1.61667" stroke-miterlimit="10"/>
<path d="M278.34 39.5177C278.341 41.2379 277.658 42.8884 276.44 44.1072C275.223 45.3261 273.57 46.014 271.844 46.02" stroke="white" stroke-width="1.61667" stroke-miterlimit="10"/>
<path d="M275.375 39.5167C275.373 40.4509 275.001 41.3464 274.34 42.0085C273.679 42.6705 272.782 43.0454 271.845 43.0517" stroke="white" stroke-width="1.61667" stroke-miterlimit="10"/>
<path d="M232.931 113.152C223.645 113.149 214.74 109.469 208.175 102.921C201.61 96.3734 197.924 87.4944 197.927 78.2373" stroke="white" stroke-width="1.61667" stroke-miterlimit="10"/>
<path d="M232.931 116.686C227.867 116.686 222.853 115.69 218.174 113.757C213.496 111.824 209.245 108.992 205.665 105.421C202.086 101.85 199.246 97.6112 197.31 92.9465C195.374 88.2818 194.379 83.2826 194.381 78.2344" stroke="white" stroke-width="1.77924" stroke-miterlimit="10"/>
<path d="M232.934 109.801C224.539 109.798 216.489 106.472 210.554 100.552C204.62 94.6333 201.288 86.6066 201.29 78.2383" stroke="white" stroke-width="1.61667" stroke-miterlimit="10"/>
<path d="M232.936 106.758C225.351 106.754 218.078 103.747 212.717 98.3991C207.355 93.051 204.343 85.7992 204.344 78.2383" stroke="white" stroke-width="1.61667" stroke-miterlimit="10"/>
<path d="M232.933 103.365C226.25 103.362 219.843 100.714 215.119 96.0025C210.395 91.2908 207.742 84.9015 207.745 78.2402" stroke="white" stroke-width="1.61667" stroke-miterlimit="10"/>
<path d="M232.936 100.26C230.036 100.259 227.164 99.6897 224.485 98.5829C221.806 97.4761 219.372 95.854 217.322 93.8092C215.272 91.7643 213.646 89.3369 212.537 86.6655C211.429 83.9941 210.859 81.1312 210.861 78.2402" stroke="white" stroke-width="1.61667" stroke-miterlimit="10"/>
<path d="M232.937 97.2964C227.869 97.2949 223.008 95.2863 219.426 91.7125C215.843 88.1388 213.831 83.2927 213.832 78.2402" stroke="white" stroke-width="1.61667" stroke-miterlimit="10"/>
<path d="M232.939 94.0884C230.852 94.0885 228.785 93.6787 226.857 92.8823C224.929 92.0859 223.177 90.9185 221.701 89.4469C220.226 87.9753 219.056 86.2283 218.258 84.3057C217.461 82.3831 217.051 80.3227 217.052 78.2422" stroke="white" stroke-width="1.61667" stroke-miterlimit="10"/>
<path d="M232.939 90.9154C229.569 90.9144 226.336 89.5786 223.954 87.2019C221.571 84.8252 220.233 81.6023 220.234 78.2422" stroke="white" stroke-width="1.61667" stroke-miterlimit="10"/>
<path d="M232.941 87.7435C230.414 87.7427 227.991 86.7413 226.205 84.9596C224.419 83.178 223.416 80.762 223.416 78.2432" stroke="white" stroke-width="1.61667" stroke-miterlimit="10"/>
<path d="M232.943 84.7453C232.087 84.7459 231.239 84.5781 230.448 84.2516C229.656 83.925 228.938 83.4462 228.332 82.8424C227.727 82.2387 227.247 81.5218 226.92 80.733C226.593 79.9441 226.425 79.0987 226.426 78.2451" stroke="white" stroke-width="1.61667" stroke-miterlimit="10"/>
<path d="M232.943 81.7946C232.475 81.7953 232.012 81.7039 231.58 81.5258C231.147 81.3476 230.755 81.0861 230.424 80.7564C230.094 80.4266 229.832 80.035 229.653 79.6041C229.475 79.1731 229.383 78.7113 229.384 78.2451" stroke="white" stroke-width="1.61667" stroke-miterlimit="10"/>
<path d="M159.354 117.269C159.357 108.012 163.048 99.1352 169.617 92.5915C176.186 86.0479 185.093 82.3733 194.379 82.3762" stroke="white" stroke-width="1.61667" stroke-miterlimit="10"/>
<path d="M155.808 117.268C155.806 112.218 156.803 107.218 158.741 102.552C160.679 97.8863 163.52 93.6471 167.102 90.0766C170.685 86.5061 174.938 83.6744 179.619 81.7432C184.299 79.812 189.316 78.8193 194.382 78.8217" stroke="white" stroke-width="1.77924" stroke-miterlimit="10"/>
<path d="M162.712 117.269C162.715 108.9 166.052 100.876 171.99 94.9603C177.928 89.0449 185.98 85.7231 194.375 85.7257" stroke="white" stroke-width="1.61667" stroke-miterlimit="10"/>
<path d="M165.765 117.27C165.769 109.709 168.785 102.459 174.15 97.1147C179.515 91.77 186.79 88.768 194.375 88.7687" stroke="white" stroke-width="1.61667" stroke-miterlimit="10"/>
<path d="M169.173 117.27C169.175 110.608 171.832 104.221 176.559 99.5121C181.285 94.8033 187.695 92.1591 194.377 92.1612" stroke="white" stroke-width="1.61667" stroke-miterlimit="10"/>
<path d="M172.286 117.272C172.287 114.381 172.858 111.519 173.968 108.848C175.079 106.177 176.706 103.751 178.757 101.707C180.809 99.6637 183.244 98.0431 185.924 96.938C188.604 95.8329 191.476 95.265 194.376 95.2667" stroke="white" stroke-width="1.61667" stroke-miterlimit="10"/>
<path d="M175.245 117.271C175.247 112.218 177.262 107.374 180.847 103.802C184.432 100.231 189.294 98.2251 194.362 98.2267" stroke="white" stroke-width="1.61667" stroke-miterlimit="10"/>
<path d="M178.476 117.273C178.477 113.072 180.153 109.043 183.134 106.073C186.115 103.103 190.158 101.435 194.372 101.437" stroke="white" stroke-width="1.61667" stroke-miterlimit="10"/>
<path d="M181.662 117.274C181.663 113.914 183.004 110.692 185.388 108.316C187.772 105.941 191.005 104.607 194.376 104.608" stroke="white" stroke-width="1.61667" stroke-miterlimit="10"/>
<path d="M184.841 117.276C184.842 114.757 185.846 112.341 187.634 110.561C189.421 108.78 191.845 107.781 194.372 107.781" stroke="white" stroke-width="1.61667" stroke-miterlimit="10"/>
<path d="M310.659 112.874C306.061 112.872 301.509 111.968 297.261 110.213C293.014 108.457 289.155 105.885 285.905 102.643C282.655 99.4003 280.078 95.5517 278.32 91.3164C276.563 87.0812 275.659 82.5423 275.661 77.959" stroke="white" stroke-width="1.61667" stroke-miterlimit="10"/>
<path d="M310.657 116.407C305.593 116.406 300.578 115.411 295.9 113.478C291.221 111.545 286.971 108.712 283.391 105.141C279.811 101.571 276.972 97.3319 275.036 92.6672C273.1 88.0025 272.104 83.0033 272.107 77.9551" stroke="white" stroke-width="1.77924" stroke-miterlimit="10"/>
<path d="M310.658 109.522C302.263 109.519 294.213 106.192 288.279 100.273C282.345 94.354 279.012 86.3273 279.015 77.959" stroke="white" stroke-width="1.61667" stroke-miterlimit="10"/>
<path d="M310.658 106.478C303.073 106.474 295.8 103.468 290.438 98.1198C285.077 92.7717 282.065 85.5199 282.066 77.959" stroke="white" stroke-width="1.61667" stroke-miterlimit="10"/>
<path d="M310.662 103.085C303.98 103.083 297.572 100.435 292.848 95.7232C288.125 91.0115 285.472 84.6222 285.474 77.9609" stroke="white" stroke-width="1.61667" stroke-miterlimit="10"/>
<path d="M310.663 99.9802C307.763 99.9801 304.891 99.4104 302.212 98.3036C299.533 97.1968 297.098 95.5747 295.048 93.5299C292.998 91.485 291.373 89.0576 290.264 86.3862C289.155 83.7148 288.586 80.8519 288.587 77.9609" stroke="white" stroke-width="1.61667" stroke-miterlimit="10"/>
<path d="M310.661 97.0191C308.151 97.0183 305.667 96.5247 303.349 95.5666C301.031 94.6084 298.925 93.2044 297.151 91.4348C295.378 89.6652 293.971 87.5646 293.012 85.2531C292.053 82.9415 291.56 80.4643 291.562 77.9629" stroke="white" stroke-width="1.61667" stroke-miterlimit="10"/>
<path d="M310.662 93.8101C306.448 93.8087 302.406 92.1385 299.427 89.1668C296.447 86.195 294.774 82.1652 294.776 77.9639" stroke="white" stroke-width="1.61667" stroke-miterlimit="10"/>
<path d="M310.665 90.6371C307.294 90.6361 304.062 89.3003 301.679 86.9236C299.296 84.5469 297.958 81.324 297.959 77.9639" stroke="white" stroke-width="1.61667" stroke-miterlimit="10"/>
<path d="M310.669 87.4964C308.143 87.494 305.721 86.4921 303.935 84.7108C302.149 82.9295 301.146 80.5144 301.145 77.9961" stroke="white" stroke-width="1.61667" stroke-miterlimit="10"/>
<path d="M310.67 84.467C309.813 84.4676 308.965 84.2998 308.174 83.9733C307.383 83.6467 306.664 83.1679 306.059 82.5641C305.453 81.9604 304.974 81.2435 304.646 80.4547C304.319 79.6658 304.152 78.8204 304.153 77.9668" stroke="white" stroke-width="1.61667" stroke-miterlimit="10"/>
<path d="M310.671 81.5173C309.727 81.517 308.822 81.1429 308.154 80.4772C307.487 79.8115 307.112 78.9089 307.113 77.9678" stroke="white" stroke-width="1.61667" stroke-miterlimit="10"/>
<path d="M237.089 116.991C237.09 112.407 237.996 107.869 239.756 103.635C241.517 99.4008 244.096 95.5538 247.348 92.3136C250.6 89.0734 254.461 86.5035 258.709 84.7507C262.958 82.9979 267.511 82.0965 272.109 82.0979" stroke="white" stroke-width="1.61667" stroke-miterlimit="10"/>
<path d="M233.536 116.987C233.537 111.939 234.535 106.941 236.474 102.278C238.413 97.6147 241.254 93.378 244.835 89.8095C248.417 86.2411 252.668 83.4109 257.347 81.4805C262.026 79.5501 267.04 78.5574 272.104 78.559" stroke="white" stroke-width="1.77924" stroke-miterlimit="10"/>
<path d="M240.445 116.99C240.447 108.622 243.785 100.597 249.723 94.682C255.661 88.7666 263.713 85.4448 272.108 85.4474" stroke="white" stroke-width="1.61667" stroke-miterlimit="10"/>
<path d="M243.497 116.992C243.501 109.431 246.517 102.181 251.883 96.8364C257.248 91.4917 264.522 88.4897 272.107 88.4904" stroke="white" stroke-width="1.61667" stroke-miterlimit="10"/>
<path d="M246.898 116.993C246.899 113.695 247.552 110.429 248.819 107.382C250.086 104.335 251.943 101.567 254.283 99.2357C256.624 96.9041 259.402 95.055 262.459 93.7937C265.517 92.5324 268.793 91.8838 272.102 91.8849" stroke="white" stroke-width="1.61667" stroke-miterlimit="10"/>
<path d="M250.012 116.994C250.012 114.103 250.584 111.24 251.694 108.57C252.804 105.899 254.432 103.472 256.483 101.429C258.534 99.3854 260.969 97.7648 263.649 96.6597C266.329 95.5546 269.201 94.9867 272.101 94.9884" stroke="white" stroke-width="1.61667" stroke-miterlimit="10"/>
<path d="M252.989 116.994C252.997 111.947 255.014 107.11 258.597 103.544C262.18 99.9777 267.036 97.9748 272.099 97.9747" stroke="white" stroke-width="1.61667" stroke-miterlimit="10"/>
<path d="M256.202 116.998C256.202 114.917 256.613 112.857 257.412 110.935C258.211 109.013 259.382 107.266 260.859 105.796C262.335 104.325 264.088 103.159 266.016 102.364C267.945 101.568 270.012 101.16 272.099 101.161" stroke="white" stroke-width="1.61667" stroke-miterlimit="10"/>
<path d="M259.386 116.996C259.387 113.636 260.727 110.414 263.111 108.039C265.496 105.664 268.729 104.33 272.1 104.331" stroke="white" stroke-width="1.61667" stroke-miterlimit="10"/>
<path d="M262.576 116.999C262.576 114.481 263.58 112.067 265.366 110.287C267.152 108.506 269.574 107.506 272.1 107.505" stroke="white" stroke-width="1.61667" stroke-miterlimit="10"/>
</g>
</g>
</svg>
