<svg width="641" height="641" viewBox="0 0 641 641" fill="none" xmlns="http://www.w3.org/2000/svg">
<g clip-path="url(#clip0_47_54)">
<path opacity="0.985" fill-rule="evenodd" clip-rule="evenodd" d="M6.14283 -0.0891113C7.27051 -0.0891113 8.39821 -0.0891113 9.52589 -0.0891113C7.02966 1.47185 4.5072 3.015 1.95853 4.54033C1.89918 20.5653 1.83982 36.5903 1.78047 52.6153C1.191 53.0432 0.567805 53.3993 -0.0891113 53.6837C-0.0891113 53.0307 -0.0891113 52.378 -0.0891113 51.7251C0.0208246 51.7053 0.109852 51.646 0.177972 51.547C0.20765 35.4623 0.296678 19.3779 0.445055 3.29394C2.41439 2.25129 4.31365 1.1236 6.14283 -0.0891113Z" fill="#141413" fill-opacity="0.76"/>
<path opacity="0.936" fill-rule="evenodd" clip-rule="evenodd" d="M13.4431 -0.0891113C14.5708 -0.0891113 15.6985 -0.0891113 16.8262 -0.0891113C18.7141 1.03391 20.6134 2.1616 22.5239 3.29394C22.6427 19.4377 22.7613 35.5813 22.8801 51.7251C39.6942 61.5366 56.55 71.2704 73.4478 80.9262C90.4115 71.1753 107.357 61.3822 124.283 51.547C124.312 35.4623 124.401 19.3779 124.55 3.29394C126.519 2.25129 128.418 1.1236 130.248 -0.0891113C131.375 -0.0891113 132.503 -0.0891113 133.631 -0.0891113C131.134 1.47185 128.612 3.015 126.063 4.54033C126.004 20.5653 125.944 36.5903 125.885 52.6153C108.495 62.7052 91.1051 72.7949 73.7149 82.8848C73.583 82.6816 73.4345 82.6816 73.2698 82.8848C55.8355 72.8175 38.4158 62.7276 21.0105 52.6153C20.9512 36.531 20.8917 20.4466 20.8324 4.36228C18.3136 2.94104 15.8506 1.45724 13.4431 -0.0891113Z" fill="#141413" fill-opacity="0.76"/>
<path opacity="0.914" fill-rule="evenodd" clip-rule="evenodd" d="M41.7541 -0.0891113C42.3475 -0.0891113 42.9412 -0.0891113 43.5346 -0.0891113C43.4753 13.2062 43.5346 26.501 43.7127 39.7953C53.6245 45.4931 63.5361 51.1909 73.448 56.8887C83.4191 51.1316 93.3902 45.3743 103.361 39.6173C103.539 26.3824 103.599 13.1469 103.539 -0.0891113C104.133 -0.0891113 104.726 -0.0891113 105.32 -0.0891113C105.35 13.4432 105.32 26.9755 105.231 40.5076C94.7256 46.6207 84.2203 52.7341 73.715 58.8473C62.9884 52.9793 52.3646 46.9254 41.8431 40.6856C41.7541 27.0941 41.7243 13.5026 41.7541 -0.0891113Z" fill="#141413" fill-opacity="0.76"/>
<path opacity="0.976" fill-rule="evenodd" clip-rule="evenodd" d="M62.5864 -0.0891113C63.1206 -0.0891113 63.6548 -0.0891113 64.1889 -0.0891113C64.1296 9.17054 64.1889 18.4294 64.367 27.6876C67.4383 29.4457 70.4948 31.2262 73.5369 33.0292C76.5941 31.2036 79.6803 29.4231 82.7957 27.6876C82.8848 18.4288 82.9145 9.16997 82.8848 -0.0891113C83.4189 -0.0891113 83.9531 -0.0891113 84.4873 -0.0891113C84.517 9.52607 84.4873 19.1411 84.3982 28.7559C80.8079 30.7882 77.2468 32.8656 73.7149 34.9878C70.027 32.9806 66.3769 30.9032 62.7645 28.7559C62.5864 19.1416 62.5271 9.52662 62.5864 -0.0891113Z" fill="#141413" fill-opacity="0.76"/>
<path opacity="0.936" fill-rule="evenodd" clip-rule="evenodd" d="M137.548 -0.0891113C138.675 -0.0891113 139.803 -0.0891113 140.931 -0.0891113C142.819 1.03391 144.718 2.1616 146.629 3.29394C146.747 19.4377 146.866 35.5813 146.985 51.7251C163.799 61.5366 180.655 71.2704 197.553 80.9262C214.516 71.1753 231.461 61.3822 248.387 51.547C248.418 35.4623 248.507 19.3779 248.655 3.29394C250.624 2.25129 252.524 1.1236 254.352 -0.0891113C255.479 -0.0891113 256.608 -0.0891113 257.735 -0.0891113C255.239 1.47185 252.716 3.015 250.168 4.54033C250.109 20.5653 250.049 36.5903 249.99 52.6153C232.599 62.7052 215.21 72.7949 197.82 82.8848C197.688 82.6816 197.54 82.6816 197.375 82.8848C179.939 72.8175 162.52 62.7276 145.115 52.6153C145.056 36.531 144.996 20.4466 144.937 4.36228C142.418 2.94104 139.955 1.45724 137.548 -0.0891113Z" fill="#141413" fill-opacity="0.76"/>
<path opacity="0.914" fill-rule="evenodd" clip-rule="evenodd" d="M165.859 -0.0891113C166.452 -0.0891113 167.046 -0.0891113 167.639 -0.0891113C167.58 13.2062 167.639 26.501 167.817 39.7953C177.729 45.4931 187.64 51.1909 197.553 56.8887C207.524 51.1316 217.495 45.3743 227.466 39.6173C227.644 26.3824 227.703 13.1469 227.644 -0.0891113C228.237 -0.0891113 228.832 -0.0891113 229.425 -0.0891113C229.455 13.4432 229.425 26.9755 229.336 40.5076C218.83 46.6207 208.325 52.7341 197.82 58.8473C187.094 52.9793 176.469 46.9254 165.948 40.6856C165.859 27.0941 165.829 13.5026 165.859 -0.0891113Z" fill="#141413" fill-opacity="0.76"/>
<path opacity="0.976" fill-rule="evenodd" clip-rule="evenodd" d="M186.691 -0.0891113C187.225 -0.0891113 187.76 -0.0891113 188.294 -0.0891113C188.235 9.17054 188.294 18.4294 188.472 27.6876C191.543 29.4457 194.6 31.2262 197.642 33.0292C200.699 31.2036 203.785 29.4231 206.901 27.6876C206.99 18.4288 207.02 9.16997 206.99 -0.0891113C207.524 -0.0891113 208.058 -0.0891113 208.592 -0.0891113C208.622 9.52607 208.592 19.1411 208.503 28.7559C204.913 30.7882 201.352 32.8656 197.82 34.9878C194.132 32.9806 190.482 30.9032 186.869 28.7559C186.691 19.1416 186.632 9.52662 186.691 -0.0891113Z" fill="#141413" fill-opacity="0.76"/>
<path opacity="0.936" fill-rule="evenodd" clip-rule="evenodd" d="M261.653 -0.0891113C262.78 -0.0891113 263.909 -0.0891113 265.036 -0.0891113C266.923 1.03391 268.823 2.1616 270.733 3.29394C270.853 19.4377 270.97 35.5813 271.09 51.7251C287.903 61.5366 304.76 71.2704 321.657 80.9262C338.621 71.1753 355.566 61.3822 372.492 51.547C372.522 35.4623 372.611 19.3779 372.759 3.29394C374.729 2.25129 376.628 1.1236 378.457 -0.0891113C379.584 -0.0891113 380.713 -0.0891113 381.84 -0.0891113C379.344 1.47185 376.821 3.015 374.273 4.54033C374.214 20.5653 374.153 36.5903 374.095 52.6153C356.704 62.7052 339.315 72.7949 321.924 82.8848C321.793 82.6816 321.645 82.6816 321.479 82.8848C304.044 72.8175 286.625 62.7276 269.22 52.6153C269.161 36.531 269.101 20.4466 269.042 4.36228C266.522 2.94104 264.06 1.45724 261.653 -0.0891113Z" fill="#141413" fill-opacity="0.76"/>
<path opacity="0.914" fill-rule="evenodd" clip-rule="evenodd" d="M289.964 -0.0891113C290.556 -0.0891113 291.151 -0.0891113 291.744 -0.0891113C291.685 13.2062 291.744 26.501 291.922 39.7953C301.834 45.4931 311.745 51.1909 321.657 56.8887C331.629 51.1316 341.6 45.3743 351.571 39.6173C351.749 26.3824 351.808 13.1469 351.749 -0.0891113C352.342 -0.0891113 352.936 -0.0891113 353.529 -0.0891113C353.56 13.4432 353.529 26.9755 353.44 40.5076C342.935 46.6207 332.43 52.7341 321.924 58.8473C311.198 52.9793 300.574 46.9254 290.053 40.6856C289.964 27.0941 289.933 13.5026 289.964 -0.0891113Z" fill="#141413" fill-opacity="0.76"/>
<path opacity="0.976" fill-rule="evenodd" clip-rule="evenodd" d="M310.796 -0.0891113C311.33 -0.0891113 311.864 -0.0891113 312.398 -0.0891113C312.34 9.17054 312.398 18.4294 312.576 27.6876C315.648 29.4457 318.705 31.2262 321.746 33.0292C324.804 31.2036 327.889 29.4231 331.005 27.6876C331.094 18.4288 331.125 9.16997 331.094 -0.0891113C331.628 -0.0891113 332.163 -0.0891113 332.697 -0.0891113C332.727 9.52607 332.697 19.1411 332.608 28.7559C329.018 30.7882 325.457 32.8656 321.924 34.9878C318.237 32.9806 314.587 30.9032 310.974 28.7559C310.796 19.1416 310.737 9.52662 310.796 -0.0891113Z" fill="#141413" fill-opacity="0.76"/>
<path opacity="0.936" fill-rule="evenodd" clip-rule="evenodd" d="M385.757 -0.0891113C386.884 -0.0891113 388.013 -0.0891113 389.14 -0.0891113C391.028 1.03391 392.928 2.1616 394.838 3.29394C394.957 19.4377 395.075 35.5813 395.194 51.7251C412.008 61.5366 428.865 71.2704 445.762 80.9262C462.725 71.1753 479.671 61.3822 496.597 51.547C496.627 35.4623 496.716 19.3779 496.864 3.29394C498.833 2.25129 500.733 1.1236 502.562 -0.0891113C503.689 -0.0891113 504.818 -0.0891113 505.945 -0.0891113C503.448 1.47185 500.925 3.015 498.377 4.54033C498.319 20.5653 498.258 36.5903 498.199 52.6153C480.809 62.7052 463.42 72.7949 446.029 82.8848C445.897 82.6816 445.75 82.6816 445.584 82.8848C428.149 72.8175 410.73 62.7276 393.325 52.6153C393.266 36.531 393.205 20.4466 393.147 4.36228C390.627 2.94104 388.165 1.45724 385.757 -0.0891113Z" fill="#141413" fill-opacity="0.76"/>
<path opacity="0.914" fill-rule="evenodd" clip-rule="evenodd" d="M414.068 -0.0891113C414.661 -0.0891113 415.256 -0.0891113 415.849 -0.0891113C415.79 13.2062 415.849 26.501 416.027 39.7953C425.939 45.4931 435.85 51.1909 445.762 56.8887C455.733 51.1316 465.704 45.3743 475.675 39.6173C475.854 26.3824 475.912 13.1469 475.854 -0.0891113C476.446 -0.0891113 477.041 -0.0891113 477.634 -0.0891113C477.664 13.4432 477.634 26.9755 477.545 40.5076C467.04 46.6207 456.535 52.7341 446.029 58.8473C435.303 52.9793 424.679 46.9254 414.157 40.6856C414.068 27.0941 414.038 13.5026 414.068 -0.0891113Z" fill="#141413" fill-opacity="0.76"/>
<path opacity="0.976" fill-rule="evenodd" clip-rule="evenodd" d="M434.901 -0.0891113C435.435 -0.0891113 435.969 -0.0891113 436.503 -0.0891113C436.444 9.17054 436.503 18.4294 436.681 27.6876C439.753 29.4457 442.81 31.2262 445.851 33.0292C448.908 31.2036 451.994 29.4231 455.11 27.6876C455.199 18.4288 455.229 9.16997 455.199 -0.0891113C455.733 -0.0891113 456.267 -0.0891113 456.802 -0.0891113C456.832 9.52607 456.802 19.1411 456.712 28.7559C453.123 30.7882 449.562 32.8656 446.029 34.9878C442.342 32.9806 438.691 30.9032 435.079 28.7559C434.901 19.1416 434.842 9.52662 434.901 -0.0891113Z" fill="#141413" fill-opacity="0.76"/>
<path opacity="0.936" fill-rule="evenodd" clip-rule="evenodd" d="M509.862 -0.0891113C510.989 -0.0891113 512.118 -0.0891113 513.245 -0.0891113C515.133 1.03391 517.032 2.1616 518.943 3.29394C519.062 19.4377 519.18 35.5813 519.299 51.7251C536.113 61.5366 552.969 71.2704 569.867 80.9262C586.83 71.1753 603.776 61.3822 620.702 51.547C620.732 35.4623 620.821 19.3779 620.969 3.29394C622.938 2.25129 624.838 1.1236 626.667 -0.0891113C627.794 -0.0891113 628.922 -0.0891113 630.05 -0.0891113C627.553 1.47185 625.03 3.015 622.482 4.54033C622.423 20.5653 622.363 36.5903 622.304 52.6153C604.913 62.7052 587.525 72.7949 570.134 82.8848C570.002 82.6816 569.854 82.6816 569.689 82.8848C552.254 72.8175 534.834 62.7276 517.429 52.6153C517.371 36.531 517.31 20.4466 517.251 4.36228C514.732 2.94104 512.269 1.45724 509.862 -0.0891113Z" fill="#141413" fill-opacity="0.76"/>
<path opacity="0.914" fill-rule="evenodd" clip-rule="evenodd" d="M538.173 -0.0891113C538.766 -0.0891113 539.361 -0.0891113 539.954 -0.0891113C539.895 13.2062 539.954 26.501 540.132 39.7953C550.044 45.4931 559.955 51.1909 569.867 56.8887C579.838 51.1316 589.809 45.3743 599.78 39.6173C599.958 26.3824 600.017 13.1469 599.958 -0.0891113C600.551 -0.0891113 601.146 -0.0891113 601.739 -0.0891113C601.769 13.4432 601.739 26.9755 601.65 40.5076C591.145 46.6207 580.639 52.7341 570.134 58.8473C559.408 52.9793 548.783 46.9254 538.262 40.6856C538.173 27.0941 538.143 13.5026 538.173 -0.0891113Z" fill="#141413" fill-opacity="0.76"/>
<path opacity="0.976" fill-rule="evenodd" clip-rule="evenodd" d="M559.005 -0.0891113C559.54 -0.0891113 560.074 -0.0891113 560.608 -0.0891113C560.549 9.17054 560.608 18.4294 560.786 27.6876C563.857 29.4457 566.915 31.2262 569.956 33.0292C573.013 31.2036 576.099 29.4231 579.215 27.6876C579.304 18.4288 579.334 9.16997 579.304 -0.0891113C579.838 -0.0891113 580.372 -0.0891113 580.906 -0.0891113C580.937 9.52607 580.906 19.1411 580.817 28.7559C577.228 30.7882 573.666 32.8656 570.134 34.9878C566.446 32.9806 562.796 30.9032 559.183 28.7559C559.005 19.1416 558.947 9.52662 559.005 -0.0891113Z" fill="#141413" fill-opacity="0.76"/>
<path opacity="0.906" fill-rule="evenodd" clip-rule="evenodd" d="M633.967 -0.0891113C635.094 -0.0891113 636.223 -0.0891113 637.35 -0.0891113C638.53 0.620513 639.718 1.33274 640.911 2.04756C640.911 2.70043 640.911 3.35329 640.911 4.00617C638.502 2.77306 636.187 1.40797 633.967 -0.0891113Z" fill="#141413" fill-opacity="0.76"/>
<path opacity="0.957" fill-rule="evenodd" clip-rule="evenodd" d="M640.911 73.0918C640.911 73.7447 640.911 74.3974 640.911 75.0504C638.192 73.6313 635.521 72.1178 632.898 70.51C632.516 70.2268 632.101 70.1081 631.652 70.1538C614.751 79.8947 597.866 89.658 580.995 99.444C580.965 115.588 580.876 131.732 580.728 147.875C577.219 149.932 573.686 151.95 570.134 153.929C569.929 153.764 569.751 153.764 569.6 153.929C566.097 151.852 562.597 149.774 559.094 147.697C559.036 131.672 558.975 115.647 558.916 99.622C541.937 89.6785 524.904 79.826 507.814 70.0648C490.814 79.8116 473.84 89.6046 456.89 99.444C456.86 115.588 456.771 131.732 456.623 147.875C453.114 149.932 449.581 151.95 446.029 153.929C445.824 153.764 445.646 153.764 445.495 153.929C441.993 151.852 438.492 149.774 434.99 147.697C434.931 131.672 434.87 115.647 434.812 99.622C417.832 89.6785 400.799 79.826 383.71 70.0648C366.709 79.8116 349.735 89.6046 332.786 99.444C332.755 115.588 332.666 131.732 332.519 147.875C329.009 149.932 325.477 151.95 321.924 153.929C321.72 153.764 321.542 153.764 321.39 153.929C317.888 151.852 314.387 149.774 310.885 147.697C310.826 131.672 310.766 115.647 310.707 99.622C293.727 89.6785 276.695 79.826 259.605 70.0648C242.604 79.8116 225.63 89.6046 208.681 99.444C208.651 115.588 208.562 131.732 208.414 147.875C204.904 149.932 201.372 151.95 197.82 153.929C197.615 153.764 197.437 153.764 197.285 153.929C193.783 151.852 190.283 149.774 186.78 147.697C186.721 131.672 186.661 115.647 186.602 99.622C169.701 89.7319 152.756 79.9091 135.767 70.1538C135.589 70.0351 135.411 70.0351 135.233 70.1538C118.333 79.8947 101.447 89.658 84.5763 99.444C84.5466 115.588 84.4575 131.732 84.3092 147.875C80.7989 149.932 77.2675 151.95 73.7149 153.929C73.5102 153.764 73.3321 153.764 73.1807 153.929C69.6789 151.852 66.1773 149.774 62.6755 147.697C62.6162 131.672 62.5567 115.647 62.4974 99.622C45.5962 89.7319 28.6512 79.9091 11.6626 70.1538C11.2144 70.1081 10.799 70.2268 10.4162 70.51C6.96251 72.5927 3.46076 74.5808 -0.0891113 76.4748C-0.0891113 75.8219 -0.0891113 75.1691 -0.0891113 74.5162C3.4913 72.5177 7.05241 70.4701 10.5942 68.3733C10.9851 68.1288 11.4006 68.0695 11.8406 68.1952C29.2308 78.2554 46.6207 88.3155 64.0109 98.3756C64.1592 114.46 64.2482 130.544 64.278 146.629C67.338 148.456 70.4243 150.236 73.5369 151.97C76.5763 150.228 79.6328 148.507 82.7067 146.807C82.855 130.663 82.9441 114.52 82.9738 98.3756C100.201 88.3524 117.443 78.3515 134.699 68.3733C135.09 68.1288 135.505 68.0695 135.945 68.1952C153.335 78.2554 170.725 88.3155 188.116 98.3756C188.263 114.46 188.352 130.544 188.383 146.629C191.443 148.456 194.529 150.236 197.642 151.97C200.681 150.228 203.738 148.507 206.811 146.807C206.959 130.663 207.048 114.52 207.079 98.3756C224.305 88.3524 241.547 78.3515 258.804 68.3733C259.195 68.1288 259.61 68.0695 260.05 68.1952C277.441 78.2554 294.83 88.3155 312.22 98.3756C312.368 114.46 312.457 130.544 312.487 146.629C315.548 148.456 318.634 150.236 321.746 151.97C324.786 150.228 327.843 148.507 330.916 146.807C331.064 130.663 331.153 114.52 331.183 98.3756C348.645 88.1912 366.153 78.1013 383.71 68.1062C401.28 78.1238 418.819 88.2137 436.325 98.3756C436.473 114.46 436.562 130.544 436.592 146.629C439.653 148.456 442.739 150.236 445.851 151.97C448.89 150.228 451.948 148.507 455.021 146.807C455.169 130.663 455.258 114.52 455.288 98.3756C472.75 88.1912 490.258 78.1013 507.814 68.1062C525.385 78.1238 542.923 88.2137 560.43 98.3756C560.578 114.46 560.667 130.544 560.697 146.629C563.758 148.456 566.843 150.236 569.956 151.97C572.995 150.228 576.052 148.507 579.126 146.807C579.273 130.663 579.362 114.52 579.393 98.3756C596.739 88.2931 614.099 78.2329 631.474 68.1952C631.914 68.0695 632.329 68.1288 632.72 68.3733C635.427 69.9932 638.156 71.566 640.911 73.0918Z" fill="#141413" fill-opacity="0.76"/>
<path opacity="0.919" fill-rule="evenodd" clip-rule="evenodd" d="M640.911 97.1294C640.911 97.8416 640.911 98.5538 640.911 99.266C637.948 97.5469 634.98 95.8256 632.008 94.1024C621.934 99.837 611.874 105.594 601.828 111.374C601.797 127.458 601.708 143.543 601.561 159.627C591.039 165.777 580.473 171.831 569.867 177.789C559.274 171.913 548.74 165.919 538.262 159.805C538.232 143.72 538.143 127.636 537.995 111.552C527.965 105.735 517.933 99.919 507.903 94.1024C497.829 99.837 487.769 105.594 477.723 111.374C477.693 127.458 477.604 143.543 477.456 159.627C466.935 165.777 456.369 171.831 445.762 177.789C435.169 171.913 424.636 165.919 414.157 159.805C414.127 143.72 414.038 127.636 413.89 111.552C403.86 105.735 393.829 99.919 383.799 94.1024C373.724 99.837 363.664 105.594 353.618 111.374C353.588 127.458 353.499 143.543 353.351 159.627C342.83 165.777 332.264 171.831 321.657 177.789C311.065 171.913 300.531 165.919 290.052 159.805C290.022 143.72 289.933 127.636 289.785 111.552C279.755 105.735 269.724 99.919 259.694 94.1024C249.62 99.837 239.559 105.594 229.514 111.374C229.483 127.458 229.394 143.543 229.246 159.627C218.725 165.777 208.159 171.831 197.553 177.789C186.96 171.913 176.426 165.919 165.948 159.805C165.918 143.72 165.829 127.636 165.681 111.552C155.65 105.735 145.62 99.919 135.589 94.1024C125.515 99.837 115.455 105.594 105.409 111.374C105.379 127.458 105.29 143.543 105.142 159.627C94.6199 165.777 84.0551 171.831 73.4478 177.789C62.8558 171.913 52.3208 165.919 41.843 159.805C41.8132 143.72 41.7242 127.636 41.5759 111.552C31.5455 105.735 21.5149 99.919 11.4845 94.1024C7.59281 96.2555 3.73493 98.4516 -0.0891113 100.69C-0.0891113 99.9782 -0.0891113 99.266 -0.0891113 98.5538C3.76625 96.4212 7.62411 94.2846 11.4845 92.1438C22.1376 98.2121 32.7616 104.325 43.3564 110.484C43.5048 126.567 43.5938 142.652 43.6235 158.737C53.5003 164.548 63.4416 170.246 73.4478 175.83C83.4855 170.143 93.4864 164.386 103.45 158.559C103.48 142.474 103.569 126.389 103.717 110.305C114.318 104.204 124.942 98.1501 135.589 92.1438C146.242 98.2121 156.866 104.325 167.461 110.484C167.609 126.567 167.699 142.652 167.728 158.737C177.605 164.548 187.546 170.246 197.553 175.83C207.59 170.143 217.591 164.386 227.555 158.559C227.585 142.474 227.674 126.389 227.822 110.305C238.423 104.204 249.046 98.1501 259.694 92.1438C270.347 98.2121 280.972 104.325 291.566 110.484C291.714 126.567 291.803 142.652 291.833 158.737C301.71 164.548 311.651 170.246 321.657 175.83C331.694 170.143 341.696 164.386 351.66 158.559C351.69 142.474 351.779 126.389 351.927 110.305C362.528 104.204 373.151 98.1501 383.799 92.1438C394.452 98.2121 405.076 104.325 415.671 110.484C415.818 126.567 415.907 142.652 415.938 158.737C425.814 164.548 435.755 170.246 445.762 175.83C455.799 170.143 465.8 164.386 475.764 158.559C475.795 142.474 475.884 126.389 476.031 110.305C486.633 104.204 497.256 98.1501 507.903 92.1438C518.556 98.2121 529.181 104.325 539.775 110.484C539.923 126.567 540.012 142.652 540.042 158.737C549.919 164.548 559.86 170.246 569.867 175.83C579.904 170.143 589.905 164.386 599.869 158.559C599.899 142.474 599.988 126.389 600.136 110.305C610.738 104.204 621.36 98.1501 632.008 92.1438C634.985 93.8099 637.953 95.4718 640.911 97.1294Z" fill="#141413" fill-opacity="0.76"/>
<path opacity="0.94" fill-rule="evenodd" clip-rule="evenodd" d="M640.911 120.989C640.911 121.701 640.911 122.413 640.911 123.125C637.948 121.406 634.98 119.685 632.008 117.962C628.833 119.757 625.687 121.597 622.571 123.482C622.452 139.566 622.334 155.65 622.215 171.735C605.3 181.558 588.384 191.379 571.469 201.203C570.971 201.511 570.436 201.719 569.867 201.826C568.579 201.301 567.333 200.678 566.128 199.956C549.91 190.527 533.677 181.12 517.429 171.735C517.399 155.59 517.31 139.447 517.162 123.303C514.077 121.523 510.989 119.742 507.903 117.962C504.729 119.757 501.582 121.597 498.466 123.482C498.347 139.566 498.23 155.65 498.11 171.735C481.195 181.558 464.28 191.379 447.364 201.203C446.866 201.511 446.332 201.719 445.762 201.826C444.475 201.301 443.228 200.678 442.023 199.956C425.806 190.527 409.572 181.12 393.325 171.735C393.294 155.59 393.205 139.447 393.058 123.303C389.972 121.523 386.884 119.742 383.799 117.962C380.624 119.757 377.478 121.597 374.362 123.482C374.242 139.566 374.125 155.65 374.006 171.735C357.09 181.558 340.175 191.379 323.26 201.203C322.761 201.511 322.227 201.719 321.657 201.826C320.37 201.301 319.124 200.678 317.918 199.956C301.701 190.527 285.467 181.12 269.22 171.735C269.19 155.59 269.101 139.447 268.953 123.303C265.867 121.523 262.78 119.742 259.694 117.962C256.519 119.757 253.373 121.597 250.257 123.482C250.138 139.566 250.02 155.65 249.901 171.735C232.629 181.736 215.358 191.736 198.087 201.737C197.442 201.887 196.849 201.767 196.306 201.381C179.257 191.476 162.193 181.594 145.115 171.735C145.085 155.59 144.996 139.447 144.848 123.303C141.762 121.523 138.675 119.742 135.589 117.962C132.414 119.757 129.269 121.597 126.152 123.482C126.034 139.566 125.915 155.65 125.796 171.735C108.525 181.736 91.2534 191.736 73.982 201.737C73.3374 201.887 72.7438 201.767 72.2014 201.381C55.1523 191.476 38.0887 181.594 21.0105 171.735C20.9807 155.59 20.8917 139.447 20.7434 123.303C17.6571 121.523 14.5708 119.742 11.4845 117.962C8.30961 119.757 5.16397 121.597 2.04756 123.482C1.92885 139.566 1.81015 155.65 1.69144 171.735C1.09299 172.093 0.499471 172.449 -0.0891113 172.803C-0.0891113 172.091 -0.0891113 171.378 -0.0891113 170.666C0.236987 154.642 0.385368 138.558 0.356028 122.413C3.99073 120.374 7.5815 118.267 11.1284 116.092C11.3064 115.973 11.4845 115.973 11.6626 116.092C15.3563 118.132 19.0065 120.239 22.613 122.413C22.6723 138.498 22.7317 154.582 22.791 170.666C39.6329 180.527 56.5185 190.32 73.4478 200.045C90.3923 190.297 107.308 180.504 124.194 170.666C124.342 154.582 124.431 138.498 124.461 122.413C128.142 120.274 131.822 118.137 135.5 116.003C139.295 118.049 143.034 120.185 146.718 122.413C146.777 138.498 146.836 154.582 146.896 170.666C163.738 180.527 180.623 190.32 197.553 200.045C214.496 190.297 231.412 180.504 248.298 170.666C248.446 154.582 248.535 138.498 248.565 122.413C252.248 120.274 255.926 118.137 259.605 116.003C263.399 118.049 267.138 120.185 270.822 122.413C270.881 138.498 270.942 154.582 271 170.666C287.843 180.527 304.728 190.32 321.657 200.045C338.601 190.297 355.516 180.504 372.403 170.666C372.551 154.582 372.64 138.498 372.67 122.413C376.352 120.274 380.031 118.137 383.71 116.003C387.504 118.049 391.243 120.185 394.927 122.413C394.986 138.498 395.046 154.582 395.105 170.666C411.947 180.527 428.832 190.32 445.762 200.045C462.706 190.297 479.621 180.504 496.508 170.666C496.656 154.582 496.745 138.498 496.775 122.413C500.457 120.274 504.136 118.137 507.814 116.003C511.609 118.049 515.348 120.185 519.032 122.413C519.091 138.498 519.151 154.582 519.21 170.666C536.052 180.527 552.937 190.32 569.867 200.045C586.81 190.297 603.726 180.504 620.613 170.666C620.76 154.582 620.849 138.498 620.88 122.413C624.562 120.274 628.24 118.137 631.919 116.003C634.937 117.646 637.936 119.307 640.911 120.989Z" fill="#141413" fill-opacity="0.76"/>
<path opacity="0.957" fill-rule="evenodd" clip-rule="evenodd" d="M640.911 192.211C640.911 192.865 640.911 193.516 640.911 194.17C637.875 192.517 634.878 190.797 631.919 189.006C614.915 198.813 597.941 208.665 580.995 218.563C580.936 234.647 580.876 250.733 580.817 266.816C577.285 268.939 573.723 271.017 570.134 273.048C566.416 271.056 562.737 268.978 559.094 266.816C559.064 250.731 558.975 234.647 558.827 218.563C541.837 208.688 524.833 198.837 507.814 189.006C490.81 198.813 473.836 208.665 456.89 218.563C456.832 234.647 456.771 250.733 456.712 266.816C453.18 268.939 449.619 271.017 446.029 273.048C442.311 271.056 438.633 268.978 434.99 266.816C434.959 250.731 434.87 234.647 434.723 218.563C417.732 208.688 400.728 198.837 383.71 189.006C366.705 198.813 349.731 208.665 332.786 218.563C332.727 234.647 332.666 250.733 332.608 266.816C329.075 268.939 325.514 271.017 321.924 273.048C318.207 271.056 314.528 268.978 310.885 266.816C310.855 250.731 310.766 234.647 310.618 218.563C293.628 208.688 276.623 198.837 259.605 189.006C242.601 198.813 225.627 208.665 208.681 218.563C208.622 234.647 208.562 250.733 208.503 266.816C204.97 268.939 201.409 271.017 197.82 273.048C194.102 271.056 190.423 268.978 186.78 266.816C186.75 250.731 186.661 234.647 186.513 218.563C169.523 208.688 152.519 198.837 135.5 189.006C118.496 198.813 101.522 208.665 84.5763 218.563C84.517 234.647 84.4575 250.733 84.3982 266.816C80.8663 268.939 77.3052 271.017 73.7149 273.048C69.9978 271.056 66.318 268.978 62.6755 266.816C62.6457 250.731 62.5567 234.647 62.4084 218.563C45.4187 208.688 28.4144 198.837 11.3955 189.006C7.60595 191.271 3.77776 193.468 -0.0891113 195.594C-0.0891113 194.941 -0.0891113 194.289 -0.0891113 193.636C3.52645 191.531 7.14692 189.423 10.7723 187.315C11.1877 187.195 11.6032 187.195 12.0187 187.315C29.3937 197.352 46.7541 207.412 64.0999 217.495C64.1297 233.581 64.2187 249.664 64.367 265.748C67.4383 267.505 70.4948 269.286 73.5369 271.09C76.6231 269.309 79.7095 267.529 82.7957 265.748C82.8255 249.604 82.9145 233.459 83.0628 217.317C100.334 207.316 117.606 197.316 134.877 187.315C135.292 187.195 135.708 187.195 136.123 187.315C153.498 197.352 170.859 207.412 188.205 217.495C188.235 233.581 188.324 249.664 188.472 265.748C191.543 267.505 194.6 269.286 197.642 271.09C200.727 269.309 203.815 267.529 206.9 265.748C206.931 249.604 207.02 233.459 207.168 217.317C224.439 207.316 241.71 197.316 258.982 187.315C259.397 187.195 259.813 187.195 260.228 187.315C277.603 197.352 294.963 207.412 312.309 217.495C312.34 233.581 312.429 249.664 312.576 265.748C315.648 267.505 318.705 269.286 321.746 271.09C324.832 269.309 327.919 267.529 331.005 265.748C331.035 249.604 331.124 233.459 331.272 217.317C348.544 207.316 365.815 197.316 383.086 187.315C383.501 187.195 383.918 187.195 384.333 187.315C401.707 197.352 419.068 207.412 436.414 217.495C436.444 233.581 436.533 249.664 436.681 265.748C439.753 267.505 442.81 269.286 445.851 271.09C448.937 269.309 452.024 267.529 455.11 265.748C455.14 249.604 455.229 233.459 455.377 217.317C472.262 207.599 489.119 197.836 505.945 188.027C506.548 187.68 507.172 187.413 507.814 187.226C508.457 187.413 509.08 187.68 509.684 188.027C526.613 197.871 543.559 207.695 560.519 217.495C560.549 233.581 560.638 249.664 560.786 265.748C563.857 267.505 566.915 269.286 569.956 271.09C573.041 269.309 576.129 267.529 579.215 265.748C579.245 249.604 579.334 233.459 579.482 217.317C596.753 207.316 614.024 197.316 631.296 187.315C631.711 187.195 632.127 187.195 632.542 187.315C635.336 188.949 638.126 190.58 640.911 192.211Z" fill="#141413" fill-opacity="0.76"/>
<path opacity="0.919" fill-rule="evenodd" clip-rule="evenodd" d="M640.911 216.248C640.911 216.902 640.911 217.554 640.911 218.207C637.936 216.526 634.937 214.863 631.919 213.222C621.834 218.887 611.802 224.644 601.828 230.493C601.769 246.518 601.708 262.543 601.65 278.568C591.144 284.681 580.639 290.795 570.134 296.908C569.956 296.671 569.778 296.671 569.6 296.908C559.198 290.891 548.781 284.896 538.351 278.924C538.203 262.84 538.114 246.757 538.084 230.671C528.02 224.808 517.93 218.992 507.814 213.222C497.729 218.887 487.698 224.644 477.723 230.493C477.664 246.518 477.604 262.543 477.545 278.568C467.04 284.681 456.534 290.795 446.029 296.908C445.851 296.671 445.673 296.671 445.495 296.908C435.093 290.891 424.677 284.896 414.246 278.924C414.098 262.84 414.009 246.757 413.979 230.671C403.915 224.808 393.825 218.992 383.71 213.222C373.625 218.887 363.593 224.644 353.618 230.493C353.559 246.518 353.499 262.543 353.44 278.568C342.935 284.681 332.43 290.795 321.924 296.908C321.746 296.671 321.568 296.671 321.39 296.908C310.988 290.891 300.572 284.896 290.141 278.924C289.994 262.84 289.905 246.757 289.874 230.671C279.811 224.808 269.72 218.992 259.605 213.222C249.52 218.887 239.488 224.644 229.514 230.493C229.455 246.518 229.394 262.543 229.335 278.568C218.83 284.681 208.325 290.795 197.82 296.908C197.642 296.671 197.464 296.671 197.285 296.908C186.883 290.891 176.468 284.896 166.037 278.924C165.888 262.84 165.799 246.757 165.77 230.671C155.783 224.861 145.783 219.074 135.767 213.311C135.319 213.264 134.904 213.384 134.521 213.667C124.773 219.208 115.069 224.817 105.409 230.493C105.35 246.518 105.29 262.543 105.231 278.568C94.7255 284.681 84.2202 290.795 73.7149 296.908C73.5369 296.671 73.3588 296.671 73.1807 296.908C62.7791 290.891 52.3629 284.896 41.932 278.924C41.7837 262.84 41.6947 246.757 41.6649 230.671C31.6014 224.808 21.5115 218.992 11.3955 213.222C7.54605 215.339 3.71786 217.475 -0.0891113 219.632C-0.0891113 218.978 -0.0891113 218.326 -0.0891113 217.673C3.49618 215.672 7.05729 213.624 10.5942 211.53C10.9851 211.286 11.4006 211.226 11.8406 211.352C22.3459 217.436 32.8512 223.519 43.3564 229.603C43.5048 245.686 43.5938 261.77 43.6235 277.856C53.5505 283.577 63.4919 289.274 73.4478 294.949C83.4189 289.193 93.3901 283.434 103.361 277.678C103.509 261.594 103.599 245.51 103.628 229.425C113.985 223.46 124.342 217.495 134.699 211.53C135.09 211.286 135.505 211.226 135.945 211.352C146.451 217.436 156.956 223.519 167.461 229.603C167.609 245.686 167.699 261.77 167.728 277.856C177.655 283.577 187.597 289.274 197.553 294.949C207.524 289.193 217.495 283.434 227.466 277.678C227.614 261.594 227.703 245.51 227.733 229.425C238.09 223.46 248.446 217.495 258.804 211.53C259.195 211.286 259.61 211.226 260.05 211.352C270.555 217.436 281.061 223.519 291.566 229.603C291.714 245.686 291.803 261.77 291.833 277.856C301.76 283.577 311.702 289.274 321.657 294.949C331.628 289.193 341.599 283.434 351.571 277.678C351.718 261.594 351.807 245.51 351.838 229.425C362.414 223.276 373.039 217.222 383.71 211.263C394.425 217.258 405.08 223.372 415.671 229.603C415.818 245.686 415.907 261.77 415.938 277.856C425.864 283.577 435.807 289.274 445.762 294.949C455.733 289.193 465.704 283.434 475.675 277.678C475.823 261.594 475.912 245.51 475.942 229.425C486.519 223.276 497.143 217.222 507.814 211.263C518.53 217.258 529.185 223.372 539.775 229.603C539.923 245.686 540.012 261.77 540.042 277.856C549.969 283.577 559.912 289.274 569.867 294.949C579.838 289.193 589.809 283.434 599.78 277.678C599.928 261.594 600.017 245.51 600.047 229.425C610.508 223.378 620.985 217.354 631.474 211.352C632.058 211.22 632.592 211.338 633.076 211.708C635.664 213.268 638.276 214.781 640.911 216.248Z" fill="#141413" fill-opacity="0.76"/>
<path opacity="0.939" fill-rule="evenodd" clip-rule="evenodd" d="M640.911 240.108C640.911 240.761 640.911 241.413 640.911 242.067C637.953 240.409 634.985 238.748 632.008 237.081C628.81 238.885 625.634 240.726 622.482 242.601C622.423 258.626 622.363 274.651 622.304 290.676C604.912 300.93 587.432 311.019 569.867 320.945C552.375 311.011 534.925 300.982 517.518 290.854C517.371 274.711 517.282 258.567 517.251 242.423C514.178 240.574 511.062 238.794 507.903 237.081C504.706 238.885 501.529 240.726 498.377 242.601C498.319 258.626 498.258 274.651 498.199 290.676C480.807 300.93 463.327 311.019 445.762 320.945C428.27 311.011 410.82 300.982 393.414 290.854C393.266 274.711 393.177 258.567 393.147 242.423C390.073 240.574 386.957 238.794 383.799 237.081C380.601 238.885 377.424 240.726 374.273 242.601C374.214 258.626 374.153 274.651 374.095 290.676C356.702 300.93 339.222 311.019 321.657 320.945C304.165 311.011 286.716 300.982 269.309 290.854C269.161 274.711 269.072 258.567 269.042 242.423C265.969 240.574 262.853 238.794 259.694 237.081C256.496 238.885 253.32 240.726 250.168 242.601C250.109 258.626 250.049 274.651 249.99 290.676C232.733 300.804 215.431 310.864 198.087 320.856C197.731 320.975 197.374 320.975 197.018 320.856C179.747 310.855 162.476 300.855 145.204 290.854C145.056 274.711 144.967 258.567 144.937 242.423C141.865 240.574 138.749 238.794 135.589 237.081C132.391 238.885 129.216 240.726 126.063 242.601C126.004 258.626 125.944 274.651 125.885 290.676C108.628 300.804 91.3267 310.864 73.982 320.856C73.6259 320.975 73.2698 320.975 72.9137 320.856C55.6423 310.855 38.3709 300.855 21.0995 290.854C20.9512 274.711 20.8622 258.567 20.8324 242.423C17.7599 240.574 14.644 238.794 11.4845 237.081C8.28614 238.885 5.11082 240.726 1.95853 242.601C1.89918 258.626 1.83982 274.651 1.78047 290.676C1.191 291.103 0.567805 291.459 -0.0891113 291.744C-0.0891113 291.091 -0.0891113 290.439 -0.0891113 289.785C0.0208246 289.766 0.109852 289.707 0.177972 289.607C0.237323 273.582 0.296676 257.557 0.356028 241.532C4.0653 239.381 7.7451 237.186 11.3955 234.944C15.1195 237.058 18.8289 239.195 22.5239 241.354C22.6723 257.497 22.7613 273.641 22.791 289.785C39.4392 299.431 56.0874 309.074 72.7356 318.719C73.0677 318.951 73.4238 319.01 73.8039 318.898C90.674 309.202 107.5 299.438 124.283 289.607C124.342 273.582 124.401 257.557 124.461 241.532C128.17 239.381 131.85 237.186 135.5 234.944C139.224 237.058 142.934 239.195 146.629 241.354C146.777 257.497 146.866 273.641 146.896 289.785C163.744 299.589 180.63 309.323 197.553 318.987C214.564 309.309 231.508 299.516 248.387 289.607C248.446 273.582 248.507 257.557 248.565 241.532C252.274 239.381 255.955 237.186 259.605 234.944C263.328 237.058 267.039 239.195 270.733 241.354C270.881 257.497 270.97 273.641 271 289.785C287.85 299.589 304.735 309.323 321.657 318.987C338.669 309.309 355.612 299.516 372.492 289.607C372.551 273.582 372.611 257.557 372.67 241.532C376.379 239.381 380.059 237.186 383.71 234.944C387.433 237.058 391.143 239.195 394.838 241.354C394.986 257.497 395.075 273.641 395.105 289.785C411.955 299.589 428.84 309.323 445.762 318.987C462.773 309.309 479.717 299.516 496.597 289.607C496.656 273.582 496.716 257.557 496.775 241.532C500.484 239.381 504.164 237.186 507.814 234.944C511.537 237.058 515.248 239.195 518.943 241.354C519.091 257.497 519.18 273.641 519.21 289.785C536.059 299.589 552.944 309.323 569.867 318.987C586.878 309.309 603.822 299.516 620.702 289.607C620.76 273.582 620.821 257.557 620.88 241.532C624.589 239.381 628.269 237.186 631.919 234.944C634.935 236.645 637.934 238.367 640.911 240.108Z" fill="#141413" fill-opacity="0.76"/>
<path opacity="0.957" fill-rule="evenodd" clip-rule="evenodd" d="M640.911 311.152C640.911 311.864 640.911 312.576 640.911 313.289C638.126 311.658 635.336 310.027 632.542 308.392C632.268 308.18 631.971 308.122 631.652 308.214C614.772 317.941 597.918 327.706 581.084 337.504C580.936 353.647 580.847 369.791 580.817 385.935C577.244 388.049 573.624 390.066 569.956 391.989C566.304 390.089 562.712 388.07 559.183 385.935C559.036 369.852 558.947 353.768 558.916 337.682C541.926 327.756 524.893 317.904 507.814 308.125C490.828 317.849 473.884 327.642 456.979 337.504C456.832 353.647 456.743 369.791 456.712 385.935C453.139 388.049 449.519 390.066 445.851 391.989C442.199 390.089 438.608 388.07 435.079 385.935C434.931 369.852 434.842 353.768 434.812 337.682C417.822 327.756 400.789 317.904 383.71 308.125C366.723 317.849 349.779 327.642 332.875 337.504C332.727 353.647 332.638 369.791 332.608 385.935C329.034 388.049 325.414 390.066 321.746 391.989C318.094 390.089 314.503 388.07 310.974 385.935C310.826 369.852 310.737 353.768 310.707 337.682C293.717 327.756 276.684 317.904 259.605 308.125C242.618 317.849 225.675 327.642 208.77 337.504C208.622 353.647 208.533 369.791 208.503 385.935C204.929 388.049 201.31 390.066 197.642 391.989C193.99 390.089 190.398 388.07 186.869 385.935C186.721 369.852 186.632 353.768 186.602 337.682C169.657 327.859 152.712 318.037 135.767 308.214C135.589 308.095 135.411 308.095 135.233 308.214C118.354 317.941 101.498 327.706 84.6653 337.504C84.517 353.647 84.428 369.791 84.3982 385.935C80.8245 388.049 77.2039 390.066 73.5369 391.989C69.8849 390.089 66.2941 388.07 62.7645 385.935C62.6162 369.852 62.5272 353.768 62.4974 337.682C45.5524 327.859 28.6076 318.037 11.6626 308.214C11.344 308.122 11.0473 308.18 10.7723 308.392C7.14692 310.5 3.52645 312.609 -0.0891113 314.713C-0.0891113 314.001 -0.0891113 313.289 -0.0891113 312.576C3.60996 310.518 7.28978 308.412 10.9503 306.255C11.2471 306.136 11.5438 306.136 11.8406 306.255C29.3041 316.307 46.7238 326.427 64.0999 336.614C64.1592 352.639 64.2187 368.664 64.278 384.689C67.3938 386.484 70.48 388.323 73.5369 390.209C76.5789 388.405 79.6354 386.624 82.7067 384.867C82.8255 368.723 82.9441 352.58 83.0628 336.436C100.364 326.331 117.695 316.271 135.055 306.255C135.352 306.136 135.649 306.136 135.945 306.255C153.409 316.307 170.829 326.427 188.205 336.614C188.263 352.639 188.324 368.664 188.383 384.689C191.499 386.484 194.584 388.323 197.642 390.209C200.683 388.405 203.74 386.624 206.811 384.867C206.931 368.723 207.048 352.58 207.168 336.436C224.469 326.331 241.799 316.271 259.16 306.255C259.457 306.136 259.753 306.136 260.05 306.255C277.514 316.307 294.933 326.427 312.309 336.614C312.368 352.639 312.429 368.664 312.487 384.689C315.603 386.484 318.689 388.323 321.746 390.209C324.787 388.405 327.845 386.624 330.916 384.867C331.035 368.723 331.153 352.58 331.272 336.436C348.69 326.23 366.169 316.139 383.71 306.166C401.355 316.177 418.922 326.326 436.414 336.614C436.473 352.639 436.533 368.664 436.592 384.689C439.708 386.484 442.794 388.323 445.851 390.209C448.892 388.405 451.949 386.624 455.021 384.867C455.14 368.723 455.258 352.58 455.377 336.436C472.794 326.23 490.274 316.139 507.814 306.166C525.46 316.177 543.027 326.326 560.519 336.614C560.578 352.639 560.638 368.664 560.697 384.689C563.813 386.484 566.899 388.323 569.956 390.209C572.997 388.405 576.054 386.624 579.126 384.867C579.245 368.723 579.362 352.58 579.482 336.436C596.783 326.331 614.114 316.271 631.474 306.255C631.771 306.136 632.067 306.136 632.364 306.255C635.194 307.936 638.042 309.569 640.911 311.152Z" fill="#141413" fill-opacity="0.76"/>
<path opacity="0.919" fill-rule="evenodd" clip-rule="evenodd" d="M640.911 335.368C640.911 336.021 640.911 336.673 640.911 337.326C637.934 335.585 634.935 333.863 631.919 332.163C621.903 337.898 611.904 343.654 601.917 349.434C601.769 365.518 601.68 381.601 601.65 397.687C591.842 403.287 582.08 408.956 572.359 414.691C571.583 415.202 570.752 415.589 569.867 415.849C559.274 409.973 548.74 403.98 538.262 397.865C538.232 381.78 538.143 365.696 537.995 349.612C527.92 343.818 517.86 338.001 507.814 332.163C497.799 337.898 487.799 343.654 477.812 349.434C477.664 365.518 477.575 381.601 477.545 397.687C467.738 403.287 457.975 408.956 448.255 414.691C447.478 415.202 446.647 415.589 445.762 415.849C435.169 409.973 424.636 403.98 414.157 397.865C414.127 381.78 414.038 365.696 413.89 349.612C403.816 343.818 393.756 338.001 383.71 332.163C373.694 337.898 363.694 343.654 353.707 349.434C353.559 365.518 353.47 381.601 353.44 397.687C343.633 403.287 333.87 408.956 324.15 414.691C323.374 415.202 322.542 415.589 321.657 415.849C311.065 409.973 300.531 403.98 290.052 397.865C290.022 381.78 289.933 365.696 289.785 349.612C279.711 343.818 269.651 338.001 259.605 332.163C249.589 337.898 239.59 343.654 229.603 349.434C229.455 365.518 229.366 381.601 229.335 397.687C219.528 403.287 209.765 408.956 200.045 414.691C199.269 415.202 198.437 415.589 197.553 415.849C186.96 409.973 176.426 403.98 165.948 397.865C165.918 381.78 165.829 365.696 165.681 349.612C155.606 343.818 145.546 338.001 135.5 332.163C125.485 337.898 115.484 343.654 105.498 349.434C105.35 365.518 105.26 381.601 105.231 397.687C95.4236 403.287 85.6603 408.956 75.9406 414.691C75.1639 415.202 74.3331 415.589 73.4478 415.849C62.8558 409.973 52.3208 403.98 41.843 397.865C41.8132 381.78 41.7242 365.696 41.5759 349.612C31.5011 343.818 21.441 338.001 11.3955 332.163C7.60595 334.427 3.77776 336.625 -0.0891113 338.751C-0.0891113 338.097 -0.0891113 337.446 -0.0891113 336.792C3.55681 334.643 7.23663 332.535 10.9503 330.471C11.3064 330.352 11.6626 330.352 12.0187 330.471C22.5088 336.532 32.9845 342.616 43.4455 348.722C43.4752 364.807 43.5642 380.891 43.7126 396.975C53.6685 402.649 63.6099 408.347 73.5369 414.068C83.508 408.251 93.4791 402.436 103.45 396.619C103.509 380.594 103.569 364.569 103.628 348.544C114.058 342.449 124.534 336.423 135.055 330.471C135.411 330.352 135.767 330.352 136.123 330.471C146.614 336.532 157.089 342.616 167.55 348.722C167.58 364.807 167.669 380.891 167.817 396.975C177.773 402.649 187.715 408.347 197.642 414.068C207.613 408.251 217.584 402.436 227.555 396.619C227.614 380.594 227.674 364.569 227.733 348.544C238.163 342.449 248.638 336.423 259.16 330.471C259.516 330.352 259.872 330.352 260.228 330.471C270.719 336.532 281.194 342.616 291.655 348.722C291.685 364.807 291.774 380.891 291.922 396.975C301.877 402.649 311.82 408.347 321.746 414.068C331.717 408.251 341.689 402.436 351.66 396.619C351.718 380.594 351.779 364.569 351.838 348.544C362.268 342.449 372.743 336.423 383.264 330.471C383.621 330.352 383.977 330.352 384.333 330.471C394.824 336.532 405.299 342.616 415.76 348.722C415.79 364.807 415.879 380.891 416.027 396.975C425.982 402.649 435.924 408.347 445.851 414.068C455.822 408.251 465.793 402.436 475.764 396.619C475.823 380.594 475.884 364.569 475.942 348.544C486.047 342.675 496.166 336.829 506.301 331.005C506.799 330.697 507.334 330.489 507.903 330.382C518.613 336.375 529.268 342.49 539.864 348.722C539.895 364.807 539.984 380.891 540.131 396.975C550.087 402.649 560.029 408.347 569.956 414.068C579.927 408.251 589.898 402.436 599.869 396.619C599.928 380.594 599.988 364.569 600.047 348.544C610.478 342.449 620.953 336.423 631.474 330.471C631.83 330.352 632.186 330.352 632.542 330.471C635.336 332.106 638.126 333.737 640.911 335.368Z" fill="#141413" fill-opacity="0.76"/>
<path opacity="0.939" fill-rule="evenodd" clip-rule="evenodd" d="M640.911 359.049C640.911 359.761 640.911 360.473 640.911 361.186C637.987 359.451 635.021 357.788 632.008 356.2C628.84 357.933 625.694 359.713 622.571 361.542C622.423 377.626 622.334 393.709 622.304 409.795C604.913 419.885 587.524 429.974 570.134 440.064C569.956 439.827 569.778 439.827 569.6 440.064C552.209 429.974 534.82 419.885 517.429 409.795C517.371 393.711 517.31 377.626 517.251 361.542C514.173 359.69 511.057 357.909 507.903 356.2C504.736 357.933 501.59 359.713 498.466 361.542C498.319 377.626 498.23 393.709 498.199 409.795C480.809 419.885 463.42 429.974 446.029 440.064C445.851 439.827 445.673 439.827 445.495 440.064C428.104 429.974 410.715 419.885 393.325 409.795C393.266 393.711 393.205 377.626 393.147 361.542C390.068 359.69 386.952 357.909 383.799 356.2C380.631 357.933 377.485 359.713 374.362 361.542C374.214 377.626 374.125 393.709 374.095 409.795C356.704 419.885 339.315 429.974 321.924 440.064C321.746 439.827 321.568 439.827 321.39 440.064C304 429.974 286.611 419.885 269.22 409.795C269.161 393.711 269.101 377.626 269.042 361.542C265.963 359.69 262.847 357.909 259.694 356.2C256.526 357.933 253.38 359.713 250.257 361.542C250.109 377.626 250.02 393.709 249.99 409.795C232.599 419.885 215.21 429.974 197.82 440.064C197.642 439.827 197.464 439.827 197.285 440.064C179.895 429.974 162.505 419.885 145.115 409.795C145.056 393.711 144.996 377.626 144.937 361.542C141.858 359.69 138.742 357.909 135.589 356.2C132.421 357.933 129.276 359.713 126.152 361.542C126.004 377.626 125.915 393.709 125.885 409.795C108.495 419.885 91.1051 429.974 73.7149 440.064C73.5369 439.827 73.3588 439.827 73.1807 440.064C55.7906 429.974 38.4006 419.885 21.0105 409.795C20.9512 393.711 20.8917 377.626 20.8324 361.542C17.8498 359.768 14.8525 358.018 11.8406 356.289C11.4604 356.177 11.1043 356.236 10.7723 356.467C7.86404 358.159 4.95579 359.85 2.04756 361.542C1.89918 377.626 1.81015 393.709 1.78047 409.795C1.17715 410.192 0.553952 410.548 -0.0891113 410.863C-0.0891113 410.151 -0.0891113 409.439 -0.0891113 408.727C0.207422 392.702 0.385478 376.618 0.445055 360.473C4.16453 358.26 7.9037 356.152 11.6626 354.153C15.3127 356.259 18.9628 358.367 22.613 360.473C22.6427 376.618 22.7317 392.762 22.8801 408.905C39.736 418.639 56.5918 428.371 73.4478 438.106C90.3923 428.357 107.308 418.564 124.194 408.727C124.312 392.643 124.431 376.557 124.55 360.473C128.217 358.358 131.868 356.222 135.5 354.063C139.283 356.125 143.023 358.262 146.718 360.473C146.747 376.618 146.836 392.762 146.985 408.905C163.841 418.639 180.696 428.371 197.553 438.106C214.496 428.357 231.412 418.564 248.298 408.727C248.418 392.643 248.535 376.557 248.654 360.473C252.322 358.358 255.973 356.222 259.605 354.063C263.389 356.125 267.128 358.262 270.822 360.473C270.853 376.618 270.942 392.762 271.089 408.905C287.946 418.639 304.801 428.371 321.657 438.106C338.601 428.357 355.516 418.564 372.403 408.727C372.522 392.643 372.64 376.557 372.759 360.473C376.427 358.358 380.077 356.222 383.71 354.063C387.493 356.125 391.232 358.262 394.927 360.473C394.957 376.618 395.046 392.762 395.194 408.905C412.051 418.639 428.905 428.371 445.762 438.106C462.706 428.357 479.621 418.564 496.508 408.727C496.627 392.643 496.745 376.557 496.864 360.473C500.532 358.358 504.182 356.222 507.814 354.063C511.598 356.125 515.337 358.262 519.032 360.473C519.062 376.618 519.151 392.762 519.299 408.905C536.155 418.639 553.01 428.371 569.867 438.106C586.81 428.357 603.726 418.564 620.613 408.727C620.732 392.643 620.849 376.557 620.969 360.473C624.637 358.358 628.287 356.222 631.919 354.063C634.898 355.767 637.895 357.431 640.911 359.049Z" fill="#141413" fill-opacity="0.76"/>
<path opacity="0.957" fill-rule="evenodd" clip-rule="evenodd" d="M640.911 430.271C640.911 430.925 640.911 431.576 640.911 432.23C637.88 430.581 634.882 428.859 631.919 427.066C614.945 436.918 597.969 446.772 580.995 456.623C580.965 472.768 580.876 488.912 580.728 505.054C577.183 507.05 573.65 509.068 570.134 511.108C566.38 509.173 562.7 507.095 559.094 504.876C559.064 488.791 558.975 472.707 558.827 456.623C541.8 446.807 524.796 436.954 507.814 427.066C490.84 436.918 473.865 446.772 456.89 456.623C456.86 472.768 456.771 488.912 456.623 505.054C453.078 507.05 449.546 509.068 446.029 511.108C442.276 509.173 438.595 507.095 434.99 504.876C434.959 488.791 434.87 472.707 434.723 456.623C417.695 446.807 400.691 436.954 383.71 427.066C366.736 436.918 349.76 446.772 332.786 456.623C332.755 472.768 332.666 488.912 332.519 505.054C328.974 507.05 325.441 509.068 321.924 511.108C318.171 509.173 314.491 507.095 310.885 504.876C310.855 488.791 310.766 472.707 310.618 456.623C293.59 446.807 276.586 436.954 259.605 427.066C242.631 436.918 225.655 446.772 208.681 456.623C208.651 472.768 208.562 488.912 208.414 505.054C204.869 507.05 201.336 509.068 197.82 511.108C194.066 509.173 190.386 507.095 186.78 504.876C186.75 488.791 186.661 472.707 186.513 456.623C169.486 446.807 152.482 436.954 135.5 427.066C118.526 436.918 101.551 446.772 84.5763 456.623C84.5466 472.768 84.4575 488.912 84.3092 505.054C80.7632 507.05 77.2319 509.068 73.7149 511.108C69.9619 509.173 66.282 507.095 62.6755 504.876C62.6457 488.791 62.5567 472.707 62.4084 456.623C45.3811 446.807 28.3768 436.954 11.3955 427.066C7.60107 429.335 3.77288 431.53 -0.0891113 433.654C-0.0891113 433.001 -0.0891113 432.349 -0.0891113 431.696C3.6106 429.628 7.2904 427.522 10.9503 425.375C11.2471 425.255 11.5438 425.255 11.8406 425.375C29.2537 435.399 46.6439 445.459 64.0109 455.555C64.1592 471.639 64.2482 487.723 64.278 503.808C67.366 505.592 70.4524 507.373 73.5369 509.15C76.6494 507.416 79.7357 505.635 82.7957 503.808C82.855 487.724 82.9145 471.639 82.9738 455.555C100.288 445.424 117.649 435.364 135.055 425.375C135.352 425.255 135.649 425.255 135.945 425.375C153.358 435.399 170.749 445.459 188.116 455.555C188.263 471.639 188.352 487.723 188.383 503.808C191.47 505.592 194.558 507.373 197.642 509.15C200.754 507.416 203.84 505.635 206.9 503.808C206.959 487.724 207.02 471.639 207.079 455.555C224.393 445.424 241.753 435.364 259.16 425.375C259.457 425.255 259.753 425.255 260.05 425.375C277.464 435.399 294.853 445.459 312.22 455.555C312.368 471.639 312.457 487.723 312.487 503.808C315.575 505.592 318.662 507.373 321.746 509.15C324.859 507.416 327.944 505.635 331.005 503.808C331.064 487.724 331.124 471.639 331.183 455.555C348.586 445.281 366.095 435.191 383.71 425.286C401.339 435.214 418.877 445.303 436.325 455.555C436.473 471.639 436.562 487.723 436.592 503.808C439.68 505.592 442.767 507.373 445.851 509.15C448.963 507.416 452.049 505.635 455.11 503.808C455.169 487.724 455.229 471.639 455.288 455.555C472.691 445.281 490.199 435.191 507.814 425.286C525.444 435.214 542.982 445.303 560.43 455.555C560.578 471.639 560.667 487.723 560.697 503.808C563.784 505.592 566.872 507.373 569.956 509.15C573.068 507.416 576.154 505.635 579.215 503.808C579.273 487.724 579.334 471.639 579.393 455.555C596.707 445.424 614.067 435.364 631.474 425.375C632.188 425.284 632.841 425.462 633.433 425.909C635.9 427.41 638.393 428.865 640.911 430.271Z" fill="#141413" fill-opacity="0.76"/>
<path opacity="0.919" fill-rule="evenodd" clip-rule="evenodd" d="M640.911 454.309C640.911 455.021 640.911 455.733 640.911 456.445C637.937 454.69 634.941 452.97 631.919 451.282C621.891 457.037 611.859 462.793 601.828 468.553C601.797 484.639 601.708 500.722 601.561 516.806C591.1 522.883 580.625 528.937 570.134 534.968C569.69 534.977 569.245 534.829 568.798 534.523C558.649 528.677 548.5 522.83 538.351 516.984C538.203 500.901 538.114 484.817 538.084 468.731C528.02 462.868 517.93 457.053 507.814 451.282C497.786 457.037 487.755 462.793 477.723 468.553C477.693 484.639 477.604 500.722 477.456 516.806C466.995 522.883 456.52 528.937 446.029 534.968C445.586 534.977 445.141 534.829 444.694 534.523C434.544 528.677 424.395 522.83 414.246 516.984C414.098 500.901 414.009 484.817 413.979 468.731C403.915 462.868 393.825 457.053 383.71 451.282C373.682 457.037 363.65 462.793 353.618 468.553C353.588 484.639 353.499 500.722 353.351 516.806C342.89 522.883 332.415 528.937 321.924 534.968C321.481 534.977 321.036 534.829 320.589 534.523C310.44 528.677 300.291 522.83 290.141 516.984C289.994 500.901 289.905 484.817 289.874 468.731C279.811 462.868 269.72 457.053 259.605 451.282C249.577 457.037 239.545 462.793 229.514 468.553C229.483 484.639 229.394 500.722 229.246 516.806C218.786 522.883 208.311 528.937 197.82 534.968C197.376 534.977 196.931 534.829 196.484 534.523C186.335 528.677 176.186 522.83 166.037 516.984C165.888 500.901 165.799 484.817 165.77 468.731C155.783 462.921 145.783 457.134 135.767 451.371C135.449 451.278 135.152 451.337 134.877 451.549C125.069 457.24 115.246 462.907 105.409 468.553C105.379 484.639 105.29 500.722 105.142 516.806C94.6806 522.883 84.2051 528.937 73.7149 534.968C73.271 534.977 72.8259 534.829 72.3795 534.523C62.2303 528.677 52.0812 522.83 41.932 516.984C41.7837 500.901 41.6947 484.817 41.6649 468.731C31.6014 462.868 21.5115 457.053 11.3955 451.282C7.55074 453.456 3.72254 455.653 -0.0891113 457.87C-0.0891113 457.158 -0.0891113 456.445 -0.0891113 455.733C3.64033 453.63 7.3795 451.524 11.1284 449.412C11.3658 449.293 11.6032 449.293 11.8406 449.412C22.3459 455.496 32.8512 461.579 43.3564 467.663C43.5048 483.747 43.5938 499.83 43.6235 515.916C53.5685 521.66 63.5396 527.358 73.5369 533.009C83.5341 527.299 93.5053 521.541 103.45 515.738C103.48 499.652 103.569 483.569 103.717 467.485C114.223 461.461 124.728 455.436 135.233 449.412C135.47 449.293 135.708 449.293 135.945 449.412C146.451 455.496 156.956 461.579 167.461 467.663C167.609 483.747 167.699 499.83 167.728 515.916C177.673 521.66 187.644 527.358 197.642 533.009C207.639 527.299 217.611 521.541 227.555 515.738C227.585 499.652 227.674 483.569 227.822 467.485C237.852 461.698 247.884 455.911 257.913 450.124C258.487 449.808 259.08 449.54 259.694 449.323C270.34 455.388 280.964 461.502 291.566 467.663C291.714 483.747 291.803 499.83 291.833 515.916C301.777 521.66 311.748 527.358 321.746 533.009C331.744 527.299 341.715 521.541 351.66 515.738C351.69 499.652 351.779 483.569 351.927 467.485C361.957 461.698 371.988 455.911 382.018 450.124C382.591 449.808 383.184 449.54 383.799 449.323C394.445 455.388 405.069 461.502 415.671 467.663C415.818 483.747 415.907 499.83 415.938 515.916C425.882 521.66 435.853 527.358 445.851 533.009C455.849 527.299 465.82 521.541 475.764 515.738C475.795 499.652 475.884 483.569 476.031 467.485C486.061 461.698 496.093 455.911 506.123 450.124C506.696 449.808 507.289 449.54 507.903 449.323C518.549 455.388 529.174 461.502 539.775 467.663C539.923 483.747 540.012 499.83 540.042 515.916C549.987 521.66 559.958 527.358 569.956 533.009C579.954 527.299 589.925 521.541 599.869 515.738C599.899 499.652 599.988 483.569 600.136 467.485C610.641 461.461 621.147 455.436 631.652 449.412C632.033 449.3 632.389 449.359 632.72 449.59C635.43 451.212 638.162 452.785 640.911 454.309Z" fill="#141413" fill-opacity="0.76"/>
<path opacity="0.939" fill-rule="evenodd" clip-rule="evenodd" d="M640.911 478.168C640.911 478.822 640.911 479.473 640.911 480.127C637.904 478.546 634.937 476.884 632.008 475.141C628.817 476.959 625.643 478.799 622.482 480.661C622.452 496.747 622.363 512.83 622.215 528.914C605.455 538.582 588.717 548.287 572.003 558.026C571.304 558.407 570.591 558.733 569.867 559.005C552.375 549.072 534.925 539.042 517.518 528.914C517.399 512.77 517.282 496.627 517.162 480.483C514.077 478.702 510.989 476.922 507.903 475.141C504.713 476.959 501.538 478.799 498.377 480.661C498.347 496.747 498.258 512.83 498.11 528.914C481.35 538.582 464.613 548.287 447.899 558.026C447.199 558.407 446.487 558.733 445.762 559.005C428.27 549.072 410.82 539.042 393.414 528.914C393.294 512.77 393.177 496.627 393.058 480.483C389.972 478.702 386.884 476.922 383.799 475.141C380.608 476.959 377.433 478.799 374.273 480.661C374.242 496.747 374.153 512.83 374.006 528.914C357.245 538.582 340.508 548.287 323.794 558.026C323.094 558.407 322.382 558.733 321.657 559.005C304.165 549.072 286.716 539.042 269.309 528.914C269.19 512.77 269.072 496.627 268.953 480.483C265.867 478.702 262.78 476.922 259.694 475.141C256.503 476.959 253.328 478.799 250.168 480.661C250.138 496.747 250.049 512.83 249.901 528.914C232.629 538.915 215.358 548.915 198.087 558.916C197.588 559.05 197.113 558.991 196.662 558.738C179.51 548.798 162.357 538.855 145.204 528.914C145.085 512.77 144.967 496.627 144.848 480.483C141.762 478.702 138.675 476.922 135.589 475.141C132.399 476.959 129.224 478.799 126.063 480.661C126.034 496.747 125.944 512.83 125.796 528.914C108.525 538.915 91.2534 548.915 73.982 558.916C73.4829 559.05 73.008 558.991 72.5576 558.738C55.4049 548.798 38.2521 538.855 21.0995 528.914C20.9807 512.77 20.8622 496.627 20.7434 480.483C17.6571 478.702 14.5708 476.922 11.4845 475.141C8.2946 476.959 5.11928 478.799 1.95853 480.661C1.92885 496.747 1.83982 512.83 1.69144 528.914C1.14364 529.306 0.550126 529.603 -0.0891113 529.804C-0.0891113 529.151 -0.0891113 528.499 -0.0891113 527.846C0.0208246 527.826 0.109852 527.767 0.177972 527.668C0.237323 511.643 0.296676 495.618 0.356028 479.593C4.0653 477.442 7.7451 475.246 11.3955 473.005C15.0614 475.209 18.7709 477.346 22.5239 479.415C22.6723 495.557 22.7613 511.701 22.791 527.846C39.7063 537.639 56.6216 547.432 73.5369 557.225C90.4521 547.373 107.367 537.52 124.283 527.668C124.342 511.643 124.401 495.618 124.461 479.593C128.17 477.442 131.85 475.246 135.5 473.005C139.166 475.209 142.876 477.346 146.629 479.415C146.777 495.557 146.866 511.701 146.896 527.846C163.811 537.639 180.726 547.432 197.642 557.225C214.557 547.373 231.472 537.52 248.387 527.668C248.446 511.643 248.507 495.618 248.565 479.593C252.274 477.442 255.955 475.246 259.605 473.005C263.271 475.209 266.98 477.346 270.733 479.415C270.881 495.557 270.97 511.701 271 527.846C287.916 537.639 304.831 547.432 321.746 557.225C338.662 547.373 355.577 537.52 372.492 527.668C372.551 511.643 372.611 495.618 372.67 479.593C376.379 477.442 380.059 475.246 383.71 473.005C387.376 475.209 391.085 477.346 394.838 479.415C394.986 495.557 395.075 511.701 395.105 527.846C412.02 537.639 428.936 547.432 445.851 557.225C462.766 547.373 479.682 537.52 496.597 527.668C496.656 511.643 496.716 495.618 496.775 479.593C500.484 477.442 504.164 475.246 507.814 473.005C511.481 475.209 515.189 477.346 518.943 479.415C519.091 495.557 519.18 511.701 519.21 527.846C536.125 537.639 553.04 547.432 569.956 557.225C586.871 547.373 603.786 537.52 620.702 527.668C620.76 511.643 620.821 495.618 620.88 479.593C624.589 477.442 628.269 475.246 631.919 473.005C634.878 474.796 637.875 476.516 640.911 478.168Z" fill="#141413" fill-opacity="0.76"/>
<path opacity="0.957" fill-rule="evenodd" clip-rule="evenodd" d="M640.911 549.212C640.911 549.924 640.911 550.637 640.911 551.349C638.007 549.659 635.099 547.968 632.186 546.274C632.008 546.155 631.83 546.155 631.652 546.274C614.826 556.083 597.969 565.846 581.084 575.564C580.936 591.707 580.847 607.851 580.817 623.996C577.244 626.109 573.624 628.126 569.956 630.049C566.304 628.15 562.712 626.13 559.183 623.996C559.036 607.912 558.947 591.828 558.916 575.743C541.88 565.889 524.845 556.037 507.814 546.185C490.887 556 473.941 565.793 456.979 575.564C456.832 591.707 456.743 607.851 456.712 623.996C453.139 626.109 449.519 628.126 445.851 630.049C442.199 628.15 438.608 626.13 435.079 623.996C434.931 607.912 434.842 591.828 434.812 575.743C417.775 565.889 400.741 556.037 383.71 546.185C366.782 556 349.836 565.793 332.875 575.564C332.727 591.707 332.638 607.851 332.608 623.996C329.034 626.109 325.414 628.126 321.746 630.049C318.094 628.15 314.503 626.13 310.974 623.996C310.826 607.912 310.737 591.828 310.707 575.743C293.671 565.889 276.636 556.037 259.605 546.185C242.677 556 225.732 565.793 208.77 575.564C208.622 591.707 208.533 607.851 208.503 623.996C204.929 626.109 201.31 628.126 197.642 630.049C193.99 628.15 190.398 626.13 186.869 623.996C186.721 607.912 186.632 591.828 186.602 575.743C169.643 565.942 152.698 556.119 135.767 546.274C135.159 546.397 134.565 546.636 133.987 546.987C117.546 556.513 101.106 566.038 84.6653 575.564C84.517 591.707 84.428 607.851 84.3982 623.996C80.8245 626.109 77.2039 628.126 73.5369 630.049C69.8849 628.15 66.2941 626.13 62.7645 623.996C62.6162 607.912 62.5272 591.828 62.4974 575.743C45.5378 565.942 28.593 556.119 11.6626 546.274C11.4845 546.155 11.3064 546.155 11.1284 546.274C7.4092 548.48 3.67003 550.647 -0.0891113 552.773C-0.0891113 552.12 -0.0891113 551.468 -0.0891113 550.815C3.40774 548.769 6.9095 546.721 10.4162 544.672C10.9265 544.412 11.4606 544.353 12.0187 544.494C29.3937 554.531 46.7541 564.591 64.0999 574.674C64.1297 590.76 64.2187 606.843 64.367 622.927C67.4383 624.685 70.4948 626.465 73.5369 628.269C76.5789 626.465 79.6354 624.685 82.7067 622.927C82.8255 606.783 82.9441 590.64 83.0628 574.496C100.215 564.555 117.368 554.613 134.521 544.672C135.031 544.412 135.565 544.353 136.123 544.494C153.498 554.531 170.859 564.591 188.205 574.674C188.235 590.76 188.324 606.843 188.472 622.927C191.543 624.685 194.6 626.465 197.642 628.269C200.683 626.465 203.74 624.685 206.811 622.927C206.931 606.783 207.048 590.64 207.168 574.496C224.32 564.555 241.474 554.613 258.626 544.672C259.137 544.412 259.671 544.353 260.228 544.494C277.603 554.531 294.963 564.591 312.309 574.674C312.34 590.76 312.429 606.843 312.576 622.927C315.648 624.685 318.705 626.465 321.746 628.269C324.787 626.465 327.845 624.685 330.916 622.927C331.035 606.783 331.153 590.64 331.272 574.496C348.424 564.555 365.578 554.613 382.73 544.672C383.241 544.412 383.776 544.353 384.333 544.494C401.707 554.531 419.068 564.591 436.414 574.674C436.444 590.76 436.533 606.843 436.681 622.927C439.753 624.685 442.81 626.465 445.851 628.269C448.892 626.465 451.949 624.685 455.021 622.927C455.14 606.783 455.258 590.64 455.377 574.496C472.648 564.495 489.92 554.495 507.191 544.494C507.894 544.332 508.548 544.451 509.15 544.85C526.288 554.769 543.411 564.71 560.519 574.674C560.549 590.76 560.638 606.843 560.786 622.927C563.857 624.685 566.915 626.465 569.956 628.269C572.997 626.465 576.054 624.685 579.126 622.927C579.245 606.783 579.362 590.64 579.482 574.496C596.753 564.495 614.024 554.495 631.296 544.494C631.711 544.374 632.127 544.374 632.542 544.494C635.315 546.112 638.105 547.685 640.911 549.212Z" fill="#141413" fill-opacity="0.76"/>
<path opacity="0.917" fill-rule="evenodd" clip-rule="evenodd" d="M53.8617 640.911C52.6746 640.911 51.4877 640.911 50.3006 640.911C47.4779 639.276 44.6587 637.615 41.843 635.925C41.7837 619.9 41.7242 603.875 41.6649 587.85C31.6042 581.93 21.5145 576.054 11.3955 570.223C7.60595 572.488 3.77776 574.685 -0.0891113 576.811C-0.0891113 576.157 -0.0891113 575.506 -0.0891113 574.852C3.55681 572.703 7.23663 570.595 10.9503 568.531C11.3064 568.412 11.6626 568.412 12.0187 568.531C22.4942 574.616 32.9699 580.698 43.4455 586.782C43.4752 602.868 43.5642 618.951 43.7126 635.035C47.1358 636.953 50.5189 638.911 53.8617 640.911Z" fill="#141413" fill-opacity="0.76"/>
<path opacity="0.916" fill-rule="evenodd" clip-rule="evenodd" d="M177.966 640.911C176.779 640.911 175.592 640.911 174.405 640.911C171.583 639.276 168.763 637.615 165.948 635.925C165.888 619.9 165.829 603.875 165.77 587.85C155.709 581.93 145.619 576.054 135.5 570.223C125.543 576.047 115.542 581.805 105.498 587.494C105.35 603.578 105.26 619.662 105.231 635.747C102.326 637.451 99.4477 639.171 96.595 640.911C95.408 640.911 94.221 640.911 93.0339 640.911C96.423 638.833 99.8654 636.816 103.361 634.857C103.509 618.773 103.599 602.69 103.628 586.604C113.733 580.735 123.853 574.89 133.987 569.066C134.485 568.758 135.019 568.549 135.589 568.442C146.3 574.436 156.954 580.55 167.55 586.782C167.58 602.868 167.669 618.951 167.817 635.035C171.241 636.953 174.624 638.911 177.966 640.911Z" fill="#141413" fill-opacity="0.76"/>
<path opacity="0.916" fill-rule="evenodd" clip-rule="evenodd" d="M302.071 640.911C300.884 640.911 299.698 640.911 298.51 640.911C295.688 639.276 292.867 637.615 290.052 635.925C289.994 619.9 289.933 603.875 289.874 587.85C279.814 581.93 269.724 576.054 259.605 570.223C249.648 576.047 239.647 581.805 229.603 587.494C229.455 603.578 229.366 619.662 229.335 635.747C226.431 637.451 223.552 639.171 220.7 640.911C219.512 640.911 218.326 640.911 217.139 640.911C220.527 638.833 223.971 636.816 227.466 634.857C227.614 618.773 227.703 602.69 227.733 586.604C237.838 580.735 247.957 574.89 258.091 569.066C258.59 568.758 259.124 568.549 259.694 568.442C270.404 574.436 281.059 580.55 291.655 586.782C291.685 602.868 291.774 618.951 291.922 635.035C295.346 636.953 298.729 638.911 302.071 640.911Z" fill="#141413" fill-opacity="0.76"/>
<path opacity="0.916" fill-rule="evenodd" clip-rule="evenodd" d="M426.176 640.911C424.988 640.911 423.802 640.911 422.615 640.911C419.793 639.276 416.972 637.615 414.157 635.925C414.098 619.9 414.038 603.875 413.979 587.85C403.919 581.93 393.829 576.054 383.71 570.223C373.753 576.047 363.751 581.805 353.707 587.494C353.56 603.578 353.47 619.662 353.44 635.747C350.536 637.451 347.657 639.171 344.805 640.911C343.617 640.911 342.431 640.911 341.243 640.911C344.632 638.833 348.075 636.816 351.571 634.857C351.718 618.773 351.807 602.69 351.838 586.604C361.942 580.735 372.061 574.89 382.196 569.066C382.695 568.758 383.229 568.549 383.799 568.442C394.509 574.436 405.164 580.55 415.76 586.782C415.79 602.868 415.879 618.951 416.027 635.035C419.451 636.953 422.834 638.911 426.176 640.911Z" fill="#141413" fill-opacity="0.76"/>
<path opacity="0.916" fill-rule="evenodd" clip-rule="evenodd" d="M550.281 640.911C549.093 640.911 547.907 640.911 546.72 640.911C543.897 639.276 541.077 637.615 538.262 635.925C538.203 619.9 538.143 603.875 538.084 587.85C528.024 581.93 517.933 576.054 507.814 570.223C497.858 576.047 487.856 581.805 477.812 587.494C477.664 603.578 477.575 619.662 477.545 635.747C474.641 637.451 471.762 639.171 468.909 640.911C467.722 640.911 466.536 640.911 465.348 640.911C468.737 638.833 472.18 636.816 475.675 634.857C475.823 618.773 475.912 602.69 475.942 586.604C486.047 580.735 496.166 574.89 506.301 569.066C506.799 568.758 507.334 568.549 507.903 568.442C518.613 574.436 529.268 580.55 539.864 586.782C539.895 602.868 539.984 618.951 540.131 635.035C543.555 636.953 546.939 638.911 550.281 640.911Z" fill="#141413" fill-opacity="0.76"/>
<path opacity="0.917" fill-rule="evenodd" clip-rule="evenodd" d="M640.911 573.428C640.911 574.081 640.911 574.733 640.911 575.387C637.875 573.734 634.878 572.014 631.919 570.223C621.962 576.047 611.961 581.805 601.917 587.494C601.769 603.578 601.68 619.662 601.65 635.747C598.746 637.451 595.866 639.171 593.014 640.911C591.826 640.911 590.641 640.911 589.453 640.911C592.841 638.833 596.285 636.816 599.78 634.857C599.928 618.773 600.017 602.69 600.047 586.604C610.508 580.557 620.985 574.534 631.474 568.531C631.83 568.412 632.186 568.412 632.542 568.531C635.336 570.166 638.126 571.797 640.911 573.428Z" fill="#141413" fill-opacity="0.76"/>
<path opacity="0.943" fill-rule="evenodd" clip-rule="evenodd" d="M22.7021 640.911C22.1087 640.911 21.515 640.911 20.9216 640.911C20.9513 627.142 20.9216 613.371 20.8325 599.602C17.7534 597.75 14.6374 595.97 11.4846 594.26C8.29044 596.059 5.11512 597.898 1.95866 599.78C1.86963 613.49 1.83995 627.201 1.86963 640.911C1.33546 640.911 0.801294 640.911 0.267128 640.911C0.20778 626.784 0.267131 612.659 0.445183 598.534C4.11283 596.418 7.76296 594.282 11.3956 592.124C15.1319 594.259 18.8711 596.395 22.6131 598.534C22.7021 612.659 22.7319 626.786 22.7021 640.911Z" fill="#141413" fill-opacity="0.76"/>
<path opacity="0.943" fill-rule="evenodd" clip-rule="evenodd" d="M146.807 640.911C146.213 640.911 145.62 640.911 145.026 640.911C145.056 627.142 145.026 613.371 144.937 599.602C141.858 597.75 138.742 595.97 135.589 594.26C132.395 596.059 129.22 597.898 126.063 599.78C125.974 613.49 125.945 627.201 125.974 640.911C125.44 640.911 124.906 640.911 124.372 640.911C124.313 626.784 124.372 612.659 124.55 598.534C128.217 596.418 131.868 594.282 135.5 592.124C139.237 594.259 142.976 596.395 146.718 598.534C146.807 612.659 146.837 626.786 146.807 640.911Z" fill="#141413" fill-opacity="0.76"/>
<path opacity="0.943" fill-rule="evenodd" clip-rule="evenodd" d="M270.912 640.911C270.319 640.911 269.724 640.911 269.131 640.911C269.161 627.142 269.131 613.371 269.042 599.602C265.963 597.75 262.847 595.97 259.694 594.26C256.5 596.059 253.325 597.898 250.168 599.78C250.079 613.49 250.049 627.201 250.079 640.911C249.545 640.911 249.011 640.911 248.477 640.911C248.418 626.784 248.477 612.659 248.655 598.534C252.323 596.418 255.973 594.282 259.605 592.124C263.341 594.259 267.08 596.395 270.823 598.534C270.912 612.659 270.942 626.786 270.912 640.911Z" fill="#141413" fill-opacity="0.76"/>
<path opacity="0.943" fill-rule="evenodd" clip-rule="evenodd" d="M395.016 640.911C394.423 640.911 393.829 640.911 393.236 640.911C393.266 627.142 393.236 613.371 393.147 599.602C390.068 597.75 386.952 595.97 383.799 594.26C380.605 596.059 377.43 597.898 374.273 599.78C374.184 613.49 374.154 627.201 374.184 640.911C373.65 640.911 373.115 640.911 372.581 640.911C372.523 626.784 372.581 612.659 372.759 598.534C376.427 596.418 380.077 594.282 383.71 592.124C387.445 594.259 391.185 596.395 394.927 598.534C395.016 612.659 395.047 626.786 395.016 640.911Z" fill="#141413" fill-opacity="0.76"/>
<path opacity="0.943" fill-rule="evenodd" clip-rule="evenodd" d="M519.121 640.911C518.528 640.911 517.933 640.911 517.341 640.911C517.371 627.142 517.341 613.371 517.251 599.602C514.173 597.75 511.057 595.97 507.904 594.26C504.709 596.059 501.535 597.898 498.378 599.78C498.289 613.49 498.258 627.201 498.289 640.911C497.754 640.911 497.22 640.911 496.686 640.911C496.627 626.784 496.686 612.659 496.864 598.534C500.532 596.418 504.182 594.282 507.815 592.124C511.55 594.259 515.289 596.395 519.032 598.534C519.121 612.659 519.151 626.786 519.121 640.911Z" fill="#141413" fill-opacity="0.76"/>
<path opacity="0.974" fill-rule="evenodd" clip-rule="evenodd" d="M640.911 597.287C640.911 597.941 640.911 598.593 640.911 599.246C637.941 597.583 634.975 595.922 632.008 594.26C628.814 596.059 625.639 597.898 622.482 599.78C622.393 613.49 622.363 627.201 622.393 640.911C621.859 640.911 621.325 640.911 620.791 640.911C620.732 626.784 620.791 612.659 620.969 598.534C624.637 596.418 628.287 594.282 631.919 592.124C634.934 593.824 637.93 595.544 640.911 597.287Z" fill="#141413" fill-opacity="0.76"/>
</g>
<defs>
<clipPath id="clip0_47_54">
<rect width="641" height="641" fill="white"/>
</clipPath>
</defs>
</svg>
