<svg width="311" height="112" viewBox="0 0 311 112" fill="none" xmlns="http://www.w3.org/2000/svg">
<g clip-path="url(#clip0_801_1307)">
<g clip-path="url(#clip1_801_1307)">
<path d="M90.0795 7.61532L100.5 -2.8431L79.6695 -23.78L58.8295 -2.8431L69.2495 7.61532L79.6695 -2.8431L90.0795 7.61532Z" fill="#2F2F2F" fill-opacity="0.11"/>
<path d="M225.5 -2.8431L235.92 7.61532L246.329 -2.8431L256.75 7.61532L267.17 -2.8431L246.329 -23.78L225.5 -2.8431Z" fill="#2F2F2F" fill-opacity="0.11"/>
<path d="M-3.67049 -44.7069L69.2495 28.5523L79.6695 18.0838L-3.67049 -65.6338L-87.0005 18.0838L-76.5805 28.5523L-3.67049 -44.7069Z" fill="#2F2F2F" fill-opacity="0.11"/>
<path d="M48.4195 49.4791L58.8295 39.0107L-3.67049 -23.78L-66.1705 39.0107L-55.7505 49.4791L-3.67049 -2.8431L48.4195 49.4791Z" fill="#2F2F2F" fill-opacity="0.11"/>
<path d="M27.5795 70.4059L37.9995 59.9476L-3.67049 18.0837L-45.3305 59.9476L-34.9205 70.4059L-3.67049 39.0106L27.5795 70.4059Z" fill="#2F2F2F" fill-opacity="0.11"/>
<path d="M6.74951 91.3429L17.1695 80.8744L-3.67049 59.9475L-24.5005 80.8744L-14.0805 91.3429L-3.67049 80.8744L6.74951 91.3429Z" fill="#2F2F2F" fill-opacity="0.11"/>
<path d="M79.6695 18.0838L90.0795 28.5523L163 -44.7069L235.92 28.5523L246.329 18.0838L163 -65.6338L79.6695 18.0838Z" fill="#2F2F2F" fill-opacity="0.11"/>
<path d="M100.5 39.0107L110.92 49.4791L163 -2.8431L215.079 49.4791L225.5 39.0107L163 -23.78L100.5 39.0107Z" fill="#2F2F2F" fill-opacity="0.11"/>
<path d="M121.33 59.9476L131.75 70.4059L163 39.0106L194.25 70.4059L204.67 59.9476L163 18.0837L121.33 59.9476Z" fill="#2F2F2F" fill-opacity="0.11"/>
<path d="M142.17 80.8744L152.58 91.3429L163 80.8744L173.42 91.3429L183.829 80.8744L163 59.9475L142.17 80.8744Z" fill="#2F2F2F" fill-opacity="0.11"/>
<path d="M246.329 18.0838L256.75 28.5523L329.67 -44.7069L402.579 28.5523L413 18.0838L329.67 -65.6338L246.329 18.0838Z" fill="#2F2F2F" fill-opacity="0.11"/>
<path d="M267.17 39.0107L277.579 49.4791L329.67 -2.8431L381.75 49.4791L392.17 39.0107L329.67 -23.78L267.17 39.0107Z" fill="#2F2F2F" fill-opacity="0.11"/>
<path d="M288 59.9476L298.42 70.4059L329.67 39.0106L360.92 70.4059L371.329 59.9476L329.67 18.0837L288 59.9476Z" fill="#2F2F2F" fill-opacity="0.11"/>
<path d="M308.829 80.8744L319.25 91.3429L329.67 80.8744L340.079 91.3429L350.5 80.8744L329.67 59.9475L308.829 80.8744Z" fill="#2F2F2F" fill-opacity="0.11"/>
<path d="M152.58 112.27L163 101.801L79.6695 18.0837L-3.67049 101.801L6.74951 112.27L79.6695 39.0106L152.58 112.27Z" fill="#2F2F2F" fill-opacity="0.11"/>
<path d="M131.75 133.197L142.17 122.738L79.6695 59.9475L17.1695 122.738L27.5795 133.197L79.6695 80.8744L131.75 133.197Z" fill="#2F2F2F" fill-opacity="0.11"/>
<path d="M110.92 154.134L121.33 143.665L79.6695 101.801L37.9995 143.665L48.4195 154.134L79.6695 122.738L110.92 154.134Z" fill="#2F2F2F" fill-opacity="0.11"/>
<path d="M163 101.801L173.42 112.27L246.329 39.0106L319.25 112.27L329.67 101.801L246.329 18.0837L163 101.801Z" fill="#2F2F2F" fill-opacity="0.11"/>
<path d="M183.829 122.738L194.25 133.197L246.329 80.8744L298.42 133.197L308.829 122.738L246.329 59.9475L183.829 122.738Z" fill="#2F2F2F" fill-opacity="0.11"/>
<path d="M204.67 143.665L215.079 154.134L246.329 122.738L277.579 154.134L288 143.665L246.329 101.801L204.67 143.665Z" fill="#2F2F2F" fill-opacity="0.11"/>
<path d="M-3.67049 122.738L69.2495 195.987L79.6695 185.529L-3.67049 101.801L-87.0005 185.529L-76.5805 195.987L-3.67049 122.738Z" fill="#2F2F2F" fill-opacity="0.11"/>
<path d="M79.6695 185.529L90.0795 195.987L163 122.738L235.92 195.987L246.329 185.529L163 101.801L79.6695 185.529Z" fill="#2F2F2F" fill-opacity="0.11"/>
<path d="M246.329 185.529L256.75 195.987L329.67 122.738L402.579 195.987L413 185.529L329.67 101.801L246.329 185.529Z" fill="#2F2F2F" fill-opacity="0.11"/>
</g>
</g>
<defs>
<clipPath id="clip0_801_1307">
<rect width="327" height="216" fill="white"/>
</clipPath>
<clipPath id="clip1_801_1307">
<rect width="500" height="502.326" fill="white" transform="translate(-87.0005 -233.079)"/>
</clipPath>
</defs>
</svg>
