<svg width="311" height="200" viewBox="0 0 311 200" fill="none" xmlns="http://www.w3.org/2000/svg">
<g clip-path="url(#clip0_800_1284)">
<g opacity="0.5">
<path d="M-82.4633 8.88607C-77.4296 9.7783 -72.3255 10.2134 -67.2133 10.1861C-41.5733 10.1861 -29.8233 0.796069 -16.9133 -7.81393C-5.99335 -15.1039 5.76665 -21.8139 27.4667 -21.8139C67.7467 -21.8139 73.7567 1.34608 103.807 8.25608C109.826 9.59696 115.98 10.2445 122.147 10.1861C147.787 10.1861 159.537 0.796069 172.447 -7.81393C183.367 -15.1039 195.127 -21.8139 216.827 -21.8139C257.107 -21.8139 263.117 1.34608 293.167 8.25608C299.186 9.59696 305.34 10.2445 311.507 10.1861C337.147 10.1861 348.897 0.796069 361.807 -7.81393C372.727 -15.1039 384.487 -21.8139 406.187 -21.8139C409.981 -21.8284 413.772 -21.598 417.537 -21.1239" stroke="white" stroke-miterlimit="10"/>
<path d="M-82.4633 6.18606C-70.6633 -1.81394 -58.8333 -9.73394 -35.2433 -9.73394C-29.0801 -9.79568 -22.93 -9.15148 -16.9133 -7.81394C13.1467 -0.913938 19.1566 22.2561 59.4366 22.2561C81.1266 22.2561 92.8867 15.5361 103.807 8.25607C116.717 -0.343931 128.467 -9.74393 154.107 -9.74393C160.274 -9.80236 166.427 -9.15482 172.447 -7.81394C202.497 -0.903938 208.507 22.2561 248.787 22.2561C270.487 22.2561 282.247 15.5361 293.167 8.25607C306.077 -0.343931 317.827 -9.74393 343.467 -9.74393C349.634 -9.80236 355.787 -9.15482 361.807 -7.81394C385.807 -2.29394 394.487 13.6061 417.537 19.7661" stroke="white" stroke-miterlimit="10"/>
<path d="M417.537 58.106C410.407 55.406 401.897 53.636 390.767 53.636C350.497 53.636 344.487 76.806 314.427 83.706C308.41 85.0469 302.26 85.6945 296.097 85.636C270.457 85.636 258.697 76.246 245.787 67.636C234.857 60.346 223.117 53.636 201.417 53.636C161.137 53.636 155.127 76.796 125.077 83.706C119.057 85.0469 112.904 85.6945 106.737 85.636C81.0966 85.636 69.3466 76.246 56.4366 67.636C45.5066 60.346 33.7567 53.636 12.0567 53.636C-28.2233 53.636 -34.2334 76.796 -64.2833 83.706C-70.2507 85.036 -76.3498 85.6835 -82.4633 85.636" stroke="white" stroke-miterlimit="10"/>
<path d="M417.537 74.486C400.537 83.966 389.837 97.716 358.807 97.716C337.107 97.716 325.347 90.996 314.427 83.716C301.517 75.116 289.767 65.716 264.127 65.716C257.96 65.6576 251.806 66.3051 245.787 67.646C215.787 74.556 209.727 97.716 169.457 97.716C147.757 97.716 136.007 90.996 125.077 83.716C112.167 75.116 100.417 65.716 74.7767 65.716C68.6097 65.6576 62.4563 66.3051 56.4366 67.646C26.3866 74.556 20.3767 97.716 -19.9033 97.716C-41.6033 97.716 -53.3533 90.996 -64.2833 83.716C-70.1133 79.816 -75.7433 75.776 -82.4633 72.506" stroke="white" stroke-miterlimit="10"/>
<path d="M-82.4633 105.126C-81.4633 105.736 -80.5633 106.356 -79.6333 106.986C-66.7233 115.586 -54.9733 124.986 -29.3333 124.986C-23.1664 125.044 -17.013 124.397 -10.9933 123.056C19.0567 116.146 25.0667 92.986 65.3466 92.986C87.0466 92.986 98.8067 99.706 109.727 106.986C122.637 115.586 134.387 124.986 160.027 124.986C166.194 125.044 172.347 124.397 178.367 123.056C208.417 116.146 214.427 92.986 254.697 92.986C276.397 92.986 288.147 99.706 299.077 106.986C311.987 115.586 323.737 124.986 349.377 124.986C355.544 125.044 361.697 124.397 367.717 123.056C389.557 118.056 398.717 104.426 417.537 97.366" stroke="white" stroke-miterlimit="10"/>
<path d="M-82.4633 107.696C-81.5433 107.446 -80.6033 107.206 -79.6333 106.986C-73.6137 105.645 -67.4603 104.998 -61.2933 105.056C-35.6533 105.056 -23.9033 114.446 -10.9933 123.056C-0.0733471 130.346 11.6866 137.056 33.3867 137.056C73.6666 137.056 79.6767 113.886 109.727 106.986C115.743 105.645 121.893 104.998 128.057 105.056C153.697 105.056 165.457 114.446 178.367 123.056C189.297 130.346 201.037 137.056 222.737 137.056C263.017 137.056 269.027 113.896 299.077 106.986C305.096 105.645 311.25 104.998 317.417 105.056C343.057 105.056 354.807 114.446 367.717 123.056C378.647 130.346 390.397 137.056 412.097 137.056C413.987 137.056 415.797 137.006 417.537 136.906" stroke="white" stroke-miterlimit="10"/>
<path d="M417.537 42.636C407.817 39.096 400.687 33.816 393.167 28.806C382.237 21.516 370.487 14.806 348.777 14.806C308.507 14.806 302.497 37.966 272.447 44.876C266.427 46.2169 260.274 46.8645 254.107 46.806C228.467 46.806 216.717 37.416 203.807 28.806C192.887 21.516 181.127 14.806 159.427 14.806C119.147 14.806 113.137 37.966 83.0867 44.876C77.067 46.2169 70.9136 46.8645 64.7467 46.806C39.1067 46.806 27.3567 37.416 14.4467 28.806C3.52666 21.516 -8.23335 14.806 -29.9333 14.806C-57.0433 14.806 -68.6233 25.296 -82.4633 34.266" stroke="white" stroke-miterlimit="10"/>
<path d="M417.537 27.0561C415.61 26.9361 413.61 26.8761 411.537 26.8761C405.373 26.8176 399.223 27.4652 393.207 28.8061C363.147 35.7061 357.137 58.8761 316.857 58.8761C295.157 58.8761 283.417 52.1561 272.487 44.8761C259.577 36.2761 247.817 26.8761 222.177 26.8761C216.013 26.8176 209.863 27.4652 203.847 28.8061C173.787 35.7061 167.777 58.8761 127.507 58.8761C105.807 58.8761 94.0466 52.1561 83.1266 44.8761C70.2166 36.2761 58.4667 26.8761 32.8267 26.8761C26.6597 26.8176 20.5063 27.4652 14.4867 28.8061C-15.5133 35.7161 -21.5734 58.8761 -61.8533 58.8761C-68.8026 58.9616 -75.7327 58.1277 -82.4633 56.3961" stroke="white" stroke-miterlimit="10"/>
<path d="M417.537 174.086C411.949 176.501 406.619 179.473 401.627 182.956C388.727 191.556 376.967 200.956 351.337 200.956C345.173 201.015 339.023 200.367 333.007 199.026C302.947 192.126 296.937 168.956 256.667 168.956C234.957 168.956 223.197 175.686 212.277 182.956C199.377 191.556 187.617 200.956 161.987 200.956C155.823 201.015 149.673 200.367 143.657 199.026C113.597 192.126 107.587 168.956 67.3066 168.956C45.5966 168.956 33.8366 175.686 22.9166 182.956C10.0166 191.556 -1.74336 200.956 -27.3734 200.956C-33.5511 201.011 -39.7148 200.357 -45.7434 199.006C-61.9434 195.296 -71.1534 186.856 -82.5034 179.856" stroke="white" stroke-miterlimit="10"/>
<path d="M417.537 188.886C412.518 186.217 407.168 184.223 401.627 182.956C395.597 181.612 389.434 180.964 383.257 181.026C357.627 181.026 345.867 190.406 332.967 199.026C322.047 206.316 310.297 213.026 288.587 213.026C248.307 213.026 242.297 189.856 212.237 182.956C206.22 181.615 200.07 180.968 193.907 181.026C168.277 181.026 156.517 190.406 143.617 199.026C132.697 206.316 120.937 213.026 99.2266 213.026C58.9466 213.026 52.9366 189.856 22.8766 182.956C16.8603 181.615 10.7103 180.968 4.54665 181.026C-21.0834 181.026 -32.8434 190.406 -45.7434 199.026C-55.3134 205.416 -65.5234 211.366 -82.5034 212.746" stroke="white" stroke-miterlimit="10"/>
<path d="M417.537 158.536C409.714 161.034 401.537 162.24 393.327 162.106C387.16 162.168 381.007 161.524 374.987 160.186C344.937 153.276 338.927 130.116 298.657 130.116C276.957 130.116 265.207 136.836 254.277 144.116C241.367 152.716 229.617 162.116 203.977 162.116C197.81 162.174 191.656 161.527 185.637 160.186C155.637 153.276 149.577 130.116 109.297 130.116C87.5966 130.116 75.8467 136.836 64.9167 144.116C52.0067 152.716 40.2567 162.116 14.6167 162.116C8.44303 162.176 2.28286 161.528 -3.74335 160.186C-33.7433 153.266 -39.7433 130.106 -80.0633 130.106C-80.8767 130.106 -81.6767 130.106 -82.4633 130.106" stroke="white" stroke-miterlimit="10"/>
<path d="M417.537 142.496C397.127 144.176 386.537 152.496 374.987 160.176C364.067 167.466 352.307 174.176 330.617 174.176C290.337 174.176 284.327 151.016 254.277 144.106C248.257 142.769 242.103 142.124 235.937 142.186C210.297 142.186 198.547 151.576 185.637 160.186C174.707 167.476 162.957 174.186 141.257 174.186C100.977 174.186 94.9667 151.026 64.9167 144.116C58.897 142.775 52.7436 142.128 46.5767 142.186C20.9367 142.186 9.18665 151.576 -3.72335 160.186C-14.6534 167.476 -26.4033 174.186 -48.1033 174.186C-63.4633 174.186 -73.8433 170.816 -82.4633 166.266" stroke="white" stroke-miterlimit="10"/>
</g>
</g>
<defs>
<clipPath id="clip0_800_1284">
<rect width="311" height="200" fill="white"/>
</clipPath>
</defs>
</svg>
